<?xml version="1.0" encoding="UTF-8" standalone="no"?>
<svg
   xmlns:dc="http://purl.org/dc/elements/1.1/"
   xmlns:cc="http://creativecommons.org/ns#"
   xmlns:rdf="http://www.w3.org/1999/02/22-rdf-syntax-ns#"
   xmlns:svg="http://www.w3.org/2000/svg"
   xmlns="http://www.w3.org/2000/svg"
   xmlns:sodipodi="http://sodipodi.sourceforge.net/DTD/sodipodi-0.dtd"
   xmlns:inkscape="http://www.inkscape.org/namespaces/inkscape"
   height="159"
   id="svg2"
   inkscape:version="0.48.3.1 r9886"
   sodipodi:docname="clker-1195427724688380074fire_cefa_01.svg"
   sodipodi:version="0.32"
   width="153"
   version="1.1"
   inkscape:export-filename="/home/mcr/galaxy/orlando/ietfdb/static/images/clker-1195427724688380074fire_cefa_01.png"
   inkscape:export-xdpi="14.117647"
   inkscape:export-ydpi="14.117647">
  <metadata
     id="metadata3">
    <rdf:RDF>
      <cc:Work
         rdf:about="">
        <dc:title>Fire</dc:title>
        <dc:description />
        <dc:subject>
          <rdf:Bag>
            <rdf:li>element</rdf:li>
          </rdf:Bag>
        </dc:subject>
        <dc:publisher>
          <cc:Agent
             rdf:about="http://www.openclipart.org/">
            <dc:title>Open Clip Art Library</dc:title>
          </cc:Agent>
        </dc:publisher>
        <dc:creator>
          <cc:Agent>
            <dc:title>cefa</dc:title>
          </cc:Agent>
        </dc:creator>
        <dc:rights>
          <cc:Agent>
            <dc:title />
          </cc:Agent>
        </dc:rights>
        <dc:date />
        <dc:format>image/svg+xml</dc:format>
        <dc:type
           rdf:resource="http://purl.org/dc/dcmitype/StillImage" />
        <cc:license
           rdf:resource="http://web.resource.org/cc/PublicDomain" />
        <dc:language>en</dc:language>
      </cc:Work>
      <cc:License
         rdf:about="http://web.resource.org/cc/PublicDomain">
        <cc:permits
           rdf:resource="http://web.resource.org/cc/Reproduction" />
        <cc:permits
           rdf:resource="http://web.resource.org/cc/Distribution" />
        <cc:permits
           rdf:resource="http://web.resource.org/cc/DerivativeWorks" />
      </cc:License>
    </rdf:RDF>
  </metadata>
  <defs
     id="defs649" />
  <sodipodi:namedview
     bordercolor="#666666"
     borderopacity="1.0"
     id="base"
     inkscape:current-layer="svg2"
     inkscape:cx="118.0529"
     inkscape:cy="61.707397"
     inkscape:pageopacity="0"
     inkscape:pageshadow="2"
     inkscape:window-height="744"
     inkscape:window-width="1280"
     inkscape:window-x="62"
     inkscape:window-y="207"
     inkscape:zoom="1"
     pagecolor="#ffffff"
     showgrid="false"
     inkscape:window-maximized="0" />
  <path
     d="M76 5C72.5344 9.5419 69.0949 14.322 68 20C70.9413 16.4874 73.3788 12.2834 75 8C77.1452 14.7839 83.0078 26.3287 83.1914 33C83.3188 37.6311 78.1067 41.354 79.213 46C80.9137 53.143 89.7303 56.1418 90 64C87.3842 62.0837 84.9595 60.3111 82 59C79.5141 71.8186 73.8605 82.7792 70 95L82 87C83.0179 91.4732 80.9633 94.637 81 99C84.6796 96.873 91.2669 88.461 95 89C100.567 79.7071 93.0678 73.7146 91.9275 65C90.8861 57.0417 93.6948 49.2478 91.9452 41C90.5204 34.2831 84.3836 29.9925 81.3781 24C78.3519 17.9662 78.8543 10.9395 76 5z"
     id="path10"
     style="fill:#fdc828; stroke:none;" />
  <path
     d="M62 7L63 8L62 7z"
     id="path16"
     style="fill:#8c7513; stroke:none;" />
  <path
     d="M61 8L62 9L61 8z"
     id="path18"
     style="fill:#5f5a0d; stroke:none;" />
  <path
     d="M62 8C55.654 15.9075 52.3437 31.5576 58 41C59.5098 38.7092 60.8366 36.4818 62 34C63.1818 36.4297 63.7305 38.3127 64 41C66.7304 34.4822 61.6307 26.7739 61.213 20C60.959 15.8815 63.2017 11.9572 62 8z"
     id="path20"
     style="fill:#fdc828; stroke:none;" />
  <path
     d="M73 8L74 9L73 8z"
     id="path22"
     style="fill:#8c7513; stroke:none;" />
  <path
     d="M75 8C65.1411 25.779 67.3755 39.9867 63.4853 59C60.2087 75.0144 52.6799 88.6567 42 101C39.3952 86.9694 46.3908 77.3322 47 64C31.0383 75.4884 29.8643 97.7707 39 114C53.4958 100.367 57.3323 76.9751 71 62L70 74C74.2685 66.9206 69.72 53.7556 79 51L79 71C80.9372 67.3627 81.4744 63.0701 82 59L90 64C91.1523 56.0001 81.7936 53.0182 79.9321 46C78.7242 41.4461 83.6361 37.5621 83.5625 33C83.4658 27.0101 77.5751 13.7362 75 8z"
     id="path24"
     style="fill:#fbcf93; stroke:none;" />
  <path
     d="M72 9L73 10L72 9z"
     id="path26"
     style="fill:#5f5a0d; stroke:none;" />
  <path
     d="M59 11L60 12L59 11M62.3333 11.6667C62.2778 11.7222 62.2222 12.7778 62.6667 12.3333C62.7222 12.2778 62.7778 11.2222 62.3333 11.6667z"
     id="path32"
     style="fill:#a6920b; stroke:none;" />
  <path
     d="M71 11L72 12L71 11z"
     id="path34"
     style="fill:#8c7513; stroke:none;" />
  <path
     d="M58 12L59 13L58 12z"
     id="path36"
     style="fill:#a6920b; stroke:none;" />
  <path
     d="M70 12L71 13L70 12z"
     id="path38"
     style="fill:#5f5a0d; stroke:none;" />
  <path
     d="M57 13L58 14L57 13z"
     id="path40"
     style="fill:#929164; stroke:none;" />
  <path
     d="M62 13L63 14L62 13z"
     id="path42"
     style="fill:#5f5a0d; stroke:none;" />
  <path
     d="M70 13L71 14L70 13z"
     id="path46"
     style="fill:#a6920b; stroke:none;" />
  <path
     d="M56 14L57 15L56 14z"
     id="path50"
     style="fill:#929164; stroke:none;" />
  <path
     d="M69 14L70 15L69 14z"
     id="path54"
     style="fill:#5f5a0d; stroke:none;" />
  <path
     d="M55 16L56 17L55 16z"
     id="path62"
     style="fill:#929164; stroke:none;" />
  <path
     d="M68 16L69 17L68 16z"
     id="path64"
     style="fill:#5f5a0d; stroke:none;" />
  <path
     d="M55 17C53.2394 22.9563 54.2348 28.9451 55 35C56.9516 30.349 56.9516 21.651 55 17z"
     id="path66"
     style="fill:#fbcf93; stroke:none;" />
  <path
     d="M67 18L68 19L67 18z"
     id="path68"
     style="fill:#5f5a0d; stroke:none;" />
  <path
     d="M67 19L68 20L67 19z"
     id="path72"
     style="fill:#a6920b; stroke:none;" />
  <path
     d="M79 19L80 20L79 19z"
     id="path74"
     style="fill:#8c7513; stroke:none;" />
  <path
     d="M53 20L53 28C54.1614 25.2301 54.1614 22.7699 53 20z"
     id="path76"
     style="fill:#fabc62; stroke:none;" />
  <path
     d="M67 20L66 25C67.3182 23.0739 67.6514 22.2341 67 20z"
     id="path78"
     style="fill:#f59e25; stroke:none;" />
  <path
     d="M66 21L67 22L66 21z"
     id="path82"
     style="fill:#5f5a0d; stroke:none;" />
  <path
     d="M61 22L62 23L61 22z"
     id="path84"
     style="fill:#a6920b; stroke:none;" />
  <path
     d="M80 22L81 23L80 22M81 24L82 25L81 24z"
     id="path88"
     style="fill:#8c7513; stroke:none;" />
  <path
     d="M66.3333 25.6667C66.2778 25.7222 66.2222 26.7778 66.6667 26.3333C66.7222 26.2778 66.7778 25.2222 66.3333 25.6667z"
     id="path92"
     style="fill:#fdc828; stroke:none;" />
  <path
     d="M82 26L83 27L82 26z"
     id="path94"
     style="fill:#8c7513; stroke:none;" />
  <path
     d="M65 27L65 30C65.6961 28.4463 65.6961 28.5537 65 27z"
     id="path96"
     style="fill:#fdc828; stroke:none;" />
  <path
     d="M84 29L85 30L84 29z"
     id="path100"
     style="fill:#a6920b; stroke:none;" />
  <path
     d="M64 30L63 33C64.7663 32.0214 64.9555 31.7782 64 30z"
     id="path102"
     style="fill:#fabc62; stroke:none;" />
  <path
     d="M85 30L86 31L85 30z"
     id="path104"
     style="fill:#8c7513; stroke:none;" />
  <path
     d="M86 31L87 32L86 31M87 32L88 33L87 32z"
     id="path110"
     style="fill:#5f5a0d; stroke:none;" />
  <path
     d="M62 34L63 35L62 34z"
     id="path114"
     style="fill:#5f5a0d; stroke:none;" />
  <path
     d="M61 35L62 36L61 35z"
     id="path120"
     style="fill:#a6920b; stroke:none;" />
  <path
     d="M89 35L90 36L89 35z"
     id="path124"
     style="fill:#a6920b; stroke:none;" />
  <path
     d="M103 35L104 36L103 35z"
     id="path126"
     style="fill:#8c7513; stroke:none;" />
  <path
     d="M90 36L91 37L90 36z"
     id="path132"
     style="fill:#8c7513; stroke:none;" />
  <path
     d="M103 36C102.933 43.9897 99.869 53.1497 98 61C100.348 59.1702 101.617 57.6373 103 55C107.837 60.9781 108.995 66.4482 109 74C112.23 66.3024 106.953 60.2812 105.973 53C105.116 46.6359 107.307 41.7804 103 36z"
     id="path136"
     style="fill:#fdc828; stroke:none;" />
  <path
     d="M104 36L105 37L104 36z"
     id="path138"
     style="fill:#5f5a0d; stroke:none;" />
  <path
     d="M60 37L61 38L60 37z"
     id="path144"
     style="fill:#8c7513; stroke:none;" />
  <path
     d="M91 37L92 38L91 37z"
     id="path146"
     style="fill:#5f5a0d; stroke:none;" />
  <path
     d="M104 37L105 38L104 37z"
     id="path148"
     style="fill:#8c7513; stroke:none;" />
  <path
     d="M44 38C46.4156 43.4549 50.6321 47.9107 51.6705 54C53.378 64.013 50.288 72.8336 54 83C52.8137 81.8137 52.4721 81.4162 52 80C43.7346 82.1236 38.1586 88.4495 44 97C47.1839 92.5676 52.4376 87.7776 54.4113 82.7145C56.186 78.1617 54.7607 72.7792 56.4398 68C58.818 61.2311 62.9266 55.161 64 48C58.2835 56.6084 54.0285 67.6587 54 78C49.829 64.0197 57.9473 48.0612 44 38z"
     id="path150"
     style="fill:#f59e25; stroke:none;" />
  <path
     d="M59 38L60 39L59 38z"
     id="path154"
     style="fill:#a6920b; stroke:none;" />
  <path
     d="M44 40L44 43C44.6961 41.4463 44.6961 41.5537 44 40z"
     id="path162"
     style="fill:#fdc828; stroke:none;" />
  <path
     d="M58 40L59 41L58 40z"
     id="path164"
     style="fill:#5f5a0d; stroke:none;" />
  <path
     d="M105 40L106 41L105 40z"
     id="path166"
     style="fill:#a6920b; stroke:none;" />
  <path
     d="M45 41L47 53C52.0657 49.7027 48.6482 44.1382 45 41z"
     id="path170"
     style="fill:#fbcf93; stroke:none;" />
  <path
     d="M48 41L49 42L48 41z"
     id="path172"
     style="fill:#8c7513; stroke:none;" />
  <path
     d="M57 41L58 42L57 41z"
     id="path174"
     style="fill:#5f5a0d; stroke:none;" />
  <path
     d="M49 42L50 43L49 42z"
     id="path178"
     style="fill:#5f5a0d; stroke:none;" />
  <path
     d="M50 43L51 44L50 43z"
     id="path182"
     style="fill:#222121; stroke:none;" />
  <path
     d="M45.3333 44.6667C45.2778 44.7222 45.2222 45.7778 45.6667 45.3333C45.7222 45.2778 45.7778 44.2222 45.3333 44.6667z"
     id="path188"
     style="fill:#fabc62; stroke:none;" />
  <path
     d="M51 45L52 46L51 45z"
     id="path192"
     style="fill:#222121; stroke:none;" />
  <path
     d="M64 45L64 48C64.6961 46.4463 64.6961 46.5537 64 45M45 46L45 49C45.6961 47.4463 45.6961 47.5537 45 46z"
     id="path194"
     style="fill:#fdc828; stroke:none;" />
  <path
     d="M51 46L52 47L51 46z"
     id="path196"
     style="fill:#5f5a0d; stroke:none;" />
  <path
     d="M101 46L102 47L101 46z"
     id="path204"
     style="fill:#a6920b; stroke:none;" />
  <path
     d="M99 48L100 49L99 48z"
     id="path208"
     style="fill:#929164; stroke:none;" />
  <path
     d="M46 49C46 61.1195 39.1459 66.1049 36 77L47 64C45.845 77.2295 38.6804 87.0569 42 101C47.2048 96.7626 51.6221 90.2736 54 84C49.7489 87.4605 46.44 92.1005 44 97C42.0464 92.9404 40.5604 87.0058 44.3179 83.3889C46.6583 81.1361 50.709 81.4159 51.6674 77.8071C53.5957 70.5469 52.3875 56.4737 51 49L47 53C46.8259 51.3148 46.683 50.506 46 49z"
     id="path214"
     style="fill:#fabc62; stroke:none;" />
  <path
     d="M62 50L63 51L62 50z"
     id="path222"
     style="fill:#5f5a0d; stroke:none;" />
  <path
     d="M98 50C96.9525 53.5763 97.1412 56.3854 98 60C99.3457 56.793 99.3457 53.207 98 50z"
     id="path224"
     style="fill:#fbcf93; stroke:none;" />
  <path
     d="M63 51C59.7682 62.2186 55 69.9164 55 82C60.8762 76.1357 66.3325 58.9447 63 51M71 74C72.8782 73.8241 74.1994 73.5618 76 73C73.3756 90.7709 58 100.268 58 119C63.873 105.415 73.3069 92.6182 77.4051 78C79.8417 69.3085 79 59.923 79 51C70.8593 52.3289 71.8888 67.1177 71 74z"
     id="path226"
     style="fill:#fabc62; stroke:none;" />
  <path
     d="M105 51L106 52L105 51z"
     id="path228"
     style="fill:#a6920b; stroke:none;" />
  <path
     d="M94 53L95 54L94 53z"
     id="path234"
     style="fill:#ffffff; stroke:none;" />
  <path
     d="M94 54L95 55L94 54M106 54C106.545 55.6352 106.365 55.455 108 56C107.455 54.3648 107.635 54.5451 106 54z"
     id="path240"
     style="fill:#222121; stroke:none;" />
  <path
     d="M60 55L61 56L60 55z"
     id="path242"
     style="fill:#8c7513; stroke:none;" />
  <path
     d="M94 55C93.6144 60.1078 93.9149 63.2679 96 68L98 68L100 62C95.9538 61.4573 95.6262 58.2621 94 55z"
     id="path244"
     style="fill:#ffffff; stroke:none;" />
  <path
     d="M106 55L107 56L106 55z"
     id="path248"
     style="fill:#8c7513; stroke:none;" />
  <path
     d="M107 56L108 57L107 56z"
     id="path254"
     style="fill:#5f5a0d; stroke:none;" />
  <path
     d="M59 57L60 58L59 57z"
     id="path256"
     style="fill:#8c7513; stroke:none;" />
  <path
     d="M103 57C101.304 62.2021 97.3746 67.7064 96.588 73C95.6302 79.4451 97.6871 86.5394 96.9568 93C96.0338 101.165 93.0234 108.523 93 117C95.3488 111.555 95.3714 104.795 97 99C100.902 106.48 105.551 113.365 109 121C112.695 112.174 109.625 95.2427 104 88L100 89C102.276 85.392 106.752 82.4657 108.397 78.6752C111.18 72.2661 108.326 63.0403 106 57L103 57z"
     id="path262"
     style="fill:#f59e25; stroke:none;" />
  <path
     d="M107 57L108 58L107 57z"
     id="path264"
     style="fill:#a6920b; stroke:none;" />
  <path
     d="M108 58L109 59L108 58z"
     id="path272"
     style="fill:#5f5a0d; stroke:none;" />
  <path
     d="M45.3333 59.6667C45.2778 59.7222 45.2222 60.7778 45.6667 60.3333C45.7222 60.2778 45.7778 59.2222 45.3333 59.6667z"
     id="path276"
     style="fill:#f59e25; stroke:none;" />
  <path
     d="M58 59L59 60L58 59z"
     id="path280"
     style="fill:#8c7513; stroke:none;" />
  <path
     d="M44 61C40.2207 66.5494 36.0669 71.1588 35 78C37.7881 73.8561 44.64 65.7996 44 61z"
     id="path284"
     style="fill:#f59e25; stroke:none;" />
  <path
     d="M57 61L58 62L57 61z"
     id="path286"
     style="fill:#5f5a0d; stroke:none;" />
  <path
     d="M101 61L102 62L101 61M109 61L110 62L109 61z"
     id="path290"
     style="fill:#5f5a0d; stroke:none;" />
  <path
     d="M43 62L44 63L43 62z"
     id="path292"
     style="fill:#8c7513; stroke:none;" />
  <path
     d="M70 62C60.744 72.8612 55.4403 86.6722 48.8642 99C45.6815 104.966 39.6622 109.748 40 117C37.9583 116.105 36.1722 115.464 34 115C35.4538 119.562 37.7337 123.666 42 126C41.8095 120.666 50.3162 107.117 54 103C52.696 110.024 52.8368 116.176 55 123C56.7858 117.176 53.1577 111.247 55.3881 105C59.9996 92.0849 76.4562 77.4203 70 62z"
     id="path294"
     style="fill:#fabc62; stroke:none;" />
  <path
     d="M98 62L99 63L98 62z"
     id="path296"
     style="fill:#222121; stroke:none;" />
  <path
     d="M56 63L57 64L56 63M100 63L101 64L100 63z"
     id="path304"
     style="fill:#5f5a0d; stroke:none;" />
  <path
     d="M100 64L101 65L100 64z"
     id="path310"
     style="fill:#a6920b; stroke:none;" />
  <path
     d="M40 65L41 66L40 65M110 65L110 72C111.059 69.4657 111.059 67.5343 110 65z"
     id="path312"
     style="fill:#5f5a0d; stroke:none;" />
  <path
     d="M39 66L40 67L39 66z"
     id="path314"
     style="fill:#8c7513; stroke:none;" />
  <path
     d="M99 66L100 67L99 66z"
     id="path316"
     style="fill:#a6920b; stroke:none;" />
  <path
     d="M98 67L99 68L98 67z"
     id="path318"
     style="fill:#5f5a0d; stroke:none;" />
  <path
     d="M38 68L39 69L38 68z"
     id="path320"
     style="fill:#8c7513; stroke:none;" />
  <path
     d="M98 68L99 69L98 68z"
     id="path322"
     style="fill:#a6920b; stroke:none;" />
  <path
     d="M54 69L55 70L54 69M93 69L94 70L93 69z"
     id="path324"
     style="fill:#8c7513; stroke:none;" />
  <path
     d="M97 69L98 70L97 69z"
     id="path326"
     style="fill:#5f5a0d; stroke:none;" />
  <path
     d="M37 70L38 71L37 70z"
     id="path328"
     style="fill:#8c7513; stroke:none;" />
  <path
     d="M94 71L95 72L94 71M96 71L97 72L96 71M95 72L96 73L95 72z"
     id="path332"
     style="fill:#a6920b; stroke:none;" />
  <path
     d="M75 73C73.1994 73.5618 71.8782 73.8241 70 74C68.0699 85.2093 59.9177 92.8702 56 103C57.8499 102.798 59.1501 102.798 61 103C65.4692 95.156 78.5245 82.9352 75 73z"
     id="path338"
     style="fill:#f59e25; stroke:none;" />
  <path
     d="M35 74L36 75L35 74z"
     id="path342"
     style="fill:#5f5a0d; stroke:none;" />
  <path
     d="M125 74L126 75L125 74z"
     id="path350"
     style="fill:#616161; stroke:none;" />
  <path
     d="M34 76L35 77L34 76z"
     id="path354"
     style="fill:#5f5a0d; stroke:none;" />
  <path
     d="M107 80L105 84L111 82C111.953 85.0506 112.796 87.7987 113 91C117.694 86.7135 122.338 81.1994 126 76C119.444 76.5218 113.43 79.6927 107 80z"
     id="path358"
     style="fill:#fbcf93; stroke:none;" />
  <path
     d="M126 76L127 77L126 76z"
     id="path360"
     style="fill:#8c7513; stroke:none;" />
  <path
     d="M34 79L34 82C34.6961 80.4463 34.6961 80.5537 34 79z"
     id="path366"
     style="fill:#f59e25; stroke:none;" />
  <path
     d="M52 79L53 83C53.393 81.076 53.1456 80.6404 52 79z"
     id="path368"
     style="fill:#eb5d26; stroke:none;" />
  <path
     d="M123 79L124 80L123 79z"
     id="path370"
     style="fill:#5f5a0d; stroke:none;" />
  <path
     d="M104 82L102 87C112.099 99.0059 109.92 114.132 108 129C113.557 122.211 109.779 112.901 110.043 105C110.326 96.5542 114.546 90.3675 111 82C108.828 82.4637 107.042 83.1055 105 84L106 82L104 82z"
     id="path376"
     style="fill:#fabc62; stroke:none;" />
  <path
     d="M33.3333 84.6667C33.2778 84.7222 33.2222 85.7778 33.6667 85.3333C33.7222 85.2778 33.7778 84.2222 33.3333 84.6667z"
     id="path384"
     style="fill:#fabc62; stroke:none;" />
  <path
     d="M123 84C116.331 91.8862 120.881 102.128 116 111C122.588 107.75 124.971 90.6663 123 84z"
     id="path388"
     style="fill:#fdc828; stroke:none;" />
  <path
     d="M100 89C101.981 87.8397 102.74 86.9506 104 85C101.751 86.1535 101.154 86.7511 100 89z"
     id="path392"
     style="fill:#fdc828; stroke:none;" />
  <path
     d="M121 85L122 86L121 85z"
     id="path396"
     style="fill:#8c7513; stroke:none;" />
  <path
     d="M124 85L125 86L124 85z"
     id="path398"
     style="fill:#5f5a0d; stroke:none;" />
  <path
     d="M120 86L121 87L120 86z"
     id="path400"
     style="fill:#8c7513; stroke:none;" />
  <path
     d="M80 87C71.5996 94.9163 60.28 103.503 59 116L71 109C70.1324 111.355 69.4264 113.531 69 116C76.4704 107.575 92.3836 98.005 95 87C89.9854 90.5324 85.7681 95.1171 81 99C81.276 94.4843 83.4848 91.6208 82 87L80 87z"
     id="path402"
     style="fill:#f59e25; stroke:none;" />
  <path
     d="M123 87L124 88L123 87z"
     id="path408"
     style="fill:#a6920b; stroke:none;" />
  <path
     d="M32 88C31.2654 97.3087 29.6292 106.291 34 115C35.4127 107.294 35.2036 95.4265 32 88z"
     id="path410"
     style="fill:#fdc828; stroke:none;" />
  <path
     d="M115 88L116 89L115 88z"
     id="path412"
     style="fill:#91918b; stroke:none;" />
  <path
     d="M118 88L119 89L118 88z"
     id="path414"
     style="fill:#929164; stroke:none;" />
  <path
     d="M123 88L124 89L123 88z"
     id="path416"
     style="fill:#5f5a0d; stroke:none;" />
  <path
     d="M70 116C69.9211 113.482 70.3923 111.462 71 109C59.0923 113.71 55.4669 122.486 67 131C67 125.9 67.0665 121.028 68 116C73.4541 119.345 77.7709 112.946 83 111.534C86.0157 110.72 89.0924 112.339 92 113L91 110C95.3372 107.191 98.032 93.9681 97 89C88.1496 93.4809 73.1845 106.326 70 116z"
     id="path418"
     style="fill:#eb664e; stroke:none;" />
  <path
     d="M118 89C112.794 96.4057 114.785 101.734 116 110C120.369 105.721 120.314 94.5134 118 89z"
     id="path420"
     style="fill:#fbcf93; stroke:none;" />
  <path
     d="M122 90L123 91L122 90z"
     id="path422"
     style="fill:#a6920b; stroke:none;" />
  <path
     d="M97 99C92.6476 110.622 101.62 120.509 106 131C113.271 121.229 103.003 107.106 97 99z"
     id="path434"
     style="fill:#eb664e; stroke:none;" />
  <path
     d="M58 121C58 114.304 58.8933 108.536 60 102C52.6188 104.221 51.7104 116.969 58 121z"
     id="path440"
     style="fill:#eb664e; stroke:none;" />
  <path
     d="M53 103C48.835 109.7 46.5518 118.283 41 124C43.0644 132.125 53.4372 137.817 61 140C56.1075 135.404 49.6225 131.704 44 128C50.3046 122.223 55.6735 111.692 53 103z"
     id="path442"
     style="fill:#f59e25; stroke:none;" />
  <path
     d="M34 105C33.4083 107.688 33.3249 109.341 34 112C36.1323 109.669 36.1767 108.151 36 105L34 105z"
     id="path448"
     style="fill:#fabc62; stroke:none;" />
  <path
     d="M115.333 106.667C115.278 106.722 115.222 107.778 115.667 107.333C115.722 107.278 115.778 106.222 115.333 106.667z"
     id="path452"
     style="fill:#fabc62; stroke:none;" />
  <path
     d="M121 106L122 107L121 106z"
     id="path454"
     style="fill:#a6920b; stroke:none;" />
  <path
     d="M120 108L121 109L120 108z"
     id="path464"
     style="fill:#5f5a0d; stroke:none;" />
  <path
     d="M28 109L28 112L30 111C29.4549 109.365 29.6352 109.545 28 109z"
     id="path466"
     style="fill:#eb5d26; stroke:none;" />
  <path
     d="M119 109L120 110L119 109z"
     id="path468"
     style="fill:#8c7513; stroke:none;" />
  <path
     d="M36 110C34.6026 114.012 36.2402 115.454 40 117C39.0119 114.171 38.086 112.144 36 110z"
     id="path470"
     style="fill:#f59e25; stroke:none;" />
  <path
     d="M69 118L69 136C64.8599 133.055 62.0846 130.247 62 125C60.8046 125.598 61.0226 125.466 60 127C59.0391 124.307 58.3636 122.603 56 121C57.3335 125.533 60.1017 129.341 61 134C64.7102 135.152 66.8596 138.862 69 142C71.9008 139.66 77.5648 137.534 78 134C79.7968 134 79.5215 133.986 81 133C81.6058 127.23 86.0318 126.414 91 125C90.3802 132.588 85.9554 138.696 85 146C91.5163 144.651 100.391 142.912 104.316 136.907C109.048 129.666 100.449 113.716 94 110C94.3679 122.39 112.68 134.212 94 141.906C91.3983 142.977 88.7661 143.591 86 144C91.6125 136.047 91.5222 129.17 92.1844 120C92.4472 116.361 94.0232 112.645 91 110C91 111.797 91.0143 111.521 92 113C82.091 109.208 78.1308 114.676 69 118z"
     id="path472"
     style="fill:#eb5d26; stroke:none;" />
  <path
     d="M118 110L119 111L118 110z"
     id="path474"
     style="fill:#a6920b; stroke:none;" />
  <path
     d="M29 111C30.3926 112.434 31.2328 113.045 33 114C31.7741 111.965 31.2974 111.674 29 111z"
     id="path476"
     style="fill:#e32911; stroke:none;" />
  <path
     d="M29 112L29 115C29.6961 113.446 29.6961 113.554 29 112z"
     id="path482"
     style="fill:#f59e25; stroke:none;" />
  <path
     d="M30 113C31.4819 121.339 36.4205 130.64 43 136C44.7173 134.16 45.5656 133.651 48 133C42.9776 127.567 36.6151 115.586 30 113z"
     id="path484"
     style="fill:#eb664e; stroke:none;" />
  <path
     d="M121 113C119.739 115.01 118.81 116.778 118 119C120.015 117.092 121.25 115.792 121 113z"
     id="path486"
     style="fill:#f59e25; stroke:none;" />
  <path
     d="M119 115L120 116L119 115z"
     id="path492"
     style="fill:#8c7513; stroke:none;" />
  <path
     d="M121 115C117.474 119.224 111.65 121.634 110 127C114.233 128.258 117.231 130.864 121 133C122.275 126.79 123 121.39 123 115L121 115z"
     id="path494"
     style="fill:#eb5d26; stroke:none;" />
  <path
     d="M52 116C49.3788 120.187 47.0725 124.103 44 128C47.1248 130.851 50.1756 133.181 54 135C55.0053 132.415 55.9801 130.896 58 129C56.709 124.517 54.8175 119.723 52 116z"
     id="path498"
     style="fill:#eb664e; stroke:none;" />
  <path
     d="M68 116C66.7425 121.282 67 126.6 67 132C68.672 128.015 69.2628 120.105 68 116z"
     id="path500"
     style="fill:#fabc62; stroke:none;" />
  <path
     d="M94 116C93.7933 126.014 90.6008 135.219 86 144C104.581 142.378 107.54 127.844 94 116z"
     id="path502"
     style="fill:#e32911; stroke:none;" />
  <path
     d="M92 117L93 123C93.8742 120.948 93.9528 119.253 94 117L92 117z"
     id="path506"
     style="fill:#eb664e; stroke:none;" />
  <path
     d="M117 118L118 119L117 118z"
     id="path510"
     style="fill:#8c7513; stroke:none;" />
  <path
     d="M58 119C58.2539 121.932 58.8513 124.29 60 127C60.8445 123.96 59.7104 121.592 58 119z"
     id="path512"
     style="fill:#f59e25; stroke:none;" />
  <path
     d="M68 119C68 123.761 68.1083 128.345 67 133L62 129C63.6493 132.502 65.4985 134.351 69 136C69 130.638 70.0872 123.974 68 119z"
     id="path514"
     style="fill:#eb664e; stroke:none;" />
  <path
     d="M116 119L117 120L116 119z"
     id="path516"
     style="fill:#8c7513; stroke:none;" />
  <path
     d="M92 120L92 126C92.9511 123.715 92.9511 122.285 92 120z"
     id="path520"
     style="fill:#f59e25; stroke:none;" />
  <path
     d="M115 120L116 121L115 120z"
     id="path522"
     style="fill:#8c7513; stroke:none;" />
  <path
     d="M33 123L34 124L33 123z"
     id="path526"
     style="fill:#8c7513; stroke:none;" />
  <path
     d="M56.3333 123.667C56.2778 123.722 56.2222 124.778 56.6667 124.333C56.7222 124.278 56.7778 123.222 56.3333 123.667z"
     id="path528"
     style="fill:#f59e25; stroke:none;" />
  <path
     d="M34 125L35 126L34 125z"
     id="path532"
     style="fill:#8c7513; stroke:none;" />
  <path
     d="M57.3333 125.667C57.2778 125.722 57.2222 126.778 57.6667 126.333C57.7222 126.278 57.7778 125.222 57.3333 125.667z"
     id="path534"
     style="fill:#f59e25; stroke:none;" />
  <path
     d="M81 133L78 134C77.222 139.953 66.2513 137.763 73 146C68.7991 144.79 65.0255 142.676 61 141C63.7863 141.313 66.2884 142.242 69 143C65.8474 138.389 62.3363 133.53 58 130C56.9877 132.373 56.3784 134.449 56 137L61 139C57.2318 139.219 53.7066 139.12 50 140C55.0381 147.576 64.7627 148.158 73 149.184C87.5136 150.991 101.497 154.756 113.826 143.532C118.243 139.511 122.663 124.945 111.212 127.817C107.518 128.744 105.52 135.271 102.895 137.815C97.6233 142.923 90.0981 145.043 83 146C87.833 139.66 90.6505 133.017 91 125C85.9606 126.044 80.4043 126.839 81 133z"
     id="path536"
     style="fill:#e32911; stroke:none;" />
  <path
     d="M35 126L36 127L35 126z"
     id="path538"
     style="fill:#a6920b; stroke:none;" />
  <path
     d="M35 127L36 128L35 127z"
     id="path540"
     style="fill:#5f5a0d; stroke:none;" />
  <path
     d="M58 127C58.5471 128.875 59.11 130.255 60 132C60.375 129.581 59.6927 128.782 58 127M61.3333 127.667C61.2778 127.722 61.2222 128.778 61.6667 128.333C61.7222 128.278 61.7778 127.222 61.3333 127.667z"
     id="path542"
     style="fill:#f59e25; stroke:none;" />
  <path
     d="M62 127C63.2995 129.763 64.5531 131.164 67 133C65.7005 130.237 64.4469 128.836 62 127z"
     id="path544"
     style="fill:#e32911; stroke:none;" />
  <path
     d="M36 128L37 129L36 128z"
     id="path546"
     style="fill:#a6920b; stroke:none;" />
  <path
     d="M56 129C54.9729 131.398 54.322 133.416 54 136C56.6167 134.232 57.631 131.833 59 129L56 129z"
     id="path550"
     style="fill:#eb5d26; stroke:none;" />
  <path
     d="M107 129L105 135C106.909 133.12 107.911 131.458 109 129L107 129M121 129L121 132C121.696 130.446 121.696 130.554 121 129z"
     id="path552"
     style="fill:#f59e25; stroke:none;" />
  <path
     d="M37 130L38 131L37 130z"
     id="path554"
     style="fill:#5f5a0d; stroke:none;" />
  <path
     d="M38 131L39 132L38 131z"
     id="path556"
     style="fill:#8c7513; stroke:none;" />
  <path
     d="M39 132L40 133L39 132z"
     id="path558"
     style="fill:#a6920b; stroke:none;" />
  <path
     d="M121 132L122 133L121 132z"
     id="path560"
     style="fill:#8c7513; stroke:none;" />
  <path
     d="M52 143C51.5279 141.584 51.1863 141.186 50 140L57 139C46.4244 129.78 38.5972 137.803 52 143z"
     id="path562"
     style="fill:#eb5d26; stroke:none;" />
  <path
     d="M62 133C62.6836 134.58 62.8048 134.777 64 136C63.3164 134.42 63.1952 134.223 62 133z"
     id="path564"
     style="fill:#eb664e; stroke:none;" />
  <path
     d="M41 135L42 136L41 135M42 136L43 137L42 136z"
     id="path568"
     style="fill:#5f5a0d; stroke:none;" />
  <path
     d="M64 136C65.2995 138.763 66.5531 140.164 69 142C67.7005 139.237 66.4469 137.836 64 136z"
     id="path570"
     style="fill:#eb664e; stroke:none;" />
  <path
     d="M119 136L120 137L119 136z"
     id="path572"
     style="fill:#a6920b; stroke:none;" />
  <path
     d="M43 137L44 138L43 137M44 138L45 139L44 138z"
     id="path574"
     style="fill:#5f5a0d; stroke:none;" />
  <path
     d="M118 138L119 139L118 138z"
     id="path576"
     style="fill:#8c7513; stroke:none;" />
  <path
     d="M117 139L118 140L117 139z"
     id="path578"
     style="fill:#a6920b; stroke:none;" />
  <path
     d="M61 140C64.3097 143.345 68.3836 145.177 73 146C69.886 142.347 65.5488 141.263 61 140z"
     id="path580"
     style="fill:#eb664e; stroke:none;" />
  <path
     d="M116 140L117 141L116 140z"
     id="path582"
     style="fill:#a6920b; stroke:none;" />
  <path
     d="M48 141L49 142L48 141z"
     id="path584"
     style="fill:#8c7513; stroke:none;" />
  <path
     d="M116 141L117 142L116 141M49 142L50 143L49 142z"
     id="path586"
     style="fill:#5f5a0d; stroke:none;" />
  <path
     d="M115 142L116 143L115 142M51 143L52 144L51 143M114 143L115 144L114 143z"
     id="path588"
     style="fill:#8c7513; stroke:none;" />
  <path
     d="M84 144L83 146L85 146C85 144.147 85.2997 144.65 84 144z"
     id="path592"
     style="fill:#f59e25; stroke:none;" />
  <path
     d="M112 144L113 145L112 144z"
     id="path594"
     style="fill:#a6920b; stroke:none;" />
  <path
     d="M113 144L114 145L113 144z"
     id="path596"
     style="fill:#5f5a0d; stroke:none;" />
  <path
     d="M110 146L111 147L110 146z"
     id="path602"
     style="fill:#8c7513; stroke:none;" />
  <path
     d="M108 147L109 148L108 147z"
     id="path608"
     style="fill:#a6920b; stroke:none;" />
  <path
     d="M109 147L110 148L109 147z"
     id="path610"
     style="fill:#5f5a0d; stroke:none;" />
  <desc
     id="desc646">Converted from Raster to SVG by RO IT Systems - info@roitsystems.com</desc>
</svg>
