<?xml version="1.0" encoding="UTF-8" standalone="no"?>
<!-- Created with Inkscape (http://www.inkscape.org/) -->

<svg
   xmlns:dc="http://purl.org/dc/elements/1.1/"
   xmlns:cc="http://creativecommons.org/ns#"
   xmlns:rdf="http://www.w3.org/1999/02/22-rdf-syntax-ns#"
   xmlns:svg="http://www.w3.org/2000/svg"
   xmlns="http://www.w3.org/2000/svg"
   xmlns:sodipodi="http://sodipodi.sourceforge.net/DTD/sodipodi-0.dtd"
   xmlns:inkscape="http://www.inkscape.org/namespaces/inkscape"
   width="30"
   height="46"
   id="svg7594"
   sodipodi:version="0.32"
   inkscape:version="0.48.3.1 r9886"
   version="1.0"
   sodipodi:docname="projector2.svg"
   inkscape:output_extension="org.inkscape.output.svg.inkscape"
   inkscape:export-filename="/home/mcr/galaxy/orlando/r6743/static/images/projector2.png"
   inkscape:export-xdpi="100"
   inkscape:export-ydpi="100">
  <defs
     id="defs7596" />
  <sodipodi:namedview
     id="base"
     pagecolor="#ffffff"
     bordercolor="#666666"
     borderopacity="1.0"
     inkscape:pageopacity="0.0"
     inkscape:pageshadow="2"
     inkscape:zoom="14.818182"
     inkscape:cx="16.117651"
     inkscape:cy="20.30673"
     inkscape:document-units="px"
     inkscape:current-layer="g11262"
     showgrid="false"
     inkscape:window-width="1680"
     inkscape:window-height="1003"
     inkscape:window-x="-6"
     inkscape:window-y="-6"
     showguides="true"
     inkscape:guide-bbox="true"
     inkscape:window-maximized="0" />
  <metadata
     id="metadata7599">
    <rdf:RDF>
      <cc:Work
         rdf:about="">
        <dc:format>image/svg+xml</dc:format>
        <dc:type
           rdf:resource="http://purl.org/dc/dcmitype/StillImage" />
        <dc:title></dc:title>
        <dc:date>2008-05-15</dc:date>
        <dc:creator>
          <cc:Agent>
            <dc:title>Jean Cartier</dc:title>
          </cc:Agent>
        </dc:creator>
        <cc:license
           rdf:resource="http://creativecommons.org/licenses/publicdomain/" />
        <dc:language>fr-FR</dc:language>
        <dc:subject>
          <rdf:Bag>
            <rdf:li>hardware</rdf:li>
            <rdf:li>computer</rdf:li>
            <rdf:li>desk</rdf:li>
            <rdf:li>business</rdf:li>
          </rdf:Bag>
        </dc:subject>
        <dc:contributor>
          <cc:Agent>
            <dc:title>Jean-Victor Balin (jean.victor.balin@gmail.com)</dc:title>
          </cc:Agent>
        </dc:contributor>
        <dc:description>http://www.jcartier.net</dc:description>
      </cc:Work>
      <cc:License
         rdf:about="http://creativecommons.org/licenses/publicdomain/">
        <cc:permits
           rdf:resource="http://creativecommons.org/ns#Reproduction" />
        <cc:permits
           rdf:resource="http://creativecommons.org/ns#Distribution" />
        <cc:permits
           rdf:resource="http://creativecommons.org/ns#DerivativeWorks" />
      </cc:License>
    </rdf:RDF>
  </metadata>
  <g
     inkscape:label="Calque 1"
     inkscape:groupmode="layer"
     id="layer1">
    <path
       style="opacity:1;fill:#888888;fill-opacity:1;stroke:none;stroke-width:0.69999999;stroke-linecap:round;stroke-linejoin:round;stroke-miterlimit:4;stroke-dasharray:none"
       d=""
       id="path8460" />
    <path
       style="opacity:1;fill:#888888;fill-opacity:1;stroke:none;stroke-width:0.69999999;stroke-linecap:round;stroke-linejoin:round;stroke-miterlimit:4;stroke-dasharray:none"
       d=""
       id="path8462" />
    <path
       style="opacity:1;fill:#888888;fill-opacity:1;stroke:none;stroke-width:0.69999999;stroke-linecap:round;stroke-linejoin:round;stroke-miterlimit:4;stroke-dasharray:none"
       d=""
       id="path8464" />
    <g
       id="g11262"
       transform="translate(-279.1135,-276.31506)">
      <g
         id="g9079">
        <path
           style="fill:#edd400;fill-rule:evenodd;stroke:none;stroke-width:1px;stroke-linecap:butt;stroke-linejoin:miter;stroke-opacity:1"
           id="path4277"
           sodipodi:nodetypes="cccccc"
           d="M 305.1135,316.85015 L 281.1135,304.85015 L 281.1135,302.85015 L 281.12856,302.82044 L 305.1135,314.85015 L 305.1135,316.85015 z" />
        <path
           style="fill:#c4a000;fill-rule:evenodd;stroke:none;stroke-width:1px;stroke-linecap:butt;stroke-linejoin:miter;stroke-opacity:1"
           id="path4273"
           sodipodi:nodetypes="czzzz"
           d="M 281.1135,302.85016 C 281.1135,301.85017 282.1135,301.85015 283.1135,301.85015 C 284.1135,301.85015 307.1135,313.28194 307.1135,313.85015 C 307.1135,314.41836 306.1135,314.85015 305.1135,314.85015 C 304.1135,314.85015 281.1135,303.85015 281.1135,302.85016 z" />
        <path
           style="fill:#fce94f;fill-rule:evenodd;stroke:none;stroke-width:1px;stroke-linecap:butt;stroke-linejoin:miter;stroke-opacity:1"
           id="path4275"
           d="M 307.1135,313.85015 L 307.1135,315.85015 L 305.1135,316.85015 L 305.1135,314.85015 L 307.1135,313.85015 z" />
        <path
           id="path6219"
           d="M 283.125,301.34375 C 282.625,301.34375 282.09524,301.33284 281.59375,301.5 C 281.343,301.58358 281.09119,301.73097 280.90625,301.96875 C 280.72131,302.20653 280.625,302.51042 280.625,302.84375 C 280.625,303.84375 280.62501,303.84374 280.625,304.84375 C 280.625,305.11458 280.73624,305.2247 280.8125,305.3125 C 280.88876,305.4003 280.96438,305.45244 281.0625,305.53125 C 281.25873,305.68886 281.51944,305.85868 281.84375,306.0625 C 282.49237,306.47015 283.40886,307.00501 284.5,307.59375 C 286.68227,308.77123 289.58992,310.24813 292.53125,311.6875 C 295.47258,313.12687 298.41606,314.51298 300.71875,315.5625 C 301.87009,316.08726 302.86048,316.5374 303.59375,316.84375 C 303.96038,316.99693 304.2633,317.10187 304.5,317.1875 C 304.61835,317.23031 304.72198,317.2866 304.8125,317.3125 C 304.90302,317.3384 304.97917,317.34375 305.125,317.34375 C 305.625,317.34375 306.15476,317.35466 306.65625,317.1875 C 306.907,317.10392 307.15881,316.98778 307.34375,316.75 C 307.52869,316.51222 307.625,316.17708 307.625,315.84375 C 307.625,314.84375 307.62501,314.84374 307.625,313.84375 C 307.625,313.57292 307.51376,313.49405 307.4375,313.40625 C 307.36124,313.31845 307.25437,313.23506 307.15625,313.15625 C 306.96002,312.99864 306.69931,312.82882 306.375,312.625 C 305.72638,312.21735 304.84114,311.71374 303.75,311.125 C 301.56773,309.94752 298.66008,308.47062 295.71875,307.03125 C 292.77742,305.59188 289.80269,304.17452 287.5,303.125 C 286.34866,302.60024 285.35827,302.18135 284.625,301.875 C 284.25836,301.72182 283.95545,301.58563 283.71875,301.5 C 283.6004,301.45719 283.49677,301.43215 283.40625,301.40625 C 283.31573,301.38035 283.27084,301.34375 283.125,301.34375 z M 283.125,302.34375 C 283.04167,302.34375 283.06983,302.35921 283.125,302.375 C 283.18017,302.39079 283.26996,302.3995 283.375,302.4375 C 283.58508,302.51349 283.89203,302.63169 284.25,302.78125 C 284.96595,303.08037 285.91697,303.50914 287.0625,304.03125 C 289.35356,305.07548 292.34758,306.50187 295.28125,307.9375 C 298.21492,309.37313 301.11977,310.83373 303.28125,312 C 304.36199,312.58313 305.23065,313.08343 305.84375,313.46875 C 306.1503,313.66141 306.39008,313.82412 306.53125,313.9375 C 306.58419,313.98002 306.60398,314.01038 306.625,314.03125 C 306.625,314.7835 306.625,314.9375 306.625,315.84375 C 306.625,316.01041 306.59631,316.08153 306.5625,316.125 C 306.52869,316.16847 306.46801,316.20858 306.34375,316.25 C 306.09524,316.33284 305.625,316.34375 305.125,316.34375 C 305.20833,316.34375 305.14892,316.35954 305.09375,316.34375 C 305.03858,316.32796 304.94879,316.288 304.84375,316.25 C 304.63367,316.174 304.35797,316.05581 304,315.90625 C 303.28405,315.60713 302.30178,315.17836 301.15625,314.65625 C 298.86519,313.61202 295.90242,312.21688 292.96875,310.78125 C 290.03508,309.34562 287.13023,307.88502 284.96875,306.71875 C 283.88801,306.13562 282.9881,305.60407 282.375,305.21875 C 282.06845,305.02609 281.82867,304.86338 281.6875,304.75 C 281.64797,304.71825 281.64745,304.70854 281.625,304.6875 C 281.625,303.89841 281.625,303.76562 281.625,302.84375 C 281.625,302.67708 281.65369,302.63722 281.6875,302.59375 C 281.72131,302.55028 281.782,302.47892 281.90625,302.4375 C 282.15476,302.35466 282.625,302.34375 283.125,302.34375 z"
           style="fill:#000000;fill-opacity:1;fill-rule:evenodd;stroke:none;stroke-width:1px;stroke-linecap:butt;stroke-linejoin:miter;stroke-opacity:1" />
        <path
           sodipodi:nodetypes="ccccc"
           id="path9069"
           d="M 284.2086,277.50524 L 304.25155,287.56045 L 304.04909,313.06966 L 284.14111,303.2169 L 284.2086,277.50524 z"
           style="fill:#edd400;fill-opacity:1;stroke:none;stroke-width:0.5;stroke-linecap:round;stroke-linejoin:round;stroke-miterlimit:4" />
        <path
           id="path4269"
           d="M 284.40625,277.28125 C 284.30032,277.26783 284.18881,277.2693 284.03125,277.3125 C 283.95247,277.3341 283.84394,277.3678 283.75,277.46875 C 283.65606,277.5697 283.625,277.72396 283.625,277.84375 C 283.625,278.84375 283.62501,301.84378 283.625,302.84375 C 283.625,303.08333 283.712,303.19301 283.78125,303.28125 C 283.8505,303.36949 283.91245,303.42354 284,303.5 C 284.1751,303.65292 284.40433,303.84112 284.6875,304.03125 C 285.25384,304.41151 286.0564,304.87154 287,305.40625 C 288.8872,306.47566 291.36904,307.80952 293.875,309.0625 C 296.38096,310.31548 298.89194,311.4938 300.78125,312.3125 C 301.7259,312.72185 302.51771,313.02948 303.09375,313.21875 C 303.38177,313.31339 303.60063,313.37941 303.8125,313.40625 C 303.91843,313.41967 304.02994,313.44945 304.1875,313.40625 C 304.26628,313.38465 304.37481,313.3197 304.46875,313.21875 C 304.56269,313.1178 304.625,312.96354 304.625,312.84375 C 304.625,311.84375 304.62501,288.84378 304.625,287.84375 C 304.625,287.60417 304.50675,287.52574 304.4375,287.4375 C 304.36825,287.34926 304.3063,287.26396 304.21875,287.1875 C 304.04365,287.03458 303.81442,286.87763 303.53125,286.6875 C 302.96491,286.30724 302.1936,285.81596 301.25,285.28125 C 299.3628,284.21184 296.84971,282.90923 294.34375,281.65625 C 291.83779,280.40327 289.32681,279.22495 287.4375,278.40625 C 286.49285,277.9969 285.70104,277.65802 285.125,277.46875 C 284.83698,277.37412 284.61812,277.30809 284.40625,277.28125 z M 284.625,278.375 C 284.69989,278.39599 284.72017,278.40716 284.8125,278.4375 C 285.33021,278.6076 286.1009,278.90935 287.03125,279.3125 C 288.89195,280.1188 291.38096,281.31548 293.875,282.5625 C 296.36904,283.80952 298.8872,285.10066 300.75,286.15625 C 301.6814,286.68404 302.44134,287.14588 302.96875,287.5 C 303.23246,287.67706 303.44463,287.83456 303.5625,287.9375 C 303.60179,287.97181 303.60764,287.98161 303.625,288 C 303.625,289.23981 303.625,310.53023 303.625,312.34375 C 303.54164,312.32109 303.51404,312.31667 303.40625,312.28125 C 302.88854,312.11114 302.11785,311.8094 301.1875,311.40625 C 299.32681,310.59995 296.83779,309.40327 294.34375,308.15625 C 291.84971,306.90923 289.3628,305.58684 287.5,304.53125 C 286.5686,304.00346 285.77741,303.54162 285.25,303.1875 C 284.98629,303.01044 284.77412,302.85294 284.65625,302.75 C 284.6366,302.73284 284.63952,302.73275 284.625,302.71875 C 284.625,301.5318 284.625,280.23986 284.625,278.375 z"
           style="fill:#000000;fill-opacity:1;fill-rule:evenodd;stroke:none;stroke-width:1px;stroke-linecap:butt;stroke-linejoin:miter;stroke-opacity:1" />
        <path
           sodipodi:nodetypes="ccccc"
           id="rect9054"
           d="M 6.9509201,4.1595091 L 23.01227,12.122699 L 23.079754,33.852761 L 6.8159508,25.754602 L 6.9509201,4.1595091 z"
           style="fill:#d3d7cf;fill-opacity:1;stroke:none;stroke-width:0.5;stroke-linecap:round;stroke-linejoin:round;stroke-miterlimit:4"
           transform="translate(279.1135,276.31506)" />
        <path
           id="path4271"
           d="M 286.3125,280.25 C 286.21212,280.24665 286.09177,280.27159 285.9375,280.34375 C 285.78323,280.41591 285.625,280.64583 285.625,280.84375 C 285.625,281.92814 285.62501,300.84378 285.625,301.84375 C 285.625,302.04167 285.68994,302.16185 285.75,302.25 C 285.81006,302.33815 285.86335,302.39707 285.9375,302.46875 C 286.0858,302.6121 286.2698,302.77307 286.5,302.9375 C 286.96041,303.26636 287.61754,303.6519 288.375,304.09375 C 289.88992,304.97745 291.86755,306.05877 293.875,307.0625 C 295.88245,308.06623 297.88804,308.99241 299.40625,309.625 C 300.16535,309.94129 300.80595,310.1767 301.28125,310.3125 C 301.5189,310.3804 301.7055,310.43081 301.90625,310.4375 C 302.00663,310.44085 302.12698,310.44716 302.28125,310.375 C 302.43552,310.30284 302.625,310.04167 302.625,309.84375 C 302.625,308.84375 302.62501,289.84378 302.625,288.84375 C 302.625,288.64583 302.52881,288.5569 302.46875,288.46875 C 302.40869,288.3806 302.3554,288.29043 302.28125,288.21875 C 302.13295,288.0754 301.94895,287.94568 301.71875,287.78125 C 301.25834,287.45239 300.63246,287.0356 299.875,286.59375 C 298.36008,285.71005 296.3512,284.65998 294.34375,283.65625 C 292.3363,282.65252 290.33071,281.69508 288.8125,281.0625 C 288.0534,280.74621 287.4128,280.5108 286.9375,280.375 C 286.69985,280.3071 286.51325,280.25669 286.3125,280.25 z M 286.625,281.34375 C 286.64007,281.34783 286.64058,281.33927 286.65625,281.34375 C 287.05595,281.45795 287.66535,281.69129 288.40625,282 C 289.88804,282.61741 291.88245,283.56623 293.875,284.5625 C 295.86755,285.55877 297.88992,286.60245 299.375,287.46875 C 300.11754,287.9019 300.71041,288.29761 301.125,288.59375 C 301.3323,288.74182 301.50767,288.85429 301.59375,288.9375 C 301.62024,288.9631 301.61381,288.98685 301.625,289 C 301.625,290.22815 301.625,307.64251 301.625,309.375 C 301.59302,309.36691 301.59777,309.35383 301.5625,309.34375 C 301.1628,309.22955 300.5534,308.99621 299.8125,308.6875 C 298.33071,308.07009 296.3363,307.15252 294.34375,306.15625 C 292.3512,305.15998 290.36008,304.08505 288.875,303.21875 C 288.13246,302.7856 287.50834,302.42114 287.09375,302.125 C 286.88645,301.97693 286.74233,301.83321 286.65625,301.75 C 286.6397,301.734 286.63577,301.7306 286.625,301.71875 C 286.625,300.54277 286.625,283.20004 286.625,281.34375 z"
           style="fill:#000000;fill-opacity:1;fill-rule:evenodd;stroke:none;stroke-width:1px;stroke-linecap:butt;stroke-linejoin:miter;stroke-opacity:1" />
        <path
           id="path4279"
           d="M 294,281.34375 L 293.875,281.40625 L 291.875,282.40625 L 292.34375,283.3125 L 294.28125,282.34375 L 294.625,282.34375 L 294.625,283.4375 L 295.625,283.4375 L 295.625,281.84375 L 295.625,281.34375 L 295.125,281.34375 L 294.125,281.34375 L 294,281.34375 z"
           style="fill:#000000;fill-opacity:1;fill-rule:evenodd;stroke:none;stroke-width:1px;stroke-linecap:butt;stroke-linejoin:miter;stroke-opacity:1" />
        <path
           id="path4281"
           d="M 293.625,311.84375 L 293.625,315.6875 L 290.6875,320.59375 L 291.53125,321.09375 L 294.53125,316.09375 L 294.625,316 L 294.625,315.84375 L 294.625,311.84375 L 293.625,311.84375 z"
           style="fill:#000000;fill-opacity:1;fill-rule:evenodd;stroke:none;stroke-width:1px;stroke-linecap:butt;stroke-linejoin:miter;stroke-opacity:1" />
        <path
           sodipodi:nodetypes="cccccccc"
           id="path4283"
           d="M 293.6875,316.09375 L 296.6875,321.09375 L 297.53125,320.59375 L 295.21875,316.71875 L 296.96875,317.3125 L 297.28125,316.375 L 294.28125,315.375 L 293.6875,316.09375 z"
           style="fill:#000000;fill-opacity:1;fill-rule:evenodd;stroke:none;stroke-width:1px;stroke-linecap:butt;stroke-linejoin:miter;stroke-opacity:1" />
      </g>
      <text
         xml:space="preserve"
         style="font-size:22.81445312px;font-style:normal;font-variant:normal;font-weight:normal;font-stretch:normal;text-align:start;line-height:125%;letter-spacing:0px;word-spacing:0px;text-anchor:start;fill:#000000;fill-opacity:1;stroke:none;font-family:Arial Black;-inkscape-font-specification:Arial Black"
         x="277.74319"
         y="272.51889"
         id="text2998"
         sodipodi:linespacing="125%"
         transform="matrix(1.0132707,0.11796914,0.02070387,0.98931351,0,0)"><tspan
           sodipodi:role="line"
           id="tspan3000"
           x="277.74319"
           y="272.51889">2</tspan></text>
    </g>
  </g>
</svg>
