<svg xmlns="http://www.w3.org/2000/svg" xmlns:xlink="http://www.w3.org/1999/xlink" style="display: block;" id="svg" version="1.1" width="400" height="500">
  <g id="svgg">
    <path id="path0" d="M60.400 13.600 C 60.128 14.040,58.307 14.400,56.353 14.400 C 54.399 14.400,52.800 14.760,52.800 15.200 C 52.800 15.640,51.630 16.002,50.200 16.005 C 48.770 16.008,46.520 16.601,45.200 17.323 C 39.357 20.518,32.345 23.995,31.737 23.998 C 31.373 23.999,29.753 25.354,28.137 27.010 C 26.522 28.665,24.191 30.666,22.957 31.456 C 21.723 32.247,20.484 33.493,20.202 34.227 C 19.921 34.960,18.230 37.009,16.445 38.780 C 13.309 41.891,11.228 45.094,8.243 51.400 C 7.462 53.050,6.547 54.400,6.211 54.400 C 5.875 54.400,5.600 55.279,5.600 56.353 C 5.600 57.427,5.265 58.512,4.856 58.765 C 4.447 59.018,3.865 61.204,3.562 63.623 C 3.260 66.042,2.695 68.218,2.307 68.458 C 1.302 69.078,1.394 94.400,2.400 94.400 C 2.840 94.400,3.200 95.485,3.200 96.811 C 3.200 98.137,3.560 99.937,4.000 100.811 C 4.440 101.685,5.160 103.115,5.600 103.989 C 6.040 104.863,6.400 106.121,6.400 106.784 C 6.400 108.459,9.043 114.400,9.789 114.400 C 10.125 114.400,10.400 114.884,10.400 115.476 C 10.400 116.068,11.120 117.204,12.000 118.000 C 12.880 118.796,13.600 119.862,13.600 120.367 C 13.600 120.873,14.860 122.507,16.400 124.000 C 17.940 125.493,19.200 127.074,19.200 127.513 C 19.200 128.628,23.304 132.800,24.400 132.800 C 24.895 132.800,26.358 133.905,27.650 135.256 C 28.943 136.606,31.260 138.298,32.800 139.015 C 34.340 139.732,36.140 140.895,36.800 141.600 C 38.255 143.153,43.351 145.600,45.132 145.600 C 45.841 145.600,47.137 145.960,48.011 146.400 C 48.885 146.840,50.315 147.560,51.189 148.000 C 52.063 148.440,53.863 148.800,55.189 148.800 C 56.515 148.800,57.600 149.160,57.600 149.600 C 57.600 150.677,80.534 150.677,81.200 149.600 C 81.472 149.160,83.293 148.800,85.247 148.800 C 87.201 148.800,88.800 148.440,88.800 148.000 C 88.800 147.560,89.679 147.200,90.753 147.200 C 91.827 147.200,92.911 146.868,93.162 146.462 C 93.413 146.055,94.694 145.487,96.009 145.198 C 97.324 144.909,98.400 144.341,98.400 143.936 C 98.400 143.531,99.120 143.200,100.000 143.200 C 100.880 143.200,101.600 142.925,101.600 142.589 C 101.600 142.253,102.950 141.334,104.600 140.548 C 106.250 139.762,108.462 138.628,109.515 138.029 C 112.144 136.531,125.600 123.051,125.600 121.915 C 125.600 121.409,126.113 120.570,126.739 120.050 C 128.206 118.833,134.400 106.355,134.400 104.617 C 134.400 103.890,134.760 103.072,135.200 102.800 C 135.640 102.528,136.000 101.427,136.000 100.353 C 136.000 99.279,136.360 98.400,136.800 98.400 C 137.240 98.400,137.600 96.780,137.600 94.800 C 137.600 92.820,137.893 91.200,138.250 91.200 C 139.066 91.200,139.018 72.351,138.200 71.533 C 137.870 71.203,137.600 69.575,137.600 67.914 C 137.600 66.253,137.240 64.672,136.800 64.400 C 136.360 64.128,136.000 63.048,136.000 62.000 C 136.000 60.952,135.640 59.872,135.200 59.600 C 134.760 59.328,134.400 58.533,134.400 57.833 C 134.400 56.313,130.329 47.715,129.429 47.333 C 129.083 47.187,128.800 46.619,128.800 46.073 C 128.800 45.526,127.900 44.233,126.800 43.200 C 125.700 42.167,124.800 40.925,124.800 40.442 C 124.800 39.320,112.647 27.200,111.522 27.200 C 111.058 27.200,109.833 26.300,108.800 25.200 C 107.767 24.100,106.474 23.200,105.927 23.200 C 105.381 23.200,104.813 22.928,104.667 22.596 C 104.164 21.459,94.001 16.764,90.981 16.274 C 89.320 16.005,87.769 15.473,87.533 15.092 C 87.298 14.711,85.708 14.400,84.000 14.400 C 82.292 14.400,80.672 14.040,80.400 13.600 C 80.115 13.139,75.874 12.800,70.400 12.800 C 64.926 12.800,60.685 13.139,60.400 13.600 M319.600 13.600 C 319.328 14.040,317.708 14.400,316.000 14.400 C 314.292 14.400,312.702 14.711,312.467 15.092 C 312.231 15.473,310.680 16.005,309.019 16.274 C 306.333 16.710,296.232 21.218,295.200 22.442 C 294.980 22.703,294.260 23.175,293.600 23.490 C 292.940 23.805,291.538 24.558,290.485 25.162 C 287.886 26.655,274.446 40.006,273.535 42.000 C 272.692 43.845,271.001 46.616,270.362 47.200 C 270.122 47.420,268.929 49.760,267.711 52.400 C 266.494 55.040,265.161 57.825,264.749 58.589 C 264.337 59.353,264.000 60.862,264.000 61.942 C 264.000 63.022,263.640 64.128,263.200 64.400 C 262.760 64.672,262.400 65.932,262.400 67.200 C 262.400 68.468,262.066 69.712,261.657 69.965 C 260.723 70.542,260.775 92.800,261.711 92.800 C 262.090 92.800,262.400 94.420,262.400 96.400 C 262.400 98.380,262.760 100.000,263.200 100.000 C 263.640 100.000,264.000 100.641,264.000 101.424 C 264.000 103.093,271.338 117.943,273.156 119.951 C 273.840 120.707,274.400 121.677,274.400 122.106 C 274.400 122.535,275.660 124.107,277.200 125.600 C 278.740 127.093,280.000 128.783,280.000 129.357 C 280.000 129.931,280.382 130.400,280.848 130.400 C 281.314 130.400,283.564 132.125,285.848 134.234 C 288.132 136.342,291.800 138.946,294.000 140.020 C 296.200 141.094,298.597 142.626,299.327 143.425 C 300.057 144.223,301.956 145.088,303.547 145.346 C 305.137 145.604,306.631 146.127,306.867 146.508 C 307.102 146.889,308.173 147.200,309.247 147.200 C 310.321 147.200,311.200 147.560,311.200 148.000 C 311.200 148.440,312.799 148.800,314.753 148.800 C 316.707 148.800,318.528 149.160,318.800 149.600 C 319.464 150.675,340.800 150.675,340.800 149.600 C 340.800 149.160,342.245 148.800,344.011 148.800 C 345.777 148.800,347.847 148.482,348.611 148.093 C 351.510 146.619,354.085 145.677,356.517 145.201 C 357.901 144.931,359.667 144.010,360.441 143.155 C 361.215 142.300,362.332 141.600,362.924 141.600 C 363.516 141.600,364.000 141.307,364.000 140.949 C 364.000 140.591,365.245 139.810,366.767 139.213 C 368.290 138.616,371.064 136.568,372.934 134.663 C 374.804 132.759,376.809 131.200,377.392 131.200 C 377.974 131.200,378.670 130.570,378.938 129.800 C 379.206 129.030,380.946 126.780,382.806 124.800 C 384.665 122.820,386.682 120.030,387.288 118.600 C 387.895 117.170,388.663 116.000,388.995 116.000 C 389.328 116.000,389.600 115.516,389.600 114.924 C 389.600 114.332,390.300 113.215,391.155 112.441 C 392.010 111.667,392.931 109.901,393.201 108.517 C 393.677 106.085,394.619 103.510,396.093 100.611 C 396.482 99.847,396.800 97.777,396.800 96.011 C 396.800 94.245,397.160 92.800,397.600 92.800 C 398.638 92.800,398.674 71.679,397.639 69.789 C 397.221 69.025,396.656 66.336,396.383 63.813 C 396.111 61.290,395.553 59.018,395.144 58.765 C 394.735 58.512,394.400 57.465,394.400 56.438 C 394.400 55.411,393.877 54.371,393.238 54.125 C 392.158 53.711,388.800 47.387,388.800 45.768 C 388.800 45.372,388.080 44.396,387.200 43.600 C 386.320 42.804,385.600 41.828,385.600 41.433 C 385.600 40.599,371.434 26.475,369.142 25.024 C 368.294 24.487,365.440 22.946,362.800 21.600 C 360.160 20.255,356.746 18.444,355.212 17.577 C 353.679 16.710,351.249 16.000,349.812 16.000 C 348.376 16.000,347.200 15.640,347.200 15.200 C 347.200 14.760,345.601 14.400,343.647 14.400 C 341.693 14.400,339.872 14.040,339.600 13.600 C 339.315 13.139,335.074 12.800,329.600 12.800 C 324.126 12.800,319.885 13.139,319.600 13.600 M22.133 176.533 C 21.840 176.827,21.600 242.527,21.600 322.533 L 21.600 468.000 69.600 468.000 L 117.600 468.000 117.600 391.600 L 117.600 315.200 120.000 315.200 C 121.320 315.200,122.400 315.551,122.400 315.980 C 122.400 316.409,123.998 317.488,125.951 318.378 C 127.905 319.268,129.712 320.333,129.967 320.746 C 130.222 321.159,132.320 322.362,134.628 323.418 C 136.937 324.475,139.360 325.862,140.013 326.500 C 141.300 327.758,146.573 330.400,147.797 330.400 C 148.212 330.400,149.204 331.120,150.000 332.000 C 150.796 332.880,151.932 333.600,152.524 333.600 C 153.116 333.600,153.600 333.960,153.600 334.400 C 153.600 334.840,154.320 335.200,155.200 335.200 C 156.080 335.200,156.800 335.475,156.800 335.810 C 156.800 336.420,157.149 336.634,162.923 339.559 C 164.615 340.417,166.582 341.767,167.294 342.559 C 168.005 343.352,169.158 344.000,169.854 344.000 C 170.551 344.000,171.408 344.469,171.760 345.043 C 172.112 345.617,173.735 346.707,175.366 347.465 C 176.997 348.223,178.562 349.215,178.844 349.671 C 179.125 350.126,180.130 350.836,181.078 351.247 C 183.287 352.208,185.498 353.636,187.507 355.400 C 188.384 356.170,189.574 356.800,190.151 356.800 C 190.728 356.800,191.200 357.118,191.200 357.507 C 191.200 357.895,191.830 358.441,192.600 358.719 C 194.356 359.354,197.037 360.937,198.715 362.329 C 199.786 363.218,200.214 363.218,201.285 362.329 C 202.614 361.227,205.108 359.691,207.200 358.687 C 207.860 358.370,208.982 357.456,209.694 356.656 C 210.405 355.855,211.537 355.200,212.208 355.200 C 212.880 355.200,213.624 354.691,213.863 354.068 C 214.281 352.980,215.507 352.195,221.600 349.117 C 223.140 348.339,225.418 346.869,226.661 345.851 C 227.905 344.833,229.483 344.000,230.168 344.000 C 230.852 344.000,231.995 343.352,232.706 342.559 C 233.418 341.767,235.385 340.417,237.077 339.559 C 242.851 336.634,243.200 336.420,243.200 335.810 C 243.200 335.475,243.920 335.200,244.800 335.200 C 245.680 335.200,246.400 334.840,246.400 334.400 C 246.400 333.960,246.884 333.600,247.476 333.600 C 248.068 333.600,249.185 332.900,249.959 332.045 C 250.733 331.190,252.384 330.267,253.628 329.994 C 254.872 329.721,256.297 329.006,256.795 328.406 C 257.293 327.806,259.568 326.349,261.850 325.168 C 264.133 323.987,266.540 322.583,267.200 322.048 C 267.860 321.512,270.470 320.086,273.000 318.878 C 275.530 317.671,277.600 316.349,277.600 315.941 C 277.600 315.534,278.680 315.200,280.000 315.200 L 282.400 315.200 282.400 391.606 L 282.400 468.013 329.800 467.806 L 377.200 467.600 377.200 322.000 L 377.200 176.400 330.000 176.400 L 282.800 176.400 282.400 193.577 C 282.009 210.387,281.962 210.774,280.206 211.648 C 279.219 212.140,277.750 213.140,276.943 213.871 C 276.135 214.602,275.208 215.200,274.884 215.200 C 274.146 215.200,268.495 219.385,268.133 220.200 C 267.987 220.530,267.401 220.800,266.831 220.800 C 266.262 220.800,265.317 221.378,264.731 222.083 C 264.145 222.789,262.931 223.705,262.033 224.118 C 259.303 225.373,256.888 226.873,255.343 228.271 C 254.535 229.002,253.441 229.600,252.912 229.600 C 252.383 229.600,251.743 230.140,251.489 230.800 C 251.236 231.460,250.571 232.000,250.012 232.000 C 249.453 232.000,248.517 232.578,247.931 233.283 C 247.345 233.989,246.131 234.905,245.233 235.318 C 242.503 236.573,240.088 238.073,238.543 239.471 C 237.735 240.202,236.794 240.800,236.452 240.800 C 235.918 240.800,234.227 242.029,229.834 245.612 C 229.302 246.045,228.611 246.400,228.297 246.400 C 227.983 246.400,227.065 246.998,226.257 247.729 C 224.712 249.127,222.297 250.627,219.567 251.882 C 218.669 252.295,217.455 253.211,216.869 253.917 C 216.283 254.622,215.450 255.200,215.018 255.200 C 214.340 255.200,212.764 256.317,208.234 260.012 C 207.702 260.445,207.006 260.800,206.685 260.800 C 206.365 260.800,205.273 261.580,204.258 262.533 C 203.208 263.520,201.374 264.267,200.000 264.267 C 198.626 264.267,196.792 263.520,195.742 262.533 C 194.727 261.580,193.635 260.800,193.315 260.800 C 192.994 260.800,192.298 260.445,191.766 260.012 C 187.236 256.317,185.660 255.200,184.982 255.200 C 184.550 255.200,183.717 254.622,183.131 253.917 C 182.545 253.211,181.331 252.295,180.433 251.882 C 177.703 250.627,175.288 249.127,173.743 247.729 C 172.935 246.998,172.017 246.400,171.703 246.400 C 171.389 246.400,170.698 246.045,170.166 245.612 C 165.636 241.917,164.060 240.800,163.382 240.800 C 162.950 240.800,162.117 240.222,161.531 239.517 C 160.945 238.811,159.731 237.895,158.833 237.482 C 156.103 236.227,153.688 234.727,152.143 233.329 C 151.335 232.598,150.252 232.000,149.737 232.000 C 149.222 232.000,148.800 231.629,148.800 231.175 C 148.800 230.721,148.170 230.126,147.400 229.853 C 146.630 229.580,145.368 228.813,144.594 228.149 C 143.069 226.839,140.544 225.303,137.967 224.118 C 137.069 223.705,135.855 222.789,135.269 222.083 C 134.683 221.378,133.738 220.800,133.169 220.800 C 132.599 220.800,132.013 220.530,131.867 220.200 C 131.505 219.385,125.854 215.200,125.116 215.200 C 124.792 215.200,123.865 214.602,123.057 213.871 C 122.250 213.140,120.781 212.140,119.794 211.648 C 118.028 210.768,117.997 210.481,117.784 193.377 L 117.569 176.000 70.118 176.000 C 44.020 176.000,22.427 176.240,22.133 176.533 " stroke="none" fill="#606060" fill-rule="evenodd"/>

    <path id="path2" d="M62.600 0.551 C 63.370 0.753,64.630 0.753,65.400 0.551 C 66.170 0.350,65.540 0.186,64.000 0.186 C 62.460 0.186,61.830 0.350,62.600 0.551 M73.600 0.309 C 73.600 0.479,74.680 0.777,76.000 0.971 C 77.320 1.164,78.400 1.025,78.400 0.661 C 78.400 0.298,77.320 0.000,76.000 0.000 C 74.680 0.000,73.600 0.139,73.600 0.309 M321.600 0.661 C 321.600 1.025,322.680 1.164,324.000 0.971 C 325.320 0.777,326.400 0.479,326.400 0.309 C 326.400 0.139,325.320 0.000,324.000 0.000 C 322.680 0.000,321.600 0.298,321.600 0.661 M334.600 0.551 C 335.370 0.753,336.630 0.753,337.400 0.551 C 338.170 0.350,337.540 0.186,336.000 0.186 C 334.460 0.186,333.830 0.350,334.600 0.551 M138.258 92.800 C 137.960 93.460,137.484 96.070,137.200 98.600 C 136.917 101.130,136.351 103.200,135.942 103.200 C 135.534 103.200,135.204 103.830,135.209 104.600 C 135.221 106.411,128.018 120.800,127.099 120.800 C 126.715 120.800,126.400 121.257,126.400 121.816 C 126.400 123.116,111.893 137.600,110.592 137.600 C 110.054 137.600,109.164 138.320,108.614 139.200 C 108.065 140.080,106.982 140.800,106.208 140.800 C 105.433 140.800,104.800 141.075,104.800 141.411 C 104.800 141.747,103.270 142.671,101.400 143.464 C 99.530 144.257,97.010 145.330,95.800 145.848 C 94.590 146.367,93.600 147.063,93.600 147.395 C 93.600 147.728,92.721 148.000,91.647 148.000 C 90.573 148.000,89.472 148.360,89.200 148.800 C 88.928 149.240,87.308 149.600,85.600 149.600 C 83.892 149.600,82.272 149.960,82.000 150.400 C 81.706 150.875,76.674 151.200,69.600 151.200 C 62.526 151.200,57.494 150.875,57.200 150.400 C 56.928 149.960,55.668 149.600,54.400 149.600 C 53.132 149.600,51.872 149.240,51.600 148.800 C 51.328 148.360,50.227 148.000,49.153 148.000 C 48.079 148.000,47.200 147.640,47.200 147.200 C 47.200 146.760,46.321 146.400,45.247 146.400 C 44.173 146.400,43.089 146.068,42.838 145.662 C 42.587 145.255,41.343 144.695,40.074 144.416 C 38.804 144.137,37.133 143.210,36.359 142.355 C 35.585 141.500,34.468 140.800,33.876 140.800 C 33.284 140.800,32.800 140.440,32.800 140.000 C 32.800 139.560,32.254 139.200,31.586 139.200 C 30.918 139.200,29.148 137.940,27.653 136.400 C 26.157 134.860,24.614 133.600,24.224 133.600 C 23.358 133.600,18.400 128.573,18.400 127.695 C 18.400 127.349,17.140 125.843,15.600 124.347 C 14.060 122.852,12.800 121.214,12.800 120.708 C 12.800 120.202,12.152 119.205,11.359 118.494 C 10.567 117.782,9.289 115.760,8.520 114.000 C 7.752 112.240,6.780 110.175,6.361 109.411 C 5.943 108.647,5.600 107.297,5.600 106.411 C 5.600 105.525,5.240 104.800,4.800 104.800 C 4.360 104.800,4.000 103.972,4.000 102.960 C 4.000 101.948,3.668 100.778,3.262 100.360 C 2.855 99.942,2.369 98.520,2.181 97.200 C 1.993 95.880,1.786 99.035,1.720 104.211 C 1.654 109.387,1.942 114.247,2.359 115.011 C 2.776 115.775,3.337 118.102,3.605 120.181 C 3.873 122.261,4.432 124.172,4.846 124.429 C 5.261 124.685,5.600 125.598,5.600 126.458 C 5.600 127.895,6.988 131.046,8.042 132.000 C 8.285 132.220,9.121 133.660,9.900 135.200 C 12.528 140.394,13.404 141.722,15.906 144.303 C 17.278 145.718,18.400 147.181,18.400 147.553 C 18.400 148.541,23.451 153.581,24.450 153.591 C 24.918 153.596,26.358 154.709,27.650 156.064 C 28.943 157.420,31.548 159.237,33.440 160.102 C 35.332 160.968,37.072 162.177,37.307 162.789 C 37.541 163.401,38.779 164.132,40.058 164.413 C 41.336 164.693,42.587 165.255,42.838 165.662 C 43.089 166.068,44.152 166.400,45.200 166.400 C 46.248 166.400,47.315 166.739,47.571 167.154 C 47.828 167.568,49.739 168.127,51.819 168.395 C 53.898 168.663,56.225 169.224,56.989 169.641 C 58.717 170.585,81.349 170.654,81.928 169.717 C 82.160 169.341,84.432 168.813,86.975 168.543 C 91.605 168.053,95.982 166.527,95.994 165.400 C 95.997 165.070,96.671 164.800,97.492 164.800 C 98.313 164.800,99.871 164.102,100.955 163.250 C 102.039 162.397,103.861 161.464,105.004 161.178 C 106.147 160.891,107.705 159.968,108.465 159.128 C 109.226 158.288,110.146 157.600,110.509 157.600 C 111.332 157.600,125.650 143.274,126.949 141.152 C 129.706 136.648,134.400 126.818,134.400 125.551 C 134.400 124.750,134.760 123.872,135.200 123.600 C 135.640 123.328,136.000 122.248,136.000 121.200 C 136.000 120.152,136.360 119.072,136.800 118.800 C 137.240 118.528,137.600 116.959,137.600 115.313 C 137.600 113.667,137.972 111.948,138.427 111.493 C 138.930 110.990,139.164 106.937,139.027 101.133 C 138.902 95.890,138.556 92.140,138.258 92.800 M260.800 103.153 C 260.800 108.658,261.139 112.915,261.600 113.200 C 262.040 113.472,262.400 115.092,262.400 116.800 C 262.400 118.508,262.760 120.128,263.200 120.400 C 263.640 120.672,264.000 121.532,264.000 122.311 C 264.000 123.090,265.821 127.299,268.046 131.664 C 273.080 141.538,273.531 142.280,276.014 144.776 C 277.122 145.889,278.673 147.809,279.461 149.043 C 280.249 150.277,281.502 151.511,282.247 151.786 C 282.991 152.061,285.040 153.764,286.800 155.570 C 289.714 158.560,294.667 161.600,296.623 161.600 C 297.053 161.600,297.858 162.147,298.412 162.815 C 298.967 163.483,300.721 164.593,302.310 165.282 C 303.900 165.971,305.835 166.870,306.611 167.281 C 307.386 167.691,310.188 168.253,312.835 168.530 C 315.483 168.807,317.840 169.341,318.072 169.717 C 318.625 170.611,340.577 170.608,341.130 169.713 C 341.364 169.335,343.766 168.826,346.470 168.581 C 349.173 168.336,351.775 167.745,352.253 167.267 C 352.730 166.790,353.713 166.400,354.437 166.400 C 356.361 166.400,360.849 164.004,361.344 162.712 C 361.579 162.100,362.112 161.600,362.529 161.600 C 364.581 161.600,370.345 158.162,373.162 155.259 C 374.902 153.467,376.637 152.000,377.020 152.000 C 377.919 152.000,380.000 149.919,380.000 149.020 C 380.000 148.637,381.467 146.902,383.259 145.162 C 386.027 142.477,389.600 136.602,389.600 134.738 C 389.600 134.435,390.230 133.602,391.000 132.885 C 392.898 131.120,394.400 128.330,394.400 126.571 C 394.400 125.773,394.790 124.730,395.267 124.253 C 395.745 123.775,396.336 121.173,396.581 118.470 C 396.826 115.766,397.335 113.364,397.713 113.130 C 398.091 112.897,398.339 108.317,398.266 102.953 C 398.192 97.589,397.987 94.640,397.812 96.400 C 397.637 98.160,397.157 99.942,396.747 100.360 C 396.336 100.778,396.000 101.948,396.000 102.960 C 396.000 103.972,395.640 104.800,395.200 104.800 C 394.760 104.800,394.374 105.610,394.342 106.600 C 394.309 107.590,393.597 109.480,392.759 110.800 C 391.921 112.120,390.602 114.550,389.829 116.200 C 389.055 117.850,388.147 119.200,387.811 119.200 C 387.475 119.200,387.200 119.742,387.200 120.405 C 387.200 121.067,385.652 123.137,383.760 125.005 C 381.868 126.872,380.076 129.038,379.778 129.818 C 379.480 130.598,378.598 131.480,377.818 131.778 C 377.038 132.076,374.872 133.868,373.005 135.760 C 371.137 137.652,369.067 139.200,368.405 139.200 C 367.742 139.200,367.200 139.475,367.200 139.811 C 367.200 140.147,365.850 141.055,364.200 141.829 C 362.550 142.602,360.120 143.921,358.800 144.759 C 357.480 145.597,355.590 146.309,354.600 146.342 C 353.610 146.374,352.800 146.760,352.800 147.200 C 352.800 147.640,351.921 148.000,350.847 148.000 C 349.773 148.000,348.672 148.360,348.400 148.800 C 348.128 149.240,346.508 149.600,344.800 149.600 C 343.092 149.600,341.472 149.960,341.200 150.400 C 340.909 150.871,336.141 151.200,329.600 151.200 C 323.059 151.200,318.291 150.871,318.000 150.400 C 317.728 149.960,316.108 149.600,314.400 149.600 C 312.692 149.600,311.072 149.240,310.800 148.800 C 310.528 148.360,309.427 148.000,308.353 148.000 C 307.279 148.000,306.400 147.640,306.400 147.200 C 306.400 146.760,305.590 146.374,304.600 146.342 C 303.610 146.309,301.720 145.585,300.400 144.732 C 299.080 143.879,297.370 142.964,296.600 142.697 C 295.830 142.431,295.200 141.895,295.200 141.507 C 295.200 141.118,294.480 140.800,293.600 140.800 C 292.720 140.800,292.000 140.440,292.000 140.000 C 292.000 139.560,291.533 139.200,290.962 139.200 C 290.392 139.200,288.502 137.726,286.762 135.925 C 285.023 134.123,282.784 132.330,281.786 131.939 C 280.788 131.548,279.654 130.412,279.266 129.414 C 278.878 128.416,277.445 126.543,276.081 125.250 C 274.716 123.958,273.600 122.428,273.600 121.850 C 273.600 121.273,273.284 120.800,272.897 120.800 C 271.275 120.800,262.927 102.344,262.563 97.952 C 261.912 90.110,260.800 93.392,260.800 103.153 M117.775 325.800 C 117.990 335.183,118.070 335.590,119.653 335.375 C 120.562 335.251,121.968 335.881,122.777 336.775 C 123.586 337.669,124.732 338.400,125.324 338.400 C 125.916 338.400,126.400 338.675,126.400 339.010 C 126.400 339.346,127.095 339.976,127.945 340.410 C 128.795 340.845,131.585 342.260,134.145 343.557 C 136.705 344.853,139.880 346.684,141.200 347.627 C 142.520 348.569,144.900 349.932,146.490 350.655 C 148.079 351.379,149.814 352.494,150.345 353.134 C 150.876 353.774,152.366 354.529,153.655 354.812 C 154.945 355.095,156.000 355.659,156.000 356.064 C 156.000 356.469,156.588 356.800,157.306 356.800 C 158.025 356.800,159.195 357.448,159.906 358.241 C 160.618 359.033,162.460 360.319,164.000 361.099 C 168.460 363.357,170.291 364.456,171.794 365.776 C 172.568 366.455,173.963 367.243,174.894 367.526 C 175.826 367.809,177.232 368.752,178.018 369.620 C 178.805 370.489,179.814 371.200,180.261 371.200 C 180.708 371.200,181.735 371.798,182.543 372.529 C 184.094 373.933,185.829 374.986,190.400 377.301 C 191.940 378.081,193.782 379.367,194.494 380.159 C 195.205 380.952,196.077 381.600,196.431 381.600 C 196.785 381.600,197.732 382.196,198.537 382.924 C 199.898 384.156,200.102 384.156,201.463 382.924 C 202.268 382.196,203.268 381.600,203.686 381.600 C 204.105 381.600,204.966 380.880,205.600 380.000 C 206.234 379.120,207.170 378.400,207.679 378.400 C 208.188 378.400,209.083 377.822,209.669 377.117 C 210.255 376.411,211.469 375.495,212.367 375.082 C 214.797 373.965,217.412 372.402,218.994 371.120 C 219.768 370.494,221.660 369.293,223.200 368.451 C 224.740 367.609,226.180 366.713,226.400 366.460 C 226.831 365.965,231.472 363.368,236.000 361.090 C 237.540 360.315,239.382 359.033,240.094 358.241 C 240.805 357.448,241.975 356.800,242.694 356.800 C 243.412 356.800,244.000 356.469,244.000 356.064 C 244.000 355.659,245.055 355.095,246.345 354.812 C 247.634 354.529,249.124 353.774,249.655 353.134 C 250.186 352.494,251.921 351.368,253.510 350.632 C 255.100 349.895,257.480 348.520,258.800 347.576 C 260.120 346.632,262.500 345.268,264.090 344.545 C 265.679 343.821,267.414 342.706,267.945 342.066 C 268.476 341.426,269.966 340.671,271.255 340.388 C 272.545 340.105,273.600 339.541,273.600 339.136 C 273.600 338.731,274.084 338.400,274.676 338.400 C 275.268 338.400,276.404 337.680,277.200 336.800 C 277.996 335.920,279.492 335.200,280.524 335.200 C 282.388 335.200,282.400 335.137,282.400 325.600 L 282.400 316.000 280.447 316.000 C 279.373 316.000,278.278 316.350,278.013 316.779 C 277.749 317.207,276.197 318.178,274.566 318.937 C 272.935 319.696,271.420 320.515,271.200 320.758 C 270.513 321.517,267.782 323.063,262.706 325.567 C 260.014 326.894,257.390 328.490,256.873 329.112 C 256.357 329.734,254.980 330.482,253.815 330.775 C 252.649 331.068,251.133 331.930,250.447 332.691 C 249.761 333.452,247.220 335.062,244.800 336.270 C 240.278 338.526,237.503 340.097,236.800 340.800 C 236.069 341.531,233.239 343.153,229.849 344.784 C 228.005 345.670,226.287 346.736,226.030 347.151 C 225.774 347.566,223.952 348.711,221.982 349.695 C 220.012 350.679,218.400 351.780,218.400 352.142 C 218.400 352.504,217.812 352.800,217.094 352.800 C 216.375 352.800,215.200 353.430,214.483 354.200 C 213.029 355.759,210.829 357.241,208.367 358.319 C 207.469 358.712,206.255 359.611,205.669 360.317 C 205.083 361.022,204.227 361.600,203.765 361.600 C 203.304 361.600,202.268 362.196,201.463 362.924 C 200.102 364.156,199.898 364.156,198.537 362.924 C 197.732 362.196,196.708 361.600,196.261 361.600 C 195.814 361.600,194.815 360.900,194.041 360.045 C 193.267 359.190,191.574 358.258,190.279 357.973 C 188.984 357.689,187.494 356.768,186.969 355.928 C 186.445 355.088,185.514 354.400,184.901 354.400 C 184.289 354.400,183.200 353.770,182.483 353.000 C 180.907 351.310,179.080 350.148,174.649 348.016 C 172.805 347.130,171.060 346.021,170.771 345.553 C 170.481 345.084,169.470 344.364,168.522 343.953 C 166.731 343.174,163.893 341.493,163.200 340.800 C 162.497 340.097,159.722 338.526,155.200 336.270 C 152.780 335.062,150.218 333.428,149.506 332.637 C 148.795 331.847,147.965 331.200,147.662 331.200 C 146.570 331.200,140.085 327.985,139.603 327.205 C 139.331 326.765,137.206 325.535,134.880 324.471 C 132.554 323.407,130.144 322.042,129.525 321.438 C 128.906 320.834,127.065 319.713,125.434 318.948 C 123.803 318.183,122.251 317.207,121.987 316.779 C 121.722 316.350,120.616 316.000,119.528 316.000 L 117.551 316.000 117.775 325.800 M21.600 478.800 L 21.600 488.800 69.600 488.800 L 117.600 488.800 117.600 478.800 L 117.600 468.800 69.600 468.800 L 21.600 468.800 21.600 478.800 M282.400 478.800 L 282.400 488.800 329.600 488.800 L 376.800 488.800 376.800 478.800 L 376.800 468.800 329.600 468.800 L 282.400 468.800 282.400 478.800 " stroke="none" fill="#ffffff" fill-rule="evenodd"/>
  </g>
</svg>
