<svg xmlns="http://www.w3.org/2000/svg" width="400" height="500" display="block"><g fill-rule="evenodd"><path d="M60.4 13.6c-.272.44-2.093.8-4.047.8-1.954 0-3.553.36-3.553.8 0 .44-1.17.802-2.6.805-1.43.003-3.68.596-5 1.318-5.843 3.195-12.855 6.672-13.463 6.675-.364.001-1.984 1.356-3.6 3.012-1.615 1.655-3.946 3.656-5.18 4.446-1.234.791-2.473 2.037-2.755 2.771-.281.733-1.972 2.782-3.757 4.553-3.136 3.111-5.217 6.314-8.202 12.62-.781 1.65-1.696 3-2.032 3-.336 0-.611.879-.611 1.953s-.335 2.159-.744 2.412c-.409.253-.991 2.439-1.294 4.858-.302 2.419-.867 4.595-1.255 4.835-1.005.62-.913 25.942.093 25.942.44 0 .8 1.085.8 2.411s.36 3.126.8 4l1.6 3.178c.44.874.8 2.132.8 2.795 0 1.675 2.643 7.616 3.389 7.616.336 0 .611.484.611 1.076 0 .592.72 1.728 1.6 2.524.88.796 1.6 1.862 1.6 2.367 0 .506 1.26 2.14 2.8 3.633 1.54 1.493 2.8 3.074 2.8 3.513 0 1.115 4.104 5.287 5.2 5.287.495 0 1.958 1.105 3.25 2.456 1.293 1.35 3.61 3.042 5.15 3.759 1.54.717 3.34 1.88 4 2.585 1.455 1.553 6.551 4 8.332 4 .709 0 2.005.36 2.879.8l3.178 1.6c.874.44 2.674.8 4 .8s2.411.36 2.411.8c0 1.077 22.934 1.077 23.6 0 .272-.44 2.093-.8 4.047-.8 1.954 0 3.553-.36 3.553-.8 0-.44.879-.8 1.953-.8s2.158-.332 2.409-.738c.251-.407 1.532-.975 2.847-1.264 1.315-.289 2.391-.857 2.391-1.262s.72-.736 1.6-.736c.88 0 1.6-.275 1.6-.611 0-.336 1.35-1.255 3-2.041s3.862-1.92 4.915-2.519c2.629-1.498 16.085-14.978 16.085-16.114 0-.506.513-1.345 1.139-1.865 1.467-1.217 7.661-13.695 7.661-15.433 0-.727.36-1.545.8-1.817.44-.272.8-1.373.8-2.447s.36-1.953.8-1.953c.44 0 .8-1.62.8-3.6s.293-3.6.65-3.6c.816 0 .768-18.849-.05-19.667-.33-.33-.6-1.958-.6-3.619 0-1.661-.36-3.242-.8-3.514-.44-.272-.8-1.352-.8-2.4 0-1.048-.36-2.128-.8-2.4-.44-.272-.8-1.067-.8-1.767 0-1.52-4.071-10.118-4.971-10.5-.346-.146-.629-.714-.629-1.26 0-.547-.9-1.84-2-2.873-1.1-1.033-2-2.275-2-2.758 0-1.122-12.153-13.242-13.278-13.242-.464 0-1.689-.9-2.722-2s-2.326-2-2.873-2c-.546 0-1.114-.272-1.26-.604-.503-1.137-10.666-5.832-13.686-6.322-1.661-.269-3.212-.801-3.448-1.182-.235-.381-1.825-.692-3.533-.692s-3.328-.36-3.6-.8c-.285-.461-4.526-.8-10-.8s-9.715.339-10 .8m259.2 0c-.272.44-1.892.8-3.6.8-1.708 0-3.298.311-3.533.692-.236.381-1.787.913-3.448 1.182-2.686.436-12.787 4.944-13.819 6.168-.22.261-.94.733-1.6 1.048-.66.315-2.062 1.068-3.115 1.672-2.599 1.493-16.039 14.844-16.95 16.838-.843 1.845-2.534 4.616-3.173 5.2-.24.22-1.433 2.56-2.651 5.2-1.217 2.64-2.55 5.425-2.962 6.189-.412.764-.749 2.273-.749 3.353s-.36 2.186-.8 2.458c-.44.272-.8 1.532-.8 2.8 0 1.268-.334 2.512-.743 2.765-.934.577-.882 22.835.054 22.835.379 0 .689 1.62.689 3.6s.36 3.6.8 3.6c.44 0 .8.641.8 1.424 0 1.669 7.338 16.519 9.156 18.527.684.756 1.244 1.726 1.244 2.155 0 .429 1.26 2.001 2.8 3.494 1.54 1.493 2.8 3.183 2.8 3.757 0 .574.382 1.043.848 1.043.466 0 2.716 1.725 5 3.834 2.284 2.108 5.952 4.712 8.152 5.786 2.2 1.074 4.597 2.606 5.327 3.405.73.798 2.629 1.663 4.22 1.921 1.59.258 3.084.781 3.32 1.162.235.381 1.306.692 2.38.692 1.074 0 1.953.36 1.953.8 0 .44 1.599.8 3.553.8s3.775.36 4.047.8c.664 1.075 22 1.075 22 0 0-.44 1.445-.8 3.211-.8 1.766 0 3.836-.318 4.6-.707 2.899-1.474 5.474-2.416 7.906-2.892 1.384-.27 3.15-1.191 3.924-2.046.774-.855 1.891-1.555 2.483-1.555.592 0 1.076-.293 1.076-.651 0-.358 1.245-1.139 2.767-1.736 1.523-.597 4.297-2.645 6.167-4.55 1.87-1.904 3.875-3.463 4.458-3.463.582 0 1.278-.63 1.546-1.4.268-.77 2.008-3.02 3.868-5 1.859-1.98 3.876-4.77 4.482-6.2.607-1.43 1.375-2.6 1.707-2.6.333 0 .605-.484.605-1.076 0-.592.7-1.709 1.555-2.483s1.776-2.54 2.046-3.924c.476-2.432 1.418-5.007 2.892-7.906.389-.764.707-2.834.707-4.6 0-1.766.36-3.211.8-3.211 1.038 0 1.074-21.121.039-23.011-.418-.764-.983-3.453-1.256-5.976-.272-2.523-.83-4.795-1.239-5.048-.409-.253-.744-1.3-.744-2.327s-.523-2.067-1.162-2.313c-1.08-.414-4.438-6.738-4.438-8.357 0-.396-.72-1.372-1.6-2.168-.88-.796-1.6-1.772-1.6-2.167 0-.834-14.166-14.958-16.458-16.409-.848-.537-3.702-2.078-6.342-3.424-2.64-1.345-6.054-3.156-7.588-4.023-1.533-.867-3.963-1.577-5.4-1.577-1.436 0-2.612-.36-2.612-.8 0-.44-1.599-.8-3.553-.8s-3.775-.36-4.047-.8c-.285-.461-4.526-.8-10-.8s-9.715.339-10 .8M22.133 176.533c-.293.294-.533 65.994-.533 146V468h96V315.2h2.4c1.32 0 2.4.351 2.4.78 0 .429 1.598 1.508 3.551 2.398 1.954.89 3.761 1.955 4.016 2.368.255.413 2.353 1.616 4.661 2.672 2.309 1.057 4.732 2.444 5.385 3.082 1.287 1.258 6.56 3.9 7.784 3.9.415 0 1.407.72 2.203 1.6.796.88 1.932 1.6 2.524 1.6.592 0 1.076.36 1.076.8 0 .44.72.8 1.6.8.88 0 1.6.275 1.6.61 0 .61.349.824 6.123 3.749 1.692.858 3.659 2.208 4.371 3 .711.793 1.864 1.441 2.56 1.441.697 0 1.554.469 1.906 1.043.352.574 1.975 1.664 3.606 2.422 1.631.758 3.196 1.75 3.478 2.206.281.455 1.286 1.165 2.234 1.576 2.209.961 4.42 2.389 6.429 4.153.877.77 2.067 1.4 2.644 1.4s1.049.318 1.049.707c0 .388.63.934 1.4 1.212 1.756.635 4.437 2.218 6.115 3.61 1.071.889 1.499.889 2.57 0 1.329-1.102 3.823-2.638 5.915-3.642.66-.317 1.782-1.231 2.494-2.031.711-.801 1.843-1.456 2.514-1.456.672 0 1.416-.509 1.655-1.132.418-1.088 1.644-1.873 7.737-4.951 1.54-.778 3.818-2.248 5.061-3.266 1.244-1.018 2.822-1.851 3.507-1.851.684 0 1.827-.648 2.538-1.441.712-.792 2.679-2.142 4.371-3 5.774-2.925 6.123-3.139 6.123-3.749 0-.335.72-.61 1.6-.61.88 0 1.6-.36 1.6-.8 0-.44.484-.8 1.076-.8.592 0 1.709-.7 2.483-1.555s2.425-1.778 3.669-2.051c1.244-.273 2.669-.988 3.167-1.588.498-.6 2.773-2.057 5.055-3.238 2.283-1.181 4.69-2.585 5.35-3.12.66-.536 3.27-1.962 5.8-3.17 2.53-1.207 4.6-2.529 4.6-2.937 0-.407 1.08-.741 2.4-.741h2.4v152.813l47.4-.207 47.4-.206V176.4h-94.4l-.4 17.177c-.391 16.81-.438 17.197-2.194 18.071-.987.492-2.456 1.492-3.263 2.223-.808.731-1.735 1.329-2.059 1.329-.738 0-6.389 4.185-6.751 5-.146.33-.732.6-1.302.6-.569 0-1.514.578-2.1 1.283-.586.706-1.8 1.622-2.698 2.035-2.73 1.255-5.145 2.755-6.69 4.153-.808.731-1.902 1.329-2.431 1.329-.529 0-1.169.54-1.423 1.2-.253.66-.918 1.2-1.477 1.2s-1.495.578-2.081 1.283c-.586.706-1.8 1.622-2.698 2.035-2.73 1.255-5.145 2.755-6.69 4.153-.808.731-1.749 1.329-2.091 1.329-.534 0-2.225 1.229-6.618 4.812-.532.433-1.223.788-1.537.788-.314 0-1.232.598-2.04 1.329-1.545 1.398-3.96 2.898-6.69 4.153-.898.413-2.112 1.329-2.698 2.035-.586.705-1.419 1.283-1.851 1.283-.678 0-2.254 1.117-6.784 4.812-.532.433-1.228.788-1.549.788-.32 0-1.412.78-2.427 1.733-1.05.987-2.884 1.734-4.258 1.734s-3.208-.747-4.258-1.734c-1.015-.953-2.107-1.733-2.427-1.733-.321 0-1.017-.355-1.549-.788-4.53-3.695-6.106-4.812-6.784-4.812-.432 0-1.265-.578-1.851-1.283-.586-.706-1.8-1.622-2.698-2.035-2.73-1.255-5.145-2.755-6.69-4.153-.808-.731-1.726-1.329-2.04-1.329-.314 0-1.005-.355-1.537-.788-4.53-3.695-6.106-4.812-6.784-4.812-.432 0-1.265-.578-1.851-1.283-.586-.706-1.8-1.622-2.698-2.035-2.73-1.255-5.145-2.755-6.69-4.153-.808-.731-1.891-1.329-2.406-1.329-.515 0-.937-.371-.937-.825 0-.454-.63-1.049-1.4-1.322-.77-.273-2.032-1.04-2.806-1.704-1.525-1.31-4.05-2.846-6.627-4.031-.898-.413-2.112-1.329-2.698-2.035-.586-.705-1.531-1.283-2.1-1.283-.57 0-1.156-.27-1.302-.6-.362-.815-6.013-5-6.751-5-.324 0-1.251-.598-2.059-1.329-.807-.731-2.276-1.731-3.263-2.223-1.766-.88-1.797-1.167-2.01-18.271L117.569 176H70.118c-26.098 0-47.691.24-47.985.533" fill="#606060"/><path d="M62.6.551c.77.202 2.03.202 2.8 0 .77-.201.14-.365-1.4-.365s-2.17.164-1.4.365m11-.242c0 .17 1.08.468 2.4.662 1.32.193 2.4.054 2.4-.31C78.4.298 77.32 0 76 0c-1.32 0-2.4.139-2.4.309m248 .352c0 .364 1.08.503 2.4.31 1.32-.194 2.4-.492 2.4-.662 0-.17-1.08-.309-2.4-.309-1.32 0-2.4.298-2.4.661m13-.11c.77.202 2.03.202 2.8 0 .77-.201.14-.365-1.4-.365s-2.17.164-1.4.365M138.258 92.8c-.298.66-.774 3.27-1.058 5.8-.283 2.53-.849 4.6-1.258 4.6-.408 0-.738.63-.733 1.4.012 1.811-7.191 16.2-8.11 16.2-.384 0-.699.457-.699 1.016 0 1.3-14.507 15.784-15.808 15.784-.538 0-1.428.72-1.978 1.6-.549.88-1.632 1.6-2.406 1.6-.775 0-1.408.275-1.408.611 0 .336-1.53 1.26-3.4 2.053-1.87.793-4.39 1.866-5.6 2.384-1.21.519-2.2 1.215-2.2 1.547 0 .333-.879.605-1.953.605s-2.175.36-2.447.8c-.272.44-1.892.8-3.6.8-1.708 0-3.328.36-3.6.8-.294.475-5.326.8-12.4.8-7.074 0-12.106-.325-12.4-.8-.272-.44-1.532-.8-2.8-.8-1.268 0-2.528-.36-2.8-.8-.272-.44-1.373-.8-2.447-.8s-1.953-.36-1.953-.8c0-.44-.879-.8-1.953-.8s-2.158-.332-2.409-.738c-.251-.407-1.495-.967-2.764-1.246-1.27-.279-2.941-1.206-3.715-2.061s-1.891-1.555-2.483-1.555c-.592 0-1.076-.36-1.076-.8 0-.44-.546-.8-1.214-.8-.668 0-2.438-1.26-3.933-2.8-1.496-1.54-3.039-2.8-3.429-2.8-.866 0-5.824-5.027-5.824-5.905 0-.346-1.26-1.852-2.8-3.348-1.54-1.495-2.8-3.133-2.8-3.639 0-.506-.648-1.503-1.441-2.214-.792-.712-2.07-2.734-2.839-4.494-.768-1.76-1.74-3.825-2.159-4.589-.418-.764-.761-2.114-.761-3 0-.886-.36-1.611-.8-1.611-.44 0-.8-.828-.8-1.84s-.332-2.182-.738-2.6c-.407-.418-.893-1.84-1.081-3.16-.188-1.32-.395 1.835-.461 7.011s.222 10.036.639 10.8c.417.764.978 3.091 1.246 5.17.268 2.08.827 3.991 1.241 4.248.415.256.754 1.169.754 2.029 0 1.437 1.388 4.588 2.442 5.542.243.22 1.079 1.66 1.858 3.2 2.628 5.194 3.504 6.522 6.006 9.103 1.372 1.415 2.494 2.878 2.494 3.25 0 .988 5.051 6.028 6.05 6.038.468.005 1.908 1.118 3.2 2.473 1.293 1.356 3.898 3.173 5.79 4.038 1.892.866 3.632 2.075 3.867 2.687.234.612 1.472 1.343 2.751 1.624 1.278.28 2.529.842 2.78 1.249.251.406 1.314.738 2.362.738s2.115.339 2.371.754c.257.414 2.168.973 4.248 1.241 2.079.268 4.406.829 5.17 1.246 1.728.944 24.36 1.013 24.939.076.232-.376 2.504-.904 5.047-1.174 4.63-.49 9.007-2.016 9.019-3.143.003-.33.677-.6 1.498-.6s2.379-.698 3.463-1.55c1.084-.853 2.906-1.786 4.049-2.072 1.143-.287 2.701-1.21 3.461-2.05.761-.84 1.681-1.528 2.044-1.528.823 0 15.141-14.326 16.44-16.448 2.757-4.504 7.451-14.334 7.451-15.601 0-.801.36-1.679.8-1.951.44-.272.8-1.352.8-2.4 0-1.048.36-2.128.8-2.4.44-.272.8-1.841.8-3.487 0-1.646.372-3.365.827-3.82.503-.503.737-4.556.6-10.36-.125-5.243-.471-8.993-.769-8.333M260.8 103.153c0 5.505.339 9.762.8 10.047.44.272.8 1.892.8 3.6 0 1.708.36 3.328.8 3.6.44.272.8 1.132.8 1.911 0 .779 1.821 4.988 4.046 9.353 5.034 9.874 5.485 10.616 7.968 13.112 1.108 1.113 2.659 3.033 3.447 4.267.788 1.234 2.041 2.468 2.786 2.743.744.275 2.793 1.978 4.553 3.784 2.914 2.99 7.867 6.03 9.823 6.03.43 0 1.235.547 1.789 1.215.555.668 2.309 1.778 3.898 2.467 1.59.689 3.525 1.588 4.301 1.999.775.41 3.577.972 6.224 1.249 2.648.277 5.005.811 5.237 1.187.553.894 22.505.891 23.058-.004.234-.378 2.636-.887 5.34-1.132 2.703-.245 5.305-.836 5.783-1.314.477-.477 1.46-.867 2.184-.867 1.924 0 6.412-2.396 6.907-3.688.235-.612.768-1.112 1.185-1.112 2.052 0 7.816-3.438 10.633-6.341 1.74-1.792 3.475-3.259 3.858-3.259.899 0 2.98-2.081 2.98-2.98 0-.383 1.467-2.118 3.259-3.858 2.768-2.685 6.341-8.56 6.341-10.424 0-.303.63-1.136 1.4-1.853 1.898-1.765 3.4-4.555 3.4-6.314 0-.798.39-1.841.867-2.318.478-.478 1.069-3.08 1.314-5.783.245-2.704.754-5.106 1.132-5.34.378-.233.626-4.813.553-10.177-.074-5.364-.279-8.313-.454-6.553-.175 1.76-.655 3.542-1.065 3.96-.411.418-.747 1.588-.747 2.6s-.36 1.84-.8 1.84c-.44 0-.826.81-.858 1.8-.033.99-.745 2.88-1.583 4.2-.838 1.32-2.157 3.75-2.93 5.4-.774 1.65-1.682 3-2.018 3-.336 0-.611.542-.611 1.205 0 .662-1.548 2.732-3.44 4.6-1.892 1.867-3.684 4.033-3.982 4.813-.298.78-1.18 1.662-1.96 1.96-.78.298-2.946 2.09-4.813 3.982-1.868 1.892-3.938 3.44-4.6 3.44-.663 0-1.205.275-1.205.611 0 .336-1.35 1.244-3 2.018-1.65.773-4.08 2.092-5.4 2.93-1.32.838-3.21 1.55-4.2 1.583-.99.032-1.8.418-1.8.858s-.879.8-1.953.8-2.175.36-2.447.8c-.272.44-1.892.8-3.6.8-1.708 0-3.328.36-3.6.8-.291.471-5.059.8-11.6.8-6.541 0-11.309-.329-11.6-.8-.272-.44-1.892-.8-3.6-.8-1.708 0-3.328-.36-3.6-.8-.272-.44-1.373-.8-2.447-.8s-1.953-.36-1.953-.8c0-.44-.81-.826-1.8-.858-.99-.033-2.88-.757-4.2-1.61-1.32-.853-3.03-1.768-3.8-2.035-.77-.266-1.4-.802-1.4-1.19 0-.389-.72-.707-1.6-.707-.88 0-1.6-.36-1.6-.8 0-.44-.467-.8-1.038-.8-.57 0-2.46-1.474-4.2-3.275-1.739-1.802-3.978-3.595-4.976-3.986-.998-.391-2.132-1.527-2.52-2.525-.388-.998-1.821-2.871-3.185-4.164-1.365-1.292-2.481-2.822-2.481-3.4 0-.577-.316-1.05-.703-1.05-1.622 0-9.97-18.456-10.334-22.848-.651-7.842-1.763-4.56-1.763 5.201M117.775 325.8c.215 9.383.295 9.79 1.878 9.575.909-.124 2.315.506 3.124 1.4.809.894 1.955 1.625 2.547 1.625.592 0 1.076.275 1.076.61 0 .336.695.966 1.545 1.4.85.435 3.64 1.85 6.2 3.147 2.56 1.296 5.735 3.127 7.055 4.07 1.32.942 3.7 2.305 5.29 3.028 1.589.724 3.324 1.839 3.855 2.479.531.64 2.021 1.395 3.31 1.678 1.29.283 2.345.847 2.345 1.252s.588.736 1.306.736c.719 0 1.889.648 2.6 1.441.712.792 2.554 2.078 4.094 2.858 4.46 2.258 6.291 3.357 7.794 4.677.774.679 2.169 1.467 3.1 1.75.932.283 2.338 1.226 3.124 2.094.787.869 1.796 1.58 2.243 1.58.447 0 1.474.598 2.282 1.329 1.551 1.404 3.286 2.457 7.857 4.772 1.54.78 3.382 2.066 4.094 2.858.711.793 1.583 1.441 1.937 1.441.354 0 1.301.596 2.106 1.324 1.361 1.232 1.565 1.232 2.926 0 .805-.728 1.805-1.324 2.223-1.324.419 0 1.28-.72 1.914-1.6.634-.88 1.57-1.6 2.079-1.6.509 0 1.404-.578 1.99-1.283.586-.706 1.8-1.622 2.698-2.035 2.43-1.117 5.045-2.68 6.627-3.962.774-.626 2.666-1.827 4.206-2.669 1.54-.842 2.98-1.738 3.2-1.991.431-.495 5.072-3.092 9.6-5.37 1.54-.775 3.382-2.057 4.094-2.849.711-.793 1.881-1.441 2.6-1.441.718 0 1.306-.331 1.306-.736 0-.405 1.055-.969 2.345-1.252 1.289-.283 2.779-1.038 3.31-1.678.531-.64 2.266-1.766 3.855-2.502 1.59-.737 3.97-2.112 5.29-3.056 1.32-.944 3.7-2.308 5.29-3.031 1.589-.724 3.324-1.839 3.855-2.479.531-.64 2.021-1.395 3.31-1.678 1.29-.283 2.345-.847 2.345-1.252s.484-.736 1.076-.736c.592 0 1.728-.72 2.524-1.6.796-.88 2.292-1.6 3.324-1.6 1.864 0 1.876-.063 1.876-9.6V316h-1.953c-1.074 0-2.169.35-2.434.779-.264.428-1.816 1.399-3.447 2.158-1.631.759-3.146 1.578-3.366 1.821-.687.759-3.418 2.305-8.494 4.809-2.692 1.327-5.316 2.923-5.833 3.545-.516.622-1.893 1.37-3.058 1.663-1.166.293-2.682 1.155-3.368 1.916-.686.761-3.227 2.371-5.647 3.579-4.522 2.256-7.297 3.827-8 4.53-.731.731-3.561 2.353-6.951 3.984-1.844.886-3.562 1.952-3.819 2.367-.256.415-2.078 1.56-4.048 2.544-1.97.984-3.582 2.085-3.582 2.447 0 .362-.588.658-1.306.658-.719 0-1.894.63-2.611 1.4-1.454 1.559-3.654 3.041-6.116 4.119-.898.393-2.112 1.292-2.698 1.998-.586.705-1.442 1.283-1.904 1.283-.461 0-1.497.596-2.302 1.324-1.361 1.232-1.565 1.232-2.926 0-.805-.728-1.829-1.324-2.276-1.324-.447 0-1.446-.7-2.22-1.555-.774-.855-2.467-1.787-3.762-2.072-1.295-.284-2.785-1.205-3.31-2.045-.524-.84-1.455-1.528-2.068-1.528-.612 0-1.701-.63-2.418-1.4-1.576-1.69-3.403-2.852-7.834-4.984-1.844-.886-3.589-1.995-3.878-2.463-.29-.469-1.301-1.189-2.249-1.6-1.791-.779-4.629-2.46-5.322-3.153-.703-.703-3.478-2.274-8-4.53-2.42-1.208-4.982-2.842-5.694-3.633-.711-.79-1.541-1.437-1.844-1.437-1.092 0-7.577-3.215-8.059-3.995-.272-.44-2.397-1.67-4.723-2.734s-4.736-2.429-5.355-3.033c-.619-.604-2.46-1.725-4.091-2.49-1.631-.765-3.183-1.741-3.447-2.169-.265-.429-1.371-.779-2.459-.779h-1.977l.224 9.8M21.6 478.8v10h96v-20h-96v10m260.8 0v10h94.4v-20h-94.4v10" fill="#fff"/></g></svg>