<?xml version="1.0" standalone="no"?>
<!DOCTYPE svg PUBLIC "-//W3C//DTD SVG 1.1//EN" "http://www.w3.org/Graphics/SVG/1.1/DTD/svg11.dtd" >
<svg xmlns="http://www.w3.org/2000/svg">
<metadata>
Generated by SVGconv.
Copyright   : Copyright  2010 ParaType Inc., ParaType Ltd. All rights reserved.
Designer    : A.Korolkova, I.Chaeva
Foundry     : ParaType Ltd
Foundry URL : http://www.paratype.com
</metadata>
<defs>
<font id="PTMono-Bold" horiz-adv-x="598" >
<font-face units-per-em="1000" ascent="885" descent="235" />
<missing-glyph horiz-adv-x="600" />
<glyph unicode="&#13;" horiz-adv-x="600" />
<glyph unicode="&#32;" horiz-adv-x="600" />
<glyph unicode="&#33;" horiz-adv-x="600" d="M233 700h134v-329l-26 -163h-82l-26 163zM219 66q0 35 22 55.5q22 20.5 58 20.5q38 0 60 -20.5q22 -20.5 22 -55.5q0 -35 -22 -56q-22 -21 -60 -21q-36 0 -58 21t-22 56z" />
<glyph unicode="&#34;" horiz-adv-x="600" d="M129 700h114l-36 -316h-78zM347 700h114l-36 -316l-78 0z" />
<glyph unicode="&#35;" horiz-adv-x="600" d="M310 205h-89l-36 -154h-107l36 154h-74l22 97h75l25 106h-72l22 97h73l35 144h106l-34 -144h89l35 144h106l-34 -144h72l-25 -97h-70l-25 -106h69l-24 -97h-68l-36 -154h-107zM244 302h89l25 106l-89 0z" />
<glyph unicode="&#36;" horiz-adv-x="600" d="M245 -13q-57 2 -100 12q-43 10 -67 23l39 113q18 -11 50.5 -21q32.5 -10 77.5 -14l0 205q-31 14 -61.5 31q-30.5 17 -54.5 41q-24 24 -38.5 57.5q-14.5 33.5 -14.5 79.5q0 86 45.5 133.5q45.5 47.5 123.5 61.5l0 91h104v-87q44 -3 77 -12q33 -9 61 -21l-36 -111q-17 8 -43 16q-26 8 -59 12l0 -187q31 -14 62.5 -31.5q31.5 -17.5 56 -41.5q24.5 -24 40 -56.5q15.5 -32.5 15.5 -77.5q0 -92 -46.5 -143.5q-46.5 -51.5 -127.5 -66.5l0 -93h-104zM391 188q0 32 -24.5 52.5q-24.5 20.5 -60.5 37.5l0 -178q44 5 64.5 28q20.5 23 20.5 60zt0 0zM208 525q0 -30 22.5 -50q22.5 -20 57.5 -37l0 162q-47 -2 -63.5 -23t-16.5 -52z" />
<glyph unicode="&#37;" horiz-adv-x="600" d="M16 542q0 90 38.5 130q38.5 40 107.5 40q68 0 106.5 -38q38.5 -38 38.5 -132q0 -94 -38.5 -132q-38.5 -38 -106.5 -38q-69 0 -107.5 38q-38.5 38 -38.5 132zt0 0zM113 542q0 -86 49 -86q23 0 35.5 18.5q12.5 18.5 12.5 67.5q0 48 -12.5 67q-12.5 19 -35.5 19q-23 0 -36 -19q-13 -19 -13 -67zt0 0zM520 709l58 -53l-507 -670l-56 57zM293 170q0 90 38.5 130q38.5 40 107.5 40q68 0 106.5 -38q38.5 -38 38.5 -132q0 -94 -38.5 -132q-38.5 -38 -106.5 -38q-69 0 -107.5 38q-38.5 38 -38.5 132zt0 0zM390 170q0 -86 49 -86q23 0 35.5 18.5q12.5 18.5 12.5 67.5q0 48 -12.5 67q-12.5 19 -35.5 19q-23 0 -36 -19t-13 -67z" />
<glyph unicode="&#38;" horiz-adv-x="600" d="M12 194q0 38 11.5 72q11.5 34 30.5 63q19 29 43.5 54q24.5 25 50.5 45q-30 33 -47.5 69.5q-17.5 36.5 -17.5 74.5q0 25 9.5 50.5q9.5 25.5 30 46q20.5 20.5 53.5 33q33 12.5 80 12.5q46 0 78.5 -11q32.5 -11 52.5 -29q20 -18 29 -41q9 -23 9 -47q0 -41 -31.5 -87q-31.5 -46 -101.5 -87q35 -54 72.5 -97.5q37.5 -43.5 80.5 -87.5q11 12 19.5 31q8.5 19 14 40q5.5 21 8 42.5q2.5 21.5 2.5 39.5l102 0q-1 -77 -22.5 -135.5q-21.5 -58.5 -44.5 -86.5q12 -12 30 -23.5q18 -11.5 35 -19.5l0 -129q-45 11 -80.5 33.5q-35.5 22.5 -64.5 50.5q-18 -17 -39 -32q-21 -15 -46.5 -26.5q-25.5 -11.5 -57 -18.5q-31.5 -7 -70.5 -7q-47 0 -87.5 14q-40.5 14 -69.5 41q-29 27 -45.5 65.5q-16.5 38.5 -16.5 87.5zt0 0zM366 149q-51 53 -90 102.5q-39 49.5 -70 96.5q-31 -30 -47.5 -65q-16.5 -35 -16.5 -78q0 -26 8.5 -46q8.5 -20 23.5 -34q15 -14 34 -21.5q19 -7.5 40 -7.5q40 0 70 16.5q30 16.5 48 36.5zt0 0zM213 566q0 -42 36 -90q39 25 56.5 47q17.5 22 17.5 42q0 24 -13.5 38q-13.5 14 -43.5 14q-27 0 -40 -14t-13 -37z" />
<glyph unicode="&#39;" horiz-adv-x="600" d="M243 700h114l-36 -316l-78 0z" />
<glyph unicode="&#40;" horiz-adv-x="600" d="M455 -212q-70 11 -136 44q-66 33 -117 89q-51 56 -81.5 136q-30.5 80 -30.5 186q0 105 30.5 185.5q30.5 80.5 81.5 137.5q51 57 117 91q66 34 136 47l24 -107q-35 -8 -79.5 -28.5q-44.5 -20.5 -84.5 -61q-40 -40.5 -67.5 -104.5q-27.5 -64 -27.5 -160q0 -92 29 -155q29 -63 70.5 -103.5q41.5 -40.5 85.5 -61q44 -20.5 74 -26.5z" />
<glyph unicode="&#41;" horiz-adv-x="600" d="M120 -103q30 6 74 26.5q44 20.5 85.5 61q41.5 40.5 70.5 103.5q29 63 29 155q0 96 -27.5 160q-27.5 64 -67.5 104.5q-40 40.5 -84.5 61q-44.5 20.5 -79.5 28.5l24 107q70 -13 136 -47q66 -34 117 -91q51 -57 81.5 -137.5q30.5 -80.5 30.5 -185.5q0 -106 -30.5 -186q-30.5 -80 -81.5 -136q-51 -56 -117 -89q-66 -33 -136 -44z" />
<glyph unicode="&#42;" horiz-adv-x="600" d="M225 731l72 -176l72 175l108 -60l-132 -159l205 26v-122l-195 27l126 -149l-107 -62l-79 184l-70 -180l-108 63l124 144l-191 -27v125l199 -29l-132 158z" />
<glyph unicode="&#43;" horiz-adv-x="600" d="M49 394h192v199h117v-199h193v-112h-193v-201h-117v201l-192 0z" />
<glyph unicode="&#44;" horiz-adv-x="600" d="M218 64q0 34 22.5 54q22.5 20 56.5 20q55 0 83 -36q28 -36 28 -89q0 -45 -17.5 -82q-17.5 -37 -45.5 -64q-28 -27 -62.5 -44q-34.5 -17 -68.5 -23l-27 55q24 6 48.5 17q24.5 11 44.5 27.5q20 16.5 33.5 38.5q13.5 22 15.5 48q-30 -6 -51 -1.5q-21 4.5 -34.5 16q-13.5 11.5 -19.5 28t-6 35.5z" />
<glyph unicode="&#45;" horiz-adv-x="600" d="M154 345h291v-115l-291 0z" />
<glyph unicode="&#46;" horiz-adv-x="600" d="M219 66q0 35 22 55.5q22 20.5 58 20.5q38 0 60 -20.5q22 -20.5 22 -55.5q0 -35 -22 -56q-22 -21 -60 -21q-36 0 -58 21t-22 56z" />
<glyph unicode="&#47;" horiz-adv-x="600" d="M429 712l98 -44l-357 -808l-98 46z" />
<glyph unicode="&#48;" horiz-adv-x="600" d="M38 351q0 91 19 159.5q19 68.5 53.5 113.5q34.5 45 82.5 67.5q48 22.5 107 22.5q126 0 194 -88.5q68 -88.5 68 -274.5q0 -92 -19 -160.5q-19 -68.5 -53.5 -114q-34.5 -45.5 -83 -68q-48.5 -22.5 -107.5 -22.5q-127 0 -194 93.5q-67 93.5 -67 271.5zt0 0zM434 351q0 16 -0.5 30.5q-0.5 14.5 -1.5 28.5l-245 -223q31 -91 113 -91q64 0 99 61q35 61 35 194zt0 0zM166 351q0 -15 0.5 -28.5q0.5 -13.5 1.5 -27.5l244 223q-30 86 -113 86q-64 0 -98.5 -61.5t-34.5 -191.5z" />
<glyph unicode="&#49;" horiz-adv-x="600" d="M106 110h153v437l-132 -101l-60 80l228 174h88v-590h150v-110l-427 0z" />
<glyph unicode="&#50;" horiz-adv-x="600" d="M523 0h-446v97q12 10 30 26.5q18 16.5 40.5 37.5q22.5 21 47.5 46q25 25 49 52q34 38 59.5 69q25.5 31 42 58.5q16.5 27.5 24.5 54q8 26.5 8 54.5q0 20 -9 39q-9 19 -25 33.5q-16 14.5 -38.5 23q-22.5 8.5 -49.5 8.5q-36 0 -65.5 -11q-29.5 -11 -61.5 -37l-52 92q42 30 93.5 50.5q51.5 20.5 118.5 20.5q43 0 82.5 -12q39.5 -12 70 -35.5q30.5 -23.5 48.5 -58.5q18 -35 18 -81q0 -32 -5.5 -59.5q-5.5 -27.5 -17 -55q-11.5 -27.5 -30 -56.5q-18.5 -29 -44.5 -63q-20 -26 -43.5 -52.5q-23.5 -26.5 -46.5 -50.5q-23 -24 -45.5 -45q-22.5 -21 -40.5 -35l288 0z" />
<glyph unicode="&#51;" horiz-adv-x="600" d="M248 96q33 0 60.5 8.5q27.5 8.5 47 24q19.5 15.5 30.5 36q11 20.5 11 44.5q0 30 -12.5 50.5q-12.5 20.5 -34.5 32.5q-22 12 -53 17q-31 5 -67 5h-56v71l168 205h-253v110h408v-91l-176 -201h23q35 0 68 -12q33 -12 58.5 -36q25.5 -24 41 -60q15.5 -36 15.5 -83q0 -57 -23.5 -100q-23.5 -43 -62 -72.5q-38.5 -29.5 -88.5 -44q-50 -14.5 -103 -14.5q-45 0 -90 8q-45 8 -87 25l35 108q9 -5 24.5 -10q15.5 -5 35 -10q19.5 -5 40 -8t40.5 -3z" />
<glyph unicode="&#52;" horiz-adv-x="600" d="M577 195h-120v-195h-121v195h-303v89l317 421h107v-406h120zM336 521l-174 -222l174 0z" />
<glyph unicode="&#53;" horiz-adv-x="600" d="M237 101q33 0 61 8q28 8 48.5 23q20.5 15 32 37q11.5 22 11.5 50q0 55 -43.5 86.5q-43.5 31.5 -130.5 31.5q-11 0 -25.5 -0.5q-14.5 -0.5 -27.5 -1.5q-15 -1 -31 -1l0 366h362v-120h-250v-137q8 0 16 1q7 0 13.5 0.5q6.5 0.5 11.5 0.5q50 0 93 -14.5q43 -14.5 75 -43.5q32 -29 49.5 -70.5q17.5 -41.5 17.5 -91.5q0 -59 -22 -103.5q-22 -44.5 -60 -74.5q-38 -30 -88 -45.5q-50 -15.5 -107 -15.5q-22 0 -47 4.5q-25 4.5 -49 11q-24 6.5 -44.5 14.5q-20.5 8 -34.5 15l42 104q17 -10 52.5 -22t74.5 -12z" />
<glyph unicode="&#54;" horiz-adv-x="600" d="M546 217q0 -49 -18.5 -91q-18.5 -42 -50.5 -73q-32 -31 -76.5 -49q-44.5 -18 -95.5 -18q-52 0 -97.5 16.5q-45.5 16.5 -79.5 49.5q-34 33 -54 83q-20 50 -20 116q0 99 34.5 180q34.5 81 88.5 140.5q54 59.5 121 96q67 36.5 133 46.5l29 -103q-53 -10 -99 -32.5q-46 -22.5 -82 -54.5q-36 -32 -60.5 -71q-24.5 -39 -33.5 -81q20 25 60 42.5q40 17.5 88 17.5q45 0 84 -14.5q39 -14.5 67.5 -42q28.5 -27.5 45 -67.5q16.5 -40 16.5 -91zt0 0zM420 212q0 54 -32.5 82q-32.5 28 -87.5 28q-40 0 -72 -18q-32 -18 -47 -42q-2 -11 -2.5 -24.5q-0.5 -13.5 -0.5 -21.5q0 -24 8 -46q8 -22 23.5 -38.5q15.5 -16.5 37.5 -26q22 -9.5 51 -9.5q23 0 45 8.5q22 8.5 39 23.5q17 15 27.5 36.5t10.5 47.5z" />
<glyph unicode="&#55;" horiz-adv-x="600" d="M102 0l288 582h-326v118h456v-98l-291 -602z" />
<glyph unicode="&#56;" horiz-adv-x="600" d="M60 171q0 35 11.5 64q11.5 29 30 52q18.5 23 42.5 41.5q24 18.5 49 32.5q-50 29 -83 68.5q-33 39.5 -33 99.5q0 39 17 73q17 34 47.5 59q30.5 25 72.5 39q42 14 91 14q45 0 84.5 -12q39.5 -12 69.5 -34q30 -22 47 -53.5q17 -31.5 17 -69.5q0 -59 -30.5 -103q-30.5 -44 -83.5 -76q60 -31 95.5 -73q35.5 -42 35.5 -108q0 -45 -19.5 -81.5q-19.5 -36.5 -52.5 -62.5q-33 -26 -77.5 -40.5q-44.5 -14.5 -94.5 -14.5q-50 0 -93 13.5q-43 13.5 -75 37.5q-32 24 -50 58q-18 34 -18 76zt0 0zM416 188q0 25 -13 43q-13 18 -32.5 32q-19.5 14 -43 25.5q-23.5 11.5 -45.5 23.5q-50 -22 -77 -56.5q-27 -34.5 -27 -65.5q0 -45 32 -69.5q32 -24.5 89 -24.5q51 0 84 23.5q33 23.5 33 68.5zt0 0zM201 523q0 -24 10.5 -40.5q10.5 -16.5 27 -29q16.5 -12.5 37.5 -22.5q21 -10 42 -20q16 8 31.5 20q15.5 12 27.5 26.5q12 14.5 19.5 30q7.5 15.5 7.5 31.5q0 21 -9 36.5q-9 15.5 -23.5 26.5q-14.5 11 -32.5 16.5q-18 5.5 -37 5.5q-22 0 -40.5 -7q-18.5 -7 -32 -18q-13.5 -11 -21 -26t-7.5 -30z" />
<glyph unicode="&#57;" horiz-adv-x="600" d="M54 481q0 51 17.5 94q17.5 43 49 73.5q31.5 30.5 76 48q44.5 17.5 99.5 17.5q56 0 102 -17q46 -17 79 -50.5q33 -33.5 51 -83q18 -49.5 18 -113.5q0 -116 -30 -200q-30 -84 -80.5 -140q-50.5 -56 -117.5 -86q-67 -30 -140 -38l-28 102q55 7 99.5 27q44.5 20 77.5 49.5q33 29.5 54 67q21 37.5 27 80.5q-21 -21 -54 -33.5q-33 -12.5 -79 -12.5h-2q-38 0 -77 13q-39 13 -70.5 40q-31.5 27 -51.5 67.5q-20 40.5 -20 94.5zt0 0zM180 488q0 -28 10.5 -49.5q10.5 -21.5 27.5 -36q17 -14.5 39.5 -22q22.5 -7.5 46.5 -7.5q41 0 71 13q30 13 44 32q3 21 3 40q0 28 -8 55q-8 27 -24 48q-16 21 -40 33.5q-24 12.5 -55 12.5q-49 0 -82 -31.5t-33 -87.5z" />
<glyph unicode="&#58;" horiz-adv-x="600" d="M219 428q0 35 22 55.5q22 20.5 58 20.5q38 0 60 -20.5q22 -20.5 22 -55.5q0 -35 -22 -56q-22 -21 -60 -21q-36 0 -58 21q-22 21 -22 56zt0 0zM219 66q0 35 22 55.5q22 20.5 58 20.5q38 0 60 -20.5q22 -20.5 22 -55.5q0 -35 -22 -56q-22 -21 -60 -21q-36 0 -58 21t-22 56z" />
<glyph unicode="&#59;" horiz-adv-x="600" d="M218 64q0 34 22.5 54q22.5 20 56.5 20q55 0 83 -36q28 -36 28 -89q0 -45 -17.5 -82q-17.5 -37 -45.5 -64q-28 -27 -62.5 -44q-34.5 -17 -68.5 -23l-27 55q24 6 48.5 17q24.5 11 44.5 27.5q20 16.5 33.5 38.5q13.5 22 15.5 48q-30 -6 -51 -1.5q-21 4.5 -34.5 16q-13.5 11.5 -19.5 28q-6 16.5 -6 35.5zt0 0zM218 428q0 35 22 55.5q22 20.5 58 20.5q38 0 60 -20.5q22 -20.5 22 -55.5q0 -35 -22 -56q-22 -21 -60 -21q-36 0 -58 21t-22 56z" />
<glyph unicode="&#60;" horiz-adv-x="600" d="M36 295v50l467 290l57 -90l-364 -220l364 -215l-57 -90z" />
<glyph unicode="&#61;" horiz-adv-x="600" d="M59 490h482v-112h-482zM59 298h482v-112l-482 0z" />
<glyph unicode="&#62;" horiz-adv-x="600" d="M93 20l-57 90l364 215l-364 220l57 90l467 -290l0 -50z" />
<glyph unicode="&#63;" horiz-adv-x="600" d="M209 208q-1 8 -1.5 15.5q-0.5 7.5 -0.5 15.5q0 44 14 76q14 32 35.5 55.5q21.5 23.5 46.5 41q25 17.5 46.5 35q21.5 17.5 35.5 36q14 18.5 14 44.5q0 35 -29 56q-29 21 -90 21q-31 0 -57 -9q-26 -9 -48 -21.5q-22 -12.5 -39 -26q-17 -13.5 -30 -22.5l-63 84q24 26 54.5 46q30.5 20 64.5 33q34 13 70 19.5q36 6.5 71 6.5q109 0 169.5 -45.5q60.5 -45.5 60.5 -122.5q0 -51 -15.5 -84.5q-15.5 -33.5 -39.5 -57q-24 -23.5 -51.5 -41.5q-27.5 -18 -51 -38.5q-23.5 -20.5 -39.5 -47.5q-16 -27 -16 -69zM189 66q0 35 22 55.5q22 20.5 58 20.5q38 0 60 -20.5q22 -20.5 22 -55.5q0 -35 -22 -56q-22 -21 -60 -21q-36 0 -58 21t-22 56z" />
<glyph unicode="&#64;" horiz-adv-x="600" d="M348 590q61 0 101 -17q40 -17 62.5 -44.5q22.5 -27.5 31.5 -63.5q9 -36 9 -74q0 -46 -1 -79q-1 -33 -2.5 -57q-1.5 -24 -2.5 -40.5q-1 -16.5 -1 -30.5q0 -21 2 -47q2 -14 3 -27l45 0v-110h-136l-13 68h-5q-10 -15 -20.5 -29q-10.5 -14 -25 -24.5q-14.5 -10.5 -33.5 -16.5q-19 -6 -46 -6q-36 0 -65 13q-29 13 -49 35q-20 22 -30.5 51q-10.5 29 -10.5 62q0 85 49 130.5q49 45.5 135 45.5q18 0 38 -2q20 -2 49 -4q2 10 2 20v19q0 19 -1.5 40q-1.5 21 -10.5 39q-9 18 -28 30q-19 12 -54 12q-43 0 -83 -17q-40 -17 -70.5 -52.5q-30.5 -35.5 -49 -90q-18.5 -54.5 -18.5 -129.5q0 -60 17 -113q17 -53 49.5 -92.5q32.5 -39.5 80 -62q47.5 -22.5 109.5 -22.5q29 0 66 7q37 7 67 21l31 -96q-41 -20 -83.5 -28q-42.5 -8 -97.5 -8q-86 0 -151.5 31.5q-65.5 31.5 -109.5 85.5q-44 54 -67 125q-23 71 -23 151q0 102 30 176.5q30 74.5 79 123.5q49 49 109.5 73q60.5 24 122.5 24zt0 0zM346 99q35 0 55.5 17.5q20.5 17.5 31.5 37.5l0 80q-10 2 -30 4.5q-20 2.5 -43 2.5q-29 0 -52 -16.5q-23 -16.5 -23 -51.5q0 -28 15 -51t46 -23z" />
<glyph unicode="&#65;" horiz-adv-x="600" d="M400 155h-209l-48 -155h-137l226 700h137l225 -700h-144zM223 265h150l-71 234l-9 0z" />
<glyph unicode="&#66;" horiz-adv-x="600" d="M533 537q0 -26 -6.5 -52q-6.5 -26 -21.5 -47.5q-15 -21.5 -39 -38q-24 -16.5 -58 -24.5l0 -6q30 -5 57 -17q27 -12 47 -33q20 -21 31.5 -51q11.5 -30 11.5 -71q0 -54 -23 -93.5q-23 -39.5 -61.5 -64.5q-38.5 -25 -87.5 -37q-49 -12 -101 -12q-17 0 -43.5 0q-26.5 0 -57 1.5q-30.5 1.5 -62 4.5q-31.5 3 -57.5 9l0 690q19 3 43.5 6q24.5 3 52.5 5q28 2 57.5 3q29.5 1 58.5 1q49 0 95.5 -7.5q46.5 -7.5 83 -26.5q36.5 -19 58.5 -53q22 -34 22 -86zt0 0zM283 103q25 0 48.5 6q23.5 6 41.5 18.5q18 12.5 29 31.5q11 19 11 45q0 33 -13 52q-13 19 -34 29.5q-21 10.5 -47 13.5q-26 3 -52 3h-73v-193q5 -2 16 -3q11 -1 23.5 -1.5q12.5 -0.5 26 -1q13.5 -0.5 23.5 -0.5zt0 0zM238 406q14 0 32.5 1q18.5 1 30.5 3q38 12 65.5 36q27.5 24 27.5 63q0 26 -10 43q-10 17 -26.5 27q-16.5 10 -37.5 14q-21 4 -44 4q-26 0 -48 -1q-22 -1 -34 -3l0 -187z" />
<glyph unicode="&#67;" horiz-adv-x="600" d="M444 235h110v-200q-32 -23 -81.5 -36q-49.5 -13 -101.5 -13q-66 0 -125.5 19.5q-59.5 19.5 -104.5 63q-45 43.5 -72 113q-27 69.5 -27 168.5q0 103 30.5 172.5q30.5 69.5 78.5 112q48 42.5 107 61q59 18.5 116 18.5q60 0 101.5 -10q41.5 -10 68.5 -23l0 -208h-110v114q-31 5 -64 5q-39 0 -72.5 -14.5q-33.5 -14.5 -58.5 -44.5q-25 -30 -39 -75.5q-14 -45.5 -14 -107.5q0 -54 13 -98.5q13 -44.5 38 -76.5q25 -32 61 -49.5q36 -17.5 82 -17.5q33 0 64 6z" />
<glyph unicode="&#68;" horiz-adv-x="600" d="M50 700q9 1 31.5 3q22.5 2 51 3.5q28.5 1.5 59 2.5q30.5 1 54.5 1q93 0 154 -27q61 -27 96.5 -74.5q35.5 -47.5 49.5 -112q14 -64.5 14 -140.5q0 -69 -14 -135q-14 -66 -50.5 -117.5q-36.5 -51.5 -101 -83q-64.5 -31.5 -165.5 -31.5q-16 0 -41 1q-25 1 -51 2.5q-26 1.5 -50 3q-24 1.5 -37 3.5zM251 588q-19 0 -37 -1.5q-18 -1.5 -27 -2.5l0 -469q4 -1 12 -1.5q8 -0.5 16.5 -1q8.5 -0.5 16.5 -1q8 -0.5 13 -0.5q58 0 92.5 21.5q34.5 21.5 51.5 56.5q17 35 22 79q5 44 5 88q0 38 -4.5 79q-4.5 41 -21 75q-16.5 34 -49.5 56t-90 22z" />
<glyph unicode="&#69;" horiz-adv-x="600" d="M70 700h459v-122h-322v-163h297v-122h-297v-171h327v-122l-464 0z" />
<glyph unicode="&#70;" horiz-adv-x="600" d="M84 700h444v-122h-307v-173h285v-122h-285v-283l-137 0z" />
<glyph unicode="&#71;" horiz-adv-x="600" d="M323 365h239v-316q-34 -31 -88.5 -47q-54.5 -16 -111.5 -16q-67 0 -125.5 23q-58.5 23 -101.5 69.5q-43 46.5 -68 115q-25 68.5 -25 160.5q0 97 30 165q30 68 77.5 111.5q47.5 43.5 106.5 63.5q59 20 117 20q60 0 100 -9.5q40 -9.5 73 -24.5l0 -207h-110v111q-8 2 -16 4q-20 4 -44 4q-41 0 -76 -14q-35 -14 -60.5 -43.5q-25.5 -29.5 -39.5 -75.5q-14 -46 -14 -110q0 -57 14 -102q14 -45 39 -76q25 -31 59.5 -47q34.5 -16 74.5 -16q26 0 47.5 6q21.5 6 29.5 12l0 139l-127 0z" />
<glyph unicode="&#72;" horiz-adv-x="600" d="M413 293h-226v-293h-137v700h137v-285h226v285h137v-700l-137 0z" />
<glyph unicode="&#73;" horiz-adv-x="600" d="M54 122h177v456h-177v122h492v-122h-178v-456h178v-122l-492 0z" />
<glyph unicode="&#74;" horiz-adv-x="600" d="M92 700h418v-446q0 -57 -14.5 -107q-14.5 -50 -52.5 -89q-24 -24 -51.5 -38q-27.5 -14 -53.5 -21q-26 -7 -49 -9q-23 -2 -38 -2q-48 0 -93 10.5q-45 10.5 -90 37.5l49 110q38 -22 65.5 -29q27.5 -7 63.5 -7q22 0 47.5 8.5q25.5 8.5 44.5 28.5q35 38 35 106v325l-281 0z" />
<glyph unicode="&#75;" horiz-adv-x="600" d="M256 292h-71v-292h-137v700h137v-286h71l160 286h156l-197 -338l222 -362l-169 0z" />
<glyph unicode="&#76;" horiz-adv-x="600" d="M414 285h124v-285h-460v700h137v-578l199 0z" />
<glyph unicode="&#77;" horiz-adv-x="600" d="M423 373l5 109h-6l-112 -183h-24l-117 183h-5l6 -98v-384h-130v700h139l120 -194h4l119 194h138v-700l-137 0z" />
<glyph unicode="&#78;" horiz-adv-x="600" d="M185 414h-5l6 -83v-331h-130v700h120l242 -428h5l-9 84v344h130v-700l-120 0z" />
<glyph unicode="&#79;" horiz-adv-x="600" d="M36 350q0 85 16 153q16 68 49 114.5q33 46.5 82.5 71.5q49.5 25 116.5 25q72 0 122 -27q50 -27 81.5 -75q31.5 -48 46 -115q14.5 -67 14.5 -147q0 -171 -65.5 -267.5q-65.5 -96.5 -198.5 -96.5q-72 0 -122.5 27q-50.5 27 -82 75q-31.5 48 -45.5 115q-14 67 -14 147zt0 0zM180 350q0 -51 4.5 -95q4.5 -44 17 -76.5q12.5 -32.5 36 -51.5q23.5 -19 62.5 -19q35 0 58 14.5q23 14.5 37 44.5q14 30 19.5 75.5q5.5 45.5 5.5 107.5q0 49 -3.5 93q-3.5 44 -16 77q-12.5 33 -36.5 52.5q-24 19.5 -64 19.5q-70 0 -95 -61t-25 -181z" />
<glyph unicode="&#80;" horiz-adv-x="600" d="M73 693q42 8 92.5 12.5q50.5 4.5 100.5 4.5q52 0 104.5 -8.5q52.5 -8.5 94.5 -34q42 -25.5 68.5 -71q26.5 -45.5 26.5 -118.5q0 -64 -23 -109.5q-23 -45.5 -61 -75q-38 -29.5 -86.5 -43q-48.5 -13.5 -100.5 -13.5q-5 0 -16 0q-11 0 -23 0.5q-12 0.5 -23.5 1.5q-11.5 1 -16.5 2l0 -241h-137zM277 592q-20 0 -38 -1.5q-18 -1.5 -29 -3.5l0 -227q4 -1 12 -2q8 -1 17 -1.5q9 -0.5 17.5 -0.5q8.5 0 12.5 0q27 0 53.5 5q26.5 5 47.5 18.5q21 13.5 33.5 37.5q12.5 24 12.5 63q0 33 -12 54.5q-12 21.5 -31.5 34.5q-19.5 13 -44.5 18t-51 5z" />
<glyph unicode="&#81;" horiz-adv-x="600" d="M548 -148q-26 -19 -55.5 -26q-29.5 -7 -57.5 -7q-48 0 -83.5 15q-35.5 15 -60.5 41q-28 30 -42 74q-7 21 -10 43q-34 7 -62 21q-50 27 -81.5 75q-31.5 48 -45.5 115q-14 67 -14 147q0 85 16 153q16 68 49 114.5q33 46.5 82.5 71.5q49.5 25 116.5 25q72 0 122 -27q50 -27 81.5 -75q31.5 -48 46 -115q14.5 -67 14.5 -147q0 -171 -66 -268q-48 -71 -133 -89q4 -21 18 -37q11 -14 29 -20.5q18 -6.5 41 -6.5q21 0 38.5 6q17.5 6 28.5 14zM180 350q0 -51 4.5 -95q4.5 -44 17 -76.5q12.5 -32.5 36 -51.5q23.5 -19 62.5 -19q35 0 58 14.5q23 14.5 37 44.5q14 30 19.5 75.5q5.5 45.5 5.5 107.5q0 49 -3.5 93q-3.5 44 -16 77q-12.5 33 -36.5 52.5q-24 19.5 -64 19.5q-70 0 -95 -61t-25 -181z" />
<glyph unicode="&#82;" horiz-adv-x="600" d="M62 693q23 4 49.5 7.5q26.5 3.5 53 5.5q26.5 2 51.5 3q25 1 46 1q49 0 96.5 -9.5q47.5 -9.5 85 -32.5q37.5 -23 60 -62q22.5 -39 22.5 -97q0 -43 -8.5 -74.5q-8.5 -31.5 -23.5 -55.5q-15 -24 -36.5 -41.5q-21.5 -17.5 -46.5 -31.5l169 -306h-158l-141 274h-82v-274h-137zM272 588q-21 0 -41.5 -1q-20.5 -1 -31.5 -4l0 -203h54q57 0 93 26q36 26 36 86q0 45 -28 70.5t-82 25.5z" />
<glyph unicode="&#83;" horiz-adv-x="600" d="M65 229h110v-99q3 -1 6 -2q23 -10 50.5 -16.5q27.5 -6.5 58.5 -6.5q56 0 87 22.5q31 22.5 31 60.5q0 34 -25.5 55q-25.5 21 -63 37q-37.5 16 -82 32q-44.5 16 -82 40.5q-37.5 24.5 -63 61.5q-25.5 37 -25.5 96q0 45 17.5 82.5q17.5 37.5 49 64.5q31.5 27 75.5 42q44 15 98 15q61 0 120 -11q59 -11 94 -30l0 -203h-110v111q-3 0 -6 1q-22 6 -47.5 9.5q-25.5 3.5 -50.5 3.5q-48 0 -75.5 -19q-27.5 -19 -27.5 -51q0 -33 25.5 -54q25.5 -21 63 -38q37.5 -17 82 -34q44.5 -17 82 -41.5q37.5 -24.5 63 -61.5q25.5 -37 25.5 -93q0 -54 -20 -94.5q-20 -40.5 -56 -68q-36 -27.5 -85 -41q-49 -13.5 -106 -13.5q-38 0 -70.5 6q-32.5 6 -60 15q-27.5 9 -48.5 19q-21 10 -34 17z" />
<glyph unicode="&#84;" horiz-adv-x="600" d="M118 110h114v480h-96v-121h-110v231h548v-231h-110v121h-95v-480h113v-110l-364 0z" />
<glyph unicode="&#85;" horiz-adv-x="600" d="M420 700h130v-448q0 -68 -18 -117.5q-18 -49.5 -50.5 -82q-32.5 -32.5 -77.5 -48.5q-45 -16 -99 -16q-130 0 -192.5 63q-62.5 63 -62.5 184v465h137v-438q0 -80 29 -116q29 -36 91 -36q60 0 86.5 38.5q26.5 38.5 26.5 113.5z" />
<glyph unicode="&#86;" horiz-adv-x="600" d="M306 187h5l138 513h142l-210 -700h-156l-216 700l153 0z" />
<glyph unicode="&#87;" horiz-adv-x="600" d="M175 309l2 -84h4l17 79l60 186h102l56 -186l18 -79h4l2 86l28 389h126l-72 -700h-116l-75 221l-23 96h-5l-24 -96l-81 -221h-120l-72 700l137 0z" />
<glyph unicode="&#88;" horiz-adv-x="600" d="M220 359l-198 341h160l102 -190l23 -51l22 51l104 190h155l-201 -342l207 -358h-160l-107 200l-27 54l-26 -54l-112 -200l-155 0z" />
<glyph unicode="&#89;" horiz-adv-x="600" d="M232 258l-226 442h163l135 -289h5l138 289h147l-225 -441v-259l-137 0z" />
<glyph unicode="&#90;" horiz-adv-x="600" d="M53 122l328 456h-312v122h473v-122l-323 -456h328v-122l-494 0z" />
<glyph unicode="&#91;" horiz-adv-x="600" d="M92 700h395v-110h-271v-710h271v-110l-395 0z" />
<glyph unicode="&#92;" horiz-adv-x="600" d="M531 -95l-99 -45l-363 808l102 43z" />
<glyph unicode="&#93;" horiz-adv-x="600" d="M507 -230h-395v110h271v710h-271v110l395 0z" />
<glyph unicode="&#94;" horiz-adv-x="600" d="M281 705h49l242 -365h-131l-140 227l-153 -227l-124 0z" />
<glyph unicode="&#95;" horiz-adv-x="600" d="M78 -117h444v-107l-444 0z" />
<glyph unicode="&#96;" horiz-adv-x="600" d="M398 566h-72l-152 154l164 0z" />
<glyph unicode="&#97;" horiz-adv-x="600" d="M90 466q40 18 92.5 31q52.5 13 124.5 13q52 0 88.5 -12.5q36.5 -12.5 59 -35.5q22.5 -23 32.5 -55q10 -32 10 -72q0 -51 -3.5 -87q-3.5 -36 -3.5 -64q0 -21 2 -47q2 -14 3 -27l65 0v-110h-166l-13 68h-5q-20 -31 -57 -53.5q-37 -22.5 -100 -22.5q-75 0 -119 40q-44 40 -44 106q0 42 15.5 72.5q15.5 30.5 45 50q29.5 19.5 71 29q41.5 9.5 92.5 9.5q18 0 38 -2q20 -2 49 -4q2 10 2 20v19q0 38 -22 54.5q-22 16.5 -65 16.5q-51 0 -92 -13q-41 -13 -69 -26zM261 99q48 0 72 17.5q24 17.5 35 37.5l0 60q-10 2 -30 4.5q-20 2.5 -43 2.5q-19 0 -38 -3.5q-19 -3.5 -34 -11q-15 -7.5 -24 -19.5q-9 -12 -9 -29q0 -28 16.5 -43.5t54.5 -15.5z" />
<glyph unicode="&#98;" horiz-adv-x="600" d="M-13 700h207v-240h4q21 24 56.5 38q35.5 14 87.5 14q99 0 158.5 -62q59.5 -62 59.5 -187q0 -67 -20 -118.5q-20 -51.5 -56.5 -86q-36.5 -34.5 -89 -52.5q-52.5 -18 -118.5 -18q-78 0 -130.5 18q-52.5 18 -81.5 36l0 548h-77zM306 402q-14 0 -31 -5q-17 -5 -32.5 -14q-15.5 -9 -29 -22.5q-13.5 -13.5 -19.5 -30.5l0 -208q16 -8 44 -16q28 -8 60 -8q26 0 49.5 9.5q23.5 9.5 41 29.5q17.5 20 27.5 50q10 30 10 72q0 71 -30.5 107t-89.5 36z" />
<glyph unicode="&#99;" horiz-adv-x="600" d="M546 48q-41 -31 -96 -46.5q-55 -15.5 -115 -15.5q-65 0 -115.5 19q-50.5 19 -85 53.5q-34.5 34.5 -52.5 83.5q-18 49 -18 108q0 63 21 112q21 49 58.5 83q37.5 34 88.5 51.5q51 17.5 111 17.5q56 0 105 -13q49 -13 75 -25l0 -176h-110v92q-31 7 -62 7q-28 0 -55.5 -8.5q-27.5 -8.5 -49 -27q-21.5 -18.5 -35 -46.5q-13.5 -28 -13.5 -67q0 -32 11 -59q11 -27 31 -47q20 -20 49.5 -31.5q29.5 -11.5 65.5 -11.5q57 0 93.5 16q36.5 16 54.5 28z" />
<glyph unicode="&#100;" horiz-adv-x="600" d="M306 700h209v-432q0 -75 8 -148q0 -5 1 -10l64 0v-110h-161l-13 64h-4q-10 -18 -27 -32q-17 -14 -38 -24.5q-21 -10.5 -46 -16q-25 -5.5 -50 -5.5q-47 0 -88.5 15q-41.5 15 -72.5 46.5q-31 31.5 -49 80q-18 48.5 -18 114.5q0 64 19.5 114q19.5 50 54 84.5q34.5 34.5 81.5 53q47 18.5 103 18.5q31 0 58.5 -3.5q27.5 -3.5 47.5 -11.5l0 93h-79zM279 96q38 0 67.5 18.5q29.5 18.5 38.5 53.5l0 212q-14 11 -38.5 16.5q-24.5 5.5 -51.5 5.5q-27 0 -52.5 -9q-25.5 -9 -45 -28.5q-19.5 -19.5 -31 -50.5q-11.5 -31 -11.5 -76q0 -64 32 -103t92 -39z" />
<glyph unicode="&#101;" horiz-adv-x="600" d="M534 53q-13 -12 -33.5 -23.5q-20.5 -11.5 -48 -21.5q-27.5 -10 -60.5 -16q-33 -6 -70 -6q-64 0 -114.5 18q-50.5 18 -85.5 52.5q-35 34.5 -53.5 83q-18.5 48.5 -18.5 110.5q0 66 21 115.5q21 49.5 57.5 82.5q36.5 33 85.5 49.5q49 16.5 106 16.5q38 0 78.5 -10q40.5 -10 74.5 -34.5q34 -24.5 55.5 -65.5q21.5 -41 21.5 -104q0 -43 -10 -93l-360 0q1 -32 13.5 -54q12.5 -22 33 -36q20.5 -14 47 -20.5q26.5 -6.5 56.5 -6.5q60 0 98.5 14q38.5 14 62.5 34zM318 410q-26 0 -49 -7q-23 -7 -41.5 -20.5q-18.5 -13.5 -30.5 -33.5q-12 -20 -14 -45l246 0q0 49 -27.5 77.5t-83.5 28.5z" />
<glyph unicode="&#102;" horiz-adv-x="600" d="M71 0v110h118v280h-119v110h119v28q0 47 16.5 81q16.5 34 43.5 56q27 22 62.5 32.5q35.5 10.5 73.5 10.5q69 0 113.5 -11.5q44.5 -11.5 73.5 -28.5l-38 -99q-23 11 -49.5 20q-26.5 9 -68.5 9q-54 0 -75.5 -24.5q-21.5 -24.5 -21.5 -73.5l210 0v-110h-210v-280h211l0 -110z" />
<glyph unicode="&#103;" horiz-adv-x="600" d="M530 0q0 -54 -18.5 -94q-18.5 -40 -51 -66.5q-32.5 -26.5 -77 -39q-44.5 -12.5 -97.5 -12.5q-36 0 -67.5 5.5q-31.5 5.5 -58 14.5q-26.5 9 -46.5 19.5q-20 10.5 -32 20.5l50 92q24 -16 57.5 -30.5q33.5 -14.5 84.5 -14.5q63 0 96 29q33 29 33 83v32h-4q-18 -24 -53 -35.5q-35 -11.5 -81 -11.5q-48 0 -88.5 15q-40.5 15 -70.5 45.5q-30 30.5 -46.5 77.5q-16.5 47 -16.5 110q0 66 19.5 117q19.5 51 55 85.5q35.5 34.5 85 52q49.5 17.5 110.5 17.5q32 0 64 -2.5q32 -2.5 60.5 -6.5q28.5 -4 52.5 -9.5q24 -5.5 40 -11.5zM290 96q38 0 68.5 17q30.5 17 41.5 51l0 225q-14 6 -39.5 9.5q-25.5 3.5 -48.5 3.5q-28 0 -52.5 -9q-24.5 -9 -43 -28.5q-18.5 -19.5 -29 -49q-10.5 -29.5 -10.5 -70.5q0 -36 9 -64q9 -28 25 -47q16 -19 36 -28.5t43 -9.5z" />
<glyph unicode="&#104;" horiz-adv-x="600" d="M0 700h202v-256h4q24 32 64 51q40 19 94 19q38 0 70 -10q32 -10 55 -33q23 -23 36 -62.5q13 -39.5 13 -97.5v-311h-130v284q0 61 -26 88q-26 27 -68 27q-37 0 -68 -22.5q-31 -22.5 -44 -57.5l0 -319h-130v590l-72 0z" />
<glyph unicode="&#105;" horiz-adv-x="600" d="M59 110h176v280h-176v110h306v-390h185v-110h-491zM210 636q0 31 23 53q23 22 64 22q42 0 67 -22q25 -22 25 -53q0 -32 -25 -52.5q-25 -20.5 -67 -20.5q-41 0 -64 20.5t-23 52.5z" />
<glyph unicode="&#106;" horiz-adv-x="600" d="M94 500h368v-461q0 -115 -60 -181q-60 -66 -180 -66q-49 0 -93 15q-44 15 -76 44l58 96q11 -9 39.5 -22.5q28.5 -13.5 64.5 -13.5q24 0 45.5 7.5q21.5 7.5 37.5 25q16 17.5 25 45.5q9 28 9 70v331h-238zM257 636q0 31 23 53q23 22 64 22q42 0 67 -22q25 -22 25 -53q0 -32 -25 -52.5q-25 -20.5 -67 -20.5q-41 0 -64 20.5t-23 52.5z" />
<glyph unicode="&#107;" horiz-adv-x="600" d="M0 700h212v-399h30l164 199h153l-202 -228l131 -162h93v-110h-162l-172 207h-35v-207h-130v590l-82 0z" />
<glyph unicode="&#108;" horiz-adv-x="600" d="M87 700h213v-462q0 -77 19 -107q19 -30 61 -30q31 0 51 6.5q20 6.5 40 18.5l49 -90q-17 -11 -34 -20.5q-17 -9.5 -36 -16q-19 -6.5 -41.5 -10q-22.5 -3.5 -50.5 -3.5q-94 0 -141 48q-47 48 -47 136v420l-83 0z" />
<glyph unicode="&#109;" horiz-adv-x="600" d="M241 0v306q0 30 -4 48.5q-4 18.5 -10.5 29q-6.5 10.5 -16 14q-9.5 3.5 -19.5 3.5q-17 0 -31.5 -11q-14.5 -11 -19.5 -28l0 -362h-120v500h95l14 -55h3q15 29 44 47.5q29 18.5 68 18.5q33 0 63 -16q30 -16 41 -56q15 35 46 53.5q31 18.5 67 18.5q27 0 48.5 -7.5q21.5 -7.5 37.5 -26.5q16 -19 24.5 -51.5q8.5 -32.5 8.5 -83.5v-342h-120v320q0 45 -14.5 63q-14.5 18 -35.5 18q-18 0 -31 -8.5q-13 -8.5 -18 -27.5l0 -365z" />
<glyph unicode="&#110;" horiz-adv-x="600" d="M12 500h175l15 -66h4q23 32 66 56q43 24 103 24q37 0 69.5 -10q32.5 -10 55.5 -33q23 -23 36.5 -62.5q13.5 -39.5 13.5 -97.5v-311h-130v284q0 61 -27.5 88q-27.5 27 -69.5 27q-37 0 -67.5 -21.5q-30.5 -21.5 -41.5 -53.5l0 -324h-130v390l-72 0z" />
<glyph unicode="&#111;" horiz-adv-x="600" d="M35 250q0 63 19 112q19 49 54 83q35 34 83.5 51.5q48.5 17.5 108.5 17.5q63 0 112.5 -19q49.5 -19 83.5 -53.5q34 -34.5 51.5 -83.5q17.5 -49 17.5 -108q0 -63 -19 -112q-19 -49 -54 -83q-35 -34 -83.5 -51.5q-48.5 -17.5 -108.5 -17.5q-63 0 -112.5 19q-49.5 19 -83.5 53.5q-34 34.5 -51.5 83.5q-17.5 49 -17.5 108zt0 0zM169 250q0 -33 9 -61q9 -28 26 -49q17 -21 41 -32.5q24 -11.5 55 -11.5q58 0 94.5 37q36.5 37 36.5 117q0 69 -34 111.5q-34 42.5 -97 42.5q-28 0 -52 -8.5q-24 -8.5 -41.5 -27.5q-17.5 -19 -27.5 -48t-10 -70z" />
<glyph unicode="&#112;" horiz-adv-x="600" d="M0 500h170l15 -60h4q52 74 168 74q46 0 84.5 -14.5q38.5 -14.5 66 -45.5q27.5 -31 42.5 -78q15 -47 15 -113q0 -64 -17 -115.5q-17 -51.5 -49 -87.5q-32 -36 -78 -55q-46 -19 -105 -19q-31 0 -61 4.5q-30 4.5 -50 14.5l0 -205h-130v590h-75zM318 404q-38 0 -69.5 -19q-31.5 -19 -43.5 -57l0 -208q14 -11 40.5 -17.5q26.5 -6.5 53.5 -6.5q28 0 52 9.5q24 9.5 42 30.5q18 21 28 53q10 32 10 77q0 66 -32 102t-81 36z" />
<glyph unicode="&#113;" horiz-adv-x="600" d="M530 -200h-130v243h-4q-17 -26 -56 -41.5q-39 -15.5 -85 -15.5q-46 0 -85 16q-39 16 -67 47.5q-28 31.5 -44 79.5q-16 48 -16 111q0 66 20.5 117q20.5 51 57.5 85.5q37 34.5 88.5 52q51.5 17.5 114.5 17.5q31 0 61.5 -2.5q30.5 -2.5 58 -7q27.5 -4.5 50 -10q22.5 -5.5 36.5 -10.5zM290 96q38 0 68.5 17q30.5 17 41.5 51l0 222q-15 8 -37.5 12q-22.5 4 -46.5 4q-63 0 -101 -40q-38 -40 -38 -117q0 -73 30 -111t83 -38z" />
<glyph unicode="&#114;" horiz-adv-x="600" d="M39 110h124v280h-124v110h225l15 -66h4q28 33 64 55q36 22 84 22q60 0 94.5 -44q34.5 -44 34.5 -147l-117 0q0 36 -10.5 52.5q-10.5 16.5 -33.5 16.5q-40 0 -64.5 -20q-24.5 -20 -41.5 -46l0 -213h217v-110l-471 0z" />
<glyph unicode="&#115;" horiz-adv-x="600" d="M402 138q0 20 -24.5 32q-24.5 12 -60.5 22q-36 10 -79 20.5q-43 10.5 -79 29q-36 18.5 -60.5 47q-24.5 28.5 -24.5 73.5q0 37 16.5 65q16.5 28 45 47.5q28.5 19.5 68 29.5q39.5 10 85.5 10q49 0 86 -7q37 -7 64.5 -17q27.5 -10 47 -22.5q19.5 -12.5 33.5 -22.5l-55 -89q-15 9 -34.5 18.5q-19.5 9.5 -41 17.5q-21.5 8 -45 13q-23.5 5 -46.5 5q-42 0 -68 -11q-26 -11 -26 -34q0 -18 24.5 -29q24.5 -11 60.5 -20.5q36 -9.5 79 -20.5q43 -11 79 -28.5q36 -17.5 60.5 -45.5q24.5 -28 24.5 -72q0 -76 -55.5 -119.5q-55.5 -43.5 -164.5 -43.5q-86 0 -148.5 25.5q-62.5 25.5 -100.5 59.5l60 94q13 -11 34.5 -24.5q21.5 -13.5 48.5 -24.5q27 -11 57.5 -18.5q30.5 -7.5 60.5 -7.5q32 0 55 11t23 37z" />
<glyph unicode="&#116;" horiz-adv-x="600" d="M116 390h-99v110h99v114l130 37v-151h262v-110h-262v-143q0 -77 29 -111.5q29 -34.5 81 -34.5q27 0 49 6.5q22 6.5 39.5 16.5q17.5 10 32 22q14.5 12 26.5 22l60 -90q-17 -20 -42.5 -36.5q-25.5 -16.5 -55 -29q-29.5 -12.5 -61.5 -19.5q-32 -7 -63 -7q-112 0 -168.5 62.5q-56.5 62.5 -56.5 198.5z" />
<glyph unicode="&#117;" horiz-adv-x="600" d="M330 500h186v-348q0 -21 0 -42l76 0v-110h-158l-23 74h-4q-23 -38 -69 -63q-46 -25 -102 -25q-38 0 -69.5 10q-31.5 10 -53.5 33q-22 23 -34 62q-12 39 -12 98v201h-57v110h187v-284q0 -61 19.5 -88q19.5 -27 61.5 -27q37 0 66.5 22q29.5 22 41.5 54l0 213l-56 0z" />
<glyph unicode="&#118;" horiz-adv-x="600" d="M313 151h7l112 349h140l-191 -500h-139l-215 500l151 0z" />
<glyph unicode="&#119;" horiz-adv-x="600" d="M351 380l75 -219h5l9 86l41 253h117l-101 -500h-131l-56 198h-5l-63 -198h-135l-105 500h130l49 -277l8 -62h5l74 219z" />
<glyph unicode="&#120;" horiz-adv-x="600" d="M211 258l-174 242h155l113 -167l118 167h141l-171 -240l181 -260h-151l-127 184l-129 -184l-142 0z" />
<glyph unicode="&#121;" horiz-adv-x="600" d="M301 141h38l97 359h134l-142 -451q-19 -56 -37 -102.5q-18 -46.5 -42 -80.5q-24 -34 -56.5 -52.5q-32.5 -18.5 -79.5 -18.5q-23 0 -43.5 6q-20.5 6 -37.5 14.5q-17 8.5 -30 18q-13 9.5 -21 17.5l67 89q13 -11 31 -20.5q18 -9.5 34 -9.5q30 0 47.5 21q17.5 21 33.5 69l-71 0l-208 500l141 0z" />
<glyph unicode="&#122;" horiz-adv-x="600" d="M64 110l308 280h-308v110h472v-110l-305 -280h305v-110l-472 0z" />
<glyph unicode="&#123;" horiz-adv-x="600" d="M226 56q0 73 -36 101q-36 28 -104 28l0 100q69 0 104.5 29.5q35.5 29.5 35.5 95.5v128q0 76 39.5 119q39.5 43 117.5 43h150v-110h-80q-29 0 -48.5 -4q-19.5 -4 -31.5 -15q-12 -11 -17 -30.5q-5 -19.5 -5 -50.5v-114q0 -66 -36 -97.5q-36 -31.5 -94 -36.5l0 -10q57 -4 93.5 -38.5q36.5 -34.5 36.5 -99.5v-114q0 -31 5 -50.5q5 -19.5 17 -30.5q12 -11 32 -15q20 -4 49 -4h79v-110h-150q-75 0 -116 40q-41 40 -41 121z" />
<glyph unicode="&#124;" horiz-adv-x="600" d="M246 700h107v-830l-107 0z" />
<glyph unicode="&#125;" horiz-adv-x="600" d="M393 -69q0 -81 -41 -121q-41 -40 -116 -40h-150v110h79q29 0 49 4q20 4 32 15q12 11 17 30.5q5 19.5 5 50.5v114q0 65 36.5 99.5q36.5 34.5 93.5 38.5l0 10q-58 5 -94 36.5q-36 31.5 -36 97.5v114q0 31 -5.5 50.5q-5.5 19.5 -17.5 30.5q-12 11 -31.5 15q-19.5 4 -47.5 4h-80v110h150q78 0 117.5 -43q39.5 -43 39.5 -119v-128q0 -66 35.5 -95.5q35.5 -29.5 104.5 -29.5l0 -100q-68 0 -104 -28q-36 -28 -36 -101z" />
<glyph unicode="&#126;" horiz-adv-x="600" d="M64 378q47 38 84.5 52.5q37.5 14.5 69.5 14.5q29 0 54 -8.5q25 -8.5 48 -18q23 -9.5 45.5 -18q22.5 -8.5 45.5 -8.5q18 0 37 6q19 6 40 23l47 -103q-36 -27 -66 -38q-30 -11 -56 -11q-28 0 -52 9q-24 9 -46.5 20q-22.5 11 -45.5 20q-23 9 -49 9q-24 0 -51.5 -10.5q-27.5 -10.5 -60.5 -38.5z" />
<glyph unicode="&#160;" horiz-adv-x="600" />
<glyph unicode="&#161;" horiz-adv-x="600" d="M366 -200h-134v329l26 162h82l26 -162zM219 435q0 35 22 55.5q22 20.5 58 20.5q38 0 60 -20.5q22 -20.5 22 -55.5q0 -35 -22 -56q-22 -21 -60 -21q-36 0 -58 21t-22 56z" />
<glyph unicode="&#162;" horiz-adv-x="600" d="M535 33q-25 -17 -62 -27q-37 -10 -72 -12l0 -94h-121v89q-54 9 -92 30.5q-38 21.5 -66 53.5q-36 42 -46.5 90q-10.5 48 -10.5 87q0 57 18.5 105.5q18.5 48.5 48.5 80.5q29 30 67.5 49.5q38.5 19.5 80.5 24.5l0 90h121v-90q14 0 30.5 -2q16.5 -2 33 -6q16.5 -4 32 -9.5q15.5 -5.5 27.5 -12.5l-30 -106q-25 12 -49 18q-24 6 -60 7l0 -295q27 0 61 7.5q34 7.5 55 21.5zM193 252q0 -51 23.5 -91q23.5 -40 78.5 -53l0 286q-27 -3 -46 -16q-19 -13 -31.5 -32.5q-12.5 -19.5 -18.5 -43.5t-6 -50z" />
<glyph unicode="&#163;" horiz-adv-x="600" d="M64 394h68q-13 24 -22.5 54q-9.5 30 -9.5 72q0 49 16.5 85.5q16.5 36.5 46 60.5q29.5 24 70.5 36q41 12 90 12q61 0 111 -11.5q50 -11.5 86 -28.5l-42 -116q-20 11 -55 22.5q-35 11.5 -84 11.5q-48 0 -75 -22.5q-27 -22.5 -27 -67.5q0 -34 12.5 -58.5q12.5 -24.5 27.5 -49.5l141 0v-107h-98q3 -17 3 -34q0 -15 -1.5 -32.5q-1.5 -17.5 -7.5 -35.5q-6 -18 -19 -36q-13 -18 -35 -34l276 0v-115h-472v115q32 1 56 11q24 10 39.5 26.5q15.5 16.5 23.5 38.5q8 22 8 46q0 27 -6 50l-121 0z" />
<glyph unicode="&#164;" horiz-adv-x="600" d="M97 622l106 -108q20 12 44.5 18q24.5 6 51.5 6q26 0 52 -6.5q26 -6.5 45 -17.5l106 108l77 -80l-107 -107q19 -38 19 -90q0 -51 -19 -89l107 -106l-77 -80l-108 106q-19 -11 -44.5 -16.5q-25.5 -5.5 -50.5 -5.5q-26 0 -50 5.5q-24 5.5 -44 16.5l-108 -106l-76 80l107 105q-20 40 -20 90q0 25 5.5 46.5q5.5 21.5 14.5 41.5l-107 109zM217 346q0 -38 23 -62q23 -24 60 -24q37 0 59.5 24q22.5 24 22.5 62q0 36 -22.5 61q-22.5 25 -59.5 25q-37 0 -60 -25t-23 -61z" />
<glyph unicode="&#165;" horiz-adv-x="600" d="M101 337h91l-186 363h163l135 -289h5l138 289h147l-185 -363h90v-80h-130v-58h130v-80h-130v-119h-137v119h-131v80h131v58l-131 0z" />
<glyph unicode="&#166;" horiz-adv-x="600" d="M246 213h107v-343h-107zM353 357h-107v343l107 0z" />
<glyph unicode="&#167;" horiz-adv-x="600" d="M84 353q0 38 18 72q18 34 68 65q-18 13 -33.5 34q-15.5 21 -15.5 62q0 56 43.5 92q43.5 36 131.5 36q59 0 110 -10q51 -10 78 -23l-32 -105q-23 11 -61 19.5q-38 8.5 -73 8.5q-37 0 -52 -11q-15 -11 -15 -28q0 -18 19.5 -28q19.5 -10 49 -18q29.5 -8 64 -18q34.5 -10 64 -28q29.5 -18 49 -48q19.5 -30 19.5 -78q0 -31 -17.5 -66q-17.5 -35 -69.5 -67q21 -14 35.5 -36.5q14.5 -22.5 14.5 -63.5q0 -63 -49 -95.5q-49 -32.5 -130 -32.5q-68 0 -113.5 13.5q-45.5 13.5 -74.5 29.5l34 100q23 -11 56 -22q33 -11 77 -11q37 0 53.5 9.5q16.5 9.5 16.5 30.5q0 19 -19.5 29.5q-19.5 10.5 -49 19q-29.5 8.5 -64 18.5q-34.5 10 -64 27.5q-29.5 17.5 -49 46.5q-19.5 29 -19.5 76zt0 0zM386 345q0 18 -8.5 30q-8.5 12 -24.5 21.5q-16 9.5 -39 17.5q-23 8 -52 17q-20 -12 -34 -31.5q-14 -19.5 -14 -44.5q0 -35 32 -52q32 -17 88 -33q22 12 37 32t15 43z" />
<glyph unicode="&#168;" horiz-adv-x="600" d="M96 646q0 34 20.5 54.5q20.5 20.5 55.5 20.5q34 0 54 -20.5q20 -20.5 20 -54.5q0 -32 -20 -52.5q-20 -20.5 -54 -20.5q-35 0 -55.5 20.5q-20.5 20.5 -20.5 52.5zt0 0zM354 646q0 34 20 54.5q20 20.5 54 20.5q34 0 55 -20.5q21 -20.5 21 -54.5q0 -32 -21 -52.5q-21 -20.5 -55 -20.5q-34 0 -54 20.5t-20 52.5z" />
<glyph unicode="&#169;" horiz-adv-x="600" d="M35 285q0 61 20.5 110.5q20.5 49.5 56.5 84q36 34.5 84 53q48 18.5 104 18.5q56 0 104.5 -18.5q48.5 -18.5 84.5 -53q36 -34.5 56.5 -84q20.5 -49.5 20.5 -110.5q0 -61 -20.5 -110q-20.5 -49 -56.5 -83.5q-36 -34.5 -84.5 -53q-48.5 -18.5 -104.5 -18.5q-62 0 -111 18.5q-49 18.5 -83 53q-34 34.5 -52.5 83.5q-18.5 49 -18.5 110zt0 0zM106 285q0 -45 14.5 -81.5q14.5 -36.5 40.5 -62q26 -25.5 61.5 -39.5q35.5 -14 77.5 -14q42 0 78 14q36 14 62 39.5q26 25.5 40.5 62q14.5 36.5 14.5 81.5q0 46 -14.5 82.5q-14.5 36.5 -40.5 62q-26 25.5 -62 39.5q-36 14 -78 14q-42 0 -77.5 -14q-35.5 -14 -61.5 -39.5q-26 -25.5 -40.5 -62q-14.5 -36.5 -14.5 -82.5zt0 0zM392 168q-17 -10 -39.5 -16.5q-22.5 -6.5 -51.5 -6.5q-57 0 -90.5 38q-33.5 38 -33.5 102q0 68 34.5 104.5q34.5 36.5 87.5 36.5q28 0 48.5 -6.5q20.5 -6.5 39.5 -17.5l-23 -62q-14 7 -24.5 9q-10.5 2 -20.5 2q-21 0 -36 -16.5q-15 -16.5 -15 -51.5q0 -32 15.5 -48q15.5 -16 40.5 -16q14 0 25 3.5q11 3.5 21 8.5z" />
<glyph unicode="&#170;" horiz-adv-x="600" d="M151 674q26 14 73 24q47 10 107 10q76 0 104 -27.5q28 -27.5 28 -84.5q0 -34 -1.5 -66.5q-1.5 -32.5 -1.5 -63.5q0 -24 1.5 -45.5q1.5 -21.5 6.5 -40.5l-101 0l-13 46h-4q-13 -17 -37 -33.5q-24 -16.5 -67 -16.5q-52 0 -83 27.5q-31 27.5 -31 71.5q0 31 15 52q15 21 40.5 34q25.5 13 60 19q34.5 6 74.5 6q7 0 13.5 -0.5q6.5 -0.5 13.5 -0.5q2 26 -7 37.5q-9 11.5 -44 11.5q-41 0 -73 -8q-32 -8 -52 -16zM284 454q32 0 45 11.5q13 11.5 20 23.5l0 35q-9 1 -18 1.5q-9 0.5 -17 0.5q-30 0 -48.5 -8.5q-18.5 -8.5 -18.5 -29.5q0 -16 10.5 -25t26.5 -9z" />
<glyph unicode="&#171;" horiz-adv-x="600" d="M50 259l183 258l75 -62l-137 -195l147 -186l-77 -64zM282 259l183 258l75 -62l-137 -195l147 -186l-77 -64z" />
<glyph unicode="&#172;" horiz-adv-x="600" d="M79 412h442v-226h-120v114l-322 0z" />
<glyph unicode="&#173;" horiz-adv-x="600" d="M154 345h291v-115l-291 0z" />
<glyph unicode="&#174;" horiz-adv-x="600" d="M17 451q0 67 22.5 119.5q22.5 52.5 61.5 88.5q39 36 90.5 55q51.5 19 108.5 19q59 0 110.5 -19q51.5 -19 89.5 -55q38 -36 60 -88.5q22 -52.5 22 -119.5q0 -68 -22.5 -120.5q-22.5 -52.5 -61 -88.5q-38.5 -36 -90 -55q-51.5 -19 -108.5 -19q-59 0 -110.5 19q-51.5 19 -90 55q-38.5 36 -60.5 88.5q-22 52.5 -22 120.5zt0 0zM106 451q0 -50 16 -87.5q16 -37.5 42.5 -62.5q26.5 -25 62 -37q35.5 -12 74.5 -12q41 0 76.5 11.5q35.5 11.5 61.5 36.5q26 25 41 62.5q15 37.5 15 88.5q0 49 -15.5 86q-15.5 37 -42 62q-26.5 25 -62 37.5q-35.5 12.5 -74.5 12.5q-44 0 -80 -14q-36 -14 -61.5 -39.5q-25.5 -25.5 -39.5 -62q-14 -36.5 -14 -82.5zt0 0zM187 579q15 5 44.5 8.5q29.5 3.5 55.5 3.5q25 0 48 -4.5q23 -4.5 40.5 -14.5q17.5 -10 27.5 -26.5q10 -16.5 10 -40.5q0 -26 -12 -43.5q-12 -17.5 -31 -26.5l65 -113h-85l-48 90h-43v-90h-72zM278 466q21 0 38.5 6.5q17.5 6.5 17.5 29.5q0 35 -47 35q-9 0 -17.5 -1.5q-8.5 -1.5 -10.5 -2.5l0 -67z" />
<glyph unicode="&#175;" horiz-adv-x="600" d="M138 658h323v-92l-323 0z" />
<glyph unicode="&#176;" horiz-adv-x="600" d="M134 548q0 37 13 67.5q13 30.5 35.5 52.5q22.5 22 52 34q29.5 12 63.5 12q34 0 64.5 -11q30.5 -11 53.5 -32.5q23 -21.5 36 -52.5q13 -31 13 -70q0 -39 -13 -69.5q-13 -30.5 -36 -51.5q-23 -21 -53.5 -32q-30.5 -11 -64.5 -11q-34 0 -63.5 11q-29.5 11 -52 32q-22.5 21 -35.5 51.5q-13 30.5 -13 69.5zt0 0zM234 548q0 -32 19 -50.5q19 -18.5 46 -18.5q27 0 47 18.5q20 18.5 20 50.5q0 32 -20 51.5q-20 19.5 -47 19.5q-27 0 -46 -19.5t-19 -51.5z" />
<glyph unicode="&#177;" horiz-adv-x="600" d="M79 518h162v164h117v-164h163v-112h-163v-107h-117v107h-162zM79 253h442v-112l-442 0z" />
<glyph unicode="&#178;" horiz-adv-x="600" d="M478 481v-101h-352v70q30 21 67 45.5q37 24.5 68.5 51q31.5 26.5 53 54q21.5 27.5 21.5 53.5q0 23 -17 37q-17 14 -52 14q-39 0 -66 -14q-27 -14 -44 -25l-43 87q41 27 82.5 40.5q41.5 13.5 82.5 13.5q32 0 61 -6.5q29 -6.5 55 -23.5q26 -17 41 -42.5q15 -25.5 15 -58.5q0 -32 -13 -60.5q-13 -28.5 -34 -53q-21 -24.5 -46.5 -45q-25.5 -20.5 -50.5 -36.5z" />
<glyph unicode="&#179;" horiz-adv-x="600" d="M343 630q48 -5 82.5 -33q34.5 -28 34.5 -82q0 -36 -16 -62.5q-16 -26.5 -43 -44q-27 -17.5 -61.5 -26.5q-34.5 -9 -70.5 -9q-39 0 -89 11.5q-50 11.5 -100 51.5l43 86q42 -31 77 -42.5q35 -11.5 66 -11.5q32 0 55.5 14q23.5 14 23.5 37q0 23 -19.5 35q-19.5 12 -70.5 12h-38v53l88 86h-177v95h315v-70l-100 -100z" />
<glyph unicode="&#180;" horiz-adv-x="600" d="M260 720h158l-137 -154l-80 0z" />
<glyph unicode="&#181;" horiz-adv-x="600" d="M189 500v-273q0 -64 20.5 -96.5q20.5 -32.5 71.5 -32.5q46 0 74 23q28 23 40 64l0 315h130v-337q0 -41 2.5 -82.5q2.5 -41.5 12.5 -80.5l-96 0l-32 74h-4q-17 -35 -50 -60.5q-33 -25.5 -86 -25.5q-39 0 -60 14q-21 14 -39 36l-5 0l21 -105v-133h-130l0 700z" />
<glyph unicode="&#182;" horiz-adv-x="600" d="M414 700h107v-830h-107zM229 294q-32 0 -60 16.5q-28 16.5 -48.5 45q-20.5 28.5 -31.5 65q-11 36.5 -11 77.5q0 40 13 76.5q13 36.5 37 64.5q24 28 58 44.5q34 16.5 76 16.5h74v-830l-107 0z" />
<glyph unicode="&#183;" horiz-adv-x="600" d="M219 316q0 35 22 55.5q22 20.5 58 20.5q38 0 60 -20.5q22 -20.5 22 -55.5q0 -35 -22 -56q-22 -21 -60 -21q-36 0 -58 21t-22 56z" />
<glyph unicode="&#184;" horiz-adv-x="600" d="M342 0l-24 -43q41 -4 64.5 -21.5q23.5 -17.5 23.5 -53.5q0 -23 -11.5 -40q-11.5 -17 -31.5 -28.5q-20 -11.5 -47 -17.5q-27 -6 -58 -6q-31 0 -64 6l9 48q7 -1 13 -1q6 0 11 0q38 0 49 9q11 9 11 21q0 28 -86 32l57 95z" />
<glyph unicode="&#185;" horiz-adv-x="600" d="M133 480h129v192l-100 -67l-49 77l169 118h95v-320h120v-100l-364 0z" />
<glyph unicode="&#186;" horiz-adv-x="600" d="M124 542q0 45 13 77q13 32 36.5 53q23.5 21 56 30.5q32.5 9.5 70.5 9.5q38 0 70 -9q32 -9 55.5 -29q23.5 -20 36.5 -52.5q13 -32.5 13 -79.5q0 -47 -13 -79.5q-13 -32.5 -36.5 -52.5q-23.5 -20 -55.5 -29q-32 -9 -70 -9q-38 0 -70.5 9q-32.5 9 -56 29q-23.5 20 -36.5 52.5q-13 32.5 -13 79.5zt0 0zM241 542q0 -86 59 -86q31 0 44.5 18.5q13.5 18.5 13.5 67.5q0 48 -13.5 67q-13.5 19 -44.5 19q-31 0 -45 -19t-14 -67z" />
<glyph unicode="&#187;" horiz-adv-x="600" d="M359 10l-77 64l147 186l-137 195l75 62l183 -258zM127 10l-77 64l147 186l-137 195l75 62l183 -258z" />
<glyph unicode="&#188;" horiz-adv-x="600" d="M596 78h-51v-78h-93v78h-146v71l147 279h92v-266h51zM452 268l-53 -106h53zM425 724l72 -26l-315 -739l-74 28zM109 576l-58 -47l-47 66l125 105h76v-420l-96 0z" />
<glyph unicode="&#189;" horiz-adv-x="600" d="M597 305q0 -52 -28.5 -102q-28.5 -50 -79.5 -112l108 0v-91h-213v84q13 16 33 41q20 25 39 52.5q19 27.5 32 54q13 26.5 13 46.5q0 26 -11.5 37.5q-11.5 11.5 -29.5 11.5q-14 0 -25.5 -4.5q-11.5 -4.5 -22.5 -12.5l-26 88q19 12 41.5 20.5q22.5 8.5 56.5 8.5q56 0 84.5 -34q28.5 -34 28.5 -88zt0 0zM107 576l-58 -47l-47 66l125 105h76v-420h-96zM420 724l72 -26l-315 -739l-74 28z" />
<glyph unicode="&#190;" horiz-adv-x="600" d="M594 78h-51v-78h-93v78h-146v71l147 279h92v-266h51zM91 368q22 0 36 14q14 14 14 37q0 23 -12.5 36q-12.5 13 -41.5 13h-27v46l68 95h-116v91h218v-87l-64 -90q32 -8 54 -33q22 -25 22 -79q0 -28 -9 -53q-9 -25 -27 -44q-18 -19 -45 -30q-27 -11 -63 -11q-39 0 -62 9.5q-23 9.5 -33 14.5l24 90q8 -5 24.5 -12q16.5 -7 39.5 -7zt0 0zM432 724l72 -26l-315 -739l-74 28zM450 268l-53 -106l53 0z" />
<glyph unicode="&#191;" horiz-adv-x="600" d="M393 293q1 -8 1.5 -15.5q0.5 -7.5 0.5 -15.5q0 -44 -14 -76q-14 -32 -35.5 -55.5q-21.5 -23.5 -46.5 -41q-25 -17.5 -46.5 -35q-21.5 -17.5 -35.5 -36.5q-14 -19 -14 -44q0 -35 29 -56q29 -21 90 -21q31 0 57 9q26 9 48 21.5q22 12.5 39 26q17 13.5 30 22.5l63 -84q-24 -26 -54.5 -46q-30.5 -20 -64.5 -33q-34 -13 -70 -19.5q-36 -6.5 -71 -6.5q-109 0 -169.5 45.5q-60.5 45.5 -60.5 122.5q0 51 15.5 84.5q15.5 33.5 39.5 57q24 23.5 51.5 41.5q27.5 18 51 38.5q23.5 20.5 39.5 47.5q16 27 16 69zM413 435q0 -35 -22 -55.5q-22 -20.5 -58 -20.5q-38 0 -60 20.5q-22 20.5 -22 55.5q0 35 22 56q22 21 60 21q36 0 58 -21t22 -56z" />
<glyph unicode="&#192;" horiz-adv-x="600" d="M400 155h-209l-48 -155h-137l226 700h137l225 -700h-144zM223 265h150l-71 234h-9zM397 752h-105l-158 88v30l159 0z" />
<glyph unicode="&#193;" horiz-adv-x="600" d="M400 155h-209l-48 -155h-137l226 700h137l225 -700h-144zM223 265h150l-71 234h-9zM307 870h159v-30l-160 -88l-103 0z" />
<glyph unicode="&#194;" horiz-adv-x="600" d="M400 155h-209l-48 -155h-137l226 700h137l225 -700h-144zM223 265h150l-71 234h-9zM509 737h-136l-73 61l-68 -61h-141l155 133l102 0z" />
<glyph unicode="&#195;" horiz-adv-x="600" d="M400 155h-209l-48 -155h-137l226 700h137l225 -700h-144zM223 265h150l-71 234h-9zM111 800q32 35 61.5 48q29.5 13 58.5 13q22 0 44 -5.5q22 -5.5 42.5 -12q20.5 -6.5 40.5 -12.5q20 -6 38 -6q16 0 31 5.5q15 5.5 29 19.5l25 -67q-28 -26 -54.5 -36.5q-26.5 -10.5 -51.5 -10.5q-23 0 -44 5.5q-21 5.5 -41.5 12.5q-20.5 7 -40.5 12.5q-20 5.5 -39 5.5q-19 0 -37.5 -7.5q-18.5 -7.5 -37.5 -27.5z" />
<glyph unicode="&#196;" horiz-adv-x="600" d="M400 155h-209l-48 -155h-137l226 700h137l225 -700h-144zM223 265h150l-71 234h-9zM97 805q0 27 19 44q19 17 61 17q42 0 61 -17q19 -17 19 -44q0 -28 -19 -44q-19 -16 -61 -16q-42 0 -61 16q-19 16 -19 44zt0 0zM343 805q0 27 19 44q19 17 61 17q42 0 61 -17q19 -17 19 -44q0 -28 -19 -44q-19 -16 -61 -16q-42 0 -61 16t-19 44z" />
<glyph unicode="&#197;" horiz-adv-x="600" d="M172 772q0 18 6 34.5q6 16.5 20.5 29q14.5 12.5 39 19.5q24.5 7 62.5 7q70 0 99 -24q29 -24 29 -66q0 -18 -6.5 -34q-6.5 -16 -21.5 -28q-12 -9 -30 -15l224 -695h-144l-50 155h-209l-48 -155h-137l224 693q-18 6 -30 16q-28 25 -28 63zt0 0zM223 265h150l-71 234h-9zM256 772q0 -31 44 -31q25 0 35 8q10 8 10 23q0 17 -10.5 25q-10.5 8 -34.5 9q-44 -1 -44 -34z" />
<glyph unicode="&#198;" horiz-adv-x="600" d="M296 480l-70 -204h74v204zM300 168h-115l-62 -168h-125l270 700h331v-121h-179v-163h161v-123h-161v-171h182v-122l-302 0z" />
<glyph unicode="&#199;" horiz-adv-x="600" d="M444 235h110v-200q-32 -23 -82 -36q-27 -7 -55 -10l-17 -32q41 -4 64.5 -21.5q23.5 -17.5 23.5 -53.5q0 -23 -11.5 -40q-11.5 -17 -31.5 -28.5q-20 -11.5 -47 -17.5q-27 -6 -58 -6q-31 0 -64 6l9 48q7 -1 13 -1h11q38 0 49 9q11 9 11 21q0 28 -86 32l49 83q-45 4 -87 17q-59 20 -104 63.5q-45 43.5 -72 113q-27 69.5 -27 168.5q0 103 30.5 172.5q30.5 69.5 78.5 112q48 42.5 107 61q59 18.5 116 18.5q60 0 101.5 -10q41.5 -10 68.5 -23l0 -208h-110v114q-31 5 -64 5q-39 0 -72.5 -14.5q-33.5 -14.5 -58.5 -44.5q-25 -30 -39 -75.5q-14 -45.5 -14 -107.5q0 -54 13 -98.5q13 -44.5 38 -76.5q25 -32 61 -49.5q36 -17.5 82 -17.5q33 0 64 6z" />
<glyph unicode="&#200;" horiz-adv-x="600" d="M70 700h459v-122h-322v-163h297v-122h-297v-171h327v-122h-464zM392 752h-105l-158 88v30l159 0z" />
<glyph unicode="&#201;" horiz-adv-x="600" d="M70 700h459v-122h-322v-163h297v-122h-297v-171h327v-122h-464zM323 870h159v-30l-160 -88l-103 0z" />
<glyph unicode="&#202;" horiz-adv-x="600" d="M70 700h459v-122h-322v-163h297v-122h-297v-171h327v-122h-464zM509 737h-136l-73 61l-68 -61h-141l155 133l102 0z" />
<glyph unicode="&#203;" horiz-adv-x="600" d="M70 700h459v-122h-322v-163h297v-122h-297v-171h327v-122h-464zM94 805q0 27 19 44q19 17 61 17q42 0 61 -17q19 -17 19 -44q0 -28 -19 -44q-19 -16 -61 -16q-42 0 -61 16q-19 16 -19 44zt0 0zM340 805q0 27 19 44q19 17 61 17q42 0 61 -17q19 -17 19 -44q0 -28 -19 -44q-19 -16 -61 -16q-42 0 -61 16t-19 44z" />
<glyph unicode="&#204;" horiz-adv-x="600" d="M54 122h177v456h-177v122h492v-122h-178v-456h178v-122h-492zM407 752h-105l-158 88v30l159 0z" />
<glyph unicode="&#205;" horiz-adv-x="600" d="M54 122h177v456h-177v122h492v-122h-178v-456h178v-122h-492zM309 870h159v-30l-160 -88l-103 0z" />
<glyph unicode="&#206;" horiz-adv-x="600" d="M54 122h177v456h-177v122h492v-122h-178v-456h178v-122h-492zM507 737h-136l-73 61l-68 -61h-141l155 133l102 0z" />
<glyph unicode="&#207;" horiz-adv-x="600" d="M54 122h177v456h-177v122h492v-122h-178v-456h178v-122h-492zM98 805q0 27 19 44q19 17 61 17q42 0 61 -17q19 -17 19 -44q0 -28 -19 -44q-19 -16 -61 -16q-42 0 -61 16q-19 16 -19 44zt0 0zM344 805q0 27 19 44q19 17 61 17q42 0 61 -17q19 -17 19 -44q0 -28 -19 -44q-19 -16 -61 -16q-42 0 -61 16t-19 44z" />
<glyph unicode="&#208;" horiz-adv-x="600" d="M89 700q9 1 31.5 3q22.5 2 51 3.5q28.5 1.5 59 2.5q30.5 1 54.5 1q93 0 154 -27q61 -27 96.5 -74.5q35.5 -47.5 49.5 -112q14 -64.5 14 -140.5q0 -69 -14 -135q-14 -66 -50.5 -117.5q-36.5 -51.5 -101 -83q-64.5 -31.5 -165.5 -31.5q-16 0 -41 1q-25 1 -51 2.5q-26 1.5 -50 3q-24 1.5 -37 3.5l0 322h-88v80h88zM290 588q-19 0 -37 -1.5q-18 -1.5 -27 -2.5l0 -183h140v-80h-140v-206q4 -1 12 -1.5q8 -0.5 16.5 -1q8.5 -0.5 16.5 -1q8 -0.5 13 -0.5q58 0 92.5 21.5q34.5 21.5 51.5 56.5q17 35 22 79q5 44 5 88q0 38 -4.5 79q-4.5 41 -21 75q-16.5 34 -49.5 56t-90 22z" />
<glyph unicode="&#209;" horiz-adv-x="600" d="M185 414h-5l6 -83v-331h-130v700h120l242 -428h5l-9 84v344h130v-700h-120zM109 800q32 35 61.5 48q29.5 13 58.5 13q22 0 44 -5.5q22 -5.5 42.5 -12q20.5 -6.5 40.5 -12.5q20 -6 38 -6q16 0 31 5.5q15 5.5 29 19.5l25 -67q-28 -26 -54.5 -36.5q-26.5 -10.5 -51.5 -10.5q-23 0 -44 5.5q-21 5.5 -41.5 12.5q-20.5 7 -40.5 12.5q-20 5.5 -39 5.5q-19 0 -37.5 -7.5q-18.5 -7.5 -37.5 -27.5z" />
<glyph unicode="&#210;" horiz-adv-x="600" d="M36 350q0 85 16 153q16 68 49 114.5q33 46.5 82.5 71.5q49.5 25 116.5 25q72 0 122 -27q50 -27 81.5 -75q31.5 -48 46 -115q14.5 -67 14.5 -147q0 -171 -65.5 -267.5q-65.5 -96.5 -198.5 -96.5q-72 0 -122.5 27q-50.5 27 -82 75q-31.5 48 -45.5 115q-14 67 -14 147zt0 0zM180 350q0 -51 4.5 -95q4.5 -44 17 -76.5q12.5 -32.5 36 -51.5q23.5 -19 62.5 -19q35 0 58 14.5q23 14.5 37 44.5q14 30 19.5 75.5q5.5 45.5 5.5 107.5q0 49 -3.5 93q-3.5 44 -16 77q-12.5 33 -36.5 52.5q-24 19.5 -64 19.5q-70 0 -95 -61q-25 -61 -25 -181zt0 0zM377 752h-105l-158 88v30l159 0z" />
<glyph unicode="&#211;" horiz-adv-x="600" d="M36 350q0 85 16 153q16 68 49 114.5q33 46.5 82.5 71.5q49.5 25 116.5 25q72 0 122 -27q50 -27 81.5 -75q31.5 -48 46 -115q14.5 -67 14.5 -147q0 -171 -65.5 -267.5q-65.5 -96.5 -198.5 -96.5q-72 0 -122.5 27q-50.5 27 -82 75q-31.5 48 -45.5 115q-14 67 -14 147zt0 0zM180 350q0 -51 4.5 -95q4.5 -44 17 -76.5q12.5 -32.5 36 -51.5q23.5 -19 62.5 -19q35 0 58 14.5q23 14.5 37 44.5q14 30 19.5 75.5q5.5 45.5 5.5 107.5q0 49 -3.5 93q-3.5 44 -16 77q-12.5 33 -36.5 52.5q-24 19.5 -64 19.5q-70 0 -95 -61q-25 -61 -25 -181zt0 0zM333 870h159v-30l-160 -88l-103 0z" />
<glyph unicode="&#212;" horiz-adv-x="600" d="M36 350q0 85 16 153q16 68 49 114.5q33 46.5 82.5 71.5q49.5 25 116.5 25q72 0 122 -27q50 -27 81.5 -75q31.5 -48 46 -115q14.5 -67 14.5 -147q0 -171 -65.5 -267.5q-65.5 -96.5 -198.5 -96.5q-72 0 -122.5 27q-50.5 27 -82 75q-31.5 48 -45.5 115q-14 67 -14 147zt0 0zM180 350q0 -51 4.5 -95q4.5 -44 17 -76.5q12.5 -32.5 36 -51.5q23.5 -19 62.5 -19q35 0 58 14.5q23 14.5 37 44.5q14 30 19.5 75.5q5.5 45.5 5.5 107.5q0 49 -3.5 93q-3.5 44 -16 77q-12.5 33 -36.5 52.5q-24 19.5 -64 19.5q-70 0 -95 -61q-25 -61 -25 -181zt0 0zM509 737h-136l-73 61l-68 -61h-141l155 133l102 0z" />
<glyph unicode="&#213;" horiz-adv-x="600" d="M36 350q0 85 16 153q16 68 49 114.5q33 46.5 82.5 71.5q49.5 25 116.5 25q72 0 122 -27q50 -27 81.5 -75q31.5 -48 46 -115q14.5 -67 14.5 -147q0 -171 -65.5 -267.5q-65.5 -96.5 -198.5 -96.5q-72 0 -122.5 27q-50.5 27 -82 75q-31.5 48 -45.5 115q-14 67 -14 147zt0 0zM180 350q0 -51 4.5 -95q4.5 -44 17 -76.5q12.5 -32.5 36 -51.5q23.5 -19 62.5 -19q35 0 58 14.5q23 14.5 37 44.5q14 30 19.5 75.5q5.5 45.5 5.5 107.5q0 49 -3.5 93q-3.5 44 -16 77q-12.5 33 -36.5 52.5q-24 19.5 -64 19.5q-70 0 -95 -61q-25 -61 -25 -181zt0 0zM109 800q32 35 61.5 48q29.5 13 58.5 13q22 0 44 -5.5q22 -5.5 42.5 -12q20.5 -6.5 40.5 -12.5q20 -6 38 -6q16 0 31 5.5q15 5.5 29 19.5l25 -67q-28 -26 -54.5 -36.5q-26.5 -10.5 -51.5 -10.5q-23 0 -44 5.5q-21 5.5 -41.5 12.5q-20.5 7 -40.5 12.5q-20 5.5 -39 5.5q-19 0 -37.5 -7.5q-18.5 -7.5 -37.5 -27.5z" />
<glyph unicode="&#214;" horiz-adv-x="600" d="M36 350q0 85 16 153q16 68 49 114.5q33 46.5 82.5 71.5q49.5 25 116.5 25q72 0 122 -27q50 -27 81.5 -75q31.5 -48 46 -115q14.5 -67 14.5 -147q0 -171 -65.5 -267.5q-65.5 -96.5 -198.5 -96.5q-72 0 -122.5 27q-50.5 27 -82 75q-31.5 48 -45.5 115q-14 67 -14 147zt0 0zM180 350q0 -51 4.5 -95q4.5 -44 17 -76.5q12.5 -32.5 36 -51.5q23.5 -19 62.5 -19q35 0 58 14.5q23 14.5 37 44.5q14 30 19.5 75.5q5.5 45.5 5.5 107.5q0 49 -3.5 93q-3.5 44 -16 77q-12.5 33 -36.5 52.5q-24 19.5 -64 19.5q-70 0 -95 -61q-25 -61 -25 -181zt0 0zM97 805q0 27 19 44q19 17 61 17q42 0 61 -17q19 -17 19 -44q0 -28 -19 -44q-19 -16 -61 -16q-42 0 -61 16q-19 16 -19 44zt0 0zM343 805q0 27 19 44q19 17 61 17q42 0 61 -17q19 -17 19 -44q0 -28 -19 -44q-19 -16 -61 -16q-42 0 -61 16t-19 44z" />
<glyph unicode="&#215;" horiz-adv-x="600" d="M170 547l131 -130l130 130l79 -81l-130 -127l130 -129l-79 -82l-130 131l-132 -132l-79 81l131 131l-129 127z" />
<glyph unicode="&#216;" horiz-adv-x="600" d="M151 350q0 -36 3.5 -65.5q3.5 -29.5 11.5 -56.5l212 331q-30 33 -78 33q-73 0 -111 -58.5q-38 -58.5 -38 -183.5zt0 0zM449 350q0 33 -3 60.5q-3 27.5 -11 53.5l-208 -329q12 -12 31 -19.5q19 -7.5 42 -7.5q73 0 111 57q38 57 38 185zt0 0zM79 91q-37 48 -52.5 112q-15.5 64 -15.5 147q0 175 73 269.5q73 94.5 216 94.5q45 0 83 -12q38 -12 65 -32l29 45l85 -50l-39 -62q35 -48 50.5 -110.5q15.5 -62.5 15.5 -142.5q0 -175 -73.5 -269.5q-73.5 -94.5 -215.5 -94.5q-44 0 -81 10.5q-37 10.5 -63 27.5l-24 -38l-86 53z" />
<glyph unicode="&#217;" horiz-adv-x="600" d="M420 700h130v-448q0 -68 -18 -117.5q-18 -49.5 -50.5 -82q-32.5 -32.5 -77.5 -48.5q-45 -16 -99 -16q-130 0 -192.5 63q-62.5 63 -62.5 184v465h137v-438q0 -80 29 -116q29 -36 91 -36q60 0 86.5 38.5q26.5 38.5 26.5 113.5zM381 752h-105l-158 88v30l159 0z" />
<glyph unicode="&#218;" horiz-adv-x="600" d="M420 700h130v-448q0 -68 -18 -117.5q-18 -49.5 -50.5 -82q-32.5 -32.5 -77.5 -48.5q-45 -16 -99 -16q-130 0 -192.5 63q-62.5 63 -62.5 184v465h137v-438q0 -80 29 -116q29 -36 91 -36q60 0 86.5 38.5q26.5 38.5 26.5 113.5zM351 870h159v-30l-160 -88l-103 0z" />
<glyph unicode="&#219;" horiz-adv-x="600" d="M420 700h130v-448q0 -68 -18 -117.5q-18 -49.5 -50.5 -82q-32.5 -32.5 -77.5 -48.5q-45 -16 -99 -16q-130 0 -192.5 63q-62.5 63 -62.5 184v465h137v-438q0 -80 29 -116q29 -36 91 -36q60 0 86.5 38.5q26.5 38.5 26.5 113.5zM509 737h-136l-73 61l-68 -61h-141l155 133l102 0z" />
<glyph unicode="&#220;" horiz-adv-x="600" d="M420 700h130v-448q0 -68 -18 -117.5q-18 -49.5 -50.5 -82q-32.5 -32.5 -77.5 -48.5q-45 -16 -99 -16q-130 0 -192.5 63q-62.5 63 -62.5 184v465h137v-438q0 -80 29 -116q29 -36 91 -36q60 0 86.5 38.5q26.5 38.5 26.5 113.5zM97 805q0 27 19 44q19 17 61 17q42 0 61 -17q19 -17 19 -44q0 -28 -19 -44q-19 -16 -61 -16q-42 0 -61 16q-19 16 -19 44zt0 0zM343 805q0 27 19 44q19 17 61 17q42 0 61 -17q19 -17 19 -44q0 -28 -19 -44q-19 -16 -61 -16q-42 0 -61 16t-19 44z" />
<glyph unicode="&#221;" horiz-adv-x="600" d="M232 258l-226 442h163l135 -289h5l138 289h147l-225 -441v-259h-137zM330 870h159v-30l-160 -88l-103 0z" />
<glyph unicode="&#222;" horiz-adv-x="600" d="M56 700h137v-72q14 1 28 1.5q14 0.5 28 0.5q52 0 104.5 -8.5q52.5 -8.5 94.5 -34q42 -25.5 68.5 -71q26.5 -45.5 26.5 -118.5q0 -66 -23 -111.5q-23 -45.5 -61 -74.5q-38 -29 -86.5 -42q-48.5 -13 -100.5 -13q-5 0 -16 0q-11 0 -23 0.5q-12 0.5 -23.5 1.5q-11.5 1 -16.5 2l0 -161h-137zM193 280q4 -1 12 -2q8 -1 17 -1.5q9 -0.5 17.5 -0.5q8.5 0 12.5 0q27 0 53.5 5q26.5 5 47.5 18.5q21 13.5 33.5 37.5q12.5 24 12.5 63q0 33 -12 54.5q-12 21.5 -31.5 34.5q-19.5 13 -44.5 18q-25 5 -51 5q-20 0 -38 -1.5q-18 -1.5 -29 -3.5z" />
<glyph unicode="&#223;" horiz-adv-x="600" d="M379 537q0 13 -7 24q-7 11 -19 19.5q-12 8.5 -27 13q-15 4.5 -30 4.5q-48 0 -70 -23q-22 -23 -22 -87v-488h-130v390h-69v110h69q0 58 16 97.5q16 39.5 44.5 64q28.5 24.5 68 35.5q39.5 11 86.5 11q51 0 91.5 -11.5q40.5 -11.5 69 -32.5q28.5 -21 44 -50.5q15.5 -29.5 15.5 -65.5q0 -39 -17.5 -63q-17.5 -24 -39 -41q-21.5 -17 -39 -32q-17.5 -15 -17.5 -37q0 -18 14.5 -29q14.5 -11 37 -20.5q22.5 -9.5 48 -20q25.5 -10.5 48 -27.5q22.5 -17 37 -43.5q14.5 -26.5 14.5 -67.5q0 -35 -11 -67.5q-11 -32.5 -34.5 -58q-23.5 -25.5 -59 -40.5q-35.5 -15 -83.5 -15q-47 0 -86.5 11.5q-39.5 11.5 -67.5 28.5l35 97q23 -13 46 -23q23 -10 62 -10q30 0 49.5 20.5q19.5 20.5 19.5 49.5q0 21 -14.5 34q-14.5 13 -37 23.5q-22.5 10.5 -48 20.5q-25.5 10 -48 25.5q-22.5 15.5 -37 38.5q-14.5 23 -14.5 59q0 43 17.5 67q17.5 24 39 40.5q21.5 16.5 39 30.5t17.5 38z" />
<glyph unicode="&#224;" horiz-adv-x="600" d="M90 466q40 18 92.5 31q52.5 13 124.5 13q52 0 88.5 -12.5q36.5 -12.5 59 -35.5q22.5 -23 32.5 -55q10 -32 10 -72q0 -51 -3.5 -87q-3.5 -36 -3.5 -64q0 -21 2 -47q2 -14 3 -27l65 0v-110h-166l-13 68h-5q-20 -31 -57 -53.5q-37 -22.5 -100 -22.5q-75 0 -119 40q-44 40 -44 106q0 42 15.5 72.5q15.5 30.5 45 50q29.5 19.5 71 29q41.5 9.5 92.5 9.5q18 0 38 -2q20 -2 49 -4q2 10 2 20v19q0 38 -22 54.5q-22 16.5 -65 16.5q-51 0 -92 -13q-41 -13 -69 -26zM261 99q48 0 72 17.5q24 17.5 35 37.5l0 60q-10 2 -30 4.5q-20 2.5 -43 2.5q-19 0 -38 -3.5q-19 -3.5 -34 -11q-15 -7.5 -24 -19.5q-9 -12 -9 -29q0 -28 16.5 -43.5q16.5 -15.5 54.5 -15.5zt0 0zM368 566h-72l-152 154l164 0z" />
<glyph unicode="&#225;" horiz-adv-x="600" d="M90 466q40 18 92.5 31q52.5 13 124.5 13q52 0 88.5 -12.5q36.5 -12.5 59 -35.5q22.5 -23 32.5 -55q10 -32 10 -72q0 -51 -3.5 -87q-3.5 -36 -3.5 -64q0 -21 2 -47q2 -14 3 -27l65 0v-110h-166l-13 68h-5q-20 -31 -57 -53.5q-37 -22.5 -100 -22.5q-75 0 -119 40q-44 40 -44 106q0 42 15.5 72.5q15.5 30.5 45 50q29.5 19.5 71 29q41.5 9.5 92.5 9.5q18 0 38 -2q20 -2 49 -4q2 10 2 20v19q0 38 -22 54.5q-22 16.5 -65 16.5q-51 0 -92 -13q-41 -13 -69 -26zM261 99q48 0 72 17.5q24 17.5 35 37.5l0 60q-10 2 -30 4.5q-20 2.5 -43 2.5q-19 0 -38 -3.5q-19 -3.5 -34 -11q-15 -7.5 -24 -19.5q-9 -12 -9 -29q0 -28 16.5 -43.5q16.5 -15.5 54.5 -15.5zt0 0zM298 720h158l-137 -154l-80 0z" />
<glyph unicode="&#226;" horiz-adv-x="600" d="M90 466q40 18 92.5 31q52.5 13 124.5 13q52 0 88.5 -12.5q36.5 -12.5 59 -35.5q22.5 -23 32.5 -55q10 -32 10 -72q0 -51 -3.5 -87q-3.5 -36 -3.5 -64q0 -21 2 -47q2 -14 3 -27l65 0v-110h-166l-13 68h-5q-20 -31 -57 -53.5q-37 -22.5 -100 -22.5q-75 0 -119 40q-44 40 -44 106q0 42 15.5 72.5q15.5 30.5 45 50q29.5 19.5 71 29q41.5 9.5 92.5 9.5q18 0 38 -2q20 -2 49 -4q2 10 2 20v19q0 38 -22 54.5q-22 16.5 -65 16.5q-51 0 -92 -13q-41 -13 -69 -26zM261 99q48 0 72 17.5q24 17.5 35 37.5l0 60q-10 2 -30 4.5q-20 2.5 -43 2.5q-19 0 -38 -3.5q-19 -3.5 -34 -11q-15 -7.5 -24 -19.5q-9 -12 -9 -29q0 -28 16.5 -43.5q16.5 -15.5 54.5 -15.5zt0 0zM261 732h86l111 -182h-103l-55 94l-63 -94l-99 0z" />
<glyph unicode="&#227;" horiz-adv-x="600" d="M90 466q40 18 92.5 31q52.5 13 124.5 13q52 0 88.5 -12.5q36.5 -12.5 59 -35.5q22.5 -23 32.5 -55q10 -32 10 -72q0 -51 -3.5 -87q-3.5 -36 -3.5 -64q0 -21 2 -47q2 -14 3 -27l65 0v-110h-166l-13 68h-5q-20 -31 -57 -53.5q-37 -22.5 -100 -22.5q-75 0 -119 40q-44 40 -44 106q0 42 15.5 72.5q15.5 30.5 45 50q29.5 19.5 71 29q41.5 9.5 92.5 9.5q18 0 38 -2q20 -2 49 -4q2 10 2 20v19q0 38 -22 54.5q-22 16.5 -65 16.5q-51 0 -92 -13q-41 -13 -69 -26zM261 99q48 0 72 17.5q24 17.5 35 37.5l0 60q-10 2 -30 4.5q-20 2.5 -43 2.5q-19 0 -38 -3.5q-19 -3.5 -34 -11q-15 -7.5 -24 -19.5q-9 -12 -9 -29q0 -28 16.5 -43.5q16.5 -15.5 54.5 -15.5zt0 0zM129 658q31 37 57.5 51q26.5 14 50.5 14q20 0 38.5 -7q18.5 -7 36.5 -15q18 -8 35 -15q17 -7 35 -5q14 -2 28.5 4q14.5 6 30.5 21l20 -70q-29 -32 -53.5 -44q-24.5 -12 -47.5 -12q-20 0 -39 6.5q-19 6.5 -37 14.5q-18 8 -36 14.5q-18 6.5 -36 6.5q-15 0 -31 -6.5q-16 -6.5 -33 -22.5z" />
<glyph unicode="&#228;" horiz-adv-x="600" d="M90 466q40 18 92.5 31q52.5 13 124.5 13q52 0 88.5 -12.5q36.5 -12.5 59 -35.5q22.5 -23 32.5 -55q10 -32 10 -72q0 -51 -3.5 -87q-3.5 -36 -3.5 -64q0 -21 2 -47q2 -14 3 -27l65 0v-110h-166l-13 68h-5q-20 -31 -57 -53.5q-37 -22.5 -100 -22.5q-75 0 -119 40q-44 40 -44 106q0 42 15.5 72.5q15.5 30.5 45 50q29.5 19.5 71 29q41.5 9.5 92.5 9.5q18 0 38 -2q20 -2 49 -4q2 10 2 20v19q0 38 -22 54.5q-22 16.5 -65 16.5q-51 0 -92 -13q-41 -13 -69 -26zM261 99q48 0 72 17.5q24 17.5 35 37.5l0 60q-10 2 -30 4.5q-20 2.5 -43 2.5q-19 0 -38 -3.5q-19 -3.5 -34 -11q-15 -7.5 -24 -19.5q-9 -12 -9 -29q0 -28 16.5 -43.5q16.5 -15.5 54.5 -15.5zt0 0zM88 646q0 34 20.5 54.5q20.5 20.5 55.5 20.5q34 0 54 -20.5q20 -20.5 20 -54.5q0 -32 -20 -52.5q-20 -20.5 -54 -20.5q-35 0 -55.5 20.5q-20.5 20.5 -20.5 52.5zt0 0zM346 646q0 34 20 54.5q20 20.5 54 20.5q34 0 55 -20.5q21 -20.5 21 -54.5q0 -32 -21 -52.5q-21 -20.5 -55 -20.5q-34 0 -54 20.5t-20 52.5z" />
<glyph unicode="&#229;" horiz-adv-x="600" d="M90 466q40 18 92.5 31q52.5 13 124.5 13q52 0 88.5 -12.5q36.5 -12.5 59 -35.5q22.5 -23 32.5 -55q10 -32 10 -72q0 -51 -3.5 -87q-3.5 -36 -3.5 -64q0 -21 2 -47q2 -14 3 -27l65 0v-110h-166l-13 68h-5q-20 -31 -57 -53.5q-37 -22.5 -100 -22.5q-75 0 -119 40q-44 40 -44 106q0 42 15.5 72.5q15.5 30.5 45 50q29.5 19.5 71 29q41.5 9.5 92.5 9.5q18 0 38 -2q20 -2 49 -4q2 10 2 20v19q0 38 -22 54.5q-22 16.5 -65 16.5q-51 0 -92 -13q-41 -13 -69 -26zM261 99q48 0 72 17.5q24 17.5 35 37.5l0 60q-10 2 -30 4.5q-20 2.5 -43 2.5q-19 0 -38 -3.5q-19 -3.5 -34 -11q-15 -7.5 -24 -19.5q-9 -12 -9 -29q0 -28 16.5 -43.5q16.5 -15.5 54.5 -15.5zt0 0zM175 647q0 42 28.5 69q28.5 27 82.5 27q51 0 81 -24.5q30 -24.5 30 -71.5q0 -39 -29.5 -66.5q-29.5 -27.5 -81.5 -27.5q-53 0 -82 25.5q-29 25.5 -29 68.5zt0 0zM247 647q0 -16 12 -24.5q12 -8.5 27 -8.5q17 0 28 8q11 8 11 25q0 17 -11.5 25.5q-11.5 8.5 -27.5 8.5q-15 0 -27 -8t-12 -26z" />
<glyph unicode="&#230;" horiz-adv-x="600" d="M179 100q41 0 52 35l0 90q-5 1 -9 1.5q-4 0.5 -9 0.5q-29 -1 -48.5 -15.5q-19.5 -14.5 -19.5 -53.5q0 -58 34 -58zt0 0zM257 62q-17 -34 -44.5 -52q-27.5 -18 -72.5 -18q-26 0 -49 11q-23 11 -40 30.5q-17 19.5 -26.5 46.5q-9.5 27 -9.5 60q0 41 13 71q13 30 37 50q24 20 57 30q33 10 72 10q7 0 15 0q8 0 15 -1q1 8 1 16q0 8 0 15q0 42 -15 56.5q-15 14.5 -41 14.5q-9 0 -22 -2.5q-13 -2.5 -26.5 -6.5q-13.5 -4 -27 -10q-13.5 -6 -23.5 -12l-33 96q14 10 33 18.5q19 8.5 41 13.5q22 5 44.5 8q22.5 3 43.5 3q34 0 65 -12.5q31 -12.5 45 -40.5q35 57 103 57q29 0 57 -10q28 -10 50.5 -32.5q22.5 -22.5 36.5 -59.5q14 -37 14 -90q0 -29 -3 -56.5q-3 -27.5 -7 -50.5l-211 0q1 -68 22.5 -95q21.5 -27 56.5 -27q12 0 26 2q14 2 27 5.5q13 3.5 24 8q11 4.5 17 8.5l36 -86q-11 -9 -27.5 -16.5q-16.5 -7.5 -36.5 -13.5q-20 -6 -43 -9.5q-23 -3.5 -45 -3.5q-48 0 -86.5 18q-38.5 18 -58.5 56zM409 410q-28 0 -42.5 -28q-14.5 -28 -16.5 -89l101 0q0 5 0.5 12q0.5 7 0.5 12q0 45 -10.5 69t-32.5 24z" />
<glyph unicode="&#231;" horiz-adv-x="600" d="M546 48q-41 -31 -96 -47q-39 -10 -81 -14l-17 -30q41 -4 64.5 -21.5q23.5 -17.5 23.5 -53.5q0 -23 -11.5 -40q-11.5 -17 -31.5 -28.5q-20 -11.5 -47 -17.5q-27 -6 -58 -6q-31 0 -64 6l9 48q7 -1 13 -1h11q38 0 49 9q11 9 11 21q0 28 -86 32l50 84q-35 5 -66 16q-50 19 -84.5 53.5q-34.5 34.5 -52.5 83.5q-18 49 -18 108q0 63 21 112q21 49 58.5 83q37.5 34 88.5 51.5q51 17.5 111 17.5q56 0 105 -13q49 -13 75 -25l0 -176h-110v92q-31 7 -62 7q-28 0 -55.5 -8.5q-27.5 -8.5 -49 -27q-21.5 -18.5 -35 -46.5q-13.5 -28 -13.5 -67q0 -32 11 -59q11 -27 31 -47q20 -20 49.5 -31.5q29.5 -11.5 65.5 -11.5q57 0 93.5 16q36.5 16 54.5 28z" />
<glyph unicode="&#232;" horiz-adv-x="600" d="M534 53q-13 -12 -33.5 -23.5q-20.5 -11.5 -48 -21.5q-27.5 -10 -60.5 -16q-33 -6 -70 -6q-64 0 -114.5 18q-50.5 18 -85.5 52.5q-35 34.5 -53.5 83q-18.5 48.5 -18.5 110.5q0 66 21 115.5q21 49.5 57.5 82.5q36.5 33 85.5 49.5q49 16.5 106 16.5q38 0 78.5 -10q40.5 -10 74.5 -34.5q34 -24.5 55.5 -65.5q21.5 -41 21.5 -104q0 -43 -10 -93l-360 0q1 -32 13.5 -54q12.5 -22 33 -36q20.5 -14 47 -20.5q26.5 -6.5 56.5 -6.5q60 0 98.5 14q38.5 14 62.5 34zM318 410q-26 0 -49 -7q-23 -7 -41.5 -20.5q-18.5 -13.5 -30.5 -33.5q-12 -20 -14 -45l246 0q0 49 -27.5 77.5q-27.5 28.5 -83.5 28.5zt0 0zM376 566h-72l-152 154l164 0z" />
<glyph unicode="&#233;" horiz-adv-x="600" d="M534 53q-13 -12 -33.5 -23.5q-20.5 -11.5 -48 -21.5q-27.5 -10 -60.5 -16q-33 -6 -70 -6q-64 0 -114.5 18q-50.5 18 -85.5 52.5q-35 34.5 -53.5 83q-18.5 48.5 -18.5 110.5q0 66 21 115.5q21 49.5 57.5 82.5q36.5 33 85.5 49.5q49 16.5 106 16.5q38 0 78.5 -10q40.5 -10 74.5 -34.5q34 -24.5 55.5 -65.5q21.5 -41 21.5 -104q0 -43 -10 -93l-360 0q1 -32 13.5 -54q12.5 -22 33 -36q20.5 -14 47 -20.5q26.5 -6.5 56.5 -6.5q60 0 98.5 14q38.5 14 62.5 34zM318 410q-26 0 -49 -7q-23 -7 -41.5 -20.5q-18.5 -13.5 -30.5 -33.5q-12 -20 -14 -45l246 0q0 49 -27.5 77.5q-27.5 28.5 -83.5 28.5zt0 0zM321 720h158l-137 -154l-80 0z" />
<glyph unicode="&#234;" horiz-adv-x="600" d="M534 53q-13 -12 -33.5 -23.5q-20.5 -11.5 -48 -21.5q-27.5 -10 -60.5 -16q-33 -6 -70 -6q-64 0 -114.5 18q-50.5 18 -85.5 52.5q-35 34.5 -53.5 83q-18.5 48.5 -18.5 110.5q0 66 21 115.5q21 49.5 57.5 82.5q36.5 33 85.5 49.5q49 16.5 106 16.5q38 0 78.5 -10q40.5 -10 74.5 -34.5q34 -24.5 55.5 -65.5q21.5 -41 21.5 -104q0 -43 -10 -93l-360 0q1 -32 13.5 -54q12.5 -22 33 -36q20.5 -14 47 -20.5q26.5 -6.5 56.5 -6.5q60 0 98.5 14q38.5 14 62.5 34zM318 410q-26 0 -49 -7q-23 -7 -41.5 -20.5q-18.5 -13.5 -30.5 -33.5q-12 -20 -14 -45l246 0q0 49 -27.5 77.5q-27.5 28.5 -83.5 28.5zt0 0zM278 732h86l111 -182h-103l-55 94l-63 -94l-99 0z" />
<glyph unicode="&#235;" horiz-adv-x="600" d="M534 53q-13 -12 -33.5 -23.5q-20.5 -11.5 -48 -21.5q-27.5 -10 -60.5 -16q-33 -6 -70 -6q-64 0 -114.5 18q-50.5 18 -85.5 52.5q-35 34.5 -53.5 83q-18.5 48.5 -18.5 110.5q0 66 21 115.5q21 49.5 57.5 82.5q36.5 33 85.5 49.5q49 16.5 106 16.5q38 0 78.5 -10q40.5 -10 74.5 -34.5q34 -24.5 55.5 -65.5q21.5 -41 21.5 -104q0 -43 -10 -93l-360 0q1 -32 13.5 -54q12.5 -22 33 -36q20.5 -14 47 -20.5q26.5 -6.5 56.5 -6.5q60 0 98.5 14q38.5 14 62.5 34zM318 410q-26 0 -49 -7q-23 -7 -41.5 -20.5q-18.5 -13.5 -30.5 -33.5q-12 -20 -14 -45l246 0q0 49 -27.5 77.5q-27.5 28.5 -83.5 28.5zt0 0zM111 646q0 34 20.5 54.5q20.5 20.5 55.5 20.5q34 0 54 -20.5q20 -20.5 20 -54.5q0 -32 -20 -52.5q-20 -20.5 -54 -20.5q-35 0 -55.5 20.5q-20.5 20.5 -20.5 52.5zt0 0zM369 646q0 34 20 54.5q20 20.5 54 20.5q34 0 55 -20.5q21 -20.5 21 -54.5q0 -32 -21 -52.5q-21 -20.5 -55 -20.5q-34 0 -54 20.5t-20 52.5z" />
<glyph unicode="&#236;" horiz-adv-x="600" d="M59 110h176v280h-176v110h306v-390h185v-110h-491zM358 566h-72l-152 154l164 0z" />
<glyph unicode="&#237;" horiz-adv-x="600" d="M59 110h176v280h-176v110h306v-390h185v-110h-491zM289 720h158l-137 -154l-80 0z" />
<glyph unicode="&#238;" horiz-adv-x="600" d="M59 110h176v280h-176v110h306v-390h185v-110h-491zM257 732h86l111 -182h-103l-55 94l-63 -94l-99 0z" />
<glyph unicode="&#239;" horiz-adv-x="600" d="M59 110h176v280h-176v110h306v-390h185v-110h-491zM95 646q0 34 20.5 54.5q20.5 20.5 55.5 20.5q34 0 54 -20.5q20 -20.5 20 -54.5q0 -32 -20 -52.5q-20 -20.5 -54 -20.5q-35 0 -55.5 20.5q-20.5 20.5 -20.5 52.5zt0 0zM353 646q0 34 20 54.5q20 20.5 54 20.5q34 0 55 -20.5q21 -20.5 21 -54.5q0 -32 -21 -52.5q-21 -20.5 -55 -20.5q-34 0 -54 20.5t-20 52.5z" />
<glyph unicode="&#240;" horiz-adv-x="600" d="M215 584l44 30q-17 7 -34.5 12.5q-17.5 5.5 -34.5 8.5l52 80q22 -7 48.5 -16.5q26.5 -9.5 55.5 -25.5l53 36l42 -55l-33 -22q27 -23 55.5 -53.5q28.5 -30.5 51 -71q22.5 -40.5 37 -91.5q14.5 -51 14.5 -114q0 -81 -21 -140.5q-21 -59.5 -57.5 -98.5q-36.5 -39 -85.5 -58q-49 -19 -104 -19q-59 0 -106 19q-47 19 -79.5 53.5q-32.5 34.5 -50 82q-17.5 47.5 -17.5 104.5q0 54 18.5 100q18.5 46 51 80.5q32.5 34.5 77 54q44.5 19.5 95.5 19.5q19 0 39.5 -3q20.5 -3 40 -8q19.5 -5 35.5 -13q16 -8 26 -18q-15 37 -44.5 66q-29.5 29 -58.5 52l-67 -46zM171 243q0 -36 11 -63.5q11 -27.5 29 -46q18 -18.5 41.5 -28q23.5 -9.5 49.5 -9.5q27 0 52.5 10.5q25.5 10.5 45 32.5q19.5 22 31 56q11.5 34 11.5 81q0 13 -1.5 34q-1.5 21 -5.5 33q-13 13 -29.5 22q-16.5 9 -34.5 14q-18 5 -35.5 7.5q-17.5 2.5 -32.5 2.5q-30 0 -54.5 -11q-24.5 -11 -41.5 -30.5q-17 -19.5 -26.5 -46.5t-9.5 -58z" />
<glyph unicode="&#241;" horiz-adv-x="600" d="M12 500h175l15 -66h4q23 32 66 56q43 24 103 24q37 0 69.5 -10q32.5 -10 55.5 -33q23 -23 36.5 -62.5q13.5 -39.5 13.5 -97.5v-311h-130v284q0 61 -27.5 88q-27.5 27 -69.5 27q-37 0 -67.5 -21.5q-30.5 -21.5 -41.5 -53.5l0 -324h-130v390h-72zM142 658q31 37 57.5 51q26.5 14 50.5 14q20 0 38.5 -7q18.5 -7 36.5 -15q18 -8 35 -15q17 -7 35 -5q14 -2 28.5 4q14.5 6 30.5 21l20 -70q-29 -32 -53.5 -44q-24.5 -12 -47.5 -12q-20 0 -39 6.5q-19 6.5 -37 14.5q-18 8 -36 14.5q-18 6.5 -36 6.5q-15 0 -31 -6.5q-16 -6.5 -33 -22.5z" />
<glyph unicode="&#242;" horiz-adv-x="600" d="M35 250q0 63 19 112q19 49 54 83q35 34 83.5 51.5q48.5 17.5 108.5 17.5q63 0 112.5 -19q49.5 -19 83.5 -53.5q34 -34.5 51.5 -83.5q17.5 -49 17.5 -108q0 -63 -19 -112q-19 -49 -54 -83q-35 -34 -83.5 -51.5q-48.5 -17.5 -108.5 -17.5q-63 0 -112.5 19q-49.5 19 -83.5 53.5q-34 34.5 -51.5 83.5q-17.5 49 -17.5 108zt0 0zM169 250q0 -33 9 -61q9 -28 26 -49q17 -21 41 -32.5q24 -11.5 55 -11.5q58 0 94.5 37q36.5 37 36.5 117q0 69 -34 111.5q-34 42.5 -97 42.5q-28 0 -52 -8.5q-24 -8.5 -41.5 -27.5q-17.5 -19 -27.5 -48q-10 -29 -10 -70zt0 0zM348 566h-72l-152 154l164 0z" />
<glyph unicode="&#243;" horiz-adv-x="600" d="M35 250q0 63 19 112q19 49 54 83q35 34 83.5 51.5q48.5 17.5 108.5 17.5q63 0 112.5 -19q49.5 -19 83.5 -53.5q34 -34.5 51.5 -83.5q17.5 -49 17.5 -108q0 -63 -19 -112q-19 -49 -54 -83q-35 -34 -83.5 -51.5q-48.5 -17.5 -108.5 -17.5q-63 0 -112.5 19q-49.5 19 -83.5 53.5q-34 34.5 -51.5 83.5q-17.5 49 -17.5 108zt0 0zM169 250q0 -33 9 -61q9 -28 26 -49q17 -21 41 -32.5q24 -11.5 55 -11.5q58 0 94.5 37q36.5 37 36.5 117q0 69 -34 111.5q-34 42.5 -97 42.5q-28 0 -52 -8.5q-24 -8.5 -41.5 -27.5q-17.5 -19 -27.5 -48q-10 -29 -10 -70zt0 0zM316 720h158l-137 -154l-80 0z" />
<glyph unicode="&#244;" horiz-adv-x="600" d="M35 250q0 63 19 112q19 49 54 83q35 34 83.5 51.5q48.5 17.5 108.5 17.5q63 0 112.5 -19q49.5 -19 83.5 -53.5q34 -34.5 51.5 -83.5q17.5 -49 17.5 -108q0 -63 -19 -112q-19 -49 -54 -83q-35 -34 -83.5 -51.5q-48.5 -17.5 -108.5 -17.5q-63 0 -112.5 19q-49.5 19 -83.5 53.5q-34 34.5 -51.5 83.5q-17.5 49 -17.5 108zt0 0zM169 250q0 -33 9 -61q9 -28 26 -49q17 -21 41 -32.5q24 -11.5 55 -11.5q58 0 94.5 37q36.5 37 36.5 117q0 69 -34 111.5q-34 42.5 -97 42.5q-28 0 -52 -8.5q-24 -8.5 -41.5 -27.5q-17.5 -19 -27.5 -48q-10 -29 -10 -70zt0 0zM263 732h86l111 -182h-103l-55 94l-63 -94l-99 0z" />
<glyph unicode="&#245;" horiz-adv-x="600" d="M35 250q0 63 19 112q19 49 54 83q35 34 83.5 51.5q48.5 17.5 108.5 17.5q63 0 112.5 -19q49.5 -19 83.5 -53.5q34 -34.5 51.5 -83.5q17.5 -49 17.5 -108q0 -63 -19 -112q-19 -49 -54 -83q-35 -34 -83.5 -51.5q-48.5 -17.5 -108.5 -17.5q-63 0 -112.5 19q-49.5 19 -83.5 53.5q-34 34.5 -51.5 83.5q-17.5 49 -17.5 108zt0 0zM169 250q0 -33 9 -61q9 -28 26 -49q17 -21 41 -32.5q24 -11.5 55 -11.5q58 0 94.5 37q36.5 37 36.5 117q0 69 -34 111.5q-34 42.5 -97 42.5q-28 0 -52 -8.5q-24 -8.5 -41.5 -27.5q-17.5 -19 -27.5 -48q-10 -29 -10 -70zt0 0zM134 658q31 37 57.5 51q26.5 14 50.5 14q20 0 38.5 -7q18.5 -7 36.5 -15q18 -8 35 -15q17 -7 35 -5q14 -2 28.5 4q14.5 6 30.5 21l20 -70q-29 -32 -53.5 -44q-24.5 -12 -47.5 -12q-20 0 -39 6.5q-19 6.5 -37 14.5q-18 8 -36 14.5q-18 6.5 -36 6.5q-15 0 -31 -6.5q-16 -6.5 -33 -22.5z" />
<glyph unicode="&#246;" horiz-adv-x="600" d="M35 250q0 63 19 112q19 49 54 83q35 34 83.5 51.5q48.5 17.5 108.5 17.5q63 0 112.5 -19q49.5 -19 83.5 -53.5q34 -34.5 51.5 -83.5q17.5 -49 17.5 -108q0 -63 -19 -112q-19 -49 -54 -83q-35 -34 -83.5 -51.5q-48.5 -17.5 -108.5 -17.5q-63 0 -112.5 19q-49.5 19 -83.5 53.5q-34 34.5 -51.5 83.5q-17.5 49 -17.5 108zt0 0zM169 250q0 -33 9 -61q9 -28 26 -49q17 -21 41 -32.5q24 -11.5 55 -11.5q58 0 94.5 37q36.5 37 36.5 117q0 69 -34 111.5q-34 42.5 -97 42.5q-28 0 -52 -8.5q-24 -8.5 -41.5 -27.5q-17.5 -19 -27.5 -48q-10 -29 -10 -70zt0 0zM96 646q0 34 20.5 54.5q20.5 20.5 55.5 20.5q34 0 54 -20.5q20 -20.5 20 -54.5q0 -32 -20 -52.5q-20 -20.5 -54 -20.5q-35 0 -55.5 20.5q-20.5 20.5 -20.5 52.5zt0 0zM354 646q0 34 20 54.5q20 20.5 54 20.5q34 0 55 -20.5q21 -20.5 21 -54.5q0 -32 -21 -52.5q-21 -20.5 -55 -20.5q-34 0 -54 20.5t-20 52.5z" />
<glyph unicode="&#247;" horiz-adv-x="600" d="M59 394h482v-112h-482zM213 537q0 38 24 59.5q24 21.5 62 21.5q40 0 63.5 -21.5q23.5 -21.5 23.5 -59.5q0 -38 -23.5 -60q-23.5 -22 -63.5 -22q-38 0 -62 22q-24 22 -24 60zt0 0zM213 140q0 38 24 59.5q24 21.5 62 21.5q40 0 63.5 -21.5q23.5 -21.5 23.5 -59.5q0 -38 -23.5 -60q-23.5 -22 -63.5 -22q-38 0 -62 22t-24 60z" />
<glyph unicode="&#248;" horiz-adv-x="600" d="M35 250q0 63 19 112q19 49 54 83q35 34 83.5 51.5q48.5 17.5 108.5 17.5q62 0 111 -19l34 46l80 -59l-29 -41q34 -34 51.5 -83q17.5 -49 17.5 -108q0 -63 -19 -112q-19 -49 -54 -83q-35 -34 -83.5 -51.5q-48.5 -17.5 -108.5 -17.5q-63 0 -113 19q-3 1 -6 2l-34 -47l-83 60l33 45q-29 33 -45 77q-17 49 -17 108zt0 0zM300 96q58 0 94.5 37q36.5 37 36.5 117q0 46 -16 81l-164 -227q22 -8 49 -8zt0 0zM169 250q0 -33 9 -61l3 -9l160 218q-19 6 -41 6q-28 0 -52 -8.5q-24 -8.5 -41.5 -27.5q-17.5 -19 -27.5 -48t-10 -70z" />
<glyph unicode="&#249;" horiz-adv-x="600" d="M330 500h186v-348q0 -21 0 -42l76 0v-110h-158l-23 74h-4q-23 -38 -69 -63q-46 -25 -102 -25q-38 0 -69.5 10q-31.5 10 -53.5 33q-22 23 -34 62q-12 39 -12 98v201h-57v110h187v-284q0 -61 19.5 -88q19.5 -27 61.5 -27q37 0 66.5 22q29.5 22 41.5 54l0 213h-56zM333 566h-72l-152 154l164 0z" />
<glyph unicode="&#250;" horiz-adv-x="600" d="M330 500h186v-348q0 -21 0 -42l76 0v-110h-158l-23 74h-4q-23 -38 -69 -63q-46 -25 -102 -25q-38 0 -69.5 10q-31.5 10 -53.5 33q-22 23 -34 62q-12 39 -12 98v201h-57v110h187v-284q0 -61 19.5 -88q19.5 -27 61.5 -27q37 0 66.5 22q29.5 22 41.5 54l0 213h-56zM296 720h158l-137 -154l-80 0z" />
<glyph unicode="&#251;" horiz-adv-x="600" d="M330 500h186v-348q0 -21 0 -42l76 0v-110h-158l-23 74h-4q-23 -38 -69 -63q-46 -25 -102 -25q-38 0 -69.5 10q-31.5 10 -53.5 33q-22 23 -34 62q-12 39 -12 98v201h-57v110h187v-284q0 -61 19.5 -88q19.5 -27 61.5 -27q37 0 66.5 22q29.5 22 41.5 54l0 213h-56zM243 732h86l111 -182h-103l-55 94l-63 -94l-99 0z" />
<glyph unicode="&#252;" horiz-adv-x="600" d="M330 500h186v-348q0 -21 0 -42l76 0v-110h-158l-23 74h-4q-23 -38 -69 -63q-46 -25 -102 -25q-38 0 -69.5 10q-31.5 10 -53.5 33q-22 23 -34 62q-12 39 -12 98v201h-57v110h187v-284q0 -61 19.5 -88q19.5 -27 61.5 -27q37 0 66.5 22q29.5 22 41.5 54l0 213h-56zM67 646q0 34 20.5 54.5q20.5 20.5 55.5 20.5q34 0 54 -20.5q20 -20.5 20 -54.5q0 -32 -20 -52.5q-20 -20.5 -54 -20.5q-35 0 -55.5 20.5q-20.5 20.5 -20.5 52.5zt0 0zM325 646q0 34 20 54.5q20 20.5 54 20.5q34 0 55 -20.5q21 -20.5 21 -54.5q0 -32 -21 -52.5q-21 -20.5 -55 -20.5q-34 0 -54 20.5t-20 52.5z" />
<glyph unicode="&#253;" horiz-adv-x="600" d="M301 141h38l97 359h134l-142 -451q-19 -56 -37 -102.5q-18 -46.5 -42 -80.5q-24 -34 -56.5 -52.5q-32.5 -18.5 -79.5 -18.5q-23 0 -43.5 6q-20.5 6 -37.5 14.5q-17 8.5 -30 18q-13 9.5 -21 17.5l67 89q13 -11 31 -20.5q18 -9.5 34 -9.5q30 0 47.5 21q17.5 21 33.5 69l-71 0l-208 500h141zM295 720h158l-137 -154l-80 0z" />
<glyph unicode="&#254;" horiz-adv-x="600" d="M0 700h205v-240q24 26 62 40q38 14 89 14q46 0 84.5 -14.5q38.5 -14.5 66.5 -45.5q28 -31 43 -78q15 -47 15 -113q0 -64 -16.5 -115.5q-16.5 -51.5 -49 -87.5q-32.5 -36 -79 -55q-46.5 -19 -106.5 -19q-31 0 -60 4.5q-29 4.5 -49 14.5l0 -205h-130v790h-75zM318 404q-38 0 -69.5 -19q-31.5 -19 -43.5 -57l0 -208q14 -11 40.5 -17.5q26.5 -6.5 53.5 -6.5q28 0 52 9.5q24 9.5 42 30.5q18 21 28 53q10 32 10 77q0 66 -32 102t-81 36z" />
<glyph unicode="&#255;" horiz-adv-x="600" d="M301 141h38l97 359h134l-142 -451q-19 -56 -37 -102.5q-18 -46.5 -42 -80.5q-24 -34 -56.5 -52.5q-32.5 -18.5 -79.5 -18.5q-23 0 -43.5 6q-20.5 6 -37.5 14.5q-17 8.5 -30 18q-13 9.5 -21 17.5l67 89q13 -11 31 -20.5q18 -9.5 34 -9.5q30 0 47.5 21q17.5 21 33.5 69l-71 0l-208 500h141zM101 646q0 34 20.5 54.5q20.5 20.5 55.5 20.5q34 0 54 -20.5q20 -20.5 20 -54.5q0 -32 -20 -52.5q-20 -20.5 -54 -20.5q-35 0 -55.5 20.5q-20.5 20.5 -20.5 52.5zt0 0zM359 646q0 34 20 54.5q20 20.5 54 20.5q34 0 55 -20.5q21 -20.5 21 -54.5q0 -32 -21 -52.5q-21 -20.5 -55 -20.5q-34 0 -54 20.5t-20 52.5z" />
<glyph unicode="&#256;" horiz-adv-x="600" d="M400 155h-209l-48 -155h-137l226 700h137l225 -700h-144zM223 265h150l-71 234h-9zM129 856h343v-89l-343 0z" />
<glyph unicode="&#257;" horiz-adv-x="600" d="M90 466q40 18 92.5 31q52.5 13 124.5 13q52 0 88.5 -12.5q36.5 -12.5 59 -35.5q22.5 -23 32.5 -55q10 -32 10 -72q0 -51 -3.5 -87q-3.5 -36 -3.5 -64q0 -21 2 -47q2 -14 3 -27l65 0v-110h-166l-13 68h-5q-20 -31 -57 -53.5q-37 -22.5 -100 -22.5q-75 0 -119 40q-44 40 -44 106q0 42 15.5 72.5q15.5 30.5 45 50q29.5 19.5 71 29q41.5 9.5 92.5 9.5q18 0 38 -2q20 -2 49 -4q2 10 2 20v19q0 38 -22 54.5q-22 16.5 -65 16.5q-51 0 -92 -13q-41 -13 -69 -26zM261 99q48 0 72 17.5q24 17.5 35 37.5l0 60q-10 2 -30 4.5q-20 2.5 -43 2.5q-19 0 -38 -3.5q-19 -3.5 -34 -11q-15 -7.5 -24 -19.5q-9 -12 -9 -29q0 -28 16.5 -43.5q16.5 -15.5 54.5 -15.5zt0 0zM136 658h323v-92l-323 0z" />
<glyph unicode="&#258;" horiz-adv-x="600" d="M400 155h-209l-48 -155h-137l226 700h137l225 -700h-144zM223 265h150l-71 234h-9zM162 885q20 -26 58 -40q38 -14 85 -14q48 0 82.5 15q34.5 15 54.5 39l58 -45q-37 -54 -88 -77q-51 -23 -108 -23q-27 0 -54.5 4.5q-27.5 4.5 -53.5 15.5q-26 11 -50.5 30.5q-24.5 19.5 -44.5 49.5z" />
<glyph unicode="&#259;" horiz-adv-x="600" d="M90 466q40 18 92.5 31q52.5 13 124.5 13q52 0 88.5 -12.5q36.5 -12.5 59 -35.5q22.5 -23 32.5 -55q10 -32 10 -72q0 -51 -3.5 -87q-3.5 -36 -3.5 -64q0 -21 2 -47q2 -14 3 -27l65 0v-110h-166l-13 68h-5q-20 -31 -57 -53.5q-37 -22.5 -100 -22.5q-75 0 -119 40q-44 40 -44 106q0 42 15.5 72.5q15.5 30.5 45 50q29.5 19.5 71 29q41.5 9.5 92.5 9.5q18 0 38 -2q20 -2 49 -4q2 10 2 20v19q0 38 -22 54.5q-22 16.5 -65 16.5q-51 0 -92 -13q-41 -13 -69 -26zM261 99q48 0 72 17.5q24 17.5 35 37.5l0 60q-10 2 -30 4.5q-20 2.5 -43 2.5q-19 0 -38 -3.5q-19 -3.5 -34 -11q-15 -7.5 -24 -19.5q-9 -12 -9 -29q0 -28 16.5 -43.5q16.5 -15.5 54.5 -15.5zt0 0zM188 720q17 -30 47.5 -44.5q30.5 -14.5 64.5 -14.5q34 0 62.5 15q28.5 15 43.5 44l60 -27q-3 -24 -16.5 -47.5q-13.5 -23.5 -35.5 -41.5q-22 -18 -51.5 -29q-29.5 -11 -63.5 -11q-66 0 -113 33.5q-47 33.5 -61 90.5z" />
<glyph unicode="&#260;" horiz-adv-x="600" d="M400 155h-209l-48 -155h-137l226 700h137l225 -700h-46q-58 -22 -58 -73q0 -18 11 -30.5q11 -12.5 31 -12.5q18 0 42 12l19 -62q-15 -12 -47.5 -23.5q-32.5 -11.5 -67.5 -11.5q-56 0 -85.5 25q-29.5 25 -29.5 66q0 38 23 65.5q23 27.5 64 44.5zM223 265h150l-71 234l-9 0z" />
<glyph unicode="&#261;" horiz-adv-x="600" d="M90 466q40 18 92.5 31q52.5 13 124.5 13q52 0 88.5 -12.5q36.5 -12.5 59 -35.5q22.5 -23 32.5 -55q10 -32 10 -72q0 -51 -3.5 -87q-3.5 -36 -3.5 -64q0 -21 2 -47q2 -14 3 -27l65 0v-110h-28q-48 -23 -48 -69q0 -18 11 -30.5q11 -12.5 31 -12.5q18 0 42 12l19 -62q-15 -12 -47.5 -23.5q-32.5 -11.5 -67.5 -11.5q-56 0 -85.5 25q-29.5 25 -29.5 66q0 41 27 70q20 21 51 36l-41 0l-13 68h-5q-20 -31 -57 -53.5q-37 -22.5 -100 -22.5q-75 0 -119 40q-44 40 -44 106q0 42 15.5 72.5q15.5 30.5 45 50q29.5 19.5 71 29q41.5 9.5 92.5 9.5q18 0 38 -2q20 -2 49 -4q2 10 2 20v19q0 38 -22 54.5q-22 16.5 -65 16.5q-51 0 -92 -13q-41 -13 -69 -26zM261 99q48 0 72 17.5q24 17.5 35 37.5l0 60q-10 2 -30 4.5q-20 2.5 -43 2.5q-19 0 -38 -3.5q-19 -3.5 -34 -11q-15 -7.5 -24 -19.5q-9 -12 -9 -29q0 -28 16.5 -43.5t54.5 -15.5z" />
<glyph unicode="&#262;" horiz-adv-x="600" d="M444 235h110v-200q-32 -23 -81.5 -36q-49.5 -13 -101.5 -13q-66 0 -125.5 19.5q-59.5 19.5 -104.5 63q-45 43.5 -72 113q-27 69.5 -27 168.5q0 103 30.5 172.5q30.5 69.5 78.5 112q48 42.5 107 61q59 18.5 116 18.5q60 0 101.5 -10q41.5 -10 68.5 -23l0 -208h-110v114q-31 5 -64 5q-39 0 -72.5 -14.5q-33.5 -14.5 -58.5 -44.5q-25 -30 -39 -75.5q-14 -45.5 -14 -107.5q0 -54 13 -98.5q13 -44.5 38 -76.5q25 -32 61 -49.5q36 -17.5 82 -17.5q33 0 64 6zM391 870h159v-30l-160 -88l-103 0z" />
<glyph unicode="&#263;" horiz-adv-x="600" d="M546 48q-41 -31 -96 -46.5q-55 -15.5 -115 -15.5q-65 0 -115.5 19q-50.5 19 -85 53.5q-34.5 34.5 -52.5 83.5q-18 49 -18 108q0 63 21 112q21 49 58.5 83q37.5 34 88.5 51.5q51 17.5 111 17.5q56 0 105 -13q49 -13 75 -25l0 -176h-110v92q-31 7 -62 7q-28 0 -55.5 -8.5q-27.5 -8.5 -49 -27q-21.5 -18.5 -35 -46.5q-13.5 -28 -13.5 -67q0 -32 11 -59q11 -27 31 -47q20 -20 49.5 -31.5q29.5 -11.5 65.5 -11.5q57 0 93.5 16q36.5 16 54.5 28zM348 720h158l-137 -154l-80 0z" />
<glyph unicode="&#264;" horiz-adv-x="600" d="M444 235h110v-200q-32 -23 -81.5 -36q-49.5 -13 -101.5 -13q-66 0 -125.5 19.5q-59.5 19.5 -104.5 63q-45 43.5 -72 113q-27 69.5 -27 168.5q0 103 30.5 172.5q30.5 69.5 78.5 112q48 42.5 107 61q59 18.5 116 18.5q60 0 101.5 -10q41.5 -10 68.5 -23l0 -208h-110v114q-31 5 -64 5q-39 0 -72.5 -14.5q-33.5 -14.5 -58.5 -44.5q-25 -30 -39 -75.5q-14 -45.5 -14 -107.5q0 -54 13 -98.5q13 -44.5 38 -76.5q25 -32 61 -49.5q36 -17.5 82 -17.5q33 0 64 6zM556 737h-136l-73 61l-68 -61h-141l155 133l102 0z" />
<glyph unicode="&#265;" horiz-adv-x="600" d="M546 48q-41 -31 -96 -46.5q-55 -15.5 -115 -15.5q-65 0 -115.5 19q-50.5 19 -85 53.5q-34.5 34.5 -52.5 83.5q-18 49 -18 108q0 63 21 112q21 49 58.5 83q37.5 34 88.5 51.5q51 17.5 111 17.5q56 0 105 -13q49 -13 75 -25l0 -176h-110v92q-31 7 -62 7q-28 0 -55.5 -8.5q-27.5 -8.5 -49 -27q-21.5 -18.5 -35 -46.5q-13.5 -28 -13.5 -67q0 -32 11 -59q11 -27 31 -47q20 -20 49.5 -31.5q29.5 -11.5 65.5 -11.5q57 0 93.5 16q36.5 16 54.5 28zM282 732h86l111 -182h-103l-55 94l-63 -94l-99 0z" />
<glyph unicode="&#268;" horiz-adv-x="600" d="M444 235h110v-200q-32 -23 -81.5 -36q-49.5 -13 -101.5 -13q-66 0 -125.5 19.5q-59.5 19.5 -104.5 63q-45 43.5 -72 113q-27 69.5 -27 168.5q0 103 30.5 172.5q30.5 69.5 78.5 112q48 42.5 107 61q59 18.5 116 18.5q60 0 101.5 -10q41.5 -10 68.5 -23l0 -208h-110v114q-31 5 -64 5q-39 0 -72.5 -14.5q-33.5 -14.5 -58.5 -44.5q-25 -30 -39 -75.5q-14 -45.5 -14 -107.5q0 -54 13 -98.5q13 -44.5 38 -76.5q25 -32 61 -49.5q36 -17.5 82 -17.5q33 0 64 6zM418 737h-102l-155 133h141l68 -61l73 61l136 0z" />
<glyph unicode="&#269;" horiz-adv-x="600" d="M546 48q-41 -31 -96 -46.5q-55 -15.5 -115 -15.5q-65 0 -115.5 19q-50.5 19 -85 53.5q-34.5 34.5 -52.5 83.5q-18 49 -18 108q0 63 21 112q21 49 58.5 83q37.5 34 88.5 51.5q51 17.5 111 17.5q56 0 105 -13q49 -13 75 -25l0 -176h-110v92q-31 7 -62 7q-28 0 -55.5 -8.5q-27.5 -8.5 -49 -27q-21.5 -18.5 -35 -46.5q-13.5 -28 -13.5 -67q0 -32 11 -59q11 -27 31 -47q20 -20 49.5 -31.5q29.5 -11.5 65.5 -11.5q57 0 93.5 16q36.5 16 54.5 28zM380 550h-91l-115 182h110l56 -94l62 94l101 0z" />
<glyph unicode="&#270;" horiz-adv-x="600" d="M50 700q9 1 31.5 3q22.5 2 51 3.5q28.5 1.5 59 2.5q30.5 1 54.5 1q93 0 154 -27q61 -27 96.5 -74.5q35.5 -47.5 49.5 -112q14 -64.5 14 -140.5q0 -69 -14 -135q-14 -66 -50.5 -117.5q-36.5 -51.5 -101 -83q-64.5 -31.5 -165.5 -31.5q-16 0 -41 1q-25 1 -51 2.5q-26 1.5 -50 3q-24 1.5 -37 3.5zM251 588q-19 0 -37 -1.5q-18 -1.5 -27 -2.5l0 -469q4 -1 12 -1.5q8 -0.5 16.5 -1q8.5 -0.5 16.5 -1q8 -0.5 13 -0.5q58 0 92.5 21.5q34.5 21.5 51.5 56.5q17 35 22 79q5 44 5 88q0 38 -4.5 79q-4.5 41 -21 75q-16.5 34 -49.5 56q-33 22 -90 22zt0 0zM297 737h-102l-155 133h141l68 -61l73 61l136 0z" />
<glyph unicode="&#271;" horiz-adv-x="600" d="M306 700h209v-432q0 -75 8 -148q0 -5 1 -10l64 0v-110h-161l-13 64h-4q-10 -18 -27 -32q-17 -14 -38 -24.5q-21 -10.5 -46 -16q-25 -5.5 -50 -5.5q-47 0 -88.5 15q-41.5 15 -72.5 46.5q-31 31.5 -49 80q-18 48.5 -18 114.5q0 64 19.5 114q19.5 50 54 84.5q34.5 34.5 81.5 53q47 18.5 103 18.5q31 0 58.5 -3.5q27.5 -3.5 47.5 -11.5l0 93h-79zM279 96q38 0 67.5 18.5q29.5 18.5 38.5 53.5l0 212q-14 11 -38.5 16.5q-24.5 5.5 -51.5 5.5q-27 0 -52.5 -9q-25.5 -9 -45 -28.5q-19.5 -19.5 -31 -50.5q-11.5 -31 -11.5 -76q0 -64 32 -103q32 -39 92 -39zt0 0zM697 700q-2 -29 -12 -60.5q-10 -31.5 -23.5 -60q-13.5 -28.5 -28.5 -51q-15 -22.5 -27 -32.5l-58 31q17 36 26 81.5q9 45.5 9 91.5z" />
<glyph unicode="&#272;" horiz-adv-x="600" d="M89 700q9 1 31.5 3q22.5 2 51 3.5q28.5 1.5 59 2.5q30.5 1 54.5 1q93 0 154 -27q61 -27 96.5 -74.5q35.5 -47.5 49.5 -112q14 -64.5 14 -140.5q0 -69 -14 -135q-14 -66 -50.5 -117.5q-36.5 -51.5 -101 -83q-64.5 -31.5 -165.5 -31.5q-16 0 -41 1q-25 1 -51 2.5q-26 1.5 -50 3q-24 1.5 -37 3.5l0 322h-88v80h88zM290 588q-19 0 -37 -1.5q-18 -1.5 -27 -2.5l0 -183h140v-80h-140v-206q4 -1 12 -1.5q8 -0.5 16.5 -1q8.5 -0.5 16.5 -1q8 -0.5 13 -0.5q58 0 92.5 21.5q34.5 21.5 51.5 56.5q17 35 22 79q5 44 5 88q0 38 -4.5 79q-4.5 41 -21 75q-16.5 34 -49.5 56t-90 22z" />
<glyph unicode="&#273;" horiz-adv-x="600" d="M515 268q0 -75 8 -148q0 -5 1 -10l64 0v-110h-161l-13 64h-4q-10 -18 -27 -32q-17 -14 -38 -24.5q-21 -10.5 -46 -16q-25 -5.5 -50 -5.5q-47 0 -88.5 15q-41.5 15 -72.5 46.5q-31 31.5 -49 80q-18 48.5 -18 114.5q0 64 19.5 114q19.5 50 54 84.5q34.5 34.5 81.5 53q47 18.5 103 18.5q31 0 58.5 -3.5q27.5 -3.5 47.5 -11.5l0 64h-145v80h145v59h130v-59h79v-80h-79zM279 96q38 0 67.5 18.5q29.5 18.5 38.5 53.5l0 212q-14 11 -38.5 16.5q-24.5 5.5 -51.5 5.5q-27 0 -52.5 -9q-25.5 -9 -45 -28.5q-19.5 -19.5 -31 -50.5q-11.5 -31 -11.5 -76q0 -64 32 -103t92 -39z" />
<glyph unicode="&#274;" horiz-adv-x="600" d="M70 700h459v-122h-322v-163h297v-122h-297v-171h327v-122h-464zM137 856h343v-89l-343 0z" />
<glyph unicode="&#275;" horiz-adv-x="600" d="M534 53q-13 -12 -33.5 -23.5q-20.5 -11.5 -48 -21.5q-27.5 -10 -60.5 -16q-33 -6 -70 -6q-64 0 -114.5 18q-50.5 18 -85.5 52.5q-35 34.5 -53.5 83q-18.5 48.5 -18.5 110.5q0 66 21 115.5q21 49.5 57.5 82.5q36.5 33 85.5 49.5q49 16.5 106 16.5q38 0 78.5 -10q40.5 -10 74.5 -34.5q34 -24.5 55.5 -65.5q21.5 -41 21.5 -104q0 -43 -10 -93l-360 0q1 -32 13.5 -54q12.5 -22 33 -36q20.5 -14 47 -20.5q26.5 -6.5 56.5 -6.5q60 0 98.5 14q38.5 14 62.5 34zM318 410q-26 0 -49 -7q-23 -7 -41.5 -20.5q-18.5 -13.5 -30.5 -33.5q-12 -20 -14 -45l246 0q0 49 -27.5 77.5q-27.5 28.5 -83.5 28.5zt0 0zM150 658h323v-92l-323 0z" />
<glyph unicode="&#278;" horiz-adv-x="600" d="M70 700h459v-122h-322v-163h297v-122h-297v-171h327v-122h-464zM216 809q0 27 23 46q23 19 70 19q46 0 71 -19q25 -19 25 -46q0 -29 -25 -48q-25 -19 -71 -19q-47 0 -70 19t-23 48z" />
<glyph unicode="&#279;" horiz-adv-x="600" d="M534 53q-13 -12 -33.5 -23.5q-20.5 -11.5 -48 -21.5q-27.5 -10 -60.5 -16q-33 -6 -70 -6q-64 0 -114.5 18q-50.5 18 -85.5 52.5q-35 34.5 -53.5 83q-18.5 48.5 -18.5 110.5q0 66 21 115.5q21 49.5 57.5 82.5q36.5 33 85.5 49.5q49 16.5 106 16.5q38 0 78.5 -10q40.5 -10 74.5 -34.5q34 -24.5 55.5 -65.5q21.5 -41 21.5 -104q0 -43 -10 -93l-360 0q1 -32 13.5 -54q12.5 -22 33 -36q20.5 -14 47 -20.5q26.5 -6.5 56.5 -6.5q60 0 98.5 14q38.5 14 62.5 34zM318 410q-26 0 -49 -7q-23 -7 -41.5 -20.5q-18.5 -13.5 -30.5 -33.5q-12 -20 -14 -45l246 0q0 49 -27.5 77.5q-27.5 28.5 -83.5 28.5zt0 0zM227 636q0 31 23 53q23 22 64 22q42 0 67 -22q25 -22 25 -53q0 -32 -25 -52.5q-25 -20.5 -67 -20.5q-41 0 -64 20.5t-23 52.5z" />
<glyph unicode="&#280;" horiz-adv-x="600" d="M87 700h409v-122h-272v-163h247v-122h-247v-171h277v-122h-27q-58 -22 -58 -73q0 -18 11 -30.5q11 -12.5 31 -12.5q18 0 42 12l19 -62q-15 -12 -47.5 -23.5q-32.5 -11.5 -67.5 -11.5q-56 0 -85.5 25q-29.5 25 -29.5 66q0 38 23 65.5q23 27.5 64 44.5l-289 0z" />
<glyph unicode="&#281;" horiz-adv-x="600" d="M534 53q-13 -12 -33.5 -23.5q-20.5 -11.5 -48.5 -21.5q-9 -4 -18 -7q-52 -23 -52 -70q0 -18 11 -30.5q11 -12.5 31 -12.5q18 0 42 12l19 -62q-15 -12 -47.5 -23.5q-32.5 -11.5 -67.5 -11.5q-56 0 -85.5 25q-29.5 25 -29.5 66q0 41 27 70q12 12 26 22q-56 2 -101 18q-50 18 -85 52.5q-35 34.5 -53.5 83q-18.5 48.5 -18.5 110.5q0 66 21 115.5q21 49.5 57.5 82.5q36.5 33 85.5 49.5q49 16.5 106 16.5q38 0 78.5 -10q40.5 -10 74.5 -34.5q34 -24.5 55.5 -65.5q21.5 -41 21.5 -104q0 -43 -10 -93l-360 0q1 -32 13.5 -54q12.5 -22 33 -36q20.5 -14 47 -20.5q26.5 -6.5 56.5 -6.5q60 0 98.5 14q38.5 14 62.5 34zM318 410q-26 0 -49 -7q-23 -7 -41.5 -20.5q-18.5 -13.5 -30.5 -33.5q-12 -20 -14 -45l246 0q0 49 -27.5 77.5t-83.5 28.5z" />
<glyph unicode="&#282;" horiz-adv-x="600" d="M70 700h459v-122h-322v-163h297v-122h-297v-171h327v-122h-464zM356 737h-102l-155 133h141l68 -61l73 61l136 0z" />
<glyph unicode="&#283;" horiz-adv-x="600" d="M534 53q-13 -12 -33.5 -23.5q-20.5 -11.5 -48 -21.5q-27.5 -10 -60.5 -16q-33 -6 -70 -6q-64 0 -114.5 18q-50.5 18 -85.5 52.5q-35 34.5 -53.5 83q-18.5 48.5 -18.5 110.5q0 66 21 115.5q21 49.5 57.5 82.5q36.5 33 85.5 49.5q49 16.5 106 16.5q38 0 78.5 -10q40.5 -10 74.5 -34.5q34 -24.5 55.5 -65.5q21.5 -41 21.5 -104q0 -43 -10 -93l-360 0q1 -32 13.5 -54q12.5 -22 33 -36q20.5 -14 47 -20.5q26.5 -6.5 56.5 -6.5q60 0 98.5 14q38.5 14 62.5 34zM318 410q-26 0 -49 -7q-23 -7 -41.5 -20.5q-18.5 -13.5 -30.5 -33.5q-12 -20 -14 -45l246 0q0 49 -27.5 77.5q-27.5 28.5 -83.5 28.5zt0 0zM361 550h-91l-115 182h110l56 -94l62 94l101 0z" />
<glyph unicode="&#284;" horiz-adv-x="600" d="M323 365h239v-316q-34 -31 -88.5 -47q-54.5 -16 -111.5 -16q-67 0 -125.5 23q-58.5 23 -101.5 69.5q-43 46.5 -68 115q-25 68.5 -25 160.5q0 97 30 165q30 68 77.5 111.5q47.5 43.5 106.5 63.5q59 20 117 20q60 0 100 -9.5q40 -9.5 73 -24.5l0 -207h-110v111q-8 2 -16 4q-20 4 -44 4q-41 0 -76 -14q-35 -14 -60.5 -43.5q-25.5 -29.5 -39.5 -75.5q-14 -46 -14 -110q0 -57 14 -102q14 -45 39 -76q25 -31 59.5 -47q34.5 -16 74.5 -16q26 0 47.5 6q21.5 6 29.5 12l0 139h-127zM554 737h-136l-73 61l-68 -61h-141l155 133l102 0z" />
<glyph unicode="&#285;" horiz-adv-x="600" d="M530 0q0 -54 -18.5 -94q-18.5 -40 -51 -66.5q-32.5 -26.5 -77 -39q-44.5 -12.5 -97.5 -12.5q-36 0 -67.5 5.5q-31.5 5.5 -58 14.5q-26.5 9 -46.5 19.5q-20 10.5 -32 20.5l50 92q24 -16 57.5 -30.5q33.5 -14.5 84.5 -14.5q63 0 96 29q33 29 33 83v32h-4q-18 -24 -53 -35.5q-35 -11.5 -81 -11.5q-48 0 -88.5 15q-40.5 15 -70.5 45.5q-30 30.5 -46.5 77.5q-16.5 47 -16.5 110q0 66 19.5 117q19.5 51 55 85.5q35.5 34.5 85 52q49.5 17.5 110.5 17.5q32 0 64 -2.5q32 -2.5 60.5 -6.5q28.5 -4 52.5 -9.5q24 -5.5 40 -11.5zM290 96q38 0 68.5 17q30.5 17 41.5 51l0 225q-14 6 -39.5 9.5q-25.5 3.5 -48.5 3.5q-28 0 -52.5 -9q-24.5 -9 -43 -28.5q-18.5 -19.5 -29 -49q-10.5 -29.5 -10.5 -70.5q0 -36 9 -64q9 -28 25 -47q16 -19 36 -28.5q20 -9.5 43 -9.5zt0 0zM281 732h86l111 -182h-103l-55 94l-63 -94l-99 0z" />
<glyph unicode="&#286;" horiz-adv-x="600" d="M323 365h239v-316q-34 -31 -88.5 -47q-54.5 -16 -111.5 -16q-67 0 -125.5 23q-58.5 23 -101.5 69.5q-43 46.5 -68 115q-25 68.5 -25 160.5q0 97 30 165q30 68 77.5 111.5q47.5 43.5 106.5 63.5q59 20 117 20q60 0 100 -9.5q40 -9.5 73 -24.5l0 -207h-110v111q-8 2 -16 4q-20 4 -44 4q-41 0 -76 -14q-35 -14 -60.5 -43.5q-25.5 -29.5 -39.5 -75.5q-14 -46 -14 -110q0 -57 14 -102q14 -45 39 -76q25 -31 59.5 -47q34.5 -16 74.5 -16q26 0 47.5 6q21.5 6 29.5 12l0 139h-127zM223 885q20 -26 58 -40q38 -14 85 -14q48 0 82.5 15q34.5 15 54.5 39l58 -45q-37 -54 -88 -77q-51 -23 -108 -23q-27 0 -54.5 4.5q-27.5 4.5 -53.5 15.5q-26 11 -50.5 30.5q-24.5 19.5 -44.5 49.5z" />
<glyph unicode="&#287;" horiz-adv-x="600" d="M530 0q0 -54 -18.5 -94q-18.5 -40 -51 -66.5q-32.5 -26.5 -77 -39q-44.5 -12.5 -97.5 -12.5q-36 0 -67.5 5.5q-31.5 5.5 -58 14.5q-26.5 9 -46.5 19.5q-20 10.5 -32 20.5l50 92q24 -16 57.5 -30.5q33.5 -14.5 84.5 -14.5q63 0 96 29q33 29 33 83v32h-4q-18 -24 -53 -35.5q-35 -11.5 -81 -11.5q-48 0 -88.5 15q-40.5 15 -70.5 45.5q-30 30.5 -46.5 77.5q-16.5 47 -16.5 110q0 66 19.5 117q19.5 51 55 85.5q35.5 34.5 85 52q49.5 17.5 110.5 17.5q32 0 64 -2.5q32 -2.5 60.5 -6.5q28.5 -4 52.5 -9.5q24 -5.5 40 -11.5zM290 96q38 0 68.5 17q30.5 17 41.5 51l0 225q-14 6 -39.5 9.5q-25.5 3.5 -48.5 3.5q-28 0 -52.5 -9q-24.5 -9 -43 -28.5q-18.5 -19.5 -29 -49q-10.5 -29.5 -10.5 -70.5q0 -36 9 -64q9 -28 25 -47q16 -19 36 -28.5q20 -9.5 43 -9.5zt0 0zM215 720q17 -30 47.5 -44.5q30.5 -14.5 64.5 -14.5q34 0 62.5 15q28.5 15 43.5 44l60 -27q-3 -24 -16.5 -47.5q-13.5 -23.5 -35.5 -41.5q-22 -18 -51.5 -29q-29.5 -11 -63.5 -11q-66 0 -113 33.5q-47 33.5 -61 90.5z" />
<glyph unicode="&#290;" horiz-adv-x="600" d="M323 365h239v-316q-34 -31 -88.5 -47q-54.5 -16 -111.5 -16q-67 0 -125.5 23q-58.5 23 -101.5 69.5q-43 46.5 -68 115q-25 68.5 -25 160.5q0 97 30 165q30 68 77.5 111.5q47.5 43.5 106.5 63.5q59 20 117 20q60 0 100 -9.5q40 -9.5 73 -24.5l0 -207h-110v111q-8 2 -16 4q-20 4 -44 4q-41 0 -76 -14q-35 -14 -60.5 -43.5q-25.5 -29.5 -39.5 -75.5q-14 -46 -14 -110q0 -57 14 -102q14 -45 39 -76q25 -31 59.5 -47q34.5 -16 74.5 -16q26 0 47.5 6q21.5 6 29.5 12l0 139h-127zM258 -95q0 18 8 30q8 12 20 19.5q12 7.5 27 10.5q15 3 30 3q35 0 62 -20q27 -20 27 -62q0 -29 -12.5 -50.5q-12.5 -21.5 -32 -36q-19.5 -14.5 -45 -22q-25.5 -7.5 -50.5 -7.5l-13 48q28 1 47 12q19 11 20 26q-38 -5 -63 9.5t-25 39.5z" />
<glyph unicode="&#291;" horiz-adv-x="600" d="M530 0q0 -54 -18.5 -94q-18.5 -40 -51 -66.5q-32.5 -26.5 -77 -39q-44.5 -12.5 -97.5 -12.5q-36 0 -67.5 5.5q-31.5 5.5 -58 14.5q-26.5 9 -46.5 19.5q-20 10.5 -32 20.5l50 92q24 -16 57.5 -30.5q33.5 -14.5 84.5 -14.5q63 0 96 29q33 29 33 83v32h-4q-18 -24 -53 -35.5q-35 -11.5 -81 -11.5q-48 0 -88.5 15q-40.5 15 -70.5 45.5q-30 30.5 -46.5 77.5q-16.5 47 -16.5 110q0 66 19.5 117q19.5 51 55 85.5q35.5 34.5 85 52q49.5 17.5 110.5 17.5q32 0 64 -2.5q32 -2.5 60.5 -6.5q28.5 -4 52.5 -9.5q24 -5.5 40 -11.5zM290 96q38 0 68.5 17q30.5 17 41.5 51l0 225q-14 6 -39.5 9.5q-25.5 3.5 -48.5 3.5q-28 0 -52.5 -9q-24.5 -9 -43 -28.5q-18.5 -19.5 -29 -49q-10.5 -29.5 -10.5 -70.5q0 -36 9 -64q9 -28 25 -47q16 -19 36 -28.5q20 -9.5 43 -9.5zt0 0zM412 604q0 -18 -8 -30q-8 -12 -20 -19.5q-12 -7.5 -27 -10.5q-15 -3 -30 -3q-35 0 -62 20q-27 20 -27 62q0 29 12.5 50.5q12.5 21.5 32 36q19.5 14.5 45 22q25.5 7.5 50.5 7.5l13 -48q-28 -1 -47 -12q-19 -11 -20 -26q38 5 63 -9.5t25 -39.5z" />
<glyph unicode="&#292;" horiz-adv-x="600" d="M413 293h-226v-293h-137v700h137v-285h226v285h137v-700h-137zM509 737h-136l-73 61l-68 -61h-141l155 133l102 0z" />
<glyph unicode="&#293;" horiz-adv-x="600" d="M51 700h202v-256h4q24 32 64 51q40 19 94 19q38 0 70 -10q32 -10 55 -33q23 -23 36 -62.5q13 -39.5 13 -97.5v-311h-130v284q0 61 -26 88q-26 27 -68 27q-37 0 -68 -22.5q-31 -22.5 -44 -57.5l0 -319h-130v590h-72zM417 737h-136l-73 61l-68 -61h-141l155 133l102 0z" />
<glyph unicode="&#294;" horiz-adv-x="600" d="M3 598h71v102h137v-102h180v102h137v-102h68v-82h-68v-516h-137v293h-180v-293h-137v516h-71zM391 415v101h-180l0 -101z" />
<glyph unicode="&#295;" horiz-adv-x="600" d="M415 0v284q0 61 -26 88q-26 27 -68 27q-37 0 -68 -22.5q-31 -22.5 -44 -57.5l0 -319h-130v561h-74v80h74v59h130v-59h161v-80h-161v-117h4q24 32 64 51q40 19 94 19q38 0 70 -10q32 -10 55 -33q23 -23 36 -62.5q13 -39.5 13 -97.5l0 -311z" />
<glyph unicode="&#298;" horiz-adv-x="600" d="M54 122h177v456h-177v122h492v-122h-178v-456h178v-122h-492zM132 856h343v-89l-343 0z" />
<glyph unicode="&#299;" horiz-adv-x="600" d="M59 110h176v280h-176v110h306v-390h185v-110h-491zM137 658h323v-92l-323 0z" />
<glyph unicode="&#302;" horiz-adv-x="600" d="M54 122h177v456h-177v122h492v-122h-178v-456h178v-122h-66q-23 -12 -36 -30q-13 -18 -12 -43q0 -18 11 -30.5q11 -12.5 31 -12.5q17 0 41 12l20 -62q-15 -12 -47.5 -24q-32.5 -12 -67.5 -12q-57 0 -86 25.5q-29 25.5 -29 66.5q0 38 23 65.5q23 27.5 64 44.5l-338 0z" />
<glyph unicode="&#303;" horiz-adv-x="600" d="M84 110h176v280h-176v110h306v-390h185v-110h-55q-48 -23 -48 -69q0 -18 11 -30.5q11 -12.5 31 -12.5q18 0 42 12l19 -62q-15 -12 -47.5 -23.5q-32.5 -11.5 -67.5 -11.5q-56 0 -85.5 25q-29.5 25 -29.5 66q0 41 27 70q20 21 51 36l-339 0zM235 636q0 31 23 53q23 22 64 22q42 0 67 -22q25 -22 25 -53q0 -32 -25 -52.5q-25 -20.5 -67 -20.5q-41 0 -64 20.5t-23 52.5z" />
<glyph unicode="&#304;" horiz-adv-x="600" d="M54 122h177v456h-177v122h492v-122h-178v-456h178v-122h-492zM207 809q0 27 23 46q23 19 70 19q46 0 71 -19q25 -19 25 -46q0 -29 -25 -48q-25 -19 -71 -19q-47 0 -70 19t-23 48z" />
<glyph unicode="&#305;" horiz-adv-x="600" d="M59 110h176v280h-176v110h306v-390h185v-110l-491 0z" />
<glyph unicode="&#308;" horiz-adv-x="600" d="M38 700h418v-446q0 -57 -14.5 -107q-14.5 -50 -52.5 -89q-24 -24 -51.5 -38q-27.5 -14 -53.5 -21q-26 -7 -49 -9q-23 -2 -38 -2q-48 0 -93 10.5q-45 10.5 -90 37.5l49 110q38 -22 65.5 -29q27.5 -7 63.5 -7q22 0 47.5 8.5q25.5 8.5 44.5 28.5q35 38 35 106v325h-281zM460 737h-136l-73 61l-68 -61h-141l155 133l102 0z" />
<glyph unicode="&#309;" horiz-adv-x="600" d="M94 500h368v-461q0 -115 -60 -181q-60 -66 -180 -66q-49 0 -93 15q-44 15 -76 44l58 96q11 -9 39.5 -22.5q28.5 -13.5 64.5 -13.5q24 0 45.5 7.5q21.5 7.5 37.5 25q16 17.5 25 45.5q9 28 9 70v331h-238zM242 732h86l111 -182h-103l-55 94l-63 -94l-99 0z" />
<glyph unicode="&#310;" horiz-adv-x="600" d="M256 292h-71v-292h-137v700h137v-286h71l160 286h156l-197 -338l222 -362h-169zM199 -95q0 18 8 30q8 12 20 19.5q12 7.5 27 10.5q15 3 30 3q35 0 62 -20q27 -20 27 -62q0 -29 -12.5 -50.5q-12.5 -21.5 -32 -36q-19.5 -14.5 -45 -22q-25.5 -7.5 -50.5 -7.5l-13 48q28 1 47 12q19 11 20 26q-38 -5 -63 9.5t-25 39.5z" />
<glyph unicode="&#311;" horiz-adv-x="600" d="M0 700h212v-399h30l164 199h153l-202 -228l131 -162h93v-110h-162l-172 207h-35v-207h-130v590h-82zM213 -95q0 18 8 30q8 12 20 19.5q12 7.5 27 10.5q15 3 30 3q35 0 62 -20q27 -20 27 -62q0 -29 -12.5 -50.5q-12.5 -21.5 -32 -36q-19.5 -14.5 -45 -22q-25.5 -7.5 -50.5 -7.5l-13 48q28 1 47 12q19 11 20 26q-38 -5 -63 9.5t-25 39.5z" />
<glyph unicode="&#313;" horiz-adv-x="600" d="M414 285h124v-285h-460v700h137v-578h199zM232 870h159v-30l-160 -88l-103 0z" />
<glyph unicode="&#314;" horiz-adv-x="600" d="M87 700h213v-462q0 -77 19 -107q19 -30 61 -30q31 0 51 6.5q20 6.5 40 18.5l49 -90q-17 -11 -34 -20.5q-17 -9.5 -36 -16q-19 -6.5 -41.5 -10q-22.5 -3.5 -50.5 -3.5q-94 0 -141 48q-47 48 -47 136v420h-83zM319 870h159v-30l-160 -88l-103 0z" />
<glyph unicode="&#315;" horiz-adv-x="600" d="M414 285h124v-285h-460v700h137v-578h199zM202 -95q0 18 8 30q8 12 20 19.5q12 7.5 27 10.5q15 3 30 3q35 0 62 -20q27 -20 27 -62q0 -29 -12.5 -50.5q-12.5 -21.5 -32 -36q-19.5 -14.5 -45 -22q-25.5 -7.5 -50.5 -7.5l-13 48q28 1 47 12q19 11 20 26q-38 -5 -63 9.5t-25 39.5z" />
<glyph unicode="&#316;" horiz-adv-x="600" d="M87 700h213v-462q0 -77 19 -107q19 -30 61 -30q31 0 51 6.5q20 6.5 40 18.5l49 -90q-17 -11 -34 -20.5q-17 -9.5 -36 -16q-19 -6.5 -41.5 -10q-22.5 -3.5 -50.5 -3.5q-94 0 -141 48q-47 48 -47 136v420h-83zM247 -95q0 18 8 30q8 12 20 19.5q12 7.5 27 10.5q15 3 30 3q35 0 62 -20q27 -20 27 -62q0 -29 -12.5 -50.5q-12.5 -21.5 -32 -36q-19.5 -14.5 -45 -22q-25.5 -7.5 -50.5 -7.5l-13 48q28 1 47 12q19 11 20 26q-38 -5 -63 9.5t-25 39.5z" />
<glyph unicode="&#317;" horiz-adv-x="600" d="M414 285h124v-285h-460v700h137v-578h199zM491 700q-2 -29 -12 -60.5q-10 -31.5 -23.5 -60q-13.5 -28.5 -28.5 -51q-15 -22.5 -27 -32.5l-58 31q17 36 26 81.5q9 45.5 9 91.5z" />
<glyph unicode="&#318;" horiz-adv-x="600" d="M87 700h213v-462q0 -77 19 -107q19 -30 61 -30q31 0 51 6.5q20 6.5 40 18.5l49 -90q-17 -11 -34 -20.5q-17 -9.5 -36 -16q-19 -6.5 -41.5 -10q-22.5 -3.5 -50.5 -3.5q-94 0 -141 48q-47 48 -47 136v420h-83zM505 700q-2 -29 -12 -60.5q-10 -31.5 -23.5 -60q-13.5 -28.5 -28.5 -51q-15 -22.5 -27 -32.5l-58 31q17 36 26 81.5q9 45.5 9 91.5z" />
<glyph unicode="&#321;" horiz-adv-x="600" d="M418 285h124v-285h-460v241l-68 -44v121l68 45v337h137v-245l100 67v-125l-100 -66v-209l199 0z" />
<glyph unicode="&#322;" horiz-adv-x="600" d="M95 307l75 50v233h-83v110h213v-256l100 67v-125l-100 -66v-82q0 -77 19 -107q19 -30 61 -30q31 0 50 9.5q19 9.5 39 21.5l51 -96q-17 -11 -34 -20.5q-17 -9.5 -36 -16q-19 -6.5 -41.5 -10q-22.5 -3.5 -50.5 -3.5q-94 0 -141 48q-47 48 -47 136v65l-75 -49z" />
<glyph unicode="&#323;" horiz-adv-x="600" d="M185 414h-5l6 -83v-331h-130v700h120l242 -428h5l-9 84v344h130v-700h-120zM337 870h159v-30l-160 -88l-103 0z" />
<glyph unicode="&#324;" horiz-adv-x="600" d="M12 500h175l15 -66h4q23 32 66 56q43 24 103 24q37 0 69.5 -10q32.5 -10 55.5 -33q23 -23 36.5 -62.5q13.5 -39.5 13.5 -97.5v-311h-130v284q0 61 -27.5 88q-27.5 27 -69.5 27q-37 0 -67.5 -21.5q-30.5 -21.5 -41.5 -53.5l0 -324h-130v390h-72zM308 720h158l-137 -154l-80 0z" />
<glyph unicode="&#325;" horiz-adv-x="600" d="M185 414h-5l6 -83v-331h-130v700h120l242 -428h5l-9 84v344h130v-700h-120zM208 -95q0 18 8 30q8 12 20 19.5q12 7.5 27 10.5q15 3 30 3q35 0 62 -20q27 -20 27 -62q0 -29 -12.5 -50.5q-12.5 -21.5 -32 -36q-19.5 -14.5 -45 -22q-25.5 -7.5 -50.5 -7.5l-13 48q28 1 47 12q19 11 20 26q-38 -5 -63 9.5t-25 39.5z" />
<glyph unicode="&#326;" horiz-adv-x="600" d="M12 500h175l15 -66h4q23 32 66 56q43 24 103 24q37 0 69.5 -10q32.5 -10 55.5 -33q23 -23 36.5 -62.5q13.5 -39.5 13.5 -97.5v-311h-130v284q0 61 -27.5 88q-27.5 27 -69.5 27q-37 0 -67.5 -21.5q-30.5 -21.5 -41.5 -53.5l0 -324h-130v390h-72zM227 -95q0 18 8 30q8 12 20 19.5q12 7.5 27 10.5q15 3 30 3q35 0 62 -20q27 -20 27 -62q0 -29 -12.5 -50.5q-12.5 -21.5 -32 -36q-19.5 -14.5 -45 -22q-25.5 -7.5 -50.5 -7.5l-13 48q28 1 47 12q19 11 20 26q-38 -5 -63 9.5t-25 39.5z" />
<glyph unicode="&#327;" horiz-adv-x="600" d="M185 414h-5l6 -83v-331h-130v700h120l242 -428h5l-9 84v344h130v-700h-120zM348 737h-102l-155 133h141l68 -61l73 61l136 0z" />
<glyph unicode="&#328;" horiz-adv-x="600" d="M12 500h175l15 -66h4q23 32 66 56q43 24 103 24q37 0 69.5 -10q32.5 -10 55.5 -33q23 -23 36.5 -62.5q13.5 -39.5 13.5 -97.5v-311h-130v284q0 61 -27.5 88q-27.5 27 -69.5 27q-37 0 -67.5 -21.5q-30.5 -21.5 -41.5 -53.5l0 -324h-130v390h-72zM367 550h-91l-115 182h110l56 -94l62 94l101 0z" />
<glyph unicode="&#332;" horiz-adv-x="600" d="M36 350q0 85 16 153q16 68 49 114.5q33 46.5 82.5 71.5q49.5 25 116.5 25q72 0 122 -27q50 -27 81.5 -75q31.5 -48 46 -115q14.5 -67 14.5 -147q0 -171 -65.5 -267.5q-65.5 -96.5 -198.5 -96.5q-72 0 -122.5 27q-50.5 27 -82 75q-31.5 48 -45.5 115q-14 67 -14 147zt0 0zM180 350q0 -51 4.5 -95q4.5 -44 17 -76.5q12.5 -32.5 36 -51.5q23.5 -19 62.5 -19q35 0 58 14.5q23 14.5 37 44.5q14 30 19.5 75.5q5.5 45.5 5.5 107.5q0 49 -3.5 93q-3.5 44 -16 77q-12.5 33 -36.5 52.5q-24 19.5 -64 19.5q-70 0 -95 -61q-25 -61 -25 -181zt0 0zM129 856h343v-89l-343 0z" />
<glyph unicode="&#333;" horiz-adv-x="600" d="M35 250q0 63 19 112q19 49 54 83q35 34 83.5 51.5q48.5 17.5 108.5 17.5q63 0 112.5 -19q49.5 -19 83.5 -53.5q34 -34.5 51.5 -83.5q17.5 -49 17.5 -108q0 -63 -19 -112q-19 -49 -54 -83q-35 -34 -83.5 -51.5q-48.5 -17.5 -108.5 -17.5q-63 0 -112.5 19q-49.5 19 -83.5 53.5q-34 34.5 -51.5 83.5q-17.5 49 -17.5 108zt0 0zM169 250q0 -33 9 -61q9 -28 26 -49q17 -21 41 -32.5q24 -11.5 55 -11.5q58 0 94.5 37q36.5 37 36.5 117q0 69 -34 111.5q-34 42.5 -97 42.5q-28 0 -52 -8.5q-24 -8.5 -41.5 -27.5q-17.5 -19 -27.5 -48q-10 -29 -10 -70zt0 0zM139 658h323v-92l-323 0z" />
<glyph unicode="&#336;" horiz-adv-x="600" d="M36 350q0 85 16 153q16 68 49 114.5q33 46.5 82.5 71.5q49.5 25 116.5 25q72 0 122 -27q50 -27 81.5 -75q31.5 -48 46 -115q14.5 -67 14.5 -147q0 -171 -65.5 -267.5q-65.5 -96.5 -198.5 -96.5q-72 0 -122.5 27q-50.5 27 -82 75q-31.5 48 -45.5 115q-14 67 -14 147zt0 0zM180 350q0 -51 4.5 -95q4.5 -44 17 -76.5q12.5 -32.5 36 -51.5q23.5 -19 62.5 -19q35 0 58 14.5q23 14.5 37 44.5q14 30 19.5 75.5q5.5 45.5 5.5 107.5q0 49 -3.5 93q-3.5 44 -16 77q-12.5 33 -36.5 52.5q-24 19.5 -64 19.5q-70 0 -95 -61q-25 -61 -25 -181zt0 0zM215 850h134v-16l-100 -93h-93zM413 850h140v-16l-143 -93l-94 0z" />
<glyph unicode="&#337;" horiz-adv-x="600" d="M35 250q0 63 19 112q19 49 54 83q35 34 83.5 51.5q48.5 17.5 108.5 17.5q63 0 112.5 -19q49.5 -19 83.5 -53.5q34 -34.5 51.5 -83.5q17.5 -49 17.5 -108q0 -63 -19 -112q-19 -49 -54 -83q-35 -34 -83.5 -51.5q-48.5 -17.5 -108.5 -17.5q-63 0 -112.5 19q-49.5 19 -83.5 53.5q-34 34.5 -51.5 83.5q-17.5 49 -17.5 108zt0 0zM169 250q0 -33 9 -61q9 -28 26 -49q17 -21 41 -32.5q24 -11.5 55 -11.5q58 0 94.5 37q36.5 37 36.5 117q0 69 -34 111.5q-34 42.5 -97 42.5q-28 0 -52 -8.5q-24 -8.5 -41.5 -27.5q-17.5 -19 -27.5 -48q-10 -29 -10 -70zt0 0zM215 700h129l-86 -129h-78zM393 700h142l-134 -129l-81 0z" />
<glyph unicode="&#338;" horiz-adv-x="600" d="M291 578q-8 8 -19 14q-11 6 -31 6q-27 0 -45.5 -18.5q-18.5 -18.5 -31.5 -53.5q-12 -32 -18 -77.5q-6 -45.5 -6 -96.5q0 -48 4 -93.5q4 -45.5 17 -80.5q27 -76 84 -76q20 0 29 4q9 4 17 10zM291 0q-13 -6 -36 -10q-23 -4 -43 -4q-66 0 -109 37q-43 37 -66 105q-15 45 -21.5 100.5q-6.5 55.5 -6.5 121.5q0 78 12 141q12 63 36 108q29 55 69 85q40 30 93 30q24 0 41 -4q17 -4 31 -10l300 0v-122h-176v-163h159v-122h-159v-171h179l0 -122z" />
</font>
</defs>
</svg>
