<?xml version="1.0" encoding="UTF-8" standalone="no"?>
<!DOCTYPE svg PUBLIC "-//W3C//DTD SVG 1.1//EN" "http://www.w3.org/Graphics/SVG/1.1/DTD/svg11.dtd">
<svg width="100%" height="100%" viewBox="0 0 1024 250" version="1.1" xmlns="http://www.w3.org/2000/svg" xmlns:xlink="http://www.w3.org/1999/xlink" xml:space="preserve" xmlns:serif="http://www.serif.com/" style="fill-rule:evenodd;clip-rule:evenodd;">
    <g transform="matrix(1.39872,0,0,1.39872,-433.548,-258.273)">
        <text x="573px" y="304px" style="font-family:'SquadaOne-Regular', 'Squada One';font-size:96px;fill:url(#_Linear1);">DATATRACKER</text>
    </g>
    <g transform="matrix(1,0,0,1,0,-90)">
        <g transform="matrix(0.0384615,0,0,1,323.077,0)">
            <rect x="336" y="90" width="26" height="247" style="fill:url(#_Linear2);"/>
        </g>
        <g transform="matrix(0.0384615,0,0,1,324.077,0)">
            <rect x="336" y="90" width="26" height="247" style="fill:url(#_Linear3);"/>
        </g>
    </g>
    <g transform="matrix(0.60874,0,0,0.60874,-179.578,38.2694)">
        <g id="squares" transform="matrix(1,0,0,1,295,5)">
            <g transform="matrix(0.707107,-0.707107,0.707107,0.707107,-270.59,-94.37)">
                <rect x="77.53" y="317.2" width="48.94" height="48.94" style="fill:rgb(188,190,192);"/>
            </g>
            <g transform="matrix(0.707107,-0.707107,0.707107,0.707107,-151.08,194.17)">
                <rect x="485.59" y="317.2" width="48.94" height="48.94" style="fill:rgb(188,190,192);"/>
            </g>
            <g transform="matrix(0.707107,-0.707107,0.707107,0.707107,-246.72,-36.73)">
                <rect x="159.04" y="317.2" width="48.94" height="48.94" style="fill:rgb(188,190,192);"/>
            </g>
            <g transform="matrix(0.707107,-0.707107,0.707107,0.707107,-222.85,20.9)">
                <rect x="240.54" y="317.2" width="48.94" height="48.94" style="fill:rgb(188,190,192);"/>
            </g>
            <g transform="matrix(0.707107,-0.707107,0.707107,0.707107,-198.98,78.53)">
                <rect x="322.05" y="317.2" width="48.94" height="48.94" style="fill:rgb(188,190,192);"/>
            </g>
            <g transform="matrix(0.707107,-0.707107,0.707107,0.707107,-175.11,136.16)">
                <rect x="403.55" y="317.2" width="48.94" height="48.94" style="fill:rgb(188,190,192);"/>
            </g>
            <g transform="matrix(0.707107,-0.707107,0.707107,0.707107,-263.62,4.28)">
                <rect x="200.09" y="358.11" width="48.94" height="48.94" style="fill:rgb(188,190,192);"/>
            </g>
            <g transform="matrix(0.707107,-0.707107,0.707107,0.707107,-239.75,61.9)">
                <rect x="281.59" y="358.11" width="48.94" height="48.94" style="fill:rgb(188,190,192);"/>
            </g>
            <g transform="matrix(0.707107,-0.707107,0.707107,0.707107,-215.88,119.53)">
                <rect x="363.09" y="358.11" width="48.94" height="48.94" style="fill:rgb(188,190,192);"/>
            </g>
            <g transform="matrix(0.707107,-0.707107,0.707107,0.707107,-206.06,-19.57)">
                <rect x="200.09" y="276.7" width="48.94" height="48.94" style="fill:rgb(188,190,192);"/>
            </g>
            <g transform="matrix(0.707107,-0.707107,0.707107,0.707107,-182.19,38.06)">
                <rect x="281.59" y="276.7" width="48.94" height="48.94" style="fill:rgb(188,190,192);"/>
            </g>
            <g transform="matrix(0.707107,-0.707107,0.707107,0.707107,-158.32,95.69)">
                <rect x="363.09" y="276.7" width="48.94" height="48.94" style="fill:rgb(188,190,192);"/>
            </g>
        </g>
        <g id="line" transform="matrix(1,0,0,1,295,5)">
            <path d="M14.49,71.07L85.72,71.07L124.93,110.28L165.43,69.79L206.14,110.51L287.98,28.67L328.9,69.59L369.39,29.1L411.79,71.5L481.33,71.5L481.33,79.55L408.4,79.55L369.18,40.33L328.47,81.04L287.77,40.33L206.36,121.74L165.65,81.04L125.16,121.53L82.54,78.92L14.06,78.92L14.49,71.07Z" style="fill:rgb(255,210,79);fill-rule:nonzero;stroke:black;stroke-width:1.5px;"/>
            <rect x="0" y="67.79" width="16.54" height="15.26" style="fill:rgb(35,31,32);"/>
            <rect x="476.49" y="67.79" width="16.54" height="15.26" style="fill:rgb(35,31,32);"/>
        </g>
        <g id="text" transform="matrix(1,0,0,1,295,5)">
            <g transform="matrix(1,0,0,1,-58.87,-266.56)">
                <rect x="73.39" y="479" width="20.21" height="57.67" style="fill:rgb(35,31,32);fill-rule:nonzero;"/>
            </g>
            <g transform="matrix(1,0,0,1,-58.87,-266.56)">
                <path d="M198.8,479L242,479L242,491.18L219,491.18L219,501.33L240.05,501.33L240.05,513.5L219,513.5L219,524.5L242.34,524.5L242.34,536.67L198.8,536.67L198.8,479Z" style="fill:rgb(35,31,32);fill-rule:nonzero;"/>
            </g>
            <g transform="matrix(1,0,0,1,-58.87,-266.56)">
                <path d="M341.62,493.44L341.62,479L397.86,479L397.86,493.46L379.86,493.46L379.86,536.67L359.64,536.67L359.64,493.44L341.62,493.44Z" style="fill:rgb(35,31,32);fill-rule:nonzero;"/>
            </g>
            <g transform="matrix(1,0,0,1,-58.87,-266.56)">
                <path d="M499.08,479L541.19,479L541.19,491.18L519.29,491.18L519.29,501.66L539.84,501.66L539.84,513.84L519.29,513.84L519.29,536.67L499.08,536.67L499.08,479Z" style="fill:rgb(35,31,32);fill-rule:nonzero;"/>
            </g>
            <g transform="matrix(1,0,0,1,-58.87,-266.56)">
                <path d="M558.87,478.4C563.995,478.405 568.21,482.625 568.21,487.75C568.21,492.879 563.989,497.1 558.86,497.1C553.735,497.1 549.515,492.885 549.51,487.76C549.51,482.625 553.735,478.4 558.87,478.4ZM558.87,495.29C562.999,495.279 566.39,491.879 566.39,487.75C566.39,483.614 562.986,480.21 558.85,480.21C554.714,480.21 551.31,483.614 551.31,487.75C551.31,487.753 551.31,487.757 551.31,487.76C551.321,491.898 554.732,495.295 558.87,495.29ZM560.8,492.73L559.97,491.12C559.07,489.37 558.36,488.64 557.34,488.64L556.66,488.64L556.66,492.73L554.66,492.73L554.66,482.73L559.66,482.73C559.723,482.726 559.787,482.724 559.85,482.724C561.381,482.724 562.641,483.984 562.641,485.515C562.641,486.975 561.496,488.201 560.04,488.3L560.04,488.35C560.89,488.65 561.09,488.9 562.15,490.68L563.32,492.68L560.8,492.73ZM558.62,487.06C559.92,487.06 560.62,486.53 560.62,485.68C560.62,484.83 559.94,484.32 558.54,484.32L556.71,484.32L556.71,487.06L558.62,487.06Z" style="fill:rgb(35,31,32);fill-rule:nonzero;"/>
            </g>
        </g>
    </g>
    <defs>
        <linearGradient id="_Linear1" x1="0" y1="0" x2="1" y2="0" gradientUnits="userSpaceOnUse" gradientTransform="matrix(4.92112e-15,80.368,-7.5457,4.62041e-16,939.048,235.264)"><stop offset="0" style="stop-color:rgb(61,0,121);stop-opacity:1"/><stop offset="1" style="stop-color:black;stop-opacity:1"/></linearGradient>
        <linearGradient id="_Linear2" x1="0" y1="0" x2="1" y2="0" gradientUnits="userSpaceOnUse" gradientTransform="matrix(1.51244e-14,247,-247,1.51244e-14,349,90)"><stop offset="0" style="stop-color:white;stop-opacity:1"/><stop offset="0.5" style="stop-color:rgb(199,199,199);stop-opacity:1"/><stop offset="1" style="stop-color:white;stop-opacity:1"/></linearGradient>
        <linearGradient id="_Linear3" x1="0" y1="0" x2="1" y2="0" gradientUnits="userSpaceOnUse" gradientTransform="matrix(1.51244e-14,247,-247,1.51244e-14,349,90)"><stop offset="0" style="stop-color:white;stop-opacity:1"/><stop offset="0.5" style="stop-color:rgb(146,146,146);stop-opacity:1"/><stop offset="1" style="stop-color:white;stop-opacity:1"/></linearGradient>
    </defs>
</svg>
