<?xml version="1.0" standalone="no"?>
<!DOCTYPE svg PUBLIC "-//W3C//DTD SVG 1.1//EN" "http://www.w3.org/Graphics/SVG/1.1/DTD/svg11.dtd" >
<svg xmlns="http://www.w3.org/2000/svg">
<metadata>
Generated by SVGconv.
Copyright   : Copyright  2010 ParaType Ltd. All rights reserved.
Designer    : A.Korolkova, O.Umpeleva, V.Yefimov
Foundry     : ParaType Ltd
Foundry URL : http://www.paratype.com
</metadata>
<defs>
<font id="PTSerif-BoldItalic" horiz-adv-x="590" >
<font-face units-per-em="1000" ascent="1018" descent="276" />
<missing-glyph horiz-adv-x="709" />
<glyph unicode="&#13;" horiz-adv-x="270" />
<glyph unicode="&#32;" horiz-adv-x="270" />
<glyph unicode="&#33;" horiz-adv-x="347" d="M158 218l-12 194l54 278q11 5 32.5 8q21.5 3 44.5 3q23 0 43 -3q20 -3 30 -8l-60 -278l-88 -194zM72 71q0 36 23 58q23 22 61 22q38 0 62 -22q24 -22 24 -58q0 -36 -24 -57.5q-24 -21.5 -62 -21.5q-38 0 -61 21.5t-23 57.5z" />
<glyph unicode="&#34;" horiz-adv-x="533" d="M315 713q11 17 37 28q26 11 56 11q28 0 51.5 -10q23.5 -10 26.5 -29l-103 -241h-49zM94 713q11 17 37 28q26 11 56 11q28 0 51.5 -10q23.5 -10 26.5 -29l-103 -241l-49 0z" />
<glyph unicode="&#35;" horiz-adv-x="560" d="M300 220h-124l-72 -162h-71l72 162h-81l33 64h77l59 132h-77l32 64h74l74 162h70l-73 -162h124l74 162h70l-74 -162h79l-35 -64h-73l-59 -132h76l-36 -64h-69l-72 -162h-70zM205 284h124l59 132l-124 0z" />
<glyph unicode="&#36;" horiz-adv-x="560" d="M198 -12q-27 1 -56 6.5q-29 5.5 -54.5 12.5q-25.5 7 -45.5 15.5q-20 8.5 -29 16.5q12 46 27.5 79.5q15.5 33.5 31.5 56.5l41 0l30 -97q8 -8 25.5 -15.5q17.5 -7.5 43.5 -9.5l52 244q-27 18 -54 36.5q-27 18.5 -49.5 42q-22.5 23.5 -36.5 54q-14 30.5 -14 72.5q0 44 17 80.5q17 36.5 48.5 64q31.5 27.5 76 44q44.5 16.5 99.5 19.5l11 50h70l-11 -49q48 -2 86.5 -10.5q38.5 -8.5 70.5 -23.5q-9 -41 -23.5 -67q-14.5 -26 -28.5 -46l-42 0l-40 72q-17 5 -36 8l-48 -225q27 -17 54 -35.5q27 -18.5 49.5 -43q22.5 -24.5 36.5 -56.5q14 -32 14 -77q0 -43 -16.5 -80q-16.5 -37 -47.5 -65.5q-31 -28.5 -77 -47q-46 -18.5 -104 -24.5l-13 -60h-70zM255 548q0 -32 14.5 -53.5q14.5 -21.5 37.5 -39.5l41 189q-42 -6 -67.5 -30.5q-25.5 -24.5 -25.5 -65.5zt0 0zM364 155q0 33 -13.5 57q-13.5 24 -35.5 44l-42 -199q37 8 64 32t27 66z" />
<glyph unicode="&#37;" horiz-adv-x="827" d="M722 715l48 -42l-665 -686l-47 43zM55 504q0 43 18 81q18 38 49.5 66.5q31.5 28.5 74 44.5q42.5 16 91.5 16q76 0 118.5 -35.5q42.5 -35.5 42.5 -95.5q0 -50 -20 -88.5q-20 -38.5 -53 -65.5q-33 -27 -75 -41q-42 -14 -85 -14q-33 0 -62.5 9q-29.5 9 -51.5 26.5q-22 17.5 -34.5 42q-12.5 24.5 -12.5 54.5zt0 0zM174 492q0 -27 12.5 -48q12.5 -21 42.5 -21q18 0 36 11q18 11 33 32.5q15 21.5 24 54.5q9 33 9 78q0 23 -11.5 42.5q-11.5 19.5 -42.5 19.5q-18 0 -36.5 -12q-18.5 -12 -33 -34.5q-14.5 -22.5 -24 -53.5q-9.5 -31 -9.5 -69zt0 0zM373 120q0 43 18 81q18 38 49.5 66.5q31.5 28.5 74 44.5q42.5 16 91.5 16q76 0 118.5 -35.5q42.5 -35.5 42.5 -95.5q0 -50 -20 -88.5q-20 -38.5 -53 -65.5q-33 -27 -75 -41q-42 -14 -85 -14q-33 0 -62.5 9q-29.5 9 -51.5 26.5q-22 17.5 -34.5 42q-12.5 24.5 -12.5 54.5zt0 0zM492 108q0 -27 12.5 -48q12.5 -21 42.5 -21q18 0 36 11q18 11 33 32.5q15 21.5 24 54.5q9 33 9 78q0 23 -11.5 42.5q-11.5 19.5 -42.5 19.5q-18 0 -36.5 -12q-18.5 -12 -33 -34.5q-14.5 -22.5 -24 -53.5t-9.5 -69z" />
<glyph unicode="&#38;" horiz-adv-x="898" d="M477 116q-26 27 -51.5 62q-25.5 35 -47 71q-21.5 36 -38.5 70q-17 34 -26 58q-42 -37 -66 -83q-24 -46 -25 -99q0 -27 8.5 -51q8.5 -24 24.5 -42q16 -18 40 -28.5q24 -10.5 55 -10.5q30 0 64 12.5q34 12.5 62 40.5zt0 0zM369 563q0 -31 11 -59.5q11 -28.5 28 -55.5q39 26 66.5 63.5q27.5 37.5 27.5 80.5q0 26 -11 45.5q-11 19.5 -40 19.5q-35 0 -58.5 -27q-23.5 -27 -23.5 -67zt0 0zM600 0q-18 12 -41.5 28.5q-23.5 16.5 -43.5 42.5q-19 -16 -44 -31q-25 -15 -54 -26.5q-29 -11.5 -60.5 -18.5q-31.5 -7 -63.5 -7q-64 0 -107.5 15.5q-43.5 15.5 -70.5 40.5q-27 25 -38.5 56.5q-11.5 31.5 -11.5 63.5q0 48 22.5 90q22.5 42 55.5 76.5q33 34.5 71 61q38 26.5 70 42.5q-18 27 -27 57.5q-9 30.5 -9 59.5q0 36 15.5 65.5q15.5 29.5 42 51q26.5 21.5 62.5 33q36 11.5 77 11.5q75 0 109 -31q34 -31 34 -83q0 -30 -14.5 -58.5q-14.5 -28.5 -38 -53.5q-23.5 -25 -52 -46.5q-28.5 -21.5 -55.5 -36.5q50 -96 145 -202q10 11 25.5 37q15.5 26 30 59q14.5 33 24 70q9.5 37 8.5 70q-15 3 -25.5 9q-10.5 6 -21.5 15l8 39h228l-9 -39q-30 -16 -71 -24q-14 -43 -33 -85q-19 -42 -40 -79q-21 -37 -42.5 -66q-21.5 -29 -39.5 -45q29 -31 59.5 -55q30.5 -24 61.5 -44l46 -24l-8 -39z" />
<glyph unicode="&#39;" horiz-adv-x="312" d="M94 713q11 17 37 28q26 11 56 11q28 0 51.5 -10q23.5 -10 26.5 -29l-103 -241l-49 0z" />
<glyph unicode="&#40;" horiz-adv-x="374" d="M249 -210q-42 29 -77.5 63q-35.5 34 -61.5 75q-26 41 -40.5 90.5q-14.5 49.5 -14.5 109.5q0 113 36.5 204.5q36.5 91.5 93.5 163q57 71.5 126.5 123q69.5 51.5 134.5 83.5l23 -31q-50 -42 -99.5 -97q-49.5 -55 -90 -122.5q-40.5 -67.5 -65.5 -148q-25 -80.5 -25 -172.5q0 -45 5 -85.5q5 -40.5 17 -78q12 -37.5 31 -73q19 -35.5 47 -71.5z" />
<glyph unicode="&#41;" horiz-adv-x="374" d="M-80 -177q45 36 94.5 90q49.5 54 90 124.5q40.5 70.5 67 155q26.5 84.5 26.5 182.5q0 42 -4 79q-4 37 -15.5 72q-11.5 35 -30.5 70q-19 35 -49 75l37 31q100 -66 148 -151q48 -85 48 -196q0 -105 -34.5 -194.5q-34.5 -89.5 -89.5 -161.5q-55 -72 -124 -124.5q-69 -52.5 -139 -84.5z" />
<glyph unicode="&#42;" horiz-adv-x="463" d="M122 597q-6 8 -2 24.5q4 16.5 13 33q9 16.5 22 29q13 12.5 25 13.5l90 -106q0 -15 -12 -22zM182 429q-11 0 -23.5 12.5q-12.5 12.5 -22.5 29q-10 16.5 -14.5 33.5q-4.5 17 0.5 26l135 26q13 -7 13 -21zM356 395q-5 -8 -21 -12.5q-16 -4.5 -35 -4.5q-20 -1 -36.5 3q-16.5 4 -21.5 12l43 131q13 8 27 0zM469 530q6 -11 3 -28q-3 -17 -12 -33q-9 -16 -21.5 -27.5q-12.5 -11.5 -24.5 -11.5l-87 103q0 13 12 21zM417 696q12 1 23 -9.5q11 -10.5 19.5 -26q8.5 -15.5 12 -33q3.5 -17.5 -0.5 -29.5l-134 -30q-12 9 -12 22zM241 731q5 10 21 14.5q16 4.5 35 4.5q19 0 35 -4.5q16 -4.5 21 -14.5l-42 -131q-13 -8 -27 0z" />
<glyph unicode="&#43;" horiz-adv-x="560" d="M65 384h185v196h80v-196h185v-80h-185v-202h-80v202l-185 0z" />
<glyph unicode="&#44;" horiz-adv-x="306" d="M-22 -131q21 6 39.5 18q18.5 12 33 27q14.5 15 24 32q9.5 17 12.5 33q-9 18 -27 29q-18 11 -38 18q-1 21 7 42q8 21 21.5 39q13.5 18 30.5 30.5q17 12.5 32 15.5q42 -2 65.5 -25q23.5 -23 23.5 -72q0 -41 -19.5 -79.5q-19.5 -38.5 -49.5 -69.5q-30 -31 -67.5 -52.5q-37.5 -21.5 -74.5 -29.5z" />
<glyph unicode="&#45;" horiz-adv-x="414" d="M83 327h287l-20 -90l-287 0z" />
<glyph unicode="&#46;" horiz-adv-x="289" d="M24 71q0 36 23 58q23 22 61 22q38 0 62 -22q24 -22 24 -58q0 -36 -24 -57.5q-24 -21.5 -62 -21.5q-38 0 -61 21.5t-23 57.5z" />
<glyph unicode="&#47;" horiz-adv-x="344" d="M321 716l60 -25l-365 -824l-59 26z" />
<glyph unicode="&#48;" horiz-adv-x="560" d="M11 220q0 92 22 180.5q22 88.5 65 157.5q43 69 107 111.5q64 42.5 149 42.5q61 0 102 -20q41 -20 65.5 -53q24.5 -33 34.5 -75q10 -42 10 -86q0 -95 -23 -183.5q-23 -88.5 -66.5 -156.5q-43.5 -68 -107.5 -109q-64 -41 -146 -41q-62 0 -103 20q-41 20 -65 52.5q-24 32.5 -34 74q-10 41.5 -10 85.5zt0 0zM161 194q0 -30 3.5 -57q3.5 -27 12 -48q8.5 -21 23 -33.5q14.5 -12.5 36.5 -12.5q27 0 51 19q24 19 44 52q20 33 36 77.5q16 44.5 26.5 96q10.5 51.5 16.5 107q6 55.5 6 110.5q0 32 -3.5 59.5q-3.5 27.5 -12.5 48q-9 20.5 -23.5 32.5q-14.5 12 -35.5 12q-28 0 -52.5 -20q-24.5 -20 -44.5 -54.5q-20 -34.5 -35.5 -80.5q-15.5 -46 -26 -97.5q-10.5 -51.5 -16 -105.5t-5.5 -105z" />
<glyph unicode="&#49;" horiz-adv-x="560" d="M426 0h-346l9 43q52 22 109 34l98 459l19 59q-29 -8 -61.5 -11.5q-32.5 -3.5 -64.5 -2.5l3 37q57 14 124 38q67 24 127 56l34 0l-135 -635q23 -5 46.5 -13.5q23.5 -8.5 46.5 -20.5z" />
<glyph unicode="&#50;" horiz-adv-x="560" d="M195 478h-34q-3 15 -7 35q-4 20 -7 42q-3 22 -5 43.5q-2 21.5 -2 39.5q19 13 42 26.5q23 13.5 50.5 24q27.5 10.5 61 17q33.5 6.5 72.5 6.5q55 0 92 -13q37 -13 59.5 -34q22.5 -21 32 -48.5q9.5 -27.5 9.5 -57.5q0 -63 -35.5 -121.5q-35.5 -58.5 -89 -110.5q-53.5 -52 -116 -96.5q-62.5 -44.5 -115.5 -79.5l-59 -35v-4l61 6h172l73 112h34q-1 -24 -4 -56.5q-3 -32.5 -7 -65q-4 -32.5 -9 -61.5q-5 -29 -9 -47l-458 0l14 64q35 26 79 60q44 34 90 73.5q46 39.5 90 83.5q44 44 78 90q34 46 55 93q21 47 21 92q0 37 -22.5 61.5q-22.5 24.5 -70.5 24.5q-33 0 -66 -9z" />
<glyph unicode="&#51;" horiz-adv-x="560" d="M222 53q36 0 64.5 14.5q28.5 14.5 48 38.5q19.5 24 30 55.5q10.5 31.5 10.5 64.5q0 30 -8.5 49q-8.5 19 -24 30q-15.5 11 -36.5 15q-21 4 -45 4h-55l5 39l188 197l46 35v4l-55 -6h-147l-61 -102h-34q0 21 0.5 50q0.5 29 2.5 58q2 29 4.5 56q2.5 27 6.5 45l433 0l-7 -49l-211 -211l-58 -44v-2l35 7q83 -5 122 -48.5q39 -43.5 39 -112.5q0 -51 -17.5 -97q-17.5 -46 -55 -80.5q-37.5 -34.5 -96.5 -54.5q-59 -20 -142 -20q-30 0 -59.5 4.5q-29.5 4.5 -55 12.5q-25.5 8 -45.5 19q-20 11 -32 24l59 104h29q5 -7 13 -18.5q8 -11.5 16.5 -24.5q8.5 -13 17 -26q8.5 -13 14.5 -22q22 -8 61 -8z" />
<glyph unicode="&#52;" horiz-adv-x="560" d="M461 0h-309l9 43q51 17 97 24l24 113h-296l9 45l487 487h54l-99 -467h123l-14 -65h-123l-24 -113q37 -8 71 -24zM341 458l28 70h-3l-54 -70l-183 -187l-47 -33l73 7l141 0z" />
<glyph unicode="&#53;" horiz-adv-x="560" d="M572 755h34q-3 -15 -9 -39q-6 -24 -14.5 -49q-8.5 -25 -17.5 -47.5q-9 -22.5 -16 -34.5l-273 0l-49 -143h66q53 0 93 -13q40 -13 66.5 -36.5q26.5 -23.5 40 -55.5q13.5 -32 13.5 -70q0 -59 -19.5 -109.5q-19.5 -50.5 -59 -88.5q-39.5 -38 -100 -59.5q-60.5 -21.5 -142.5 -21.5q-62 0 -108.5 18.5q-46.5 18.5 -69.5 41.5l62 99h29q6 -7 13 -18q7 -11 14 -23q7 -12 13.5 -24q6.5 -12 11.5 -21q9 -4 22 -6q13 -2 27 -2q45 0 77.5 14.5q32.5 14.5 53.5 39q21 24.5 31 56q10 31.5 10 65.5q0 59 -40 84q-40 25 -109 24l-88 -1l118 365l261 0z" />
<glyph unicode="&#54;" horiz-adv-x="560" d="M542 267q0 -53 -18.5 -103.5q-18.5 -50.5 -55 -89.5q-36.5 -39 -92.5 -62.5q-56 -23.5 -131 -23.5q-47 0 -86 12.5q-39 12.5 -66.5 38q-27.5 25.5 -43 64.5q-15.5 39 -15.5 91q0 86 35.5 169.5q35.5 83.5 103 154q67.5 70.5 164 123q96.5 52.5 218.5 77.5l6 -43q-125 -38 -211 -118.5q-86 -80.5 -128 -207.5q23 31 65.5 51.5q42.5 20.5 95.5 20.5q83 0 121 -42.5q38 -42.5 38 -111.5zt0 0zM392 259q0 48 -17.5 70q-17.5 22 -61.5 22q-31 0 -60 -17.5q-29 -17.5 -46 -40.5q-3 -7 -7 -21q-4 -14 -7.5 -31.5q-3.5 -17.5 -6 -35q-2.5 -17.5 -2.5 -32.5q0 -26 3.5 -48.5q3.5 -22.5 12 -39.5q8.5 -17 23.5 -27q15 -10 38 -10q33 0 58 21q25 21 41 52.5q16 31.5 24 68.5t8 69z" />
<glyph unicode="&#55;" horiz-adv-x="560" d="M128 481h-34q0 21 1 51.5q1 30.5 3 61.5q2 31 5.5 59.5q3.5 28.5 6.5 46.5l468 0v-44q-74 -82 -130 -159.5q-56 -77.5 -99.5 -156q-43.5 -78.5 -77.5 -162q-34 -83.5 -64 -178.5l-142 0q64 143 144.5 275q80.5 132 190.5 265l51 48l-50 -5l-212 0z" />
<glyph unicode="&#56;" horiz-adv-x="560" d="M8 137q0 36 14.5 68.5q14.5 32.5 41 59q26.5 26.5 64 47q37.5 20.5 84.5 33.5q-47 35 -71 71.5q-24 36.5 -24 89.5q0 42 16.5 79.5q16.5 37.5 48.5 65.5q32 28 79 44.5q47 16.5 108 16.5q96 0 144.5 -37.5q48.5 -37.5 48.5 -103.5q0 -31 -13 -59.5q-13 -28.5 -36 -53.5q-23 -25 -56.5 -44q-33.5 -19 -73.5 -31q36 -23 59.5 -44.5q23.5 -21.5 38 -43.5q14.5 -22 20 -46.5q5.5 -24.5 5.5 -52.5q0 -42 -19 -79.5q-19 -37.5 -55 -66q-36 -28.5 -88.5 -45.5q-52.5 -17 -118.5 -17q-102 0 -159.5 37.5q-57.5 37.5 -57.5 111.5zt0 0zM365 170q0 22 -9 41q-9 19 -25 36.5q-16 17.5 -38 34.5q-22 17 -48 36q-27 -17 -45.5 -39q-18.5 -22 -30 -45.5q-11.5 -23.5 -16.5 -46.5q-5 -23 -5 -42q0 -48 28 -72.5q28 -24.5 66 -24.5q34 0 57.5 11.5q23.5 11.5 38 29q14.5 17.5 21 39q6.5 21.5 6.5 42.5zt0 0zM253 535q0 -36 27 -70q27 -34 68 -59q44 39 63.5 81q19.5 42 19.5 84q0 35 -18 58q-18 23 -59 23q-24 0 -43 -9.5q-19 -9.5 -32 -25.5q-13 -16 -19.5 -37t-6.5 -45z" />
<glyph unicode="&#57;" horiz-adv-x="560" d="M48 438q0 53 18.5 103.5q18.5 50.5 55 89.5q36.5 39 92.5 63q56 24 131 24q47 0 86 -12.5q39 -12.5 66.5 -38.5q27.5 -26 43 -65q15.5 -39 15.5 -91q0 -86 -35.5 -169.5q-35.5 -83.5 -103 -154q-67.5 -70.5 -164 -123q-96.5 -52.5 -218.5 -76.5l-6 43q125 38 211 118.5q86 80.5 128 207.5q-23 -31 -65.5 -51.5q-42.5 -20.5 -95.5 -20.5q-83 0 -121 42q-38 42 -38 111zt0 0zM198 447q0 -48 17.5 -70q17.5 -22 61.5 -22q31 0 60 17q29 17 46 40q3 7 7 21.5q4 14.5 7.5 32q3.5 17.5 6 35q2.5 17.5 2.5 32.5q0 25 -3.5 48q-3.5 23 -12 40q-8.5 17 -23.5 27q-15 10 -38 10q-33 0 -58 -21q-25 -21 -41 -52.5q-16 -31.5 -24 -68.5t-8 -69z" />
<glyph unicode="&#58;" horiz-adv-x="341" d="M106 429q0 36 23 58q23 22 61 22q38 0 62 -22q24 -22 24 -58q0 -36 -24 -57.5q-24 -21.5 -62 -21.5q-38 0 -61 21.5q-23 21.5 -23 57.5zt0 0zM56 71q0 36 23 58q23 22 61 22q38 0 62 -22q24 -22 24 -58q0 -36 -24 -57.5q-24 -21.5 -62 -21.5q-38 0 -61 21.5t-23 57.5z" />
<glyph unicode="&#59;" horiz-adv-x="334" d="M102 429q0 36 23 58q23 22 61 22q38 0 62 -22q24 -22 24 -58q0 -36 -24 -57.5q-24 -21.5 -62 -21.5q-38 0 -61 21.5q-23 21.5 -23 57.5zt0 0zM-6 -131q21 6 39.5 18q18.5 12 33 27q14.5 15 24 32q9.5 17 12.5 33q-9 18 -27 29q-18 11 -38 18q-1 21 7 42q8 21 21.5 39q13.5 18 30.5 30.5q17 12.5 32 15.5q42 -2 65.5 -25q23.5 -23 23.5 -72q0 -41 -19.5 -79.5q-19.5 -38.5 -49.5 -69.5q-30 -31 -67.5 -52.5q-37.5 -21.5 -74.5 -29.5z" />
<glyph unicode="&#60;" horiz-adv-x="560" d="M71 324v31l385 235l36 -65l-213 -128l-82 -34l81 -31l233 -137l-56 -92z" />
<glyph unicode="&#61;" horiz-adv-x="560" d="M65 469h450v-80h-450zM65 299h450v-80l-450 0z" />
<glyph unicode="&#62;" horiz-adv-x="560" d="M509 369v-31l-385 -235l-35 65l213 128l81 34l-80 31l-234 136l56 93z" />
<glyph unicode="&#63;" horiz-adv-x="505" d="M204 501h-34q-3 13 -7.5 32.5q-4.5 19.5 -8.5 41q-4 21.5 -5.5 44q-1.5 22.5 0.5 42.5q43 23 92.5 37q49.5 14 115.5 14q88 0 138.5 -36q50.5 -36 50.5 -102q0 -50 -20.5 -84.5q-20.5 -34.5 -51.5 -61.5q-31 -27 -68.5 -49.5q-37.5 -22.5 -71 -47q-33.5 -24.5 -59 -55q-25.5 -30.5 -32.5 -73.5l-33 0q-5 48 7 84.5q12 36.5 33 66.5q21 30 47 55q26 25 49 50q23 25 38.5 51.5q15.5 26.5 15.5 58.5q0 40 -21 59q-21 19 -56 19q-24 0 -41 -4q-17 -4 -27 -10zM142 71q0 36 23 58q23 22 61 22q38 0 62 -22q24 -22 24 -58q0 -36 -24 -57.5q-24 -21.5 -62 -21.5q-38 0 -61 21.5t-23 57.5z" />
<glyph unicode="&#64;" horiz-adv-x="1027" d="M642 465q24 11 57.5 16q33.5 5 67.5 4l-49 -278q-12 -64 -10.5 -95.5q1.5 -31.5 29.5 -31.5q23 0 52.5 15q29.5 15 55.5 45.5q26 30.5 44 77q18 46.5 18 108.5q0 76 -27.5 136q-27.5 60 -76 101q-48.5 41 -115 62.5q-66.5 21.5 -143.5 21.5q-87 0 -159.5 -30.5q-72.5 -30.5 -124.5 -84.5q-52 -54 -81 -128.5q-29 -74.5 -29 -161.5q0 -89 29.5 -155.5q29.5 -66.5 81.5 -111.5q52 -45 123.5 -67.5q71.5 -22.5 155.5 -22.5q29 0 66 7q37 7 67 21l16 -57q-35 -20 -77 -28q-42 -8 -93 -8q-89 0 -169.5 26q-80.5 26 -141.5 78q-61 52 -97 130q-36 78 -36 182q0 109 37.5 197q37.5 88 102 150q64.5 62 150.5 95.5q86 33.5 184 33.5q95 0 174.5 -26.5q79.5 -26.5 136.5 -76q57 -49.5 89 -121q32 -71.5 32 -162.5q0 -70 -25.5 -127.5q-25.5 -57.5 -66.5 -99q-41 -41.5 -93 -64q-52 -22.5 -105 -22.5q-30 0 -52 7.5q-22 7.5 -36 25.5q-14 18 -18.5 47q-4.5 29 1.5 72l-4 0q-9 -27 -26.5 -54.5q-17.5 -27.5 -40 -49q-22.5 -21.5 -49.5 -35q-27 -13.5 -55 -13.5q-68 0 -102.5 44q-34.5 44 -34.5 112q0 59 19.5 117q19.5 58 54 103.5q34.5 45.5 82.5 74q48 28.5 105 28.5q35 0 58.5 -6.5q23.5 -6.5 47.5 -20.5zt0 0zM622 415q-11 8 -23 11.5q-12 3.5 -29 3.5q-34 0 -63 -26q-29 -26 -50 -65.5q-21 -39.5 -33 -86q-12 -46.5 -12 -86.5q0 -34 12 -53.5q12 -19.5 41 -19.5q17 0 34.5 14q17.5 14 34 36.5q16.5 22.5 32 51q15.5 28.5 28.5 56.5z" />
<glyph unicode="&#65;" horiz-adv-x="724" d="M205 0h-249l7 38q18 10 38 17.5q20 7.5 40 11.5l396 645h73l113 -645q19 -4 37.5 -12q18.5 -8 31.5 -17l-8 -38h-308l7 38q21 10 44.5 17.5q23.5 7.5 44.5 11.5l-24 159h-221l-95 -159q21 -3 42 -10.5q21 -7.5 38 -18.5zM261 291h179l-28 191v86h-2l-38 -88z" />
<glyph unicode="&#66;" horiz-adv-x="644" d="M-24 -1l7 38q22 11 45 19q23 8 44 10l120 566q-20 4 -40 11.5q-20 7.5 -36 17.5l8 38h159q38 0 73.5 3q35.5 3 79.5 3q48 0 88 -7.5q40 -7.5 68.5 -23q28.5 -15.5 44.5 -41q16 -25.5 16 -61.5q0 -42 -14.5 -75q-14.5 -33 -40 -58q-25.5 -25 -60.5 -41q-35 -16 -76 -24l0 -4q27 -2 54 -10q27 -8 48.5 -24q21.5 -16 35 -40.5q13.5 -24.5 13.5 -58.5q0 -54 -21.5 -98.5q-21.5 -44.5 -63.5 -77q-42 -32.5 -105 -50.5q-63 -18 -146 -18q-21 0 -45.5 1q-24.5 1 -49.5 2q-25 1 -48 2q-23 1 -39 1zM290 58q37 0 68 13q31 13 53 36.5q22 23.5 34.5 55q12.5 31.5 12.5 68.5q0 55 -35.5 73q-35.5 18 -99.5 18h-53l-54 -257q13 -3 28 -5q15 -2 46 -2zt0 0zM316 387q17 0 34.5 1.5q17.5 1.5 32.5 3.5q60 23 90 66q30 43 30 100q0 39 -23 60.5q-23 21.5 -75 21.5q-21 0 -37.5 -1q-16.5 -1 -30.5 -3l-53 -249z" />
<glyph unicode="&#67;" horiz-adv-x="652" d="M561 210h42q0 -16 -1 -38.5q-1 -22.5 -4 -48q-3 -25.5 -7 -50.5q-4 -25 -9 -45q-21 -11 -46.5 -18.5q-25.5 -7.5 -51.5 -12.5q-26 -5 -50 -7q-24 -2 -42 -2q-92 0 -155 25q-63 25 -103 65q-40 40 -57.5 90q-17.5 50 -17.5 101q0 99 29 180.5q29 81.5 84.5 140q55.5 58.5 136 90.5q80.5 32 182.5 32q66 0 118.5 -9.5q52.5 -9.5 85.5 -25.5q-3 -16 -10 -41q-7 -25 -16 -52.5q-9 -27.5 -19 -54q-10 -26.5 -19 -44.5l-42 0l-23 151q-9 5 -30 8q-21 3 -42 3q-58 0 -106.5 -28q-48.5 -28 -84 -79q-35.5 -51 -55 -123.5q-19.5 -72.5 -19.5 -161.5q0 -56 16 -94.5q16 -38.5 41.5 -62.5q25.5 -24 56 -34.5q30.5 -10.5 59.5 -10.5q29 0 50 5.5q21 5.5 31 11.5z" />
<glyph unicode="&#68;" horiz-adv-x="734" d="M-24 0l7 38q19 10 42 17.5q23 7.5 47 11.5l120 566q-23 5 -42.5 12.5q-19.5 7.5 -33.5 16.5l8 38h116q17 0 42.5 1q25.5 1 53 2.5q27.5 1.5 53 3q25.5 1.5 43.5 1.5q84 0 142.5 -18q58.5 -18 95 -51q36.5 -33 53 -78.5q16.5 -45.5 16.5 -100.5q0 -57 -10 -113.5q-10 -56.5 -33 -108.5q-23 -52 -59 -97q-36 -45 -88.5 -78.5q-52.5 -33.5 -121.5 -52.5q-69 -19 -158 -19q-13 0 -35.5 1.5q-22.5 1.5 -48.5 3q-26 1.5 -51.5 3q-25.5 1.5 -44.5 1.5zM409 643q-18 0 -34 -1q-16 -1 -30 -3l-123 -579q15 -2 34 -3q19 -1 30 -1q81 0 136 38.5q55 38.5 89 99q34 60.5 48.5 134.5q14.5 74 14.5 145q0 41 -8 73q-8 32 -27 53.5q-19 21.5 -51 32.5t-79 11z" />
<glyph unicode="&#69;" horiz-adv-x="602" d="M650 700q-10 -45 -25 -93q-15 -48 -33 -90l-42 0l-21 118h-187l-52 -245h123l60 77h31q-5 -49 -17.5 -109q-12.5 -60 -28.5 -112l-32 0l-27 79h-123l-54 -260h194l80 127h42q0 -18 -1.5 -42q-1.5 -24 -4 -50q-2.5 -26 -6.5 -52q-4 -26 -9 -48l-541 0l7 38q20 9 42.5 17q22.5 8 46.5 12l120 566q-20 4 -40 11.5q-20 7.5 -36 17.5l8 38z" />
<glyph unicode="&#70;" horiz-adv-x="572" d="M212 67q45 -6 80 -29l-7 -38h-309l7 38q18 9 37.5 16.5q19.5 7.5 41.5 12.5l120 566q-42 12 -66 29l8 38h523q-4 -20 -10.5 -43.5q-6.5 -23.5 -14 -48q-7.5 -24.5 -16 -48q-8.5 -23.5 -17.5 -43.5l-42 0l-21 118h-194l-56 -263h138l61 77h31q-2 -25 -6.5 -54q-4.5 -29 -11 -59q-6.5 -30 -14.5 -58q-8 -28 -15 -50l-31 0l-27 79l-138 0z" />
<glyph unicode="&#71;" horiz-adv-x="709" d="M603 44q-25 -13 -56.5 -23.5q-31.5 -10.5 -64 -17.5q-32.5 -7 -62.5 -11q-30 -4 -52 -4q-68 0 -125 17q-57 17 -98 52q-41 35 -63.5 88q-22.5 53 -22.5 125q0 99 29.5 180q29.5 81 85 139.5q55.5 58.5 136.5 90.5q81 32 183 32q33 0 65.5 -2.5q32.5 -2.5 62 -7q29.5 -4.5 53.5 -11q24 -6.5 39 -14.5q-3 -15 -10 -38.5q-7 -23.5 -16 -50.5q-9 -27 -19 -54q-10 -27 -20 -49l-41 0l-23 152q-14 5 -39.5 7.5q-25.5 2.5 -47.5 2.5q-67 0 -117.5 -32.5q-50.5 -32.5 -84 -87.5q-33.5 -55 -50 -127q-16.5 -72 -16.5 -151q0 -52 12 -89q12 -37 32.5 -61q20.5 -24 48 -35q27.5 -11 59.5 -11q29 0 60.5 8q31.5 8 49.5 19l40 188q-25 2 -47 10q-22 8 -39 19l8 38h273l-8 -38q-11 -9 -27.5 -16.5q-16.5 -7.5 -40.5 -12.5z" />
<glyph unicode="&#72;" horiz-adv-x="766" d="M279 0h-303l7 38q20 10 43.5 17.5q23.5 7.5 45.5 11.5l120 566q-23 4 -43 12q-20 8 -33 17l8 38h303l-8 -38q-15 -11 -36 -18q-21 -7 -41 -11l-52 -242h265l52 242q-43 11 -65 29l8 38h303l-8 -38q-19 -11 -42.5 -18.5q-23.5 -7.5 -45.5 -10.5l-120 -566q22 -4 41.5 -12q19.5 -8 33.5 -17l-7 -38h-303l7 38q17 9 37 17q20 8 41 12l54 259h-265l-54 -259q34 -7 64 -29z" />
<glyph unicode="&#73;" horiz-adv-x="369" d="M298 0h-312l7 38q47 22 88 29l120 566q-20 3 -39.5 10.5q-19.5 7.5 -35.5 18.5l8 38h312l-8 -38q-20 -11 -43.5 -18.5q-23.5 -7.5 -43.5 -10.5l-120 -566q19 -4 39 -11q20 -7 35 -18z" />
<glyph unicode="&#74;" horiz-adv-x="361" d="M129 700h309l-8 -38q-17 -11 -40.5 -18.5q-23.5 -7.5 -43.5 -10.5l-108 -512q-17 -82 -52.5 -134.5q-35.5 -52.5 -76 -83.5q-40.5 -31 -79 -45q-38.5 -14 -61.5 -18l-12 26q19 13 36.5 32q17.5 19 34 47.5q16.5 28.5 31.5 69.5q15 41 28 100l109 518q-21 4 -41 11.5q-20 7.5 -34 17.5z" />
<glyph unicode="&#75;" horiz-adv-x="705" d="M499 700h272l-8 -38q-18 -11 -41.5 -18.5q-23.5 -7.5 -43.5 -10.5l-242 -243q16 -33 39 -73q23 -40 48.5 -83q25.5 -43 53 -87q27.5 -44 54.5 -84l42 -29l-7 -34h-168l-35 28q-18 30 -37 66.5q-19 36.5 -37 76q-18 39.5 -34.5 79.5q-16.5 40 -29.5 78l-48 0l-55 -261q20 -5 36.5 -13q16.5 -8 27.5 -16l-7 -38h-303l7 38q22 11 44.5 18q22.5 7 44.5 11l120 566q-23 3 -43 11q-20 8 -33 18l8 38h303l-8 -38q-14 -8 -34.5 -16q-20.5 -8 -42.5 -13l-54 -254l59 14l211 240q-20 5 -37.5 12.5q-17.5 7.5 -29.5 16.5z" />
<glyph unicode="&#76;" horiz-adv-x="577" d="M124 700h328l-8 -38q-22 -11 -49.5 -18.5q-27.5 -7.5 -52.5 -10.5l-120 -568h193l104 179h42q0 -23 -3 -54q-3 -31 -8 -65q-5 -34 -11.5 -67q-6.5 -33 -13.5 -58l-549 0l7 38q26 12 48 19q22 7 41 10l120 566q-22 4 -42 11q-20 7 -34 18z" />
<glyph unicode="&#77;" horiz-adv-x="926" d="M864 0h-299l8 38q22 10 43 17q21 7 44 12l88 418l30 117h-8l-55 -107l-299 -495h-45l-89 491l-12 117h-9l-26 -127l-86 -410q18 -4 39.5 -13q21.5 -9 38.5 -20l-8 -38h-243l7 38q17 9 43 19.5q26 10.5 49 14.5l118 561q-20 4 -40.5 11q-20.5 7 -35.5 18l8 38h271l63 -407l8 -96h1l47 98l246 405h252l-8 -38q-18 -11 -39.5 -18q-21.5 -7 -42.5 -11l-120 -567q20 -4 38 -12q18 -8 31 -16z" />
<glyph unicode="&#78;" horiz-adv-x="755" d="M595 700h247l-8 -38q-23 -17 -47 -27.5q-24 -10.5 -47 -16.5l-134 -630h-81l-248 510l-24 77h-3l-9 -80l-89 -417q18 -5 40.5 -16.5q22.5 -11.5 36.5 -23.5l-7 -38h-246l7 38q45 28 93 40l116 546q-17 7 -36.5 18q-19.5 11 -30.5 21l7 37h212l201 -416l30 -86h4l15 86l70 334q-22 8 -42.5 19.5q-20.5 11.5 -34.5 24.5z" />
<glyph unicode="&#79;" horiz-adv-x="751" d="M59 271q0 92 28.5 172.5q28.5 80.5 82 140q53.5 59.5 131 94q77.5 34.5 175.5 34.5q67 0 119 -19.5q52 -19.5 88 -56q36 -36.5 54.5 -88.5q18.5 -52 18.5 -117q0 -82 -25 -161.5q-25 -79.5 -76 -142q-51 -62.5 -127.5 -101q-76.5 -38.5 -179.5 -38.5q-69 0 -123 21.5q-54 21.5 -91 59.5q-37 38 -56 90q-19 52 -19 112zt0 0zM229 252q0 -100 37.5 -149.5q37.5 -49.5 101.5 -49.5q57 0 98 37q41 37 68 94.5q27 57.5 39.5 129q12.5 71.5 12.5 140.5q0 89 -30.5 141q-30.5 52 -100.5 52q-39 0 -70.5 -17.5q-31.5 -17.5 -57 -47.5q-25.5 -30 -44 -69.5q-18.5 -39.5 -30.5 -83.5q-12 -44 -18 -89.5t-6 -87.5z" />
<glyph unicode="&#80;" horiz-adv-x="634" d="M222 67q26 -4 50.5 -11.5q24.5 -7.5 43.5 -17.5l-7 -38h-333l7 38q44 21 89 29l120 566q-22 4 -41 11.5q-19 7.5 -35 17.5l8 38h126q40 0 92.5 4q52.5 4 95.5 4q52 0 96.5 -9q44.5 -9 76 -28.5q31.5 -19.5 49.5 -51.5q18 -32 18 -78q0 -59 -22 -109.5q-22 -50.5 -64 -87.5q-42 -37 -103 -58.5q-61 -21.5 -138 -21.5q-5 0 -16.5 0q-11.5 0 -25 0.5q-13.5 0.5 -26 1q-12.5 0.5 -19.5 1.5zM401 643q-20 0 -33.5 -2q-13.5 -2 -24.5 -4l-65 -304q9 -2 27 -3q18 -1 29 -1q43 0 76 15.5q33 15.5 55.5 44q22.5 28.5 34.5 67q12 38.5 12 85.5q0 23 -5.5 42q-5.5 19 -18 32.5q-12.5 13.5 -34 20.5t-53.5 7z" />
<glyph unicode="&#81;" horiz-adv-x="751" d="M755 -112q-22 -19 -46 -36.5q-24 -17.5 -50 -31.5q-26 -14 -52.5 -22q-26.5 -8 -53.5 -8q-46 0 -89 16.5q-43 16.5 -88.5 38q-45.5 21.5 -97 41.5q-51.5 20 -114.5 28l34 44q50 9 95.5 4.5q45.5 -4.5 88.5 -15q43 -10.5 85.5 -23.5q42.5 -13 87 -21q44.5 -8 92.5 -7.5q48 0.5 103 17.5zM59 271q0 92 28.5 172.5q28.5 80.5 82 140q53.5 59.5 131 94q77.5 34.5 175.5 34.5q67 0 119 -19.5q52 -19.5 88 -56q36 -36.5 54.5 -88.5q18.5 -52 18.5 -117q0 -82 -25 -161.5q-25 -79.5 -76 -142q-51 -62.5 -127.5 -101q-76.5 -38.5 -179.5 -38.5q-69 0 -123 21.5q-54 21.5 -91 59.5q-37 38 -56 90q-19 52 -19 112zt0 0zM229 252q0 -100 37.5 -149.5q37.5 -49.5 101.5 -49.5q57 0 98 37q41 37 68 94.5q27 57.5 39.5 129q12.5 71.5 12.5 140.5q0 89 -30.5 141q-30.5 52 -100.5 52q-39 0 -70.5 -17.5q-31.5 -17.5 -57 -47.5q-25.5 -30 -44 -69.5q-18.5 -39.5 -30.5 -83.5q-12 -44 -18 -89.5t-6 -87.5z" />
<glyph unicode="&#82;" horiz-adv-x="692" d="M222 67q21 -6 38 -13.5q17 -7.5 31 -15.5l-7 -38h-308l7 38q25 12 46.5 18.5q21.5 6.5 42.5 10.5l120 566q-49 11 -76 29l8 38h106q20 0 45.5 1q25.5 1 53.5 2.5q28 1.5 57 3q29 1.5 55 1.5q111 0 164.5 -43q53.5 -43 53.5 -122q0 -37 -12 -71.5q-12 -34.5 -35.5 -64q-23.5 -29.5 -58 -52q-34.5 -22.5 -80.5 -35.5q26 -63 64.5 -128q38.5 -65 75.5 -126l42 -32l-7 -34h-159l-37 33q-34 55 -62.5 127.5q-28.5 72.5 -41.5 142.5l-76 0zM395 643q-16 0 -29 -2q-13 -2 -24 -4l-59 -279h58q41 0 71.5 15.5q30.5 15.5 50.5 42q20 26.5 30 60.5q10 34 10 72q1 51 -25.5 73t-82.5 22z" />
<glyph unicode="&#83;" horiz-adv-x="556" d="M140 83q10 -10 36 -20q26 -10 55 -10q31 0 58 5.5q27 5.5 46.5 17.5q19.5 12 30.5 31.5q11 19.5 11 47.5q0 36 -19 61.5q-19 25.5 -47 46.5q-28 21 -61.5 41.5q-33.5 20.5 -61.5 46.5q-28 26 -47 61q-19 35 -19 86q0 53 21 93q21 40 58 67q37 27 88 40.5q51 13.5 112 13.5q61 0 111.5 -8.5q50.5 -8.5 88.5 -26.5q-5 -20 -13 -46q-8 -26 -17.5 -51.5q-9.5 -25.5 -19 -48q-9.5 -22.5 -16.5 -37.5l-41 0l-17 137q-14 8 -37.5 12q-23.5 4 -48.5 4q-26 0 -48.5 -5.5q-22.5 -5.5 -39 -17q-16.5 -11.5 -26.5 -29.5q-10 -18 -10 -43q0 -35 19.5 -61q19.5 -26 48 -47.5q28.5 -21.5 62.5 -43q34 -21.5 62.5 -48q28.5 -26.5 48 -61.5q19.5 -35 19.5 -84q0 -106 -78.5 -162.5q-78.5 -56.5 -224.5 -56.5q-32 0 -64.5 4q-32.5 4 -61.5 11q-29 7 -51 15q-22 8 -32 17q6 24 15 50.5q9 26.5 19 53q10 26.5 20.5 50q10.5 23.5 19.5 41.5l41 0z" />
<glyph unicode="&#84;" horiz-adv-x="662" d="M461 0h-344l8 38q22 9 49 17q27 8 54 12l121 568h-116l-101 -171h-41q0 20 2.5 51q2.5 31 6 64q3.5 33 8.5 65.5q5 32.5 11 55.5l637 0q-5 -24 -13.5 -56q-8.5 -32 -18.5 -65q-10 -33 -20.5 -63.5q-10.5 -30.5 -19.5 -51.5l-42 0l-27 171h-116l-121 -568q25 -5 49 -12q24 -7 42 -17z" />
<glyph unicode="&#85;" horiz-adv-x="715" d="M112 700h308l-8 -38q-36 -21 -82 -29l-79 -373q-20 -98 15 -142q35 -44 110 -44q70 0 117 40.5q47 40.5 68 138.5l79 375q-23 5 -45.5 14q-22.5 9 -35.5 20l8 38h248l-8 -38q-18 -13 -42.5 -21q-24.5 -8 -47.5 -13l-80 -376q-27 -129 -98.5 -195q-71.5 -66 -204.5 -66q-143 0 -200.5 75q-57.5 75 -29.5 205l76 362q-20 4 -41.5 11q-21.5 7 -34.5 18z" />
<glyph unicode="&#86;" horiz-adv-x="729" d="M652 633q-23 5 -43.5 12q-20.5 7 -34.5 17l8 38h254l-8 -38q-14 -8 -34.5 -16q-20.5 -8 -43.5 -13l-364 -633l-100 -12l-121 645q-21 5 -39.5 12.5q-18.5 7.5 -29.5 16.5l8 38h330l-8 -38q-18 -9 -41 -16.5q-23 -7.5 -47 -12.5l57 -394l3 -94h2l42 96z" />
<glyph unicode="&#87;" horiz-adv-x="1029" d="M955 633q-20 3 -41 10.5q-21 7.5 -38 18.5l8 38h252l-8 -38q-18 -11 -39 -18q-21 -7 -40 -11l-311 -633l-107 -12l-52 484l-251 -472l-107 -12l-58 645q-41 9 -67 29l8 38h321l-8 -38q-19 -10 -42 -17q-23 -7 -46 -12l17 -354l-5 -130h2l62 135l222 416h60l52 -411l8 -130h2l52 132z" />
<glyph unicode="&#88;" horiz-adv-x="723" d="M539 700h248l-8 -38q-16 -10 -34.5 -17q-18.5 -7 -39.5 -12l-235 -262l140 -304q22 -5 39 -12q17 -7 31 -17l-7 -38h-323l7 38q18 9 37 16.5q19 7.5 41 12.5l-93 219l-182 -220q20 -5 36.5 -11q16.5 -6 31.5 -17l-8 -38h-256l8 38q17 11 35.5 17.5q18.5 6.5 38.5 11.5l263 286l-126 280q-18 5 -33 12q-15 7 -29 17l8 38h316l-8 -38q-14 -8 -33 -15.5q-19 -7.5 -45 -13.5l77 -200l165 200q-19 5 -37.5 12.5q-18.5 7.5 -32.5 16.5z" />
<glyph unicode="&#89;" horiz-adv-x="695" d="M554 700h249l-8 -38q-17 -10 -37 -17.5q-20 -7.5 -40 -11.5l-267 -340l-48 -226q19 -3 37 -11q18 -8 33 -18l-8 -38h-308l8 38q19 9 42 17q23 8 46 12l48 225l-130 341q-22 4 -41.5 11.5q-19.5 7.5 -33.5 17.5l8 38h325l-8 -38q-14 -8 -34 -16q-20 -8 -46 -13l87 -269l191 269q-21 5 -40 12.5q-19 7.5 -33 16.5z" />
<glyph unicode="&#90;" horiz-adv-x="631" d="M539 211h41q0 -21 -2 -48q-2 -27 -5 -55q-3 -28 -7.5 -56q-4.5 -28 -9.5 -52l-551 0v65l491 570h-230l-89 -143h-42q0 22 1.5 50q1.5 28 5 56.5q3.5 28.5 7.5 55q4 26.5 9 46.5l516 0v-65l-492 -570l264 0z" />
<glyph unicode="&#91;" horiz-adv-x="324" d="M179 700h234l-12 -55h-104l-174 -820h104l-11 -55l-234 0z" />
<glyph unicode="&#92;" horiz-adv-x="382" d="M416 -104l-57 -30l-415 820l58 29z" />
<glyph unicode="&#93;" horiz-adv-x="324" d="M162 -230h-233l11 55h103l174 820h-104l12 55l234 0z" />
<glyph unicode="&#94;" horiz-adv-x="508" d="M283 711h46l170 -277h-120l-79 135l-18 53l-26 -54l-89 -134l-70 0z" />
<glyph unicode="&#95;" horiz-adv-x="410" d="M-43 -116h410v-80l-410 0z" />
<glyph unicode="&#96;" horiz-adv-x="337" d="M357 589l-45 -22l-166 145v29q6 6 26 11.5q20 5.5 42.5 8.5q22.5 3 42.5 3.5q20 0.5 27 -1.5z" />
<glyph unicode="&#97;" horiz-adv-x="563" d="M215 68q19 0 39.5 17q20.5 17 39 42.5q18.5 25.5 34 56q15.5 30.5 26.5 56.5l37 198q-12 8 -22.5 11.5q-10.5 3.5 -27.5 3.5q-40 0 -72 -26.5q-32 -26.5 -54 -69q-22 -42.5 -33.5 -95.5q-11.5 -53 -11.5 -106q0 -46 11 -67q11 -21 34 -21zt0 0zM339 159q-13 -32 -32.5 -62.5q-19.5 -30.5 -44.5 -54.5q-25 -24 -55 -39q-30 -15 -65 -15q-52 0 -83 38q-31 38 -31 113q0 78 21.5 145.5q21.5 67.5 61 118q39.5 50.5 95.5 79q56 28.5 125 28.5q26 0 44.5 -6q18.5 -6 39.5 -15q26 10 56 15q30 5 72 5l-84 -440h70v-34q-10 -8 -26.5 -16q-16.5 -8 -36 -14q-19.5 -6 -40 -10q-20.5 -4 -38.5 -4q-35 0 -50 15q-15 15 -15 31q0 18 5 47.5q5 29.5 15 74.5z" />
<glyph unicode="&#98;" horiz-adv-x="565" d="M145 669l-66 13v32q19 7 47 13.5q28 6.5 56.5 11.5q28.5 5 55 8.5q26.5 3.5 42.5 4.5l21 -11l-77 -379h5q16 30 36 57q20 27 43.5 48q23.5 21 49.5 33q26 12 56 12q26 0 48.5 -9.5q22.5 -9.5 39 -29q16.5 -19.5 26 -50q9.5 -30.5 9.5 -72.5q0 -74 -20 -139.5q-20 -65.5 -59.5 -115.5q-39.5 -50 -98 -79q-58.5 -29 -134.5 -29q-32 0 -62.5 4q-30.5 4 -57 11q-26.5 7 -47.5 17q-21 10 -34 21zM341 432q-21 0 -40.5 -17q-19.5 -17 -36 -41q-16.5 -24 -29.5 -50q-13 -26 -21 -44l-43 -215q11 -10 28 -15q17 -5 34 -5q34 0 63.5 25q29.5 25 51.5 66q22 41 34.5 94.5q12.5 53.5 12.5 110.5q0 42 -13 66.5t-41 24.5z" />
<glyph unicode="&#99;" horiz-adv-x="445" d="M412 109q-13 -21 -34 -43q-21 -22 -48.5 -39q-27.5 -17 -60.5 -28q-33 -11 -70 -11q-79 0 -125.5 47q-46.5 47 -46.5 131q0 70 21.5 133q21.5 63 60.5 110.5q39 47.5 94.5 75q55.5 27.5 123.5 27.5q45 0 78.5 -9.5q33.5 -9.5 44.5 -22.5q1 -11 -3.5 -27.5q-4.5 -16.5 -13.5 -33q-9 -16.5 -21.5 -31q-12.5 -14.5 -25.5 -20.5l-61 87q-27 0 -54.5 -18.5q-27.5 -18.5 -49.5 -53q-22 -34.5 -36 -83q-14 -48.5 -14 -109.5q0 -61 25 -89.5q25 -28.5 67 -28.5q20 0 38.5 6.5q18.5 6.5 34.5 15.5q16 9 29.5 19.5q13.5 10.5 23.5 19.5z" />
<glyph unicode="&#100;" horiz-adv-x="570" d="M215 68q21 0 41.5 17.5q20.5 17.5 39 43.5q18.5 26 34 56q15.5 30 26.5 55l36 197q-13 8 -24.5 11.5q-11.5 3.5 -27.5 3.5q-38 0 -69.5 -25.5q-31.5 -25.5 -53.5 -67q-22 -41.5 -34 -95q-12 -53.5 -12 -109.5q0 -87 44 -87zt0 0zM340 159q-15 -35 -35.5 -66q-20.5 -31 -45 -54q-24.5 -23 -53.5 -37q-29 -14 -61 -14q-51 0 -83.5 39q-32.5 39 -32.5 118q0 71 19.5 136.5q19.5 65.5 57 116q37.5 50.5 92 81q54.5 30.5 124.5 30.5q33 0 48.5 -4q15.5 -4 32.5 -12l34 176l-69 13v34q15 6 41 12q26 6 55.5 11q29.5 5 58 8.5q28.5 3.5 46.5 4.5l20 -11l-129 -672h72v-34q-10 -8 -26.5 -16q-16.5 -8 -36 -14q-19.5 -6 -40.5 -10q-21 -4 -39 -4q-35 0 -50 16q-15 16 -15 33q0 17 5 49q5 32 14 70z" />
<glyph unicode="&#101;" horiz-adv-x="472" d="M429 109q-11 -20 -32 -41.5q-21 -21.5 -49 -39q-28 -17.5 -62 -29q-34 -11.5 -71 -11.5q-89 0 -138.5 48.5q-49.5 48.5 -49.5 137.5q0 69 22 130q22 61 61.5 107.5q39.5 46.5 94 73.5q54.5 27 119.5 27q60 0 99 -27.5q39 -27.5 39 -75.5q0 -68 -67.5 -112q-67.5 -44 -218.5 -55q-3 -14 -4.5 -28.5q-1.5 -14.5 -1.5 -27.5q0 -57 29 -87.5q29 -30.5 74 -30.5q19 0 38 6q19 6 36.5 16q17.5 10 32 21.5q14.5 11.5 25.5 22.5zM301 455q-34 0 -65.5 -37q-31.5 -37 -52.5 -125q74 2 119.5 33q45.5 31 45.5 81q0 20 -10.5 34t-36.5 14z" />
<glyph unicode="&#102;" horiz-adv-x="316" d="M113 437h-71v39q20 11 42.5 19.5q22.5 8.5 42.5 13.5l7 35q13 62 35.5 102.5q22.5 40.5 52.5 64q30 23.5 68 32.5q38 9 82 9q32 0 65 -5.5q33 -5.5 53 -16.5q2 -14 -1.5 -30.5q-3.5 -16.5 -11 -31.5q-7.5 -15 -17.5 -27q-10 -12 -22 -18l-72 76q-14 -3 -27.5 -9.5q-13.5 -6.5 -25.5 -21.5q-12 -15 -23.5 -43q-11.5 -28 -20.5 -75l-9 -50h110q2 -11 0 -30.5q-2 -19.5 -13 -32.5l-110 0l-62 -394q-10 -71 -41 -118q-31 -47 -68.5 -75.5q-37.5 -28.5 -75.5 -42.5q-38 -14 -62 -19l-11 34q12 6 30 19.5q18 13.5 36 37.5q18 24 33.5 59.5q15.5 35.5 23.5 85.5z" />
<glyph unicode="&#103;" horiz-adv-x="520" d="M294 512q57 0 93.5 -13q36.5 -13 53.5 -27q10 9 27 18.5q17 9.5 36.5 18q19.5 8.5 39 15.5q19.5 7 35.5 12q5 -9 6.5 -24q1.5 -15 0 -30.5q-1.5 -15.5 -6.5 -29.5q-5 -14 -13 -23l-99 11q5 -8 8.5 -21q3.5 -13 3.5 -29q0 -36 -17 -68.5q-17 -32.5 -49.5 -56.5q-32.5 -24 -78 -38.5q-45.5 -14.5 -102.5 -14.5q-17 0 -27.5 0.5q-10.5 0.5 -23.5 3.5q-5 -4 -11.5 -8.5q-6.5 -4.5 -13 -9.5q-6.5 -5 -11 -11.5q-4.5 -6.5 -4.5 -14.5q0 -15 25 -23q25 -8 62 -14q37 -6 81 -14q44 -8 81 -23q37 -15 62 -40.5q25 -25.5 25 -67.5q0 -46 -29.5 -83q-29.5 -37 -77 -63.5q-47.5 -26.5 -107 -41q-59.5 -14.5 -120.5 -14.5q-50 0 -88 9.5q-38 9.5 -63.5 26q-25.5 16.5 -38 37.5q-12.5 21 -12.5 44q0 52 45 87.5q45 35.5 114 58.5q-26 11 -41.5 26.5q-15.5 15.5 -15.5 39.5q0 15 9 31q9 16 23 31q14 15 31 27.5q17 12.5 34 20.5q-15 3 -31.5 12q-16.5 9 -30 22.5q-13.5 13.5 -22.5 32q-9 18.5 -9 39.5q0 39 17 72q17 33 49 56.5q32 23.5 77.5 37q45.5 13.5 103.5 13.5zt0 0zM190 -155q27 0 52.5 6.5q25.5 6.5 45.5 19q20 12.5 32.5 31.5q12.5 19 12.5 45q0 24 -19.5 38.5q-19.5 14.5 -49.5 24q-30 9.5 -65.5 15.5q-35.5 6 -67.5 14q-28 -21 -42 -50q-14 -29 -14 -58q0 -40 31 -63q31 -23 84 -23zt0 0zM282 457q-24 0 -42 -10q-18 -10 -30 -27q-12 -17 -18 -40q-6 -23 -6 -49q0 -35 17.5 -49.5q17.5 -14.5 37.5 -14.5q24 0 42 10q18 10 30 26.5q12 16.5 18 38.5q6 22 6 47q0 30 -14 49t-41 19z" />
<glyph unicode="&#104;" horiz-adv-x="581" d="M90 682v32q15 6 38.5 12.5q23.5 6.5 51 12q27.5 5.5 56.5 9.5q29 4 55 4l21 -9l-84 -389h5q19 32 42.5 61q23.5 29 49.5 50.5q26 21.5 55 34q29 12.5 59 12.5q46 0 71 -26.5q25 -26.5 25 -65.5q0 -27 -5 -58q-5 -31 -12 -60l-57 -233h74v-34q-20 -16 -58.5 -30q-38.5 -14 -87.5 -14q-33 0 -48 13.5q-15 13.5 -15 32.5q0 18 4.5 37q4.5 19 9.5 44l37 167q7 31 12.5 56.5q5.5 25.5 5.5 48.5q0 18 -7.5 30q-7.5 12 -22.5 12q-23 0 -46 -16.5q-23 -16.5 -43 -39.5q-20 -23 -35.5 -48q-15.5 -25 -22.5 -42l-59 -286h-138l135 669z" />
<glyph unicode="&#105;" horiz-adv-x="304" d="M59 442v34q15 6 40 12.5q25 6.5 53 11.5q28 5 55.5 8.5q27.5 3.5 48.5 3.5l18 -12l-90 -431h70v-34q-13 -9 -30.5 -17q-17.5 -8 -37 -14q-19.5 -6 -39.5 -9.5q-20 -3.5 -38 -3.5q-38 0 -52.5 14.5q-14.5 14.5 -14.5 31.5q0 20 3 39q3 19 8 42l68 310zM141 667q0 34 23 53q23 19 58 19q38 0 60.5 -19q22.5 -19 22.5 -53q0 -32 -22.5 -51q-22.5 -19 -60.5 -19q-35 0 -58 19t-23 51z" />
<glyph unicode="&#106;" horiz-adv-x="299" d="M119 429l-59 13v34q15 7 38 13.5q23 6.5 49.5 11.5q26.5 5 53.5 8q27 3 51 3l20 -12l-92 -457q-15 -71 -45 -118q-30 -47 -65 -76q-35 -29 -71 -43q-36 -14 -64 -18l-16 31q12 6 28 19q16 13 32 37q16 24 31.5 60.5q15.5 36.5 26.5 88.5zM141 667q0 34 23 53q23 19 58 19q38 0 60.5 -19q22.5 -19 22.5 -53q0 -32 -22.5 -51q-22.5 -19 -60.5 -19q-35 0 -58 19t-23 51z" />
<glyph unicode="&#107;" horiz-adv-x="539" d="M315 45q-28 48 -44.5 95q-16.5 47 -31.5 89l-33 10l-45 -239h-140l133 669l-67 13v34q14 6 37 12.5q23 6.5 50 11.5q27 5 56.5 8.5q29.5 3.5 57.5 3.5l21 -11l-93 -458h32q17 13 35 31q18 18 34 36q16 18 28.5 35.5q12.5 17.5 19.5 29.5q1 7 1.5 19q0.5 12 0 24.5q-0.5 12.5 -1 24q-0.5 11.5 -1.5 17.5q17 6 43 9.5q26 3.5 53 3.5q27 0 50.5 -3.5q23.5 -3.5 34.5 -9.5q-13 -33 -38.5 -65q-25.5 -32 -55 -60q-29.5 -28 -58 -50.5q-28.5 -22.5 -46.5 -35.5q7 -19 21.5 -48q14.5 -29 32.5 -60.5q18 -31.5 38 -61q20 -29.5 37 -50.5l54 0v-34q-10 -8 -25.5 -16q-15.5 -8 -33.5 -14q-18 -6 -37 -10q-19 -4 -37 -4q-24 0 -44.5 11t-37.5 43z" />
<glyph unicode="&#108;" horiz-adv-x="299" d="M153 669l-68 13v34q14 6 38 12q24 6 52 11.5q28 5.5 57.5 9q29.5 3.5 54.5 3.5l20 -11l-131 -672h71v-34q-10 -8 -27 -16q-17 -8 -37.5 -14q-20.5 -6 -42.5 -10q-22 -4 -42 -4q-34 0 -49.5 14.5q-15.5 14.5 -15.5 31.5q0 20 3 39q3 19 8 42z" />
<glyph unicode="&#109;" horiz-adv-x="849" d="M645 300q5 23 11 49.5q6 26.5 6 41.5q0 19 -6.5 30q-6.5 11 -23.5 11q-17 0 -35 -12.5q-18 -12.5 -35 -33q-17 -20.5 -32.5 -46.5q-15.5 -26 -27.5 -53l-65 -287h-134l61 281q7 31 12 60q5 29 5 54q0 37 -28 37q-14 0 -32 -13q-18 -13 -36 -33.5q-18 -20.5 -34 -46.5q-16 -26 -25 -53l-58 -286h-140l89 429l-57 13v34q16 8 39.5 15q23.5 7 49.5 11.5q26 4.5 53 7q27 2.5 50 2.5l21 -12l-39 -146h4q15 27 36.5 55.5q21.5 28.5 48.5 51q27 22.5 58 37q31 14.5 63 14.5q12 0 25 -4q13 -4 24.5 -14.5q11.5 -10.5 18.5 -28.5q7 -18 7 -46q0 -14 -2.5 -32q-2.5 -18 -6.5 -33q17 31 40 60q23 29 49.5 50.5q26.5 21.5 56 34.5q29.5 13 61.5 13q38 0 62 -24q24 -24 24 -66q0 -32 -6 -61q-6 -29 -13 -61l-57 -231h70v-34q-10 -8 -27.5 -16q-17.5 -8 -37.5 -14q-20 -6 -41 -10q-21 -4 -39 -4q-36 0 -50 14.5q-14 14.5 -14 32.5q0 29 14 80z" />
<glyph unicode="&#110;" horiz-adv-x="588" d="M384 285q7 31 12.5 55q5.5 24 5.5 50q0 17 -7.5 29.5q-7.5 12.5 -26.5 12.5q-19 0 -39.5 -14.5q-20.5 -14.5 -40 -36q-19.5 -21.5 -36 -47.5q-16.5 -26 -26.5 -48l-60 -286h-138l86 429l-59 13l2 34q14 7 36 13.5q22 6.5 48 11.5q26 5 53.5 8q27.5 3 52.5 3l20 -12l-31 -146h5q18 33 42 62q24 29 51 50q27 21 57 33.5q30 12.5 61 12.5q42 0 66 -27q24 -27 24 -72q0 -23 -5 -52.5q-5 -29.5 -12 -58.5l-55 -233h72v-34q-10 -8 -26.5 -16q-16.5 -8 -36 -14q-19.5 -6 -40.5 -10q-21 -4 -40 -4q-34 0 -49.5 13q-15.5 13 -15.5 30q0 21 5 45q5 24 10 46z" />
<glyph unicode="&#111;" horiz-adv-x="549" d="M29 192q0 54 18 110.5q18 56.5 55 103q37 46.5 93.5 76.5q56.5 30 132.5 30q90 0 141 -49q51 -49 51 -146q0 -66 -20 -125.5q-20 -59.5 -58 -105q-38 -45.5 -92.5 -72q-54.5 -26.5 -124.5 -26.5q-42 0 -78 12.5q-36 12.5 -62.5 38q-26.5 25.5 -41 63.5q-14.5 38 -14.5 90zt0 0zM311 455q-40 0 -66.5 -30q-26.5 -30 -43 -75.5q-16.5 -45.5 -23.5 -98.5q-7 -53 -7 -98q0 -51 19.5 -79.5q19.5 -28.5 53.5 -28.5q29 0 53.5 24.5q24.5 24.5 42.5 66q18 41.5 28 95q10 53.5 10 111.5q0 55 -17.5 84t-49.5 29z" />
<glyph unicode="&#112;" horiz-adv-x="572" d="M135 -133q17 -3 35.5 -11.5q18.5 -8.5 31.5 -17.5l0 -38h-206l-13 13l132 615l-58 14v34q16 7 41 13.5q25 6.5 52 11.5q27 5 53 8q26 3 46 3l20 -12l-33 -138h4q16 31 36.5 58.5q20.5 27.5 44 48q23.5 20.5 51 32q27.5 11.5 58.5 11.5q51 0 84.5 -40q33.5 -40 33.5 -112q0 -81 -23 -149.5q-23 -68.5 -62.5 -118q-39.5 -49.5 -94 -77q-54.5 -27.5 -117.5 -27.5q-29 0 -47.5 4.5q-18.5 4.5 -38.5 15.5zM353 432q-21 0 -40.5 -15.5q-19.5 -15.5 -36.5 -38.5q-17 -23 -31 -50q-14 -27 -23 -49l-44 -217q13 -9 25.5 -13q12.5 -4 36.5 -4q34 0 64 27q30 27 52.5 70q22.5 43 35 97q12.5 54 12.5 107q0 42 -13 64t-38 22z" />
<glyph unicode="&#113;" horiz-adv-x="546" d="M408 -132q16 -3 34 -11q18 -8 32 -19l0 -38h-206l-9 8l77 344h-4q-13 -29 -31.5 -58q-18.5 -29 -42.5 -52.5q-24 -23.5 -53.5 -38.5q-29.5 -15 -64.5 -15q-52 0 -83 41q-31 41 -31 119q0 72 19.5 137.5q19.5 65.5 60 115.5q40.5 50 101.5 79.5q61 29.5 144 29.5q30 0 59.5 -3.5q29.5 -3.5 54.5 -8.5q25 -5 44 -11q19 -6 29 -11zM218 68q19 0 38 16.5q19 16.5 36 41.5q17 25 32 54.5q15 29.5 26 55.5l40 206q-18 11 -53 11q-41 0 -72 -26.5q-31 -26.5 -53 -69q-22 -42.5 -33 -95.5q-11 -53 -11 -106q0 -88 50 -88z" />
<glyph unicode="&#114;" horiz-adv-x="435" d="M314 405q-19 -8 -42.5 -36q-23.5 -28 -39.5 -71l-64 -298h-140l89 429l-57 13v34q17 8 39.5 14.5q22.5 6.5 48 11q25.5 4.5 52.5 7q27 2.5 52 3.5l20 -12l-26 -124h4q30 58 69 97q39 39 91 39q14 0 28 -2.5q14 -2.5 26 -9.5q2 -21 -3.5 -45.5q-5.5 -24.5 -14.5 -46.5q-9 -22 -21 -39q-12 -17 -23 -23z" />
<glyph unicode="&#115;" horiz-adv-x="432" d="M229 110q0 22 -12 39.5q-12 17.5 -30 34.5q-18 17 -39.5 33.5q-21.5 16.5 -39.5 37.5q-18 21 -30 46.5q-12 25.5 -12 59.5q0 76 54.5 113.5q54.5 37.5 148.5 37.5q16 0 35.5 -1.5q19.5 -1.5 39.5 -5.5q20 -4 38.5 -9.5q18.5 -5.5 33.5 -14.5q1 -11 -1.5 -28.5q-2.5 -17.5 -9 -35q-6.5 -17.5 -17 -32q-10.5 -14.5 -25.5 -19.5l-80 89q-32 0 -53.5 -13q-21.5 -13 -21.5 -46q0 -22 12.5 -40q12.5 -18 30.5 -34.5q18 -16.5 40 -33.5q22 -17 40 -37.5q18 -20.5 30.5 -46.5q12.5 -26 12.5 -60q0 -38 -17 -67q-17 -29 -46.5 -49q-29.5 -20 -70.5 -30q-41 -10 -89 -10q-51 0 -91.5 11.5q-40.5 11.5 -60.5 25.5q-1 32 11.5 63q12.5 31 36.5 48l97 -91q33 0 59 16t26 49z" />
<glyph unicode="&#116;" horiz-adv-x="367" d="M45 476q19 12 42 20.5q23 8.5 45 13.5l16 76q7 6 22 11.5q15 5.5 33 10q18 4.5 36.5 8.5q18.5 4 33.5 6l21 -12l-24 -110h117q2 -12 -1.5 -31.5q-3.5 -19.5 -11.5 -31.5l-117 0l-58 -259q-4 -19 -6 -33.5q-2 -14.5 -2 -26.5q0 -26 13 -38q13 -12 35 -12q25 0 47 6q22 6 42 17l13 -26q-12 -13 -32 -26.5q-20 -13.5 -45 -25q-25 -11.5 -54 -18.5q-29 -7 -59 -7q-52 0 -78 24q-26 24 -26 66q0 23 4 49q4 26 8 44l58 266l-72 0z" />
<glyph unicode="&#117;" horiz-adv-x="585" d="M546 69v-34q-10 -8 -26.5 -16q-16.5 -8 -36 -14q-19.5 -6 -41 -10q-21.5 -4 -42.5 -4q-36 0 -49.5 14.5q-13.5 14.5 -13.5 30.5q0 18 4 50q4 32 16 74l-4 0q-13 -24 -33 -54q-20 -30 -47 -56.5q-27 -26.5 -62 -44q-35 -17.5 -77 -17.5q-41 0 -66.5 24.5q-25.5 24.5 -25.5 69.5q0 22 6.5 63q6.5 41 16 89.5q9.5 48.5 21 100q11.5 51.5 20.5 94.5l-59 13v34q16 6 40 12q24 6 50 11q26 5 53 8.5q27 3.5 49 4.5l22 -12q-16 -75 -32.5 -142.5q-16.5 -67.5 -30.5 -142.5q-5 -24 -10.5 -53q-5.5 -29 -5.5 -58q0 -18 9.5 -27q9.5 -9 23.5 -9q25 0 49.5 19.5q24.5 19.5 45 47q20.5 27.5 36 56.5q15.5 29 22.5 48l52 261h135l-79 -431z" />
<glyph unicode="&#118;" horiz-adv-x="481" d="M289 175q27 49 49 99.5q22 50.5 38 106.5q0 11 -2.5 28.5q-2.5 17.5 -5 35.5q-2.5 18 -5.5 33.5q-3 15.5 -5 21.5q14 6 34.5 9q20.5 3 41 3q20.5 0 39.5 -3q19 -3 30 -9q-15 -62 -42.5 -127.5q-27.5 -65.5 -62.5 -130.5q-35 -65 -76 -126.5q-41 -61.5 -84 -115.5l-92 -12l-74 441l-64 8v34q12 7 29 14q17 7 37.5 13q20.5 6 42 10q21.5 4 42.5 4q27 0 38 -14.5q11 -14.5 14 -36.5l38 -288l6 -67l2 0z" />
<glyph unicode="&#119;" horiz-adv-x="762" d="M579 174q27 52 46.5 100q19.5 48 34.5 100q0 11 -3 29.5q-3 18.5 -6 38q-3 19.5 -6.5 36q-3.5 16.5 -5.5 22.5q14 6 35 9q21 3 42 3q20 0 38.5 -3q18.5 -3 29.5 -9q-15 -62 -40 -127q-25 -65 -56.5 -129.5q-31.5 -64.5 -67.5 -126.5q-36 -62 -75 -117l-103 -12l-45 255l-3 77h-3l-33 -78q-29 -59 -63 -122.5q-34 -63.5 -68 -119.5l-107 -12l-48 441l-64 8v34q12 7 29.5 14q17.5 7 37 13q19.5 6 40 10q20.5 4 39.5 4q27 0 42 -13.5q15 -13.5 17 -35.5l23 -286l-2 -72h2l28 73l139 302l79 20q20 -75 36 -158.5q16 -83.5 27 -164.5l5 -71l2 0z" />
<glyph unicode="&#120;" horiz-adv-x="506" d="M201 202q-20 -23 -43 -50q-23 -27 -36 -52q-1 -8 -1 -21q0 -13 1 -27q1 -14 2.5 -26.5q1.5 -12.5 3.5 -18.5q-17 -7 -39.5 -10q-22.5 -3 -44.5 -3q-22 0 -41 3q-19 3 -30 10q9 30 34.5 66q25.5 36 57 70.5q31.5 34.5 64 65q32.5 30.5 55.5 48.5l-61 166l-69 8v34q14 8 33.5 16q19.5 8 40.5 14q21 6 42.5 10q21.5 4 38.5 4q26 0 39.5 -13.5q13.5 -13.5 20.5 -35.5l45 -158q19 20 40 48q21 28 32 51q1 7 0.5 20q-0.5 13 -2 27.5q-1.5 14.5 -4 27q-2.5 12.5 -3.5 18.5q37 13 81 13q20 0 39 -3.5q19 -3.5 30 -9.5q-9 -30 -33.5 -66q-24.5 -36 -54.5 -70q-30 -34 -60.5 -62.5q-30.5 -28.5 -49.5 -43.5l66 -175l69 -8v-34q-10 -7 -28 -14.5q-18 -7.5 -39 -14q-21 -6.5 -43 -11q-22 -4.5 -40 -4.5q-26 0 -41 13q-15 13 -22 35z" />
<glyph unicode="&#121;" horiz-adv-x="487" d="M72 429l-64 8v34q5 4 20 10.5q15 6.5 35.5 13.5q20.5 7 43.5 12q23 5 45 5q27 0 42 -13q15 -13 20 -36l77 -303l5 -60h2l21 59q20 48 39 103.5q19 55.5 30 103.5q0 11 -3.5 30.5q-3.5 19.5 -7.5 40q-4 20.5 -8 38q-4 17.5 -6 23.5q14 6 35 9q21 3 42 3q21 0 39 -3q18 -3 29 -9q-26 -119 -79.5 -247q-53.5 -128 -123.5 -251q-58 -103 -115.5 -156q-57.5 -53 -132.5 -53q-21 0 -38.5 5.5q-17.5 5.5 -31.5 14.5q-3 14 2 33q5 19 14.5 37q9.5 18 22.5 33q13 15 27 20l75 -53q7 5 18 14.5q11 9.5 22 24q11 14.5 22 34.5q11 20 20 46z" />
<glyph unicode="&#122;" horiz-adv-x="468" d="M122 183v1l191 199q-39 -1 -84.5 3.5q-45.5 4.5 -93.5 12.5l-46 -72l-34 6l14 141q6 39 57 39q20 0 50 -3.5q30 -3.5 67.5 -8.5q37.5 -5 81 -9.5q43.5 -4.5 90.5 -7.5l26 28q14 -1 29 -13.5q15 -12.5 17 -29.5l-322 -336q51 -11 99 -27.5q48 -16.5 90 -39.5l67 66l33 -14l-44 -141q-5 -15 -19.5 -25q-14.5 -10 -34.5 -10q-21 0 -50.5 13q-29.5 13 -66.5 29.5q-37 16.5 -79 32.5q-42 16 -88 22l-47 -48q-8 0 -16 4q-8 4 -15 10q-7 6 -11.5 14q-4.5 8 -3.5 17z" />
<glyph unicode="&#123;" horiz-adv-x="356" d="M98 102q5 23 5 39q0 33 -16 51.5q-16 18.5 -46 18.5l10 48q19 0 35.5 8q16.5 8 30 22.5q13.5 14.5 23 33.5q9.5 19 14.5 41l49 230q10 48 40 77q30 29 78 29h121l-11 -55h-35q-27 0 -42.5 -14q-15.5 -14 -22.5 -46l-47 -220q-7 -33 -22.5 -56q-15.5 -23 -34.5 -37.5q-19 -14.5 -40 -22q-21 -7.5 -39 -9.5l-2 -6q15 -2 30 -8.5q15 -6.5 27.5 -18.5q12.5 -12 20.5 -29.5q8 -17.5 8 -41.5q0 -15 -3 -31l-47 -220q-3 -14 -3 -23q0 -37 43 -37h34l-11 -55h-121q-37 0 -57.5 18q-20.5 18 -20.5 54q0 17 4 33z" />
<glyph unicode="&#124;" horiz-adv-x="235" d="M114 700h70v-830l-70 0z" />
<glyph unicode="&#125;" horiz-adv-x="356" d="M277 369q-5 -23 -5 -39q0 -70 62 -70l-11 -48q-38 0 -65.5 -30.5q-27.5 -30.5 -36.5 -74.5l-49 -231q-10 -48 -40 -77q-30 -29 -78 -29h-121l11 55h35q27 0 42.5 14q15.5 14 22.5 46l47 221q7 33 21 56q14 23 31.5 37.5q17.5 14.5 37 22q19.5 7.5 37.5 9.5l1 6q-14 1 -28 7.5q-14 6.5 -25 17.5q-11 11 -17.5 28q-6.5 17 -6.5 40q0 19 4 36l47 219q2 6 2 11.5q0 5.5 0 10.5q1 38 -43 38h-34l12 55h122q37 0 57 -18.5q20 -18.5 20 -53.5q0 -17 -4 -33z" />
<glyph unicode="&#126;" horiz-adv-x="560" d="M81 312q26 58 66 88.5q40 30.5 77 30.5q25 0 49 -10.5q24 -10.5 47 -23.5q23 -13 46.5 -23.5q23.5 -10.5 48.5 -10.5q18 0 37.5 7.5q19.5 7.5 39.5 26.5l23 -30q-23 -48 -55.5 -71.5q-32.5 -23.5 -67.5 -23.5q-26 0 -50.5 10.5q-24.5 10.5 -48.5 23.5q-24 13 -48 23.5q-24 10.5 -48 10.5q-22 0 -44.5 -12q-22.5 -12 -45.5 -43z" />
<glyph unicode="&#160;" horiz-adv-x="270" />
<glyph unicode="&#161;" horiz-adv-x="347" d="M210 286l12 -194l-54 -278q-12 -6 -33 -8.5q-21 -2.5 -44 -2.5q-23 0 -43.5 2.5q-20.5 2.5 -29.5 8.5l60 278l88 194zM128 432q0 36 23 58q23 22 61 22q38 0 62 -22q24 -22 24 -58q0 -36 -24 -57.5q-24 -21.5 -62 -21.5q-38 0 -61 21.5t-23 57.5z" />
<glyph unicode="&#162;" horiz-adv-x="560" d="M475 109q-26 -41 -67.5 -71q-41.5 -30 -95.5 -41l-34 -167h-77l34 159q-85 5 -136.5 52.5q-51.5 47.5 -51.5 133.5q0 65 21.5 122.5q21.5 57.5 61 102q39.5 44.5 94.5 73q55 28.5 121 35.5l33 152h77l-32 -151q8 -1 14.5 -1q6.5 0 14.5 -2q31 -2 62 -8.5q31 -6.5 45 -17.5q1 -11 -3.5 -27.5q-4.5 -16.5 -13.5 -33q-9 -16.5 -21.5 -31q-12.5 -14.5 -26.5 -20.5l-61 87q-15 0 -30 -3l-81 -378q48 5 79 24q31 19 50 36zM191 184q0 -45 19 -71.5q19 -26.5 50 -35.5l77 357q-33 -15 -60 -39q-27 -24 -46 -56.5q-19 -32.5 -29.5 -71.5t-10.5 -83z" />
<glyph unicode="&#163;" horiz-adv-x="560" d="M68 375h77q-12 32 -19 64.5q-7 32.5 -7 61.5q0 97 64.5 154q64.5 57 205.5 57q63 0 117 -10.5q54 -10.5 90 -27.5q-5 -16 -13.5 -40q-8.5 -24 -18.5 -49.5q-10 -25.5 -20.5 -49.5q-10.5 -24 -19.5 -41l-34 0l-11 137q-18 8 -39 12q-21 4 -47 4q-47 0 -78 -17q-31 -17 -39 -55q-5 -24 -3.5 -47.5q1.5 -23.5 4.5 -40.5q3 -17 6 -29.5q3 -12.5 5.5 -24.5q2.5 -12 5.5 -25.5q3 -13.5 6 -32.5l125 0l-14 -61h-107q-3 -31 -12.5 -49q-9.5 -18 -25.5 -42q-6 -20 -22 -43q-16 -23 -42 -41l-39 -23v-4l51 6h177l73 112h34q-2 -23 -5 -55q-3 -32 -7 -65q-4 -33 -8.5 -62.5q-4.5 -29.5 -8.5 -47.5l-478 0l11 54q25 9 45.5 19.5q20.5 10.5 37 22.5q16.5 12 30 26.5q13.5 14.5 26.5 31.5q15 21 24.5 49q9.5 28 9.5 46q0 22 -2 36.5q-2 14.5 -7 28.5l-112 0z" />
<glyph unicode="&#164;" horiz-adv-x="560" d="M44 178l74 74l40 14q-13 17 -18 35.5q-5 18.5 -5 44.5q0 47 23 79l-40 15l-74 74l78 78l74 -74l15 -40q16 11 34.5 17q18.5 6 43.5 6q53 -1 81 -22l15 39l73 72l77 -77l-73 -73l-38 -14q9 -17 14 -36q5 -19 6 -45q1 -22 -4.5 -42q-5.5 -20 -15.5 -37l38 -14l73 -74l-78 -78l-73 73l-14 39q-15 -9 -36 -15q-21 -6 -44 -6q-26 1 -45 6.5q-19 5.5 -36 14.5l-13 -38l-74 -74zM289 263q36 1 60.5 24q24.5 23 24.5 59q0 36 -24.5 59.5q-24.5 23.5 -60.5 23.5q-36 1 -60.5 -23q-24.5 -24 -23.5 -60q-1 -36 23.5 -59t60.5 -24z" />
<glyph unicode="&#165;" horiz-adv-x="560" d="M472 700h241l-8 -38q-17 -10 -39.5 -18q-22.5 -8 -42.5 -11l-213 -291h117l-14 -65h-142l-13 -57h143l-14 -65h-142l-19 -88q19 -3 37 -11q18 -8 33 -18l-8 -38h-308l8 38q19 9 42 17q23 8 46 12l19 88h-143l14 65h142l13 57h-143l14 65h114l-100 291q-22 4 -41.5 12q-19.5 8 -33.5 17l8 38h327l-8 -38q-28 -15 -80 -29l72 -282l188 282q-22 5 -41 12.5q-19 7.5 -33 16.5z" />
<glyph unicode="&#166;" horiz-adv-x="235" d="M97 190h70v-320h-70zM167 380h-70v320l70 0z" />
<glyph unicode="&#167;" horiz-adv-x="566" d="M366 39q0 27 -21 45q-21 18 -52.5 31.5q-31.5 13.5 -68.5 27.5q-37 14 -68.5 33.5q-31.5 19.5 -52.5 48q-21 28.5 -21 73.5q0 49 39 84.5q39 35.5 97 58.5q-21 11 -39 24q-18 13 -32 29.5q-14 16.5 -22 37.5q-8 21 -8 48q0 30 13.5 54.5q13.5 24.5 38.5 41.5q25 17 59 26.5q34 9.5 76 9.5q54 0 97.5 -8q43.5 -8 79.5 -19q-4 -32 -10.5 -58.5q-6.5 -26.5 -18.5 -56.5l-34 0l-52 77q-12 5 -22.5 6.5q-10.5 1.5 -26.5 1.5q-34 0 -50 -17.5q-16 -17.5 -16 -39.5q0 -27 21.5 -45.5q21.5 -18.5 53.5 -34q32 -15.5 69.5 -31q37.5 -15.5 69.5 -36q32 -20.5 53.5 -49q21.5 -28.5 21.5 -69.5q0 -26 -11.5 -48q-11.5 -22 -29.5 -40.5q-18 -18.5 -40.5 -33q-22.5 -14.5 -44.5 -25.5q36 -20 61 -47q25 -27 25 -71q0 -70 -55 -110q-55 -40 -155 -40q-48 0 -96.5 10q-48.5 10 -86.5 28q2 36 12.5 60.5q10.5 24.5 26.5 53.5l34 0l59 -84q11 -8 22 -9.5q11 -1.5 23 -1.5q32 0 57 17q25 17 25 47zt0 0zM406 301q0 22 -11.5 39q-11.5 17 -30 30q-18.5 13 -43 23.5q-24.5 10.5 -50.5 21.5q-22 -16 -38.5 -39q-16.5 -23 -16.5 -48q0 -22 12 -38.5q12 -16.5 31.5 -29.5q19.5 -13 44.5 -23.5q25 -10.5 52 -21.5q20 17 35 40.5t15 45.5z" />
<glyph unicode="&#168;" horiz-adv-x="520" d="M175 659q0 32 20 51q20 19 53 19q32 0 52.5 -19q20.5 -19 20.5 -51q0 -30 -20.5 -49q-20.5 -19 -52.5 -19q-33 0 -53 19q-20 19 -20 49zt0 0zM394 659q0 32 20 51q20 19 52 19q33 0 53.5 -19q20.5 -19 20.5 -51q0 -30 -20.5 -49q-20.5 -19 -53.5 -19q-32 0 -52 19t-20 49z" />
<glyph unicode="&#169;" horiz-adv-x="813" d="M65 290q0 83 29.5 148.5q29.5 65.5 79 110.5q49.5 45 113 69q63.5 24 132.5 24q69 0 132.5 -24q63.5 -24 113 -69q49.5 -45 79 -110.5q29.5 -65.5 29.5 -148.5q0 -83 -29.5 -148.5q-29.5 -65.5 -79 -110.5q-49.5 -45 -113 -69q-63.5 -24 -132.5 -24q-72 0 -136.5 24q-64.5 24 -113 69q-48.5 45 -76.5 110.5q-28 65.5 -28 148.5zt0 0zM132 290q0 -67 23 -121q23 -54 62 -92q39 -38 91 -58.5q52 -20.5 111 -20.5q61 0 113.5 20.5q52.5 20.5 91 58.5q38.5 38 60.5 92q22 54 22 121q0 69 -24 123q-24 54 -63.5 91.5q-39.5 37.5 -91.5 57.5q-52 20 -108 20q-63 0 -115.5 -20.5q-52.5 -20.5 -90.5 -58.5q-38 -38 -59.5 -92q-21.5 -54 -21.5 -121zt0 0zM525 220h34q2 -8 4.5 -20.5q2.5 -12.5 4 -27.5q1.5 -15 2 -30q0.5 -15 -0.5 -27q-17 -14 -53 -23.5q-36 -9.5 -76 -9.5q-49 0 -89.5 13.5q-40.5 13.5 -70 40q-29.5 26.5 -46 65.5q-16.5 39 -16.5 90q0 52 18.5 91q18.5 39 48 65q29.5 26 67 39.5q37.5 13.5 75.5 13.5q48 0 83 -8.5q35 -8.5 56 -21.5q1 -9 0 -24q-1 -15 -3 -31.5q-2 -16.5 -4.5 -32.5q-2.5 -16 -5.5 -26l-34 0l-30 83q-7 5 -19 5.5q-12 0.5 -25 0.5q-45 0 -68.5 -38q-23.5 -38 -23.5 -116q0 -33 5.5 -61.5q5.5 -28.5 17.5 -49q12 -20.5 31 -32q19 -11.5 46 -11.5q16 0 28 2.5q12 2.5 16 6.5z" />
<glyph unicode="&#170;" horiz-adv-x="460" d="M269 475q-7 -14 -20 -31q-13 -17 -30.5 -31.5q-17.5 -14.5 -40 -24.5q-22.5 -10 -49.5 -10q-51 0 -77 30q-26 30 -26 81q0 51 18 92q18 41 48 70q30 29 68.5 44.5q38.5 15.5 79.5 15.5q24 0 47.5 -6q23.5 -6 40.5 -17l87 22l18 -10l-53 -255l50 -10l-1 -28q-20 -12 -57 -20.5q-37 -8.5 -69 -8.5q-23 0 -32 11.5q-9 11.5 -7 28.5l9 57zM187 446q12 0 26.5 8.5q14.5 8.5 27.5 21.5q13 13 24.5 28.5q11.5 15.5 17.5 28.5l21 102q-14 6 -25.5 11q-11.5 5 -26.5 5q-20 0 -38.5 -10q-18.5 -10 -33.5 -28.5q-15 -18.5 -24 -46.5q-9 -28 -9 -64q0 -26 10 -41t30 -15z" />
<glyph unicode="&#171;" horiz-adv-x="500" d="M254 259l225 222l35 -36l-150 -189l78 -179l-50 -36zM38 259l287 223l31 -36l-188 -191l116 -179l-47 -37z" />
<glyph unicode="&#172;" horiz-adv-x="560" d="M61 401h434v-216h-80v126l-354 0z" />
<glyph unicode="&#173;" horiz-adv-x="414" d="M83 327h287l-20 -90l-287 0z" />
<glyph unicode="&#174;" horiz-adv-x="700" d="M115 451q0 66 23 118q23 52 62 88q39 36 90 55q51 19 107 19q57 0 108.5 -19q51.5 -19 90 -55q38.5 -36 61 -88q22.5 -52 22.5 -118q0 -66 -23 -118q-23 -52 -62 -88q-39 -36 -90 -55q-51 -19 -107 -19q-57 0 -108.5 19q-51.5 19 -90 55q-38.5 36 -61 88q-22.5 52 -22.5 118zt0 0zM177 451q0 -52 17.5 -93.5q17.5 -41.5 47.5 -71q30 -29.5 70 -45q40 -15.5 85 -15.5q47 0 87.5 15.5q40.5 15.5 70 44.5q29.5 29 46 70.5q16.5 41.5 16.5 94.5q0 52 -17.5 93.5q-17.5 41.5 -47.5 70.5q-30 29 -70 45q-40 16 -85 16q-48 0 -88 -16q-40 -16 -69.5 -45q-29.5 -29 -46 -70.5q-16.5 -41.5 -16.5 -93.5zt0 0zM366 351q13 -1 20 -3.5q7 -2.5 14 -5.5l0 -33h-138v33q17 6 35 9l0 215q-11 1 -19 3.5q-8 2.5 -16 7.5l0 31h52q18 0 43 2q25 2 41 2q54 0 88 -19.5q34 -19.5 34 -64.5q0 -31 -19 -50.5q-19 -19.5 -47 -28.5q9 -15 16.5 -27q7.5 -12 15.5 -23.5q8 -11.5 18.5 -23q10.5 -11.5 24.5 -24.5l23 -12v-30h-64l-28 11q-25 30 -37.5 60q-12.5 30 -23.5 59l-33 0zM393 571q-11 0 -16 -0.5q-5 -0.5 -11 -2.5l0 -91h29q24 0 37 12q13 12 12 39q-1 23 -14.5 33t-36.5 10z" />
<glyph unicode="&#175;" horiz-adv-x="491" d="M194 619l15 70h294l-15 -70z" />
<glyph unicode="&#176;" horiz-adv-x="408" d="M122 571q0 31 11.5 57q11.5 26 31 44.5q19.5 18.5 46 29q26.5 10.5 55.5 10.5q29 0 55.5 -9q26.5 -9 46 -26.5q19.5 -17.5 31 -44q11.5 -26.5 11.5 -61.5q0 -33 -11.5 -59q-11.5 -26 -31 -44.5q-19.5 -18.5 -46 -28q-26.5 -9.5 -55.5 -9.5q-29 0 -55.5 9.5q-26.5 9.5 -46 28q-19.5 18.5 -31 44.5q-11.5 26 -11.5 59zt0 0zM191 571q0 -38 22.5 -59.5q22.5 -21.5 52.5 -21.5q32 0 53.5 20q21.5 20 21.5 61q0 39 -21.5 60q-21.5 21 -53.5 21q-33 0 -54 -21.5t-21 -59.5z" />
<glyph unicode="&#177;" horiz-adv-x="560" d="M65 504h185v196h80v-196h185v-80h-185v-132h-80v132h-185zM65 244h450v-80l-450 0z" />
<glyph unicode="&#178;" horiz-adv-x="440" d="M204 621h-27q-3 12 -6 32.5q-3 20.5 -5.5 42q-2.5 21.5 -4 40.5q-1.5 19 -0.5 29q39 23 79.5 35.5q40.5 12.5 98.5 12.5q80 0 113.5 -28.5q33.5 -28.5 33.5 -73.5q0 -36 -21 -69.5q-21 -33.5 -57.5 -64.5q-36.5 -31 -85 -59q-48.5 -28 -103.5 -52l0 -6l31 7h119l58 67h31q0 -17 -2 -39q-2 -22 -4.5 -43q-2.5 -21 -5.5 -38.5q-3 -17.5 -6 -27.5l-357 0l12 51q52 29 101 61q49 32 86.5 65q37.5 33 60.5 65.5q23 32.5 23 62.5q0 23 -13.5 35q-13.5 12 -43.5 12q-14 0 -28 -3q-14 -3 -26 -9z" />
<glyph unicode="&#179;" horiz-adv-x="440" d="M257 437q24 0 41.5 8q17.5 8 28 20.5q10.5 12.5 15.5 27.5q5 15 5 29q0 24 -13.5 38q-13.5 14 -56.5 14h-38l8 35l91 86l57 42v2l-63 -4h-71l-57 -83h-31q-2 13 -2.5 34q-0.5 21 0.5 43.5q1 22.5 2.5 43q1.5 20.5 3.5 31.5l332 0l-9 -45l-119 -101l-46 -31l-1 -1l32 4q43 -2 72 -25.5q29 -23.5 29 -69.5q0 -32 -11.5 -61q-11.5 -29 -38.5 -50.5q-27 -21.5 -70.5 -34q-43.5 -12.5 -106.5 -12.5q-20 0 -42.5 3.5q-22.5 3.5 -44 10q-21.5 6.5 -39.5 15q-18 8.5 -29 17.5l57 106h27q8 -13 16.5 -37.5q8.5 -24.5 14.5 -44.5q18 -10 57 -10z" />
<glyph unicode="&#180;" horiz-adv-x="532" d="M357 763q8 2 26.5 1.5q18.5 -0.5 38.5 -3.5q20 -3 36.5 -8.5q16.5 -5.5 21.5 -11.5l0 -24l-201 -155l-40 22z" />
<glyph unicode="&#181;" horiz-adv-x="622" d="M163 13l17 -174l-8 -39q-38 -8 -69.5 -8q-31.5 0 -58.5 8l133 629l-59 8l6 39q17 6 41.5 12q24.5 6 50.5 11q26 5 50 8.5q24 3.5 40 4.5l33 -6q-8 -37 -15.5 -70.5q-7.5 -33.5 -15.5 -67.5q-8 -34 -16 -69.5q-8 -35.5 -17 -76.5q-17 -82 -13.5 -118q3.5 -36 35.5 -36q31 0 71.5 40q40.5 40 73.5 115l47 234l151 49l-86 -436l69 -4l-6 -38q-23 -12 -58.5 -24q-35.5 -12 -67.5 -14q-10 -1 -18.5 -0.5q-8.5 0.5 -16.5 2.5l-49 19l24 143h-4q-35 -76 -86.5 -121q-51.5 -45 -112.5 -45q-20 0 -34.5 7q-14.5 7 -25.5 18z" />
<glyph unicode="&#182;" horiz-adv-x="547" d="M452 94q0 -67 -10 -110.5q-10 -43.5 -29.5 -70q-19.5 -26.5 -48 -40q-28.5 -13.5 -65.5 -21.5q-20 -29 -49.5 -43.5q-29.5 -14.5 -60.5 -20.5l-16 33q22 9 41.5 22.5q19.5 13.5 33.5 36q14 22.5 22.5 57.5q8.5 35 8.5 87v286q-32 0 -63.5 10q-31.5 10 -57 32.5q-25.5 22.5 -41.5 59q-16 36.5 -16 88.5q0 42 12.5 78.5q12.5 36.5 37 63.5q24.5 27 62.5 42.5q38 15.5 89 15.5h226v-43q-17 -8 -35 -14q-18 -6 -41 -10zM319 -111q41 13 55 64.5q14 51.5 14 140.5v544h-44v-614q0 -40 -5.5 -74.5t-19.5 -60.5z" />
<glyph unicode="&#183;" horiz-adv-x="235" d="M50 321q0 36 23 58q23 22 61 22q38 0 62 -22q24 -22 24 -58q0 -36 -24 -57.5q-24 -21.5 -62 -21.5q-38 0 -61 21.5t-23 57.5z" />
<glyph unicode="&#184;" horiz-adv-x="415" d="M155 -68q54 -3 75.5 -20.5q21.5 -17.5 22.5 -50.5q0 -31 -20 -53q-20 -22 -51.5 -36.5q-31.5 -14.5 -69.5 -21.5q-38 -7 -74 -7l0 39q17 3 33.5 8q16.5 5 29 12.5q12.5 7.5 20 17.5q7.5 10 7.5 23q-1 17 -11 28.5q-10 11.5 -42 14.5l61 115l62 0z" />
<glyph unicode="&#185;" horiz-adv-x="440" d="M415 386h-314l7 30q30 14 56.5 24q26.5 10 52.5 15l46 215l15 45q-13 -3 -28 -5q-15 -2 -30.5 -2.5q-15.5 -0.5 -30 0q-14.5 0.5 -26.5 1.5l9 42q48 6 100.5 24q52.5 18 93.5 38l40 0l-76 -358q51 -12 92 -39z" />
<glyph unicode="&#186;" horiz-adv-x="446" d="M26 504q0 43 18 81q18 38 49.5 66.5q31.5 28.5 74 44.5q42.5 16 91.5 16q76 0 118.5 -35.5q42.5 -35.5 42.5 -95.5q0 -50 -20 -88.5q-20 -38.5 -53 -65.5q-33 -27 -75 -41q-42 -14 -85 -14q-33 0 -62.5 9q-29.5 9 -51.5 26.5q-22 17.5 -34.5 42q-12.5 24.5 -12.5 54.5zt0 0zM145 492q0 -27 12.5 -48q12.5 -21 42.5 -21q18 0 36 11q18 11 33 32.5q15 21.5 24 54.5q9 33 9 78q0 23 -11.5 42.5q-11.5 19.5 -42.5 19.5q-18 0 -36.5 -12q-18.5 -12 -33 -34.5q-14.5 -22.5 -24 -53.5t-9.5 -69z" />
<glyph unicode="&#187;" horiz-adv-x="500" d="M286 262l-225 -222l-35 36l150 189l-78 179l50 36zM502 262l-287 -223l-31 36l188 191l-116 179l47 37z" />
<glyph unicode="&#188;" horiz-adv-x="953" d="M374 282h-314l7 30q30 14 56.5 24q26.5 10 52.5 15l46 215l15 45q-13 -3 -28 -5q-15 -2 -30.5 -2.5q-15.5 -0.5 -30 0q-14.5 0.5 -26.5 1.5l9 42q48 6 100.5 24q52.5 18 93.5 38l40 0l-76 -358q51 -12 92 -39zM841 715l48 -42l-665 -686l-47 43zM870 0h-245l7 30q17 9 37.5 17q20.5 8 41.5 12l12 54h-229l7 37l331 277h70l-54 -254h85l-13 -60h-85l-11 -54q14 -4 27.5 -11q13.5 -7 25.5 -18zM757 276l19 43h-3l-42 -43l-100 -87l-41 -23l55 7l90 0z" />
<glyph unicode="&#189;" horiz-adv-x="1026" d="M374 282h-314l7 30q30 14 56.5 24q26.5 10 52.5 15l46 215l15 45q-13 -3 -28 -5q-15 -2 -30.5 -2.5q-15.5 -0.5 -30 0q-14.5 0.5 -26.5 1.5l9 42q48 6 100.5 24q52.5 18 93.5 38l40 0l-76 -358q51 -12 92 -39zM835 715l48 -42l-665 -686l-47 43zM704 235h-27q-3 12 -6 32.5q-3 20.5 -5.5 42q-2.5 21.5 -4 40.5q-1.5 19 -0.5 29q39 23 79.5 35.5q40.5 12.5 98.5 12.5q80 0 113.5 -28.5q33.5 -28.5 33.5 -73.5q0 -36 -21 -69.5q-21 -33.5 -57.5 -64.5q-36.5 -31 -85 -59q-48.5 -28 -103.5 -52l0 -6l31 7h119l58 67h31q0 -17 -2 -39q-2 -22 -4.5 -43q-2.5 -21 -5.5 -38.5q-3 -17.5 -6 -27.5l-357 0l12 51q52 29 101 61q49 32 86.5 65q37.5 33 60.5 65.5q23 32.5 23 62.5q0 23 -13.5 35q-13.5 12 -43.5 12q-14 0 -28 -3q-14 -3 -26 -9z" />
<glyph unicode="&#190;" horiz-adv-x="975" d="M232 333q24 0 41.5 8q17.5 8 28 20.5q10.5 12.5 15.5 27.5q5 15 5 29q0 24 -13.5 38q-13.5 14 -56.5 14h-38l8 35l91 86l57 42v2l-63 -4h-71l-57 -83h-31q-2 13 -2.5 34q-0.5 21 0.5 43.5q1 22.5 2.5 43q1.5 20.5 3.5 31.5l332 0l-9 -45l-119 -101l-46 -31l-1 -1l32 4q43 -2 72 -25.5q29 -23.5 29 -69.5q0 -32 -11.5 -61q-11.5 -29 -38.5 -50.5q-27 -21.5 -70.5 -34q-43.5 -12.5 -106.5 -12.5q-20 0 -42.5 3.5q-22.5 3.5 -44 10q-21.5 6.5 -39.5 15q-18 8.5 -29 17.5l57 106h27q8 -13 16.5 -37.5q8.5 -24.5 14.5 -44.5q18 -10 57 -10zt0 0zM859 715l48 -42l-665 -686l-47 43zM894 0h-245l7 30q17 9 37.5 17q20.5 8 41.5 12l12 54h-229l7 37l331 277h70l-54 -254h85l-13 -60h-85l-11 -54q14 -4 27.5 -11q13.5 -7 25.5 -18zM781 276l19 43h-3l-42 -43l-100 -87l-41 -23l55 7l90 0z" />
<glyph unicode="&#191;" horiz-adv-x="486" d="M318 3h34q5 -20 12.5 -52.5q7.5 -32.5 9.5 -65.5q1 -11 0.5 -21.5q-0.5 -10.5 -1.5 -20.5q-42 -23 -92 -37q-50 -14 -115 -14q-89 0 -139.5 36q-50.5 36 -50.5 102q0 49 20.5 84q20.5 35 52 61.5q31.5 26.5 69 49q37.5 22.5 71 47.5q33.5 25 59 55.5q25.5 30.5 32.5 73.5l33 0q5 -48 -7 -85q-12 -37 -33 -67q-21 -30 -47.5 -55q-26.5 -25 -49.5 -50q-23 -25 -38.5 -51.5q-15.5 -26.5 -15.5 -58.5q0 -40 21.5 -58.5q21.5 -18.5 56.5 -18.5q48 0 67 14zM217 432q0 36 23 58q23 22 61 22q38 0 62 -22q24 -22 24 -58q0 -36 -24 -57.5q-24 -21.5 -62 -21.5q-38 0 -61 21.5t-23 57.5z" />
<glyph unicode="&#192;" horiz-adv-x="724" d="M205 0h-249l7 38q18 10 38 17.5q20 7.5 40 11.5l396 645h73l113 -645q19 -4 37.5 -12q18.5 -8 31.5 -17l-8 -38h-308l7 38q21 10 44.5 17.5q23.5 7.5 44.5 11.5l-24 159h-221l-95 -159q21 -3 42 -10.5q21 -7.5 38 -18.5zM261 291h179l-28 191v86h-2l-38 -88zM524 764l-34 -19l-236 96v20q3 9 21.5 16.5q18.5 7.5 42 13q23.5 5.5 46 8q22.5 2.5 33.5 -0.5z" />
<glyph unicode="&#193;" horiz-adv-x="724" d="M205 0h-249l7 38q18 10 38 17.5q20 7.5 40 11.5l396 645h73l113 -645q19 -4 37.5 -12q18.5 -8 31.5 -17l-8 -38h-308l7 38q21 10 44.5 17.5q23.5 7.5 44.5 11.5l-24 159h-221l-95 -159q21 -3 42 -10.5q21 -7.5 38 -18.5zM261 291h179l-28 191v86h-2l-38 -88zM575 898q16 1 36.5 -2q20.5 -3 40 -8.5q19.5 -5.5 35 -12.5q15.5 -7 21.5 -14l0 -20l-247 -96l-28 24z" />
<glyph unicode="&#194;" horiz-adv-x="724" d="M205 0h-249l7 38q18 10 38 17.5q20 7.5 40 11.5l396 645h73l113 -645q19 -4 37.5 -12q18.5 -8 31.5 -17l-8 -38h-308l7 38q21 10 44.5 17.5q23.5 7.5 44.5 11.5l-24 159h-221l-95 -159q21 -3 42 -10.5q21 -7.5 38 -18.5zM261 291h179l-28 191v86h-2l-38 -88zM338 743l-28 28l172 117q12 7 33 5q19 0 29 -5l80 -114l-28 -30l-104 56z" />
<glyph unicode="&#195;" horiz-adv-x="724" d="M205 0h-249l7 38q18 10 38 17.5q20 7.5 40 11.5l396 645h73l113 -645q19 -4 37.5 -12q18.5 -8 31.5 -17l-8 -38h-308l7 38q21 10 44.5 17.5q23.5 7.5 44.5 11.5l-24 159h-221l-95 -159q21 -3 42 -10.5q21 -7.5 38 -18.5zM261 291h179l-28 191v86h-2l-38 -88zM668 817q-32 -32 -60 -48.5q-28 -16.5 -64 -16.5q-19 0 -35.5 5.5q-16.5 5.5 -32.5 11.5q-16 6 -31 11.5q-15 5.5 -31 5.5q-14 0 -30.5 -5.5q-16.5 -5.5 -32.5 -19.5l-28 47q76 68 135 68q18 0 34.5 -5q16.5 -5 31.5 -11q15 -6 30 -11q15 -5 31 -5q13 0 29 4.5q16 4.5 32 15.5z" />
<glyph unicode="&#196;" horiz-adv-x="724" d="M205 0h-249l7 38q18 10 38 17.5q20 7.5 40 11.5l396 645h73l113 -645q19 -4 37.5 -12q18.5 -8 31.5 -17l-8 -38h-308l7 38q21 10 44.5 17.5q23.5 7.5 44.5 11.5l-24 159h-221l-95 -159q21 -3 42 -10.5q21 -7.5 38 -18.5zM261 291h179l-28 191v86h-2l-38 -88zM277 793q0 32 23 48q23 16 58 16q35 0 58 -16q23 -16 23 -48q0 -28 -23 -43.5q-23 -15.5 -58 -15.5q-35 0 -58 15.5q-23 15.5 -23 43.5zt0 0zM522 793q0 32 23.5 48q23.5 16 58.5 16q35 0 58 -16q23 -16 23 -48q0 -28 -23 -43.5q-23 -15.5 -58 -15.5q-35 0 -58.5 15.5t-23.5 43.5z" />
<glyph unicode="&#197;" horiz-adv-x="724" d="M356 777q0 21 11 39.5q11 18.5 31 32q20 13.5 48.5 21.5q28.5 8 63.5 8q48 0 77 -17q29 -17 29 -55q0 -38 -30.5 -64q-30.5 -26 -75.5 -33l113 -642q19 -4 37.5 -12q18.5 -8 31.5 -17l-8 -38h-308l7 38q21 10 44.5 17.5q23.5 7.5 44.5 11.5l-24 159h-221l-95 -159q21 -3 42 -10.5q21 -7.5 38 -18.5l-7 -38h-249l7 38q18 10 38 17.5q20 7.5 40 11.5l393 639q-78 9 -78 71zt0 0zM261 291h179l-28 191v86h-2l-38 -88zM439 785q0 -16 12.5 -23.5q12.5 -7.5 27.5 -7.5q24 0 39 11q15 11 15 27q0 20 -11 28q-11 8 -30 8q-23 0 -38 -11.5t-15 -31.5z" />
<glyph unicode="&#198;" horiz-adv-x="953" d="M1001 700q-10 -45 -25.5 -93q-15.5 -48 -32.5 -90l-42 0l-21 118h-187l-52 -245h123l60 77h31q-2 -24 -6.5 -52.5q-4.5 -28.5 -10.5 -57.5q-6 -29 -13.5 -57.5q-7.5 -28.5 -15.5 -53.5l-32 0l-27 79h-123l-55 -260h195l80 127h42q0 -19 -1.5 -43q-1.5 -24 -4 -49.5q-2.5 -25.5 -6.5 -51.5q-4 -26 -9 -48l-536 0l7 38q18 8 39.5 16q21.5 8 44.5 13l38 177h-182l-138 -177q38 -9 70 -29l-7 -38h-248l7 38q18 10 38 17.5q20 7.5 39 11.5l468 571q-14 5 -28 10.5q-14 5.5 -25 13.5l8 38zM329 309h147l64 285h-2l-54 -90z" />
<glyph unicode="&#199;" horiz-adv-x="652" d="M561 210h42q0 -16 -1 -38.5q-1 -22.5 -4 -48q-3 -25.5 -7 -50.5q-4 -25 -9 -45q-19 -10 -42 -17.5q-23 -7.5 -47 -12q-24 -4.5 -47 -7q-23 -2.5 -43 -3.5l-32 -55q55 -2 80 -21q25 -19 25 -54q0 -38 -25.5 -63q-25.5 -25 -61.5 -40q-36 -15 -76 -21q-40 -6 -69 -6l0 46q18 2 35.5 6q17.5 4 32 11q14.5 7 23 18.5q8.5 11.5 8.5 28.5q-1 18 -11 29q-10 11 -45 13l54 110q-77 7 -130.5 33.5q-53.5 26.5 -87.5 65.5q-34 39 -49 86q-15 47 -15 94q0 99 29 180.5q29 81.5 84.5 140q55.5 58.5 136 90.5q80.5 32 182.5 32q66 0 118.5 -9.5q52.5 -9.5 85.5 -25.5q-3 -16 -10 -41q-7 -25 -16 -52.5q-9 -27.5 -19 -54q-10 -26.5 -19 -44.5l-42 0l-23 151q-9 5 -30 8q-21 3 -42 3q-58 0 -106.5 -28q-48.5 -28 -84 -79q-35.5 -51 -55 -123.5q-19.5 -72.5 -19.5 -161.5q0 -56 16 -94.5q16 -38.5 41.5 -62.5q25.5 -24 56 -34.5q30.5 -10.5 59.5 -10.5q29 0 50 5.5q21 5.5 31 11.5z" />
<glyph unicode="&#200;" horiz-adv-x="602" d="M650 700q-10 -45 -25 -93q-15 -48 -33 -90l-42 0l-21 118h-187l-52 -245h123l60 77h31q-5 -49 -17.5 -109q-12.5 -60 -28.5 -112l-32 0l-27 79h-123l-54 -260h194l80 127h42q0 -18 -1.5 -42q-1.5 -24 -4 -50q-2.5 -26 -6.5 -52q-4 -26 -9 -48l-541 0l7 38q20 9 42.5 17q22.5 8 46.5 12l120 566q-20 4 -40 11.5q-20 7.5 -36 17.5l8 38zM485 764l-34 -19l-236 96v20q3 9 21.5 16.5q18.5 7.5 42 13q23.5 5.5 46 8q22.5 2.5 33.5 -0.5z" />
<glyph unicode="&#201;" horiz-adv-x="602" d="M650 700q-10 -45 -25 -93q-15 -48 -33 -90l-42 0l-21 118h-187l-52 -245h123l60 77h31q-5 -49 -17.5 -109q-12.5 -60 -28.5 -112l-32 0l-27 79h-123l-54 -260h194l80 127h42q0 -18 -1.5 -42q-1.5 -24 -4 -50q-2.5 -26 -6.5 -52q-4 -26 -9 -48l-541 0l7 38q20 9 42.5 17q22.5 8 46.5 12l120 566q-20 4 -40 11.5q-20 7.5 -36 17.5l8 38zM477 898q16 1 36.5 -2q20.5 -3 40 -8.5q19.5 -5.5 35 -12.5q15.5 -7 21.5 -14l0 -20l-247 -96l-28 24z" />
<glyph unicode="&#202;" horiz-adv-x="602" d="M650 700q-10 -45 -25 -93q-15 -48 -33 -90l-42 0l-21 118h-187l-52 -245h123l60 77h31q-5 -49 -17.5 -109q-12.5 -60 -28.5 -112l-32 0l-27 79h-123l-54 -260h194l80 127h42q0 -18 -1.5 -42q-1.5 -24 -4 -50q-2.5 -26 -6.5 -52q-4 -26 -9 -48l-541 0l7 38q20 9 42.5 17q22.5 8 46.5 12l120 566q-20 4 -40 11.5q-20 7.5 -36 17.5l8 38zM287 743l-28 28l172 117q12 7 33 5q19 0 29 -5l80 -114l-28 -30l-104 56z" />
<glyph unicode="&#203;" horiz-adv-x="602" d="M650 700q-10 -45 -25 -93q-15 -48 -33 -90l-42 0l-21 118h-187l-52 -245h123l60 77h31q-5 -49 -17.5 -109q-12.5 -60 -28.5 -112l-32 0l-27 79h-123l-54 -260h194l80 127h42q0 -18 -1.5 -42q-1.5 -24 -4 -50q-2.5 -26 -6.5 -52q-4 -26 -9 -48l-541 0l7 38q20 9 42.5 17q22.5 8 46.5 12l120 566q-20 4 -40 11.5q-20 7.5 -36 17.5l8 38zM208 793q0 32 23 48q23 16 58 16q35 0 58 -16q23 -16 23 -48q0 -28 -23 -43.5q-23 -15.5 -58 -15.5q-35 0 -58 15.5q-23 15.5 -23 43.5zt0 0zM453 793q0 32 23.5 48q23.5 16 58.5 16q35 0 58 -16q23 -16 23 -48q0 -28 -23 -43.5q-23 -15.5 -58 -15.5q-35 0 -58.5 15.5t-23.5 43.5z" />
<glyph unicode="&#204;" horiz-adv-x="369" d="M298 0h-312l7 38q47 22 88 29l120 566q-20 3 -39.5 10.5q-19.5 7.5 -35.5 18.5l8 38h312l-8 -38q-20 -11 -43.5 -18.5q-23.5 -7.5 -43.5 -10.5l-120 -566q19 -4 39 -11q20 -7 35 -18zM382 764l-34 -19l-236 96v20q3 9 21.5 16.5q18.5 7.5 42 13q23.5 5.5 46 8q22.5 2.5 33.5 -0.5z" />
<glyph unicode="&#205;" horiz-adv-x="369" d="M298 0h-312l7 38q47 22 88 29l120 566q-20 3 -39.5 10.5q-19.5 7.5 -35.5 18.5l8 38h312l-8 -38q-20 -11 -43.5 -18.5q-23.5 -7.5 -43.5 -10.5l-120 -566q19 -4 39 -11q20 -7 35 -18zM329 898q16 1 36.5 -2q20.5 -3 40 -8.5q19.5 -5.5 35 -12.5q15.5 -7 21.5 -14l0 -20l-247 -96l-28 24z" />
<glyph unicode="&#206;" horiz-adv-x="369" d="M298 0h-312l7 38q47 22 88 29l120 566q-20 3 -39.5 10.5q-19.5 7.5 -35.5 18.5l8 38h312l-8 -38q-20 -11 -43.5 -18.5q-23.5 -7.5 -43.5 -10.5l-120 -566q19 -4 39 -11q20 -7 35 -18zM159 743l-28 28l172 117q12 7 33 5q19 0 29 -5l80 -114l-28 -30l-104 56z" />
<glyph unicode="&#207;" horiz-adv-x="369" d="M298 0h-312l7 38q47 22 88 29l120 566q-20 3 -39.5 10.5q-19.5 7.5 -35.5 18.5l8 38h312l-8 -38q-20 -11 -43.5 -18.5q-23.5 -7.5 -43.5 -10.5l-120 -566q19 -4 39 -11q20 -7 35 -18zM94 793q0 32 23 48q23 16 58 16q35 0 58 -16q23 -16 23 -48q0 -28 -23 -43.5q-23 -15.5 -58 -15.5q-35 0 -58 15.5q-23 15.5 -23 43.5zt0 0zM339 793q0 32 23.5 48q23.5 16 58.5 16q35 0 58 -16q23 -16 23 -48q0 -28 -23 -43.5q-23 -15.5 -58 -15.5q-35 0 -58.5 15.5t-23.5 43.5z" />
<glyph unicode="&#208;" horiz-adv-x="734" d="M-24 0l7 38q19 10 42 17.5q23 7.5 47 11.5l55 262h-87l13 60h87l52 244q-23 5 -42.5 12.5q-19.5 7.5 -33.5 16.5l8 38h116q17 0 42.5 1q25.5 1 53 2.5q27.5 1.5 53 3q25.5 1.5 43.5 1.5q84 0 142.5 -18q58.5 -18 95 -51q36.5 -33 53 -78.5q16.5 -45.5 16.5 -100.5q0 -57 -10 -113.5q-10 -56.5 -33 -108.5q-23 -52 -59 -97q-36 -45 -88.5 -78.5q-52.5 -33.5 -121.5 -52.5q-69 -19 -158 -19q-13 0 -35.5 1.5q-22.5 1.5 -48.5 3q-26 1.5 -51.5 3q-25.5 1.5 -44.5 1.5zM409 643q-18 0 -38 -1q-20 -1 -34 -3l-54 -250h152l-13 -60h-151l-57 -269q15 -2 38 -3q23 -1 34 -1q81 0 136 38.5q55 38.5 89 99q34 60.5 48.5 134.5q14.5 74 14.5 145q0 41 -8 73q-8 32 -27 53.5q-19 21.5 -51 32.5t-79 11z" />
<glyph unicode="&#209;" horiz-adv-x="755" d="M595 700h247l-8 -38q-23 -17 -47 -27.5q-24 -10.5 -47 -16.5l-134 -630h-81l-248 510l-24 77h-3l-9 -80l-89 -417q18 -5 40.5 -16.5q22.5 -11.5 36.5 -23.5l-7 -38h-246l7 38q45 28 93 40l116 546q-17 7 -36.5 18q-19.5 11 -30.5 21l7 37h212l201 -416l30 -86h4l15 86l70 334q-22 8 -42.5 19.5q-20.5 11.5 -34.5 24.5zM657 817q-32 -32 -60 -48.5q-28 -16.5 -64 -16.5q-19 0 -35.5 5.5q-16.5 5.5 -32.5 11.5q-16 6 -31 11.5q-15 5.5 -31 5.5q-14 0 -30.5 -5.5q-16.5 -5.5 -32.5 -19.5l-28 47q76 68 135 68q18 0 34.5 -5q16.5 -5 31.5 -11q15 -6 30 -11q15 -5 31 -5q13 0 29 4.5q16 4.5 32 15.5z" />
<glyph unicode="&#210;" horiz-adv-x="751" d="M59 271q0 92 28.5 172.5q28.5 80.5 82 140q53.5 59.5 131 94q77.5 34.5 175.5 34.5q67 0 119 -19.5q52 -19.5 88 -56q36 -36.5 54.5 -88.5q18.5 -52 18.5 -117q0 -82 -25 -161.5q-25 -79.5 -76 -142q-51 -62.5 -127.5 -101q-76.5 -38.5 -179.5 -38.5q-69 0 -123 21.5q-54 21.5 -91 59.5q-37 38 -56 90q-19 52 -19 112zt0 0zM229 252q0 -100 37.5 -149.5q37.5 -49.5 101.5 -49.5q57 0 98 37q41 37 68 94.5q27 57.5 39.5 129q12.5 71.5 12.5 140.5q0 89 -30.5 141q-30.5 52 -100.5 52q-39 0 -70.5 -17.5q-31.5 -17.5 -57 -47.5q-25.5 -30 -44 -69.5q-18.5 -39.5 -30.5 -83.5q-12 -44 -18 -89.5q-6 -45.5 -6 -87.5zt0 0zM573 764l-34 -19l-236 96v20q3 9 21.5 16.5q18.5 7.5 42 13q23.5 5.5 46 8q22.5 2.5 33.5 -0.5z" />
<glyph unicode="&#211;" horiz-adv-x="751" d="M59 271q0 92 28.5 172.5q28.5 80.5 82 140q53.5 59.5 131 94q77.5 34.5 175.5 34.5q67 0 119 -19.5q52 -19.5 88 -56q36 -36.5 54.5 -88.5q18.5 -52 18.5 -117q0 -82 -25 -161.5q-25 -79.5 -76 -142q-51 -62.5 -127.5 -101q-76.5 -38.5 -179.5 -38.5q-69 0 -123 21.5q-54 21.5 -91 59.5q-37 38 -56 90q-19 52 -19 112zt0 0zM229 252q0 -100 37.5 -149.5q37.5 -49.5 101.5 -49.5q57 0 98 37q41 37 68 94.5q27 57.5 39.5 129q12.5 71.5 12.5 140.5q0 89 -30.5 141q-30.5 52 -100.5 52q-39 0 -70.5 -17.5q-31.5 -17.5 -57 -47.5q-25.5 -30 -44 -69.5q-18.5 -39.5 -30.5 -83.5q-12 -44 -18 -89.5q-6 -45.5 -6 -87.5zt0 0zM530 898q16 1 36.5 -2q20.5 -3 40 -8.5q19.5 -5.5 35 -12.5q15.5 -7 21.5 -14l0 -20l-247 -96l-28 24z" />
<glyph unicode="&#212;" horiz-adv-x="751" d="M59 271q0 92 28.5 172.5q28.5 80.5 82 140q53.5 59.5 131 94q77.5 34.5 175.5 34.5q67 0 119 -19.5q52 -19.5 88 -56q36 -36.5 54.5 -88.5q18.5 -52 18.5 -117q0 -82 -25 -161.5q-25 -79.5 -76 -142q-51 -62.5 -127.5 -101q-76.5 -38.5 -179.5 -38.5q-69 0 -123 21.5q-54 21.5 -91 59.5q-37 38 -56 90q-19 52 -19 112zt0 0zM229 252q0 -100 37.5 -149.5q37.5 -49.5 101.5 -49.5q57 0 98 37q41 37 68 94.5q27 57.5 39.5 129q12.5 71.5 12.5 140.5q0 89 -30.5 141q-30.5 52 -100.5 52q-39 0 -70.5 -17.5q-31.5 -17.5 -57 -47.5q-25.5 -30 -44 -69.5q-18.5 -39.5 -30.5 -83.5q-12 -44 -18 -89.5q-6 -45.5 -6 -87.5zt0 0zM352 743l-28 28l172 117q12 7 33 5q19 0 29 -5l80 -114l-28 -30l-104 56z" />
<glyph unicode="&#213;" horiz-adv-x="751" d="M59 271q0 92 28.5 172.5q28.5 80.5 82 140q53.5 59.5 131 94q77.5 34.5 175.5 34.5q67 0 119 -19.5q52 -19.5 88 -56q36 -36.5 54.5 -88.5q18.5 -52 18.5 -117q0 -82 -25 -161.5q-25 -79.5 -76 -142q-51 -62.5 -127.5 -101q-76.5 -38.5 -179.5 -38.5q-69 0 -123 21.5q-54 21.5 -91 59.5q-37 38 -56 90q-19 52 -19 112zt0 0zM229 252q0 -100 37.5 -149.5q37.5 -49.5 101.5 -49.5q57 0 98 37q41 37 68 94.5q27 57.5 39.5 129q12.5 71.5 12.5 140.5q0 89 -30.5 141q-30.5 52 -100.5 52q-39 0 -70.5 -17.5q-31.5 -17.5 -57 -47.5q-25.5 -30 -44 -69.5q-18.5 -39.5 -30.5 -83.5q-12 -44 -18 -89.5q-6 -45.5 -6 -87.5zt0 0zM662 817q-32 -32 -60 -48.5q-28 -16.5 -64 -16.5q-19 0 -35.5 5.5q-16.5 5.5 -32.5 11.5q-16 6 -31 11.5q-15 5.5 -31 5.5q-14 0 -30.5 -5.5q-16.5 -5.5 -32.5 -19.5l-28 47q76 68 135 68q18 0 34.5 -5q16.5 -5 31.5 -11q15 -6 30 -11q15 -5 31 -5q13 0 29 4.5q16 4.5 32 15.5z" />
<glyph unicode="&#214;" horiz-adv-x="751" d="M59 271q0 92 28.5 172.5q28.5 80.5 82 140q53.5 59.5 131 94q77.5 34.5 175.5 34.5q67 0 119 -19.5q52 -19.5 88 -56q36 -36.5 54.5 -88.5q18.5 -52 18.5 -117q0 -82 -25 -161.5q-25 -79.5 -76 -142q-51 -62.5 -127.5 -101q-76.5 -38.5 -179.5 -38.5q-69 0 -123 21.5q-54 21.5 -91 59.5q-37 38 -56 90q-19 52 -19 112zt0 0zM229 252q0 -100 37.5 -149.5q37.5 -49.5 101.5 -49.5q57 0 98 37q41 37 68 94.5q27 57.5 39.5 129q12.5 71.5 12.5 140.5q0 89 -30.5 141q-30.5 52 -100.5 52q-39 0 -70.5 -17.5q-31.5 -17.5 -57 -47.5q-25.5 -30 -44 -69.5q-18.5 -39.5 -30.5 -83.5q-12 -44 -18 -89.5q-6 -45.5 -6 -87.5zt0 0zM283 793q0 32 23 48q23 16 58 16q35 0 58 -16q23 -16 23 -48q0 -28 -23 -43.5q-23 -15.5 -58 -15.5q-35 0 -58 15.5q-23 15.5 -23 43.5zt0 0zM528 793q0 32 23.5 48q23.5 16 58.5 16q35 0 58 -16q23 -16 23 -48q0 -28 -23 -43.5q-23 -15.5 -58 -15.5q-35 0 -58.5 15.5t-23.5 43.5z" />
<glyph unicode="&#215;" horiz-adv-x="560" d="M101 213l131 131l-129 129l57 56l129 -128l130 130l57 -56l-131 -131l133 -133l-57 -57l-133 133l-130 -130z" />
<glyph unicode="&#216;" horiz-adv-x="751" d="M59 271q0 92 28.5 172.5q28.5 80.5 82 140q53.5 59.5 131 94q77.5 34.5 175.5 34.5q48 0 88 -10q40 -10 72 -29l38 45l50 -41l-37 -44q35 -37 52 -88q17 -51 17 -114q0 -82 -25 -161.5q-25 -79.5 -76 -142q-51 -62.5 -127.5 -101q-76.5 -38.5 -179.5 -38.5q-51 0 -93 12q-42 12 -75 33l-44 -51l-49 43l42 49q-35 38 -52.5 88q-17.5 50 -17.5 109zt0 0zM368 53q53 0 91 29.5q38 29.5 63.5 77.5q25.5 48 39.5 108q14 60 19 121q3 57 -8 109l-315 -372q34 -73 110 -73zt0 0zM455 647q-53 0 -92.5 -30.5q-39.5 -30.5 -67 -79q-27.5 -48.5 -42.5 -108q-15 -59.5 -19 -117.5q-3 -56 8 -105l315 373q-14 32 -39 49.5t-63 17.5z" />
<glyph unicode="&#217;" horiz-adv-x="715" d="M112 700h308l-8 -38q-36 -21 -82 -29l-79 -373q-20 -98 15 -142q35 -44 110 -44q70 0 117 40.5q47 40.5 68 138.5l79 375q-23 5 -45.5 14q-22.5 9 -35.5 20l8 38h248l-8 -38q-18 -13 -42.5 -21q-24.5 -8 -47.5 -13l-80 -376q-27 -129 -98.5 -195q-71.5 -66 -204.5 -66q-143 0 -200.5 75q-57.5 75 -29.5 205l76 362q-20 4 -41.5 11q-21.5 7 -34.5 18zM554 764l-34 -19l-236 96v20q3 9 21.5 16.5q18.5 7.5 42 13q23.5 5.5 46 8q22.5 2.5 33.5 -0.5z" />
<glyph unicode="&#218;" horiz-adv-x="715" d="M112 700h308l-8 -38q-36 -21 -82 -29l-79 -373q-20 -98 15 -142q35 -44 110 -44q70 0 117 40.5q47 40.5 68 138.5l79 375q-23 5 -45.5 14q-22.5 9 -35.5 20l8 38h248l-8 -38q-18 -13 -42.5 -21q-24.5 -8 -47.5 -13l-80 -376q-27 -129 -98.5 -195q-71.5 -66 -204.5 -66q-143 0 -200.5 75q-57.5 75 -29.5 205l76 362q-20 4 -41.5 11q-21.5 7 -34.5 18zM605 898q16 1 36.5 -2q20.5 -3 40 -8.5q19.5 -5.5 35 -12.5q15.5 -7 21.5 -14l0 -20l-247 -96l-28 24z" />
<glyph unicode="&#219;" horiz-adv-x="715" d="M112 700h308l-8 -38q-36 -21 -82 -29l-79 -373q-20 -98 15 -142q35 -44 110 -44q70 0 117 40.5q47 40.5 68 138.5l79 375q-23 5 -45.5 14q-22.5 9 -35.5 20l8 38h248l-8 -38q-18 -13 -42.5 -21q-24.5 -8 -47.5 -13l-80 -376q-27 -129 -98.5 -195q-71.5 -66 -204.5 -66q-143 0 -200.5 75q-57.5 75 -29.5 205l76 362q-20 4 -41.5 11q-21.5 7 -34.5 18zM358 743l-28 28l172 117q12 7 33 5q19 0 29 -5l80 -114l-28 -30l-104 56z" />
<glyph unicode="&#220;" horiz-adv-x="715" d="M112 700h308l-8 -38q-36 -21 -82 -29l-79 -373q-20 -98 15 -142q35 -44 110 -44q70 0 117 40.5q47 40.5 68 138.5l79 375q-23 5 -45.5 14q-22.5 9 -35.5 20l8 38h248l-8 -38q-18 -13 -42.5 -21q-24.5 -8 -47.5 -13l-80 -376q-27 -129 -98.5 -195q-71.5 -66 -204.5 -66q-143 0 -200.5 75q-57.5 75 -29.5 205l76 362q-20 4 -41.5 11q-21.5 7 -34.5 18zM298 793q0 32 23 48q23 16 58 16q35 0 58 -16q23 -16 23 -48q0 -28 -23 -43.5q-23 -15.5 -58 -15.5q-35 0 -58 15.5q-23 15.5 -23 43.5zt0 0zM543 793q0 32 23.5 48q23.5 16 58.5 16q35 0 58 -16q23 -16 23 -48q0 -28 -23 -43.5q-23 -15.5 -58 -15.5q-35 0 -58.5 15.5t-23.5 43.5z" />
<glyph unicode="&#221;" horiz-adv-x="695" d="M554 700h249l-8 -38q-17 -10 -37 -17.5q-20 -7.5 -40 -11.5l-267 -340l-48 -226q19 -3 37 -11q18 -8 33 -18l-8 -38h-308l8 38q19 9 42 17q23 8 46 12l48 225l-130 341q-22 4 -41.5 11.5q-19.5 7.5 -33.5 17.5l8 38h325l-8 -38q-14 -8 -34 -16q-20 -8 -46 -13l87 -269l191 269q-21 5 -40 12.5q-19 7.5 -33 16.5zM571 898q16 1 36.5 -2q20.5 -3 40 -8.5q19.5 -5.5 35 -12.5q15.5 -7 21.5 -14l0 -20l-247 -96l-28 24z" />
<glyph unicode="&#222;" horiz-adv-x="629" d="M221 63q26 -3 51.5 -11.5q25.5 -8.5 42.5 -18.5l-6 -33h-333l6 33q44 21 89 29l122 576q-20 3 -40 11q-20 8 -36 18l7 33h313l-7 -33q-20 -11 -43.5 -18.5q-23.5 -7.5 -43.5 -10.5l-9 -45q21 2 44.5 3.5q23.5 1.5 42.5 1.5q109 0 170 -40q61 -40 61 -124q0 -61 -24.5 -109.5q-24.5 -48.5 -68 -82.5q-43.5 -34 -104 -52q-60.5 -18 -131.5 -18q-5 0 -16 0q-11 0 -23.5 0.5q-12.5 0.5 -23.5 1q-11 0.5 -16 1.5zM375 533q-20 0 -32 -1.5q-12 -1.5 -23 -4.5l-62 -286q9 -3 27 -3.5q18 -0.5 29 -0.5q40 0 71.5 14q31.5 14 54 39.5q22.5 25.5 34.5 60q12 34.5 12 75.5q0 52 -24.5 79.5t-86.5 27.5z" />
<glyph unicode="&#223;" horiz-adv-x="661" d="M300 376q0 45 16.5 79q16.5 34 43.5 59q27 25 61.5 42q34.5 17 71.5 28q11 51 -12 81q-23 30 -71 30q-20 0 -42 -6q-22 -6 -41.5 -21.5q-19.5 -15.5 -35 -44q-15.5 -28.5 -22.5 -73.5l-84 -507q-10 -71 -41 -118q-31 -47 -68.5 -75.5q-37.5 -28.5 -75.5 -42.5q-38 -14 -62 -19l-11 34q12 6 30 19.5q18 13.5 36 37.5q18 24 33.5 59.5q15.5 35.5 23.5 85.5l63 413h-71v39q20 11 42.5 19.5q22.5 8.5 42.5 13.5l7 35q12 62 44.5 102.5q32.5 40.5 74.5 64q42 23.5 88.5 32.5q46.5 9 87.5 9q97 0 146 -35q49 -35 54 -95q1 -11 -0.5 -22.5q-1.5 -11.5 -3.5 -24.5q-31 -5 -63.5 -15.5q-32.5 -10.5 -59 -29.5q-26.5 -19 -43.5 -46q-17 -27 -17 -65q0 -24 12.5 -42.5q12.5 -18.5 30.5 -36q18 -17.5 40 -35.5q22 -18 40 -39q18 -21 30.5 -47q12.5 -26 12.5 -60q0 -38 -17 -69.5q-17 -31.5 -46.5 -54q-29.5 -22.5 -70.5 -35q-41 -12.5 -89 -12.5q-51 0 -86 9.5q-35 9.5 -55 23.5q0 31 12 59.5q12 28.5 36 45.5l86 -81q16 0 31.5 6.5q15.5 6.5 27.5 17q12 10.5 19 25q7 14.5 7 31.5q0 25 -12 44q-12 19 -30 36q-18 17 -39.5 33.5q-21.5 16.5 -39.5 36q-18 19.5 -30 44t-12 57.5z" />
<glyph unicode="&#224;" horiz-adv-x="563" d="M215 68q19 0 39.5 17q20.5 17 39 42.5q18.5 25.5 34 56q15.5 30.5 26.5 56.5l37 198q-12 8 -22.5 11.5q-10.5 3.5 -27.5 3.5q-40 0 -72 -26.5q-32 -26.5 -54 -69q-22 -42.5 -33.5 -95.5q-11.5 -53 -11.5 -106q0 -46 11 -67q11 -21 34 -21zt0 0zM339 159q-13 -32 -32.5 -62.5q-19.5 -30.5 -44.5 -54.5q-25 -24 -55 -39q-30 -15 -65 -15q-52 0 -83 38q-31 38 -31 113q0 78 21.5 145.5q21.5 67.5 61 118q39.5 50.5 95.5 79q56 28.5 125 28.5q26 0 44.5 -6q18.5 -6 39.5 -15q26 10 56 15q30 5 72 5l-84 -440h70v-34q-10 -8 -26.5 -16q-16.5 -8 -36 -14q-19.5 -6 -40 -10q-20.5 -4 -38.5 -4q-35 0 -50 15q-15 15 -15 31q0 18 5 47.5q5 29.5 15 74.5zM394 589l-45 -22l-166 145v29q6 6 26 11.5q20 5.5 42.5 8.5q22.5 3 42.5 3.5q20 0.5 27 -1.5z" />
<glyph unicode="&#225;" horiz-adv-x="563" d="M215 68q19 0 39.5 17q20.5 17 39 42.5q18.5 25.5 34 56q15.5 30.5 26.5 56.5l37 198q-12 8 -22.5 11.5q-10.5 3.5 -27.5 3.5q-40 0 -72 -26.5q-32 -26.5 -54 -69q-22 -42.5 -33.5 -95.5q-11.5 -53 -11.5 -106q0 -46 11 -67q11 -21 34 -21zt0 0zM339 159q-13 -32 -32.5 -62.5q-19.5 -30.5 -44.5 -54.5q-25 -24 -55 -39q-30 -15 -65 -15q-52 0 -83 38q-31 38 -31 113q0 78 21.5 145.5q21.5 67.5 61 118q39.5 50.5 95.5 79q56 28.5 125 28.5q26 0 44.5 -6q18.5 -6 39.5 -15q26 10 56 15q30 5 72 5l-84 -440h70v-34q-10 -8 -26.5 -16q-16.5 -8 -36 -14q-19.5 -6 -40 -10q-20.5 -4 -38.5 -4q-35 0 -50 15q-15 15 -15 31q0 18 5 47.5q5 29.5 15 74.5zM406 763q8 2 26.5 1.5q18.5 -0.5 38.5 -3.5q20 -3 36.5 -8.5q16.5 -5.5 21.5 -11.5l0 -24l-201 -155l-40 22z" />
<glyph unicode="&#226;" horiz-adv-x="563" d="M215 68q19 0 39.5 17q20.5 17 39 42.5q18.5 25.5 34 56q15.5 30.5 26.5 56.5l37 198q-12 8 -22.5 11.5q-10.5 3.5 -27.5 3.5q-40 0 -72 -26.5q-32 -26.5 -54 -69q-22 -42.5 -33.5 -95.5q-11.5 -53 -11.5 -106q0 -46 11 -67q11 -21 34 -21zt0 0zM339 159q-13 -32 -32.5 -62.5q-19.5 -30.5 -44.5 -54.5q-25 -24 -55 -39q-30 -15 -65 -15q-52 0 -83 38q-31 38 -31 113q0 78 21.5 145.5q21.5 67.5 61 118q39.5 50.5 95.5 79q56 28.5 125 28.5q26 0 44.5 -6q18.5 -6 39.5 -15q26 10 56 15q30 5 72 5l-84 -440h70v-34q-10 -8 -26.5 -16q-16.5 -8 -36 -14q-19.5 -6 -40 -10q-20.5 -4 -38.5 -4q-35 0 -50 15q-15 15 -15 31q0 18 5 47.5q5 29.5 15 74.5zM256 577l-42 25l160 186q3 3 10.5 4.5q7.5 1.5 15.5 1.5q17 0 26 -6l64 -185l-41 -26l-75 98z" />
<glyph unicode="&#227;" horiz-adv-x="563" d="M215 68q19 0 39.5 17q20.5 17 39 42.5q18.5 25.5 34 56q15.5 30.5 26.5 56.5l37 198q-12 8 -22.5 11.5q-10.5 3.5 -27.5 3.5q-40 0 -72 -26.5q-32 -26.5 -54 -69q-22 -42.5 -33.5 -95.5q-11.5 -53 -11.5 -106q0 -46 11 -67q11 -21 34 -21zt0 0zM339 159q-13 -32 -32.5 -62.5q-19.5 -30.5 -44.5 -54.5q-25 -24 -55 -39q-30 -15 -65 -15q-52 0 -83 38q-31 38 -31 113q0 78 21.5 145.5q21.5 67.5 61 118q39.5 50.5 95.5 79q56 28.5 125 28.5q26 0 44.5 -6q18.5 -6 39.5 -15q26 10 56 15q30 5 72 5l-84 -440h70v-34q-10 -8 -26.5 -16q-16.5 -8 -36 -14q-19.5 -6 -40 -10q-20.5 -4 -38.5 -4q-35 0 -50 15q-15 15 -15 31q0 18 5 47.5q5 29.5 15 74.5zM519 667q-30 -34 -62 -49.5q-32 -15.5 -55 -15.5q-18 0 -34 5.5q-16 5.5 -31 11.5q-15 6 -29.5 11.5q-14.5 5.5 -29.5 5.5q-13 0 -26.5 -4.5q-13.5 -4.5 -29.5 -15.5l-28 42q37 38 70.5 53q33.5 15 56.5 15q18 0 33.5 -5q15.5 -5 29.5 -11q14 -6 28.5 -11q14.5 -5 29.5 -5q13 0 26 2.5q13 2.5 29 12.5z" />
<glyph unicode="&#228;" horiz-adv-x="563" d="M215 68q19 0 39.5 17q20.5 17 39 42.5q18.5 25.5 34 56q15.5 30.5 26.5 56.5l37 198q-12 8 -22.5 11.5q-10.5 3.5 -27.5 3.5q-40 0 -72 -26.5q-32 -26.5 -54 -69q-22 -42.5 -33.5 -95.5q-11.5 -53 -11.5 -106q0 -46 11 -67q11 -21 34 -21zt0 0zM339 159q-13 -32 -32.5 -62.5q-19.5 -30.5 -44.5 -54.5q-25 -24 -55 -39q-30 -15 -65 -15q-52 0 -83 38q-31 38 -31 113q0 78 21.5 145.5q21.5 67.5 61 118q39.5 50.5 95.5 79q56 28.5 125 28.5q26 0 44.5 -6q18.5 -6 39.5 -15q26 10 56 15q30 5 72 5l-84 -440h70v-34q-10 -8 -26.5 -16q-16.5 -8 -36 -14q-19.5 -6 -40 -10q-20.5 -4 -38.5 -4q-35 0 -50 15q-15 15 -15 31q0 18 5 47.5q5 29.5 15 74.5zM174 659q0 32 20 51q20 19 53 19q32 0 52.5 -19q20.5 -19 20.5 -51q0 -30 -20.5 -49q-20.5 -19 -52.5 -19q-33 0 -53 19q-20 19 -20 49zt0 0zM393 659q0 32 20 51q20 19 52 19q33 0 53.5 -19q20.5 -19 20.5 -51q0 -30 -20.5 -49q-20.5 -19 -53.5 -19q-32 0 -52 19t-20 49z" />
<glyph unicode="&#229;" horiz-adv-x="563" d="M215 68q19 0 39.5 17q20.5 17 39 42.5q18.5 25.5 34 56q15.5 30.5 26.5 56.5l37 198q-12 8 -22.5 11.5q-10.5 3.5 -27.5 3.5q-40 0 -72 -26.5q-32 -26.5 -54 -69q-22 -42.5 -33.5 -95.5q-11.5 -53 -11.5 -106q0 -46 11 -67q11 -21 34 -21zt0 0zM339 159q-13 -32 -32.5 -62.5q-19.5 -30.5 -44.5 -54.5q-25 -24 -55 -39q-30 -15 -65 -15q-52 0 -83 38q-31 38 -31 113q0 78 21.5 145.5q21.5 67.5 61 118q39.5 50.5 95.5 79q56 28.5 125 28.5q26 0 44.5 -6q18.5 -6 39.5 -15q26 10 56 15q30 5 72 5l-84 -440h70v-34q-10 -8 -26.5 -16q-16.5 -8 -36 -14q-19.5 -6 -40 -10q-20.5 -4 -38.5 -4q-35 0 -50 15q-15 15 -15 31q0 18 5 47.5q5 29.5 15 74.5zM259 664q0 48 36 82q36 34 101 34q44 0 68.5 -23q24.5 -23 24.5 -58q0 -23 -9 -44q-9 -21 -26 -37q-17 -16 -41.5 -25q-24.5 -9 -55.5 -9q-47 0 -72.5 21.5q-25.5 21.5 -25.5 58.5zt0 0zM334 666q0 -15 8.5 -23.5q8.5 -8.5 21.5 -8.5q18 0 34 16.5q16 16.5 16 45.5q0 34 -28 34q-25 0 -38.5 -19t-13.5 -45z" />
<glyph unicode="&#230;" horiz-adv-x="781" d="M226 68q18 0 34 8q16 8 29.5 20.5q13.5 12.5 23.5 28.5q10 16 16 32q-1 19 0 40q1 21 3 38q-81 10 -124 -18.5q-43 -28.5 -43 -81.5q0 -34 17.5 -50.5q17.5 -16.5 43.5 -16.5zt0 0zM339 98q-24 -47 -71 -78.5q-47 -31.5 -106 -31.5q-67 0 -105 36q-38 36 -38 92q0 90 83 132.5q83 42.5 241 31.5q26 85 19 130q-7 45 -57 45q-27 0 -54 -10l-57 -105h-44q-13 22 -24 53q-11 31 -11 63q44 26 103 41q59 15 118 15q57 0 90.5 -15q33.5 -15 41.5 -36q29 23 68.5 37q39.5 14 88.5 14q60 0 99 -27.5q39 -27.5 39 -75.5q0 -68 -67 -112q-67 -44 -219 -55q-2 -14 -3.5 -28.5q-1.5 -14.5 -1.5 -27.5q0 -57 29 -87.5q29 -30.5 74 -30.5q19 0 38 6q19 6 36 16q17 10 31.5 21.5q14.5 11.5 25.5 22.5l24 -25q-11 -20 -32 -41.5q-21 -21.5 -49 -39q-28 -17.5 -62 -29q-34 -11.5 -71 -11.5q-136 0 -176 110zM602 455q-33 0 -64.5 -37q-31.5 -37 -53.5 -125q75 2 120.5 33q45.5 31 45.5 81q0 20 -11 34t-37 14z" />
<glyph unicode="&#231;" horiz-adv-x="445" d="M412 109q-12 -19 -29.5 -38q-17.5 -19 -40.5 -35.5q-23 -16.5 -50.5 -28.5q-27.5 -12 -58.5 -17l-36 -58q54 -3 75.5 -20.5q21.5 -17.5 22.5 -50.5q0 -31 -20 -53q-20 -22 -51.5 -36.5q-31.5 -14.5 -70 -21.5q-38.5 -7 -73.5 -7l0 39q17 3 33.5 8q16.5 5 29 12.5q12.5 7.5 20 17.5q7.5 10 7.5 23q-1 17 -11 28.5q-10 11.5 -42 14.5l55 104q-68 8 -106.5 53.5q-38.5 45.5 -38.5 122.5q0 70 21.5 133q21.5 63 60.5 110.5q39 47.5 94.5 75q55.5 27.5 123.5 27.5q45 0 78.5 -9.5q33.5 -9.5 44.5 -22.5q1 -11 -3.5 -27.5q-4.5 -16.5 -13.5 -33q-9 -16.5 -21.5 -31q-12.5 -14.5 -25.5 -20.5l-61 87q-27 0 -54.5 -18.5q-27.5 -18.5 -49.5 -53q-22 -34.5 -36 -83q-14 -48.5 -14 -109.5q0 -61 25 -89.5q25 -28.5 67 -28.5q20 0 38.5 6.5q18.5 6.5 34.5 15.5q16 9 29.5 19.5q13.5 10.5 23.5 19.5z" />
<glyph unicode="&#232;" horiz-adv-x="472" d="M429 109q-11 -20 -32 -41.5q-21 -21.5 -49 -39q-28 -17.5 -62 -29q-34 -11.5 -71 -11.5q-89 0 -138.5 48.5q-49.5 48.5 -49.5 137.5q0 69 22 130q22 61 61.5 107.5q39.5 46.5 94 73.5q54.5 27 119.5 27q60 0 99 -27.5q39 -27.5 39 -75.5q0 -68 -67.5 -112q-67.5 -44 -218.5 -55q-3 -14 -4.5 -28.5q-1.5 -14.5 -1.5 -27.5q0 -57 29 -87.5q29 -30.5 74 -30.5q19 0 38 6q19 6 36.5 16q17.5 10 32 21.5q14.5 11.5 25.5 22.5zM301 455q-34 0 -65.5 -37q-31.5 -37 -52.5 -125q74 2 119.5 33q45.5 31 45.5 81q0 20 -10.5 34q-10.5 14 -36.5 14zt0 0zM386 589l-45 -22l-166 145v29q6 6 26 11.5q20 5.5 42.5 8.5q22.5 3 42.5 3.5q20 0.5 27 -1.5z" />
<glyph unicode="&#233;" horiz-adv-x="472" d="M429 109q-11 -20 -32 -41.5q-21 -21.5 -49 -39q-28 -17.5 -62 -29q-34 -11.5 -71 -11.5q-89 0 -138.5 48.5q-49.5 48.5 -49.5 137.5q0 69 22 130q22 61 61.5 107.5q39.5 46.5 94 73.5q54.5 27 119.5 27q60 0 99 -27.5q39 -27.5 39 -75.5q0 -68 -67.5 -112q-67.5 -44 -218.5 -55q-3 -14 -4.5 -28.5q-1.5 -14.5 -1.5 -27.5q0 -57 29 -87.5q29 -30.5 74 -30.5q19 0 38 6q19 6 36.5 16q17.5 10 32 21.5q14.5 11.5 25.5 22.5zM301 455q-34 0 -65.5 -37q-31.5 -37 -52.5 -125q74 2 119.5 33q45.5 31 45.5 81q0 20 -10.5 34q-10.5 14 -36.5 14zt0 0zM373 763q8 2 26.5 1.5q18.5 -0.5 38.5 -3.5q20 -3 36.5 -8.5q16.5 -5.5 21.5 -11.5l0 -24l-201 -155l-40 22z" />
<glyph unicode="&#234;" horiz-adv-x="472" d="M429 109q-11 -20 -32 -41.5q-21 -21.5 -49 -39q-28 -17.5 -62 -29q-34 -11.5 -71 -11.5q-89 0 -138.5 48.5q-49.5 48.5 -49.5 137.5q0 69 22 130q22 61 61.5 107.5q39.5 46.5 94 73.5q54.5 27 119.5 27q60 0 99 -27.5q39 -27.5 39 -75.5q0 -68 -67.5 -112q-67.5 -44 -218.5 -55q-3 -14 -4.5 -28.5q-1.5 -14.5 -1.5 -27.5q0 -57 29 -87.5q29 -30.5 74 -30.5q19 0 38 6q19 6 36.5 16q17.5 10 32 21.5q14.5 11.5 25.5 22.5zM301 455q-34 0 -65.5 -37q-31.5 -37 -52.5 -125q74 2 119.5 33q45.5 31 45.5 81q0 20 -10.5 34q-10.5 14 -36.5 14zt0 0zM223 577l-42 25l160 186q3 3 10.5 4.5q7.5 1.5 15.5 1.5q17 0 26 -6l64 -185l-41 -26l-75 98z" />
<glyph unicode="&#235;" horiz-adv-x="472" d="M429 109q-11 -20 -32 -41.5q-21 -21.5 -49 -39q-28 -17.5 -62 -29q-34 -11.5 -71 -11.5q-89 0 -138.5 48.5q-49.5 48.5 -49.5 137.5q0 69 22 130q22 61 61.5 107.5q39.5 46.5 94 73.5q54.5 27 119.5 27q60 0 99 -27.5q39 -27.5 39 -75.5q0 -68 -67.5 -112q-67.5 -44 -218.5 -55q-3 -14 -4.5 -28.5q-1.5 -14.5 -1.5 -27.5q0 -57 29 -87.5q29 -30.5 74 -30.5q19 0 38 6q19 6 36.5 16q17.5 10 32 21.5q14.5 11.5 25.5 22.5zM301 455q-34 0 -65.5 -37q-31.5 -37 -52.5 -125q74 2 119.5 33q45.5 31 45.5 81q0 20 -10.5 34q-10.5 14 -36.5 14zt0 0zM138 659q0 32 20 51q20 19 53 19q32 0 52.5 -19q20.5 -19 20.5 -51q0 -30 -20.5 -49q-20.5 -19 -52.5 -19q-33 0 -53 19q-20 19 -20 49zt0 0zM357 659q0 32 20 51q20 19 52 19q33 0 53.5 -19q20.5 -19 20.5 -51q0 -30 -20.5 -49q-20.5 -19 -53.5 -19q-32 0 -52 19t-20 49z" />
<glyph unicode="&#236;" horiz-adv-x="304" d="M59 442v34q15 6 40 12.5q25 6.5 53 11.5q28 5 55.5 8.5q27.5 3.5 48.5 3.5l18 -12l-90 -431h70v-34q-13 -9 -30.5 -17q-17.5 -8 -37 -14q-19.5 -6 -39.5 -9.5q-20 -3.5 -38 -3.5q-38 0 -52.5 14.5q-14.5 14.5 -14.5 31.5q0 20 3 39q3 19 8 42l68 310zM262 589l-45 -22l-166 145v29q6 6 26 11.5q20 5.5 42.5 8.5q22.5 3 42.5 3.5q20 0.5 27 -1.5z" />
<glyph unicode="&#237;" horiz-adv-x="304" d="M59 442v34q15 6 40 12.5q25 6.5 53 11.5q28 5 55.5 8.5q27.5 3.5 48.5 3.5l18 -12l-90 -431h70v-34q-13 -9 -30.5 -17q-17.5 -8 -37 -14q-19.5 -6 -39.5 -9.5q-20 -3.5 -38 -3.5q-38 0 -52.5 14.5q-14.5 14.5 -14.5 31.5q0 20 3 39q3 19 8 42l68 310zM264 763q8 2 26.5 1.5q18.5 -0.5 38.5 -3.5q20 -3 36.5 -8.5q16.5 -5.5 21.5 -11.5l0 -24l-201 -155l-40 22z" />
<glyph unicode="&#238;" horiz-adv-x="304" d="M59 442v34q15 6 40 12.5q25 6.5 53 11.5q28 5 55.5 8.5q27.5 3.5 48.5 3.5l18 -12l-90 -431h70v-34q-13 -9 -30.5 -17q-17.5 -8 -37 -14q-19.5 -6 -39.5 -9.5q-20 -3.5 -38 -3.5q-38 0 -52.5 14.5q-14.5 14.5 -14.5 31.5q0 20 3 39q3 19 8 42l68 310zM122 577l-42 25l160 186q3 3 10.5 4.5q7.5 1.5 15.5 1.5q17 0 26 -6l64 -185l-41 -26l-75 98z" />
<glyph unicode="&#239;" horiz-adv-x="304" d="M58 442v34q15 6 40 12.5q25 6.5 53 11.5q28 5 55.5 8.5q27.5 3.5 48.5 3.5l18 -12l-90 -431h70v-34q-13 -9 -30.5 -17q-17.5 -8 -37 -14q-19.5 -6 -39.5 -9.5q-20 -3.5 -38 -3.5q-38 0 -52.5 14.5q-14.5 14.5 -14.5 31.5q0 20 3 39q3 19 8 42l68 310zM34 659q0 32 20 51q20 19 53 19q32 0 52.5 -19q20.5 -19 20.5 -51q0 -30 -20.5 -49q-20.5 -19 -52.5 -19q-33 0 -53 19q-20 19 -20 49zt0 0zM253 659q0 32 20 51q20 19 52 19q33 0 53.5 -19q20.5 -19 20.5 -51q0 -30 -20.5 -49q-20.5 -19 -53.5 -19q-32 0 -52 19t-20 49z" />
<glyph unicode="&#240;" horiz-adv-x="530" d="M240 614l94 40q-19 25 -43.5 42q-24.5 17 -52.5 26l0 28h127q17 -6 36.5 -19.5q19.5 -13.5 39.5 -34.5l95 40l23 -53l-83 -36q20 -34 32 -79.5q12 -45.5 12 -105.5q0 -100 -23.5 -186.5q-23.5 -86.5 -66.5 -150.5q-43 -64 -104 -100.5q-61 -36.5 -135 -36.5q-37 0 -68.5 12.5q-31.5 12.5 -54 35.5q-22.5 23 -35 57q-12.5 34 -12.5 78q0 72 23.5 133.5q23.5 61.5 63.5 106q40 44.5 93 70q53 25.5 111 25.5q20 0 40 -4q20 -4 31 -12q0 32 -5.5 60q-5.5 28 -15.5 51l-98 -41zM315 449q-41 0 -70 -28q-29 -28 -47 -71.5q-18 -43.5 -26.5 -95.5q-8.5 -52 -8.5 -100q0 -22 3 -42q3 -20 9.5 -35q6.5 -15 18.5 -23.5q12 -8.5 30 -8.5q30 0 57 30.5q27 30.5 48 83q21 52.5 34 122.5q13 70 15 150q-15 10 -31 14t-32 4z" />
<glyph unicode="&#241;" horiz-adv-x="588" d="M384 285q7 31 12.5 55q5.5 24 5.5 50q0 17 -7.5 29.5q-7.5 12.5 -26.5 12.5q-19 0 -39.5 -14.5q-20.5 -14.5 -40 -36q-19.5 -21.5 -36 -47.5q-16.5 -26 -26.5 -48l-60 -286h-138l86 429l-59 13l2 34q14 7 36 13.5q22 6.5 48 11.5q26 5 53.5 8q27.5 3 52.5 3l20 -12l-31 -146h5q18 33 42 62q24 29 51 50q27 21 57 33.5q30 12.5 61 12.5q42 0 66 -27q24 -27 24 -72q0 -23 -5 -52.5q-5 -29.5 -12 -58.5l-55 -233h72v-34q-10 -8 -26.5 -16q-16.5 -8 -36 -14q-19.5 -6 -40.5 -10q-21 -4 -40 -4q-34 0 -49.5 13q-15.5 13 -15.5 30q0 21 5 45q5 24 10 46zM527 667q-30 -34 -62 -49.5q-32 -15.5 -55 -15.5q-18 0 -34 5.5q-16 5.5 -31 11.5q-15 6 -29.5 11.5q-14.5 5.5 -29.5 5.5q-13 0 -26.5 -4.5q-13.5 -4.5 -29.5 -15.5l-28 42q37 38 70.5 53q33.5 15 56.5 15q18 0 33.5 -5q15.5 -5 29.5 -11q14 -6 28.5 -11q14.5 -5 29.5 -5q13 0 26 2.5q13 2.5 29 12.5z" />
<glyph unicode="&#242;" horiz-adv-x="549" d="M29 192q0 54 18 110.5q18 56.5 55 103q37 46.5 93.5 76.5q56.5 30 132.5 30q90 0 141 -49q51 -49 51 -146q0 -66 -20 -125.5q-20 -59.5 -58 -105q-38 -45.5 -92.5 -72q-54.5 -26.5 -124.5 -26.5q-42 0 -78 12.5q-36 12.5 -62.5 38q-26.5 25.5 -41 63.5q-14.5 38 -14.5 90zt0 0zM311 455q-40 0 -66.5 -30q-26.5 -30 -43 -75.5q-16.5 -45.5 -23.5 -98.5q-7 -53 -7 -98q0 -51 19.5 -79.5q19.5 -28.5 53.5 -28.5q29 0 53.5 24.5q24.5 24.5 42.5 66q18 41.5 28 95q10 53.5 10 111.5q0 55 -17.5 84q-17.5 29 -49.5 29zt0 0zM390 589l-45 -22l-166 145v29q6 6 26 11.5q20 5.5 42.5 8.5q22.5 3 42.5 3.5q20 0.5 27 -1.5z" />
<glyph unicode="&#243;" horiz-adv-x="549" d="M29 192q0 54 18 110.5q18 56.5 55 103q37 46.5 93.5 76.5q56.5 30 132.5 30q90 0 141 -49q51 -49 51 -146q0 -66 -20 -125.5q-20 -59.5 -58 -105q-38 -45.5 -92.5 -72q-54.5 -26.5 -124.5 -26.5q-42 0 -78 12.5q-36 12.5 -62.5 38q-26.5 25.5 -41 63.5q-14.5 38 -14.5 90zt0 0zM311 455q-40 0 -66.5 -30q-26.5 -30 -43 -75.5q-16.5 -45.5 -23.5 -98.5q-7 -53 -7 -98q0 -51 19.5 -79.5q19.5 -28.5 53.5 -28.5q29 0 53.5 24.5q24.5 24.5 42.5 66q18 41.5 28 95q10 53.5 10 111.5q0 55 -17.5 84q-17.5 29 -49.5 29zt0 0zM387 763q8 2 26.5 1.5q18.5 -0.5 38.5 -3.5q20 -3 36.5 -8.5q16.5 -5.5 21.5 -11.5l0 -24l-201 -155l-40 22z" />
<glyph unicode="&#244;" horiz-adv-x="549" d="M29 192q0 54 18 110.5q18 56.5 55 103q37 46.5 93.5 76.5q56.5 30 132.5 30q90 0 141 -49q51 -49 51 -146q0 -66 -20 -125.5q-20 -59.5 -58 -105q-38 -45.5 -92.5 -72q-54.5 -26.5 -124.5 -26.5q-42 0 -78 12.5q-36 12.5 -62.5 38q-26.5 25.5 -41 63.5q-14.5 38 -14.5 90zt0 0zM311 455q-40 0 -66.5 -30q-26.5 -30 -43 -75.5q-16.5 -45.5 -23.5 -98.5q-7 -53 -7 -98q0 -51 19.5 -79.5q19.5 -28.5 53.5 -28.5q29 0 53.5 24.5q24.5 24.5 42.5 66q18 41.5 28 95q10 53.5 10 111.5q0 55 -17.5 84q-17.5 29 -49.5 29zt0 0zM240 577l-42 25l160 186q3 3 10.5 4.5q7.5 1.5 15.5 1.5q17 0 26 -6l64 -185l-41 -26l-75 98z" />
<glyph unicode="&#245;" horiz-adv-x="549" d="M29 192q0 54 18 110.5q18 56.5 55 103q37 46.5 93.5 76.5q56.5 30 132.5 30q90 0 141 -49q51 -49 51 -146q0 -66 -20 -125.5q-20 -59.5 -58 -105q-38 -45.5 -92.5 -72q-54.5 -26.5 -124.5 -26.5q-42 0 -78 12.5q-36 12.5 -62.5 38q-26.5 25.5 -41 63.5q-14.5 38 -14.5 90zt0 0zM311 455q-40 0 -66.5 -30q-26.5 -30 -43 -75.5q-16.5 -45.5 -23.5 -98.5q-7 -53 -7 -98q0 -51 19.5 -79.5q19.5 -28.5 53.5 -28.5q29 0 53.5 24.5q24.5 24.5 42.5 66q18 41.5 28 95q10 53.5 10 111.5q0 55 -17.5 84q-17.5 29 -49.5 29zt0 0zM514 667q-30 -34 -62 -49.5q-32 -15.5 -55 -15.5q-18 0 -34 5.5q-16 5.5 -31 11.5q-15 6 -29.5 11.5q-14.5 5.5 -29.5 5.5q-13 0 -26.5 -4.5q-13.5 -4.5 -29.5 -15.5l-28 42q37 38 70.5 53q33.5 15 56.5 15q18 0 33.5 -5q15.5 -5 29.5 -11q14 -6 28.5 -11q14.5 -5 29.5 -5q13 0 26 2.5q13 2.5 29 12.5z" />
<glyph unicode="&#246;" horiz-adv-x="549" d="M29 192q0 54 18 110.5q18 56.5 55 103q37 46.5 93.5 76.5q56.5 30 132.5 30q90 0 141 -49q51 -49 51 -146q0 -66 -20 -125.5q-20 -59.5 -58 -105q-38 -45.5 -92.5 -72q-54.5 -26.5 -124.5 -26.5q-42 0 -78 12.5q-36 12.5 -62.5 38q-26.5 25.5 -41 63.5q-14.5 38 -14.5 90zt0 0zM311 455q-40 0 -66.5 -30q-26.5 -30 -43 -75.5q-16.5 -45.5 -23.5 -98.5q-7 -53 -7 -98q0 -51 19.5 -79.5q19.5 -28.5 53.5 -28.5q29 0 53.5 24.5q24.5 24.5 42.5 66q18 41.5 28 95q10 53.5 10 111.5q0 55 -17.5 84q-17.5 29 -49.5 29zt0 0zM150 659q0 32 20 51q20 19 53 19q32 0 52.5 -19q20.5 -19 20.5 -51q0 -30 -20.5 -49q-20.5 -19 -52.5 -19q-33 0 -53 19q-20 19 -20 49zt0 0zM369 659q0 32 20 51q20 19 52 19q33 0 53.5 -19q20.5 -19 20.5 -51q0 -30 -20.5 -49q-20.5 -19 -53.5 -19q-32 0 -52 19t-20 49z" />
<glyph unicode="&#247;" horiz-adv-x="560" d="M65 386h450v-80h-450zM205 536q0 36 23 58q23 22 61 22q38 0 62 -22q24 -22 24 -58q0 -36 -24 -57.5q-24 -21.5 -62 -21.5q-38 0 -61 21.5q-23 21.5 -23 57.5zt0 0zM205 155q0 36 23 58q23 22 61 22q38 0 62 -22q24 -22 24 -58q0 -36 -24 -57.5q-24 -21.5 -62 -21.5q-38 0 -61 21.5t-23 57.5z" />
<glyph unicode="&#248;" horiz-adv-x="549" d="M29 192q0 54 18 110.5q18 56.5 55 103q37 46.5 93.5 76.5q56.5 30 132.5 30q69 0 116 -32l66 73l48 -41l-69 -76q31 -48 31 -119q0 -66 -20 -125.5q-20 -59.5 -58 -105q-38 -45.5 -92.5 -72q-54.5 -26.5 -124.5 -26.5q-72 0 -119 34l-73 -80l-46 42l75 82q-33 50 -33 126zt0 0zM244 45q25 0 46.5 19q21.5 19 37.5 50.5q16 31.5 26.5 73q10.5 41.5 14.5 86.5q2 10 3 20q1 10 2 21l-194 -214q15 -56 64 -56zt0 0zM311 455q-35 0 -59 -22q-24 -22 -39.5 -56q-15.5 -34 -23.5 -75q-8 -41 -11 -79q-2 -10 -2.5 -19q-0.5 -9 -1.5 -19l195 215q-15 55 -58 55z" />
<glyph unicode="&#249;" horiz-adv-x="585" d="M546 69v-34q-10 -8 -26.5 -16q-16.5 -8 -36 -14q-19.5 -6 -41 -10q-21.5 -4 -42.5 -4q-36 0 -49.5 14.5q-13.5 14.5 -13.5 30.5q0 18 4 50q4 32 16 74l-4 0q-13 -24 -33 -54q-20 -30 -47 -56.5q-27 -26.5 -62 -44q-35 -17.5 -77 -17.5q-41 0 -66.5 24.5q-25.5 24.5 -25.5 69.5q0 22 6.5 63q6.5 41 16 89.5q9.5 48.5 21 100q11.5 51.5 20.5 94.5l-59 13v34q16 6 40 12q24 6 50 11q26 5 53 8.5q27 3.5 49 4.5l22 -12q-16 -75 -32.5 -142.5q-16.5 -67.5 -30.5 -142.5q-5 -24 -10.5 -53q-5.5 -29 -5.5 -58q0 -18 9.5 -27q9.5 -9 23.5 -9q25 0 49.5 19.5q24.5 19.5 45 47q20.5 27.5 36 56.5q15.5 29 22.5 48l52 261h135l-79 -431zM398 589l-45 -22l-166 145v29q6 6 26 11.5q20 5.5 42.5 8.5q22.5 3 42.5 3.5q20 0.5 27 -1.5z" />
<glyph unicode="&#250;" horiz-adv-x="585" d="M546 69v-34q-10 -8 -26.5 -16q-16.5 -8 -36 -14q-19.5 -6 -41 -10q-21.5 -4 -42.5 -4q-36 0 -49.5 14.5q-13.5 14.5 -13.5 30.5q0 18 4 50q4 32 16 74l-4 0q-13 -24 -33 -54q-20 -30 -47 -56.5q-27 -26.5 -62 -44q-35 -17.5 -77 -17.5q-41 0 -66.5 24.5q-25.5 24.5 -25.5 69.5q0 22 6.5 63q6.5 41 16 89.5q9.5 48.5 21 100q11.5 51.5 20.5 94.5l-59 13v34q16 6 40 12q24 6 50 11q26 5 53 8.5q27 3.5 49 4.5l22 -12q-16 -75 -32.5 -142.5q-16.5 -67.5 -30.5 -142.5q-5 -24 -10.5 -53q-5.5 -29 -5.5 -58q0 -18 9.5 -27q9.5 -9 23.5 -9q25 0 49.5 19.5q24.5 19.5 45 47q20.5 27.5 36 56.5q15.5 29 22.5 48l52 261h135l-79 -431zM405 763q8 2 26.5 1.5q18.5 -0.5 38.5 -3.5q20 -3 36.5 -8.5q16.5 -5.5 21.5 -11.5l0 -24l-201 -155l-40 22z" />
<glyph unicode="&#251;" horiz-adv-x="585" d="M546 69v-34q-10 -8 -26.5 -16q-16.5 -8 -36 -14q-19.5 -6 -41 -10q-21.5 -4 -42.5 -4q-36 0 -49.5 14.5q-13.5 14.5 -13.5 30.5q0 18 4 50q4 32 16 74l-4 0q-13 -24 -33 -54q-20 -30 -47 -56.5q-27 -26.5 -62 -44q-35 -17.5 -77 -17.5q-41 0 -66.5 24.5q-25.5 24.5 -25.5 69.5q0 22 6.5 63q6.5 41 16 89.5q9.5 48.5 21 100q11.5 51.5 20.5 94.5l-59 13v34q16 6 40 12q24 6 50 11q26 5 53 8.5q27 3.5 49 4.5l22 -12q-16 -75 -32.5 -142.5q-16.5 -67.5 -30.5 -142.5q-5 -24 -10.5 -53q-5.5 -29 -5.5 -58q0 -18 9.5 -27q9.5 -9 23.5 -9q25 0 49.5 19.5q24.5 19.5 45 47q20.5 27.5 36 56.5q15.5 29 22.5 48l52 261h135l-79 -431zM255 577l-42 25l160 186q3 3 10.5 4.5q7.5 1.5 15.5 1.5q17 0 26 -6l64 -185l-41 -26l-75 98z" />
<glyph unicode="&#252;" horiz-adv-x="585" d="M546 69v-34q-10 -8 -26.5 -16q-16.5 -8 -36 -14q-19.5 -6 -41 -10q-21.5 -4 -42.5 -4q-36 0 -49.5 14.5q-13.5 14.5 -13.5 30.5q0 18 4 50q4 32 16 74l-4 0q-13 -24 -33 -54q-20 -30 -47 -56.5q-27 -26.5 -62 -44q-35 -17.5 -77 -17.5q-41 0 -66.5 24.5q-25.5 24.5 -25.5 69.5q0 22 6.5 63q6.5 41 16 89.5q9.5 48.5 21 100q11.5 51.5 20.5 94.5l-59 13v34q16 6 40 12q24 6 50 11q26 5 53 8.5q27 3.5 49 4.5l22 -12q-16 -75 -32.5 -142.5q-16.5 -67.5 -30.5 -142.5q-5 -24 -10.5 -53q-5.5 -29 -5.5 -58q0 -18 9.5 -27q9.5 -9 23.5 -9q25 0 49.5 19.5q24.5 19.5 45 47q20.5 27.5 36 56.5q15.5 29 22.5 48l52 261h135l-79 -431zM169 659q0 32 20 51q20 19 53 19q32 0 52.5 -19q20.5 -19 20.5 -51q0 -30 -20.5 -49q-20.5 -19 -52.5 -19q-33 0 -53 19q-20 19 -20 49zt0 0zM388 659q0 32 20 51q20 19 52 19q33 0 53.5 -19q20.5 -19 20.5 -51q0 -30 -20.5 -49q-20.5 -19 -53.5 -19q-32 0 -52 19t-20 49z" />
<glyph unicode="&#253;" horiz-adv-x="487" d="M72 429l-64 8v34q5 4 20 10.5q15 6.5 35.5 13.5q20.5 7 43.5 12q23 5 45 5q27 0 42 -13q15 -13 20 -36l77 -303l5 -60h2l21 59q20 48 39 103.5q19 55.5 30 103.5q0 11 -3.5 30.5q-3.5 19.5 -7.5 40q-4 20.5 -8 38q-4 17.5 -6 23.5q14 6 35 9q21 3 42 3q21 0 39 -3q18 -3 29 -9q-26 -119 -79.5 -247q-53.5 -128 -123.5 -251q-58 -103 -115.5 -156q-57.5 -53 -132.5 -53q-21 0 -38.5 5.5q-17.5 5.5 -31.5 14.5q-3 14 2 33q5 19 14.5 37q9.5 18 22.5 33q13 15 27 20l75 -53q7 5 18 14.5q11 9.5 22 24q11 14.5 22 34.5q11 20 20 46zM376 763q8 2 26.5 1.5q18.5 -0.5 38.5 -3.5q20 -3 36.5 -8.5q16.5 -5.5 21.5 -11.5l0 -24l-201 -155l-40 22z" />
<glyph unicode="&#254;" horiz-adv-x="572" d="M135 -133q17 -3 35.5 -11.5q18.5 -8.5 31.5 -17.5l0 -38h-206l-13 13l181 865l-58 14v34q16 7 41 13.5q25 6.5 52 11.5q27 5 53 8q26 3 46 3l20 -12l-82 -388h4q16 31 36.5 58.5q20.5 27.5 44 48q23.5 20.5 51 32q27.5 11.5 58.5 11.5q51 0 84.5 -40q33.5 -40 33.5 -112q0 -81 -23 -149.5q-23 -68.5 -62.5 -118q-39.5 -49.5 -94 -77q-54.5 -27.5 -117.5 -27.5q-29 0 -47.5 4.5q-18.5 4.5 -38.5 15.5zM353 432q-21 0 -40.5 -15.5q-19.5 -15.5 -36.5 -38.5q-17 -23 -31 -50q-14 -27 -23 -49l-44 -217q13 -9 25.5 -13q12.5 -4 36.5 -4q34 0 64 27q30 27 52.5 70q22.5 43 35 97q12.5 54 12.5 107q0 42 -13 64t-38 22z" />
<glyph unicode="&#255;" horiz-adv-x="487" d="M72 429l-64 8v34q5 4 20 10.5q15 6.5 35.5 13.5q20.5 7 43.5 12q23 5 45 5q27 0 42 -13q15 -13 20 -36l77 -303l5 -60h2l21 59q20 48 39 103.5q19 55.5 30 103.5q0 11 -3.5 30.5q-3.5 19.5 -7.5 40q-4 20.5 -8 38q-4 17.5 -6 23.5q14 6 35 9q21 3 42 3q21 0 39 -3q18 -3 29 -9q-26 -119 -79.5 -247q-53.5 -128 -123.5 -251q-58 -103 -115.5 -156q-57.5 -53 -132.5 -53q-21 0 -38.5 5.5q-17.5 5.5 -31.5 14.5q-3 14 2 33q5 19 14.5 37q9.5 18 22.5 33q13 15 27 20l75 -53q7 5 18 14.5q11 9.5 22 24q11 14.5 22 34.5q11 20 20 46zM127 659q0 32 20 51q20 19 53 19q32 0 52.5 -19q20.5 -19 20.5 -51q0 -30 -20.5 -49q-20.5 -19 -52.5 -19q-33 0 -53 19q-20 19 -20 49zt0 0zM346 659q0 32 20 51q20 19 52 19q33 0 53.5 -19q20.5 -19 20.5 -51q0 -30 -20.5 -49q-20.5 -19 -53.5 -19q-32 0 -52 19t-20 49z" />
<glyph unicode="&#256;" horiz-adv-x="724" d="M205 0h-249l7 38q18 10 38 17.5q20 7.5 40 11.5l396 645h73l113 -645q19 -4 37.5 -12q18.5 -8 31.5 -17l-8 -38h-308l7 38q21 10 44.5 17.5q23.5 7.5 44.5 11.5l-24 159h-221l-95 -159q21 -3 42 -10.5q21 -7.5 38 -18.5zM261 291h179l-28 191v86h-2l-38 -88zM315 779l15 70h324l-15 -70z" />
<glyph unicode="&#257;" horiz-adv-x="563" d="M215 68q19 0 39.5 17q20.5 17 39 42.5q18.5 25.5 34 56q15.5 30.5 26.5 56.5l37 198q-12 8 -22.5 11.5q-10.5 3.5 -27.5 3.5q-40 0 -72 -26.5q-32 -26.5 -54 -69q-22 -42.5 -33.5 -95.5q-11.5 -53 -11.5 -106q0 -46 11 -67q11 -21 34 -21zt0 0zM339 159q-13 -32 -32.5 -62.5q-19.5 -30.5 -44.5 -54.5q-25 -24 -55 -39q-30 -15 -65 -15q-52 0 -83 38q-31 38 -31 113q0 78 21.5 145.5q21.5 67.5 61 118q39.5 50.5 95.5 79q56 28.5 125 28.5q26 0 44.5 -6q18.5 -6 39.5 -15q26 10 56 15q30 5 72 5l-84 -440h70v-34q-10 -8 -26.5 -16q-16.5 -8 -36 -14q-19.5 -6 -40 -10q-20.5 -4 -38.5 -4q-35 0 -50 15q-15 15 -15 31q0 18 5 47.5q5 29.5 15 74.5zM214 619l15 70h294l-15 -70z" />
<glyph unicode="&#258;" horiz-adv-x="724" d="M205 0h-249l7 38q18 10 38 17.5q20 7.5 40 11.5l396 645h73l113 -645q19 -4 37.5 -12q18.5 -8 31.5 -17l-8 -38h-308l7 38q21 10 44.5 17.5q23.5 7.5 44.5 11.5l-24 159h-221l-95 -159q21 -3 42 -10.5q21 -7.5 38 -18.5zM261 291h179l-28 191v86h-2l-38 -88zM623 897q7 1 20.5 -6q13.5 -7 20.5 -17q-10 -20 -30 -40.5q-20 -20.5 -46.5 -37q-26.5 -16.5 -57.5 -27q-31 -10.5 -62 -10.5q-67 0 -102 34.5q-35 34.5 -40 82.5q7 12 21.5 19q14.5 7 29.5 5q11 -22 36 -34.5q25 -12.5 60 -13.5q19 0 40 2.5q21 2.5 41 8.5q20 6 38 14.5t31 19.5z" />
<glyph unicode="&#259;" horiz-adv-x="563" d="M215 68q19 0 39.5 17q20.5 17 39 42.5q18.5 25.5 34 56q15.5 30.5 26.5 56.5l37 198q-12 8 -22.5 11.5q-10.5 3.5 -27.5 3.5q-40 0 -72 -26.5q-32 -26.5 -54 -69q-22 -42.5 -33.5 -95.5q-11.5 -53 -11.5 -106q0 -46 11 -67q11 -21 34 -21zt0 0zM339 159q-13 -32 -32.5 -62.5q-19.5 -30.5 -44.5 -54.5q-25 -24 -55 -39q-30 -15 -65 -15q-52 0 -83 38q-31 38 -31 113q0 78 21.5 145.5q21.5 67.5 61 118q39.5 50.5 95.5 79q56 28.5 125 28.5q26 0 44.5 -6q18.5 -6 39.5 -15q26 10 56 15q30 5 72 5l-84 -440h70v-34q-10 -8 -26.5 -16q-16.5 -8 -36 -14q-19.5 -6 -40 -10q-20.5 -4 -38.5 -4q-35 0 -50 15q-15 15 -15 31q0 18 5 47.5q5 29.5 15 74.5zM531 724q-11 -29 -29.5 -54.5q-18.5 -25.5 -42 -44.5q-23.5 -19 -50.5 -30q-27 -11 -55 -11q-59 0 -94 39.5q-35 39.5 -37 102.5l37 22q16 -26 40.5 -43q24.5 -17 56.5 -18q18 0 37.5 3q19.5 3 38 10q18.5 7 35.5 18q17 11 30 26z" />
</font>
</defs>
</svg>
