<?xml version="1.0" encoding="UTF-8" standalone="no"?>
<!-- Created with Inkscape (http://www.inkscape.org/) -->

<svg
   xmlns:dc="http://purl.org/dc/elements/1.1/"
   xmlns:cc="http://creativecommons.org/ns#"
   xmlns:rdf="http://www.w3.org/1999/02/22-rdf-syntax-ns#"
   xmlns:svg="http://www.w3.org/2000/svg"
   xmlns="http://www.w3.org/2000/svg"
   xmlns:sodipodi="http://sodipodi.sourceforge.net/DTD/sodipodi-0.dtd"
   xmlns:inkscape="http://www.inkscape.org/namespaces/inkscape"
   id="svg2985"
   version="1.1"
   inkscape:version="0.48.2 r9819"
   width="214.28"
   height="214.28"
   xml:space="preserve"
   sodipodi:docname="ietf-icon.svg"
   inkscape:export-filename="/Users/lars/Sites/ietfdb/static/img/ietf-icon.png"
   inkscape:export-xdpi="99.902405"
   inkscape:export-ydpi="99.902405"><metadata
     id="metadata2991"><rdf:RDF><cc:Work
         rdf:about=""><dc:format>image/svg+xml</dc:format><dc:type
           rdf:resource="http://purl.org/dc/dcmitype/StillImage" /><dc:title></dc:title></cc:Work></rdf:RDF></metadata><defs
     id="defs2989"><clipPath
       clipPathUnits="userSpaceOnUse"
       id="clipPath3001"><path
         d="m 0,0 5093,0 0,2700.96 -5093,0 L 0,0 z"
         id="path3003"
         inkscape:connector-curvature="0" /></clipPath></defs><sodipodi:namedview
     pagecolor="#ffffff"
     bordercolor="#666666"
     borderopacity="1"
     objecttolerance="10"
     gridtolerance="10"
     guidetolerance="10"
     inkscape:pageopacity="0"
     inkscape:pageshadow="2"
     inkscape:window-width="1816"
     inkscape:window-height="1301"
     id="namedview2987"
     showgrid="false"
     inkscape:zoom="4.4228919"
     inkscape:cx="58.23697"
     inkscape:cy="109.91482"
     inkscape:window-x="0"
     inkscape:window-y="0"
     inkscape:window-maximized="0"
     inkscape:current-layer="g2993"
     fit-margin-top="0"
     fit-margin-left="0"
     fit-margin-right="0"
     fit-margin-bottom="0" /><g
     id="g2993"
     inkscape:groupmode="layer"
     inkscape:label="ink_ext_XXXXXX"
     transform="matrix(1.25,0,0,-1.25,-202,363.61625)"><g
       id="g3073"
       transform="translate(-0.00115049,10.3985)"><path
         inkscape:export-ydpi="100"
         inkscape:export-xdpi="100"
         inkscape:export-filename="/Users/lars/Desktop/icon-dev.png"
         d="m 206.144,229.596 -34.608,-34.607 34.608,-34.609 34.608,34.609 -34.608,34.607"
         style="fill:#bdbcbc;fill-opacity:1;fill-rule:nonzero;stroke:none"
         id="path3011"
         inkscape:connector-curvature="0" /><path
         inkscape:export-ydpi="100"
         inkscape:export-xdpi="100"
         inkscape:export-filename="/Users/lars/Desktop/icon-dev.png"
         d="m 287.644,229.596 -34.608,-34.607 34.608,-34.609 34.608,34.609 -34.608,34.607"
         style="fill:#bdbcbc;fill-opacity:1;fill-rule:nonzero;stroke:none"
         id="path3013"
         inkscape:connector-curvature="0" /><path
         inkscape:export-ydpi="100"
         inkscape:export-xdpi="100"
         inkscape:export-filename="/Users/lars/Desktop/icon-dev.png"
         d="m 247.185,188.685 -34.608,-34.608 34.608,-34.608 34.608,34.608 -34.608,34.608"
         style="fill:#bdbcbc;fill-opacity:1;fill-rule:nonzero;stroke:none"
         id="path3019"
         inkscape:connector-curvature="0" /><path
         inkscape:export-ydpi="100"
         inkscape:export-xdpi="100"
         inkscape:export-filename="/Users/lars/Desktop/icon-dev.png"
         d="m 247.185,270.096 -34.608,-34.607 34.608,-34.609 34.608,34.609 -34.608,34.607"
         style="fill:#bdbcbc;fill-opacity:1;fill-rule:nonzero;stroke:none"
         id="path3025"
         inkscape:connector-curvature="0" /><g
         inkscape:export-ydpi="100"
         inkscape:export-xdpi="100"
         inkscape:export-filename="/Users/lars/Desktop/icon-dev.png"
         id="g3148"><g
           id="g3144"><path
             sodipodi:nodetypes="ccccccccccccccccccccc"
             d="m 165.92124,195.44182 -1.41218,1.53479 -0.69563,-1.35077 1.61157,4.68116 40.719,-40.719 81.835,81.836 40.918,-40.917 0.0768,-6.0624 -1.59541,0.57222 0.4733,0.51159 1.02319,-0.38103 1.76228,-0.5116 -1.87536,-0.68362 -0.28878,-4.89316 -40.705,40.705 -81.412,-81.412 -40.705,40.707 0.43382,6.0604 -1.17538,0.15238 -0.43559,0 -0.599,1.19323"
             style="fill:#fccf34;fill-opacity:1;fill-rule:nonzero;stroke:none"
             id="path3029"
             inkscape:connector-curvature="0" /><path
             sodipodi:nodetypes="ccccccccccccccccccccc"
             d="m 164.89805,195.44182 -0.90059,-0.5116 1.35076,0.18403 0.0768,5.19275 40.719,-40.719 81.835,81.836 40.918,-40.917 -0.43482,-4.5276 0.96258,0.0606 0.98489,-1.02319 -2.55798,-0.89264 1.25067,0 0.17103,0.33957 -0.80037,-5.40475 -40.705,40.705 -81.412,-81.412 -40.705,40.707 -0.58937,5.5488 -1.68698,-0.35921 2.12239,0.51159 z"
             style="fill:none;stroke:#0c0a08;stroke-width:1.5;stroke-linecap:butt;stroke-linejoin:miter;stroke-miterlimit:4;stroke-opacity:1;stroke-dasharray:none"
             id="path3031"
             inkscape:connector-curvature="0" /></g></g><path
         inkscape:export-ydpi="100"
         inkscape:export-xdpi="100"
         inkscape:export-filename="/Users/lars/Desktop/icon-dev.png"
         d="m 161.6,187.046 16.5367,0 0,15.2645 -16.5367,0 0,-15.2645 z"
         style="fill:#231f20;fill-opacity:1;fill-rule:nonzero;stroke:none"
         id="path3033"
         inkscape:connector-curvature="0" /><path
         inkscape:export-ydpi="100"
         inkscape:export-xdpi="100"
         inkscape:export-filename="/Users/lars/Desktop/icon-dev.png"
         d="m 316.49,187.046 16.5363,0 0,15.2645 -16.5363,0 0,-15.2645 z"
         style="fill:#231f20;fill-opacity:1;fill-rule:nonzero;stroke:none"
         id="path3035"
         inkscape:connector-curvature="0" /></g></g></svg>