<svg width="201.333" height="155.949" xmlns="http://www.w3.org/2000/svg"><path d="m131.984 101.1 16.918-16.918a1.998 1.998 0 0 0 0-2.828l-33.836-33.84a2 2 0 0 0-2.828 0l-33.84 33.84a2 2 0 0 0 0 2.828l33.84 33.836a2 2 0 0 0 2.828 0z" style="fill:#183f80;fill-opacity:1;fill-rule:nonzero;stroke:#000;stroke-width:1;stroke-linecap:round;stroke-linejoin:round;stroke-miterlimit:4;stroke-dasharray:none;stroke-opacity:1" transform="matrix(1.33333 0 0 -1.33333 -2.183 158.801)"/><path d="m95.316 101.1 16.922-16.918a1.998 1.998 0 0 0 0-2.828l-33.84-33.84a2 2 0 0 0-2.828 0l-33.84 33.84a2 2 0 0 0 0 2.828l33.84 33.836a2 2 0 0 0 2.828 0z" style="fill:#999;fill-opacity:1;fill-rule:nonzero;stroke:#000;stroke-width:1;stroke-linecap:round;stroke-linejoin:round;stroke-miterlimit:4;stroke-dasharray:none;stroke-opacity:1" transform="matrix(1.33333 0 0 -1.33333 -2.183 158.801)"/><path d="M58.652 101.1 75.57 84.182a1.998 1.998 0 0 0 0-2.828v0l-33.836-33.84a2 2 0 0 0-2.828 0v0l-33.84 33.84a2 2 0 0 0 0 2.828v0l33.84 33.836a2 2 0 0 0 2.828 0z" style="fill:#fff;fill-opacity:1;fill-rule:nonzero;stroke:#000;stroke-width:1;stroke-linecap:round;stroke-linejoin:round;stroke-miterlimit:4;stroke-dasharray:none;stroke-opacity:1" transform="matrix(1.33333 0 0 -1.33333 -2.183 158.801)"/><path d="m4.77 84.662-2.633-2.753 19.582-19.332L40.098 80.85l18.703-18.641 36.668 36.325 18.613-18.325 18.148 17.957 17.086-16.992 2.821 2.754-19.907 19.606s-18.195-17.864-18.195-18c0-.137-18.75 18.414-18.609 18.414.136 0-36.625-36.461-36.625-36.461l-18.61 18.414-18.382-17.906Z" style="fill:#ff0;fill-opacity:1;fill-rule:nonzero;stroke:#000;stroke-width:1;stroke-linecap:butt;stroke-linejoin:round;stroke-miterlimit:4;stroke-dasharray:none;stroke-opacity:1" transform="matrix(1.33333 0 0 -1.33333 -2.183 158.801)"/><path d="M109.223 32.963h18.414s6.508-.414 7.062-6.785c.555-6.367-5.539-7.336-5.539-7.336s7.617-.14 7.34-7.617c-.277-7.477-9-8.445-9-8.445l-3.047-.141h-15.371zm8.722-6.367v-5.402h5.125s2.629.832 2.629 2.91c0 2.074-2.769 2.492-2.769 2.492zm0-11.769v-5.68h5.953s2.911.832 2.911 2.91c0 2.074-3.047 2.77-3.047 2.77h-5.403z" style="fill:#183f80;fill-opacity:1;fill-rule:nonzero;stroke:#000;stroke-width:1;stroke-linecap:round;stroke-linejoin:round;stroke-miterlimit:4;stroke-dasharray:none;stroke-opacity:1" transform="matrix(1.33333 0 0 -1.33333 -2.183 158.801)"/><path d="M71.758 33.1h10.25L93.684 2.776h-9.825L82 7.756H71.48l-1.714-4.832-9.825.133Zm5.105-8.258-3.113-9.75h6.09zM27 33.1h8.527V2.776H27Z" style="fill:#183f80;fill-opacity:1;fill-rule:nonzero;stroke:#000;stroke-width:1;stroke-linecap:round;stroke-linejoin:miter;stroke-miterlimit:4;stroke-dasharray:none;stroke-opacity:1" transform="matrix(1.33333 0 0 -1.33333 -2.183 158.801)"/></svg>