<svg version="1.1" id="svg41" width="300" height="159.08" xmlns="http://www.w3.org/2000/svg"><defs id="defs11"><style id="style9">.cls-2{fill:#bbbcc1}.cls-3{fill:#221e1f}</style></defs><path id="path6" class="cls-2" d="M97.57 0h.07c6.78 6.78 13.59 13.52 20.36 20.36-3 3.11-6.15 6.16-9.21 9.24L97.68 40.69a.57.57 0 0 0-.34-.18c-.78-.68-1.48-1.46-2.22-2.18L77.3 20.52c-.17-.12 0-.28.08-.38q7.94-7.9 15.84-15.84c1.5-1.39 2.9-2.87 4.35-4.3z" style="fill:#bbbcc1"/><path id="path8" class="cls-2" d="M145.54 0h.06c4.84 4.72 9.59 9.52 14.4 14.33 1.91 1.93 3.88 3.8 5.74 5.78l-20.39 20.41a10.44 10.44 0 0 1-.77-.71c-6.39-6.34-12.72-12.73-19.1-19.07-.09-.12-.33-.27-.18-.44C132 13.52 138.81 6.77 145.54 0Z" style="fill:#bbbcc1"/><path id="path10" class="cls-2" d="M193.57 0h.07q8.63 8.64 17.27 17.26c1 1 2 1.92 2.9 3-6.69 6.69-13.4 13.36-20.06 20.08-1.65-1.54-3.19-3.18-4.8-4.75l-15.39-15.4a2.65 2.65 0 0 1 .77-.93z" style="fill:#bbbcc1"/><path id="path12" class="cls-2" d="M25.25 23.97c.14-.2.32 0 .44.11 4.33 4.37 8.72 8.7 13.08 13.06 1.4 1.44 2.87 2.8 4.23 4.28H9.75v-1.55h-.29a7 7 0 0 1 .82-.9z" style="fill:#bbbcc1"/><path id="path14" class="cls-2" d="M73.2 23.99c.12-.17.34-.09.45.05l20.09 20.09Q83.66 54.21 73.57 64.29 63.4 54.07 53.19 43.89l.28-.17q9.86-9.87 19.73-19.73Z" style="fill:#bbbcc1"/><path id="path16" class="cls-2" d="M120.75 24.52c.22-.2.39-.49.68-.59a3.06 3.06 0 0 1 .69.61l11.66 11.65c2.63 2.67 5.32 5.27 7.92 8q-10.14 10.14-20.28 20.27c-3.58-3.55-7.13-7.13-10.7-10.69-3.16-3.19-6.38-6.3-9.53-9.49a1 1 0 0 1 .25-.45c6.45-6.49 12.86-12.94 19.31-19.31z" style="fill:#bbbcc1"/><path id="path18" class="cls-2" d="M249.25 40.3c5.51-5.49 11-11 16.52-16.48l13.83 13.82c.72.76 1.52 1.45 2.2 2.25h-1.16v1.78h-32.66c.37-.5.83-.92 1.27-1.37z" style="fill:#bbbcc1"/><path id="path20" class="cls-2" d="M169.35 24.52c.12-.21.29 0 .39.1l19.82 19.9c-6.66 6.74-13.41 13.4-20.09 20.13a23.82 23.82 0 0 1-1.78-1.7l-15.48-15.54c-.94-1-2-1.86-2.83-2.89q9.99-10 19.97-20z" style="fill:#bbbcc1"/><path id="path22" class="cls-2" d="M211.48 30.37c2-2 4-4 6-5.93.62.5 1.14 1.13 1.72 1.68l18.35 18.4q-9.65 9.69-19.33 19.35a3.93 3.93 0 0 1-.87.76c-1.1-1.18-2.27-2.29-3.4-3.44-5.54-5.56-11.11-11.08-16.64-16.66 4.69-4.73 9.43-9.46 14.17-14.16z" style="fill:#bbbcc1"/><path id="path24" class="cls-2" d="M9.75 46.92H43a3.58 3.58 0 0 1-.47.56L29.32 60.7c-1.32 1.3-2.6 2.66-4 3.92-4.8-4.84-9.64-9.64-14.45-14.47a11.2 11.2 0 0 1-1.16-1.23c.06-.67.04-1.33.04-2z" style="fill:#bbbcc1"/><path id="path26" class="cls-2" d="M248.51 47.3h32.12v1.61h.73a8.79 8.79 0 0 1-1.1 1.18l-9.47 9.47c-1.7 1.67-3.34 3.41-5.09 5q-7.63-7.65-15.3-15.3a21.1 21.1 0 0 1-1.89-1.96z" style="fill:#bbbcc1"/><path id="path28" class="cls-2" d="m193.48 48.36.27-.29c2.73 2.76 5.52 5.46 8.26 8.21l12 12c-.88 1.07-2 1.94-2.94 2.94L198.7 83.6c-1.72 1.68-3.38 3.44-5.13 5.08q-7.57-7.55-15.18-15.16c-1.74-1.72-3.43-3.49-5.21-5.17.92-1.08 2-2 3-3 5.72-5.7 11.41-11.43 17.14-17.12z" style="fill:#bbbcc1"/><path id="path30" class="cls-2" d="M125.39 68.52q10.19-10.17 20.36-20.36c1 .82 1.83 1.8 2.76 2.68L166 68.31q-10.19 10.21-20.4 20.4c-1.86-1.79-3.65-3.65-5.48-5.45-4.91-4.92-9.83-9.82-14.73-14.74Z" style="fill:#bbbcc1"/><path id="path32" class="cls-2" d="m77.42 68.52 20.15-20.15 20.18 20.15q-8.43 8.46-16.89 16.9c-1.11 1.07-2.15 2.22-3.29 3.25-5.48-5.43-10.91-10.91-16.37-16.35-1.2-1.26-2.57-2.48-3.78-3.8Z" style="fill:#bbbcc1"/><path id="path35" class="cls-3" d="M169.58 16.22c1.36 1.28 2.65 2.64 4 3.94L189 35.52c1.61 1.57 3.15 3.21 4.8 4.75 6.66-6.72 13.37-13.39 20.06-20.08 1.26-1.24 2.49-2.51 3.76-3.74 8.4 8.39 16.79 16.81 25.22 25.17h37.82v-1.78h9.75v9h-9.73V47.3h-40.33c-.93-.93-1.86-1.87-2.8-2.8l-18.39-18.38c-.58-.55-1.1-1.18-1.72-1.68-2 1.95-4 4-6 5.93-4.74 4.7-9.44 9.43-14.17 14.14l-3.56 3.56-.27.29-.18-.16-3.7-3.68-19.82-19.88c-.1-.1-.27-.31-.39-.1l-20 20q-1.83 1.8-3.63 3.63-10.15 10.17-20.33 20.35c-1.29 1.27-2.55 2.56-3.84 3.82l-3.8-3.82-20.18-20.15-20.15 20.15c-1.25 1.22-2.46 2.48-3.72 3.69Q61.07 59.52 48.44 46.93H9.75v2H0v-9h8.34a5.76 5.76 0 0 0 1.1 0h.29c.05.52 0 1 0 1.55h41c.82.83 1.65 1.64 2.47 2.47q10.2 10.18 20.38 20.4 10.09-10.06 20.17-20.16c1.2-1.21 2.42-2.39 3.6-3.62a.57.57 0 0 1 .34.18c1.16 1.19 2.34 2.35 3.51 3.52 3.15 3.19 6.37 6.3 9.53 9.49 3.57 3.56 7.12 7.14 10.7 10.69l20.27-20.33 3.65-3.6 20.37-20.37c1.29-1.29 2.6-2.57 3.86-3.89m0 1.31c-1.76 1.84-3.59 3.6-5.38 5.42q-21.4 21.32-42.79 42.71l-24-24Q85.52 53.64 73.6 65.59c-2.47-2.41-4.88-4.88-7.33-7.31L53.48 45.52c-1.08-1.06-2.11-2.16-3.22-3.17H9.77v3.69h38.31c.27 0 .61-.1.83.1l24.81 24.78q11.86-11.9 23.76-23.76h.15l14.07 14.03c3.26 3.28 6.57 6.52 9.79 9.83a4.33 4.33 0 0 0 .75-.67q23.63-23.62 47.26-47.25l24 24c2.17-2.27 4.46-4.43 6.67-6.67l17.2-17.2c.33-.11.51.42.78.58q11.31 11.3 22.62 22.61h39.88v-3.9h-38.31c-7.58-7.65-15.24-15.22-22.85-22.83-.67-.63-1.27-1.35-2-1.93a9.69 9.69 0 0 1-.94 1c-7.59 7.62-15.22 15.2-22.79 22.82a2 2 0 0 1-.61-.5l-18.43-18.45c-1.72-1.69-3.39-3.44-5.15-5.11z" style="fill:#221e1f"/><path id="path37" class="cls-3" d="M289.31 128.3a5.54 5.54 0 0 1 10.69 1.38v1.19a5.55 5.55 0 0 1-10 2.65 5.52 5.52 0 0 1-.72-5.21m4.26-2.38a4.42 4.42 0 1 0 4.4 7 4.42 4.42 0 0 0-4.4-7z" style="fill:#221e1f"/><path id="path39" class="cls-3" d="M8.51 125.08h12v34h-12q.02-17.02 0-34z" style="fill:#221e1f"/><path id="path41" class="cls-3" d="M82.39 125.07h25.48v7.22H94.34v5.94h12.41v7.17h-12.4v6.45h13.76v7.17H82.39q-.01-16.96 0-33.95z" style="fill:#221e1f"/><path id="path43" class="cls-3" d="M166.5 125.08h33.19v8.56h-10.64v25.41h-11.91v-25.41h-10.63c-.01-2.86 0-5.71-.01-8.56z" style="fill:#221e1f"/><path id="path45" class="cls-3" d="M259.25 125.07h24.85v7.22h-12.89v6.1h12.13v7.21h-12.13v13.42h-11.96z" style="fill:#221e1f"/><path id="path47" class="cls-3" d="M292 127.3h3.08a1.63 1.63 0 0 1 1.63 2.2 1.54 1.54 0 0 1-1.51 1.02c.66.3 1 1 1.32 1.57.2.36.44.7.61 1.08h-1.51a7.69 7.69 0 0 0-1.39-2.19 1.43 1.43 0 0 0-1-.21v2.4a10.26 10.26 0 0 1-1.24 0v-5.88m1.25.95v1.56a5.58 5.58 0 0 0 1.87-.14.72.72 0 0 0 .07-1.25 5.39 5.39 0 0 0-1.95-.16z" style="fill:#221e1f"/><path id="path50" d="M169.57 17.52c1.76 1.66 3.43 3.41 5.15 5.1l18.45 18.46a2 2 0 0 0 .61.5c7.57-7.62 15.2-15.2 22.79-22.82a9.69 9.69 0 0 0 .94-1c.71.58 1.31 1.3 2 1.93 7.61 7.61 15.27 15.18 22.85 22.83h38.29v3.83h-39.88q-11.33-11.3-22.62-22.61c-.27-.16-.45-.69-.78-.58l-17.2 17.2c-2.21 2.24-4.5 4.4-6.67 6.67l-24-24q-23.66 23.61-47.26 47.25a4.33 4.33 0 0 1-.75.67c-3.22-3.31-6.53-6.55-9.79-9.83l-14.07-14h-.15Q85.6 59.03 73.72 70.92L48.89 46.1c-.22-.2-.56-.06-.83-.1H9.75v-3.69h40.49c1.11 1 2.14 2.11 3.22 3.17l12.81 12.8c2.45 2.43 4.86 4.9 7.33 7.31q11.93-11.94 23.86-23.85l24 24q21.43-21.34 42.78-42.75c1.76-1.86 3.57-3.62 5.33-5.47z" style="fill:#fdd34f"/></svg>