<?xml version="1.0" encoding="UTF-8" standalone="no"?>
<!DOCTYPE svg PUBLIC "-//W3C//DTD SVG 1.1//EN" "http://www.w3.org/Graphics/SVG/1.1/DTD/svg11.dtd">
<svg width="100%" height="100%" viewBox="0 0 2998 1593" version="1.1" xmlns="http://www.w3.org/2000/svg" xmlns:xlink="http://www.w3.org/1999/xlink" xml:space="preserve" xmlns:serif="http://www.serif.com/" style="fill-rule:evenodd;clip-rule:evenodd;stroke-linejoin:round;stroke-miterlimit:2;">
    <g>
        <path d="M252.354,240.246L48,444.6L252.354,648.954L456.708,444.6L252.354,240.246Z" style="fill:#bbbcc1;"/>
    </g>
    <g>
        <path d="M734.062,240.246L529.708,444.6L734.062,648.954L938.42,444.6L734.062,240.246Z" style="fill:#bbbcc1;"/>
    </g>
    <g>
        <path d="M974.8,480.6L770.45,684.954L974.8,889.31L1179.16,684.954L974.8,480.6Z" style="fill:#bbbcc1;"/>
    </g>
    <g>
        <path d="M1453.8,480.6L1249.45,684.954L1453.8,889.31L1658.16,684.954L1453.8,480.6Z" style="fill:#bbbcc1;"/>
    </g>
    <g>
        <path d="M1932.51,480.6L1728.16,684.954L1932.51,889.31L2136.87,684.954L1932.51,480.6Z" style="fill:#bbbcc1;"/>
    </g>
    <g>
        <path d="M973.8,0L769.45,204.354L973.8,408.708L1178.16,204.354L973.8,0Z" style="fill:#bbbcc1;"/>
    </g>
    <g>
        <path d="M1453.8,0L1249.45,204.354L1453.8,408.708L1658.16,204.354L1453.8,0Z" style="fill:#bbbcc1;"/>
    </g>
    <g>
        <path d="M1932.51,0L1728.16,204.354L1932.51,408.708L2136.87,204.354L1932.51,0Z" style="fill:#bbbcc1;"/>
    </g>
    <g>
        <path d="M1213.44,240.246L1009.09,444.6L1213.44,648.954L1417.79,444.6L1213.44,240.246Z" style="fill:#bbbcc1;"/>
    </g>
    <g>
        <path d="M1692.82,240.246L1488.47,444.6L1692.82,648.954L1897.17,444.6L1692.82,240.246Z" style="fill:#bbbcc1;"/>
    </g>
    <g>
        <path d="M2172.2,240.246L1967.85,444.6L2172.2,648.954L2376.55,444.6L2172.2,240.246Z" style="fill:#bbbcc1;"/>
    </g>
    <g>
        <path d="M2654.95,240.246L2450.6,444.6L2654.95,648.954L2859.31,444.6L2654.95,240.246Z" style="fill:#bbbcc1;"/>
    </g>
    <path d="M2810.89,425.85L2423.6,425.8L2172.2,174.091L1932.51,415.03L1693.16,175.351L1213.44,657.914L974.8,416.729L734.062,657.85L502.379,425.85L96,425.85L96,463.35L484.208,463.35L734.062,712.35L973.75,473.755L1213.44,712.302L1692.82,233.594L1932.51,473.991L2172.2,233.6L2402.58,463.3L2810.89,463.35L2810.89,425.85Z" style="fill:#fdd34f;"/>
    <path d="M2819.49,471.951L2399.02,471.9L2172.22,245.762L1932.51,486.172L1692.81,245.761L1213.45,724.446L973.75,485.889L734.058,724.488L480.654,471.95L87.4,471.95L87.4,417.25L505.945,417.25L734.061,645.679L974.83,404.529L1213.46,645.702L1693.14,163.167L1932.5,402.848L2172.19,161.91L2427.17,417.2L2819.49,417.251L2819.49,471.951ZM2810.89,425.85L2423.6,425.8L2172.2,174.091L1932.51,415.03L1693.16,175.351L1213.44,657.914L974.8,416.729L734.062,657.85L502.379,425.85L96,425.85L96,463.35L484.208,463.35L734.062,712.35L973.75,473.755L1213.44,712.302L1692.82,233.594L1932.51,473.991L2172.2,233.6L2402.58,463.3L2810.89,463.35L2810.89,425.85Z" style="fill:#221e1f;"/>
    <g>
        <rect x="0" y="396.6" width="96" height="96" style="fill:#221e1f;"/>
    </g>
    <g>
        <rect x="2810.89" y="396.6" width="96" height="96" style="fill:#221e1f;"/>
    </g>
    <path id="path37" d="M2891,1284.8C2899.14,1263.32 2919.83,1249.03 2942.81,1249.03C2971.01,1249.03 2994.93,1270.56 2997.9,1298.6L2997.9,1310.5C2994.76,1338.44 2970.86,1359.8 2942.75,1359.8C2925.03,1359.8 2908.34,1351.32 2897.9,1337C2886.86,1321.98 2884.15,1302.35 2890.7,1284.9M2933.3,1261.1C2912.76,1265.25 2897.86,1283.47 2897.86,1304.42C2897.86,1328.67 2917.81,1348.62 2942.06,1348.62C2955.89,1348.62 2968.95,1342.13 2977.3,1331.1C2983.11,1323.42 2986.26,1314.05 2986.26,1304.42C2986.26,1280.18 2966.31,1260.22 2942.06,1260.22C2939.12,1260.22 2936.18,1260.52 2933.3,1261.1Z" style="fill:#221e1f;fill-rule:nonzero;"/>
    <path id="path39" d="M83,1252.6L203,1252.6L203,1592.6L83,1592.6C83.133,1479.13 83.133,1365.8 83,1252.6Z" style="fill:#221e1f;fill-rule:nonzero;"/>
    <path id="path41" d="M821.8,1252.5L1076.6,1252.5L1076.6,1324.7L941.3,1324.7L941.3,1384.1L1065.4,1384.1L1065.4,1455.8L941.4,1455.8L941.4,1520.3L1079,1520.3L1079,1592L821.8,1592C821.73,1478.93 821.73,1365.77 821.8,1252.5Z" style="fill:#221e1f;fill-rule:nonzero;"/>
    <path id="path43" d="M1662.9,1252.6L1994.8,1252.6L1994.8,1338.2L1888.4,1338.2L1888.4,1592.3L1769.3,1592.3L1769.3,1338.2L1663,1338.2C1662.9,1309.6 1663,1281.1 1662.9,1252.6Z" style="fill:#221e1f;fill-rule:nonzero;"/>
    <path id="path45" d="M2590.4,1252.5L2838.9,1252.5L2838.9,1324.7L2710,1324.7L2710,1385.7L2831.3,1385.7L2831.3,1457.8L2710,1457.8L2710,1592L2590.4,1592L2590.4,1252.5Z" style="fill:#221e1f;fill-rule:nonzero;"/>
    <path id="path47" d="M2917.9,1274.8L2948.7,1274.8C2949.05,1274.78 2949.39,1274.77 2949.74,1274.77C2958.68,1274.77 2966.04,1282.12 2966.04,1291.07C2966.04,1293.03 2965.69,1294.97 2965,1296.8C2962.74,1303.12 2956.6,1307.26 2949.9,1307C2956.5,1310 2959.9,1317 2963.1,1322.7C2965.1,1326.3 2967.5,1329.7 2969.2,1333.5L2954.1,1333.5C2950.74,1325.47 2946.04,1318.06 2940.2,1311.6C2937.24,1309.69 2933.68,1308.94 2930.2,1309.5L2930.2,1333.5C2926.07,1333.75 2921.93,1333.75 2917.8,1333.5L2917.8,1274.7M2930.3,1284.2L2930.3,1299.8C2936.57,1300.39 2942.89,1299.92 2949,1298.4C2951.45,1297.19 2953,1294.68 2953,1291.95C2953,1289.51 2951.75,1287.22 2949.7,1285.9C2943.35,1284.18 2936.74,1283.64 2930.2,1284.3L2930.3,1284.2Z" style="fill:#221e1f;fill-rule:nonzero;"/>
</svg>
