<?xml version="1.0" encoding="UTF-8" standalone="no"?>
<svg
   viewBox="0 0 290.41 159.08"
   version="1.1"
   id="svg41"
   width="290.41"
   height="159.08"
   xmlns="http://www.w3.org/2000/svg"
   xmlns:svg="http://www.w3.org/2000/svg"
   xmlns:rdf="http://www.w3.org/1999/02/22-rdf-syntax-ns#"
   xmlns:cc="http://creativecommons.org/ns#"
   xmlns:dc="http://purl.org/dc/elements/1.1/">
  <defs
     id="defs11">
    <style
       id="style9">.cls-1{fill:none;}.cls-2{fill:#bbbcc1;}.cls-3{fill:#221e1f;}.cls-4{fill:#fdd34f;}</style>
  </defs>
  <title
     id="title13">IETF-Logo</title>
  <metadata
     id="metadata250">
    <rdf:RDF>
      <cc:Work
         rdf:about="">
        <dc:title>IETF-Logo</dc:title>
      </cc:Work>
    </rdf:RDF>
  </metadata>
  <path
     id="path6"
     class="cls-2"
     d="m 97.57,0 h 0.07 c 6.78,6.78 13.59,13.52 20.36,20.36 -3,3.11 -6.15,6.16 -9.21,9.24 L 97.68,40.69 A 0.57,0.57 0 0 0 97.34,40.51 C 96.56,39.83 95.86,39.05 95.12,38.33 L 77.3,20.52 c -0.17,-0.12 0,-0.28 0.08,-0.38 Q 85.32,12.24 93.22,4.3 c 1.5,-1.39 2.9,-2.87 4.35,-4.3 z"
     style="fill:#000000" />
  <path
     id="path8"
     class="cls-2"
     d="m 145.54,0 h 0.06 c 4.84,4.72 9.59,9.52 14.4,14.33 1.91,1.93 3.88,3.8 5.74,5.78 l -20.39,20.41 a 10.44,10.44 0 0 1 -0.77,-0.71 C 138.19,33.47 131.86,27.08 125.48,20.74 125.39,20.62 125.15,20.47 125.3,20.3 132,13.52 138.81,6.77 145.54,0 Z"
     style="fill:#000000" />
  <path
     id="path10"
     class="cls-2"
     d="m 193.57,0 h 0.07 q 8.63,8.64 17.27,17.26 c 1,1 2,1.92 2.9,3 -6.69,6.69 -13.4,13.36 -20.06,20.08 -1.65,-1.54 -3.19,-3.18 -4.8,-4.75 l -15.39,-15.4 a 2.65,2.65 0 0 1 0.77,-0.93 z"
     style="fill:#000000" />
  <path
     id="path12"
     class="cls-2"
     d="m 25.25,23.97 c 0.14,-0.2 0.32,0 0.44,0.11 4.33,4.37 8.72,8.7 13.08,13.06 1.4,1.44 2.87,2.8 4.23,4.28 H 9.75 c 0,-0.52 0,-1 0,-1.55 H 9.46 a 7,7 0 0 1 0.82,-0.9 z"
     style="fill:#000000" />
  <path
     id="path14"
     class="cls-2"
     d="m 73.2,23.99 c 0.12,-0.17 0.34,-0.09 0.45,0.05 q 10,10 20.09,20.09 Q 83.66,54.21 73.57,64.29 63.4,54.07 53.19,43.89 l 0.28,-0.17 Q 63.33,33.85 73.2,23.99 Z"
     style="fill:#000000" />
  <path
     id="path16"
     class="cls-2"
     d="m 120.75,24.52 c 0.22,-0.2 0.39,-0.49 0.68,-0.59 a 3.06,3.06 0 0 1 0.69,0.61 l 11.66,11.65 c 2.63,2.67 5.32,5.27 7.92,8 q -10.14,10.14 -20.28,20.27 c -3.58,-3.55 -7.13,-7.13 -10.7,-10.69 -3.16,-3.19 -6.38,-6.3 -9.53,-9.49 a 1,1 0 0 1 0.25,-0.45 c 6.45,-6.49 12.86,-12.94 19.31,-19.31 z"
     style="fill:#000000" />
  <path
     id="path18"
     class="cls-2"
     d="m 249.25,40.3 c 5.51,-5.49 11,-11 16.52,-16.48 l 13.83,13.82 c 0.72,0.76 1.52,1.45 2.2,2.25 -0.39,0 -0.78,0 -1.16,0 0,0.59 0,1.19 0,1.78 -10.88,0 -21.77,0 -32.66,0 0.37,-0.5 0.83,-0.92 1.27,-1.37 z"
     style="fill:#000000" />
  <path
     id="path20"
     class="cls-2"
     d="m 169.35,24.52 c 0.12,-0.21 0.29,0 0.39,0.1 l 19.82,19.9 c -6.66,6.74 -13.41,13.4 -20.09,20.13 a 23.82,23.82 0 0 1 -1.78,-1.7 L 152.21,47.41 c -0.94,-1 -2,-1.86 -2.83,-2.89 q 9.99,-10 19.97,-20 z"
     style="fill:#000000" />
  <path
     id="path22"
     class="cls-2"
     d="m 211.48,30.37 c 2,-2 4,-4 6,-5.93 0.62,0.5 1.14,1.13 1.72,1.68 l 18.35,18.4 q -9.65,9.69 -19.33,19.35 a 3.93,3.93 0 0 1 -0.87,0.76 c -1.1,-1.18 -2.27,-2.29 -3.4,-3.44 -5.54,-5.56 -11.11,-11.08 -16.64,-16.66 4.69,-4.73 9.43,-9.46 14.17,-14.16 z"
     style="fill:#000000" />
  <path
     id="path24"
     class="cls-2"
     d="M 9.75,46.92 H 43 a 3.58,3.58 0 0 1 -0.47,0.56 L 29.32,60.7 c -1.32,1.3 -2.6,2.66 -4,3.92 -4.8,-4.84 -9.64,-9.64 -14.45,-14.47 A 11.2,11.2 0 0 1 9.71,48.92 c 0.06,-0.67 0.04,-1.33 0.04,-2 z"
     style="fill:#000000" />
  <path
     id="path26"
     class="cls-2"
     d="m 248.51,47.3 h 32.12 v 1.61 h 0.73 a 8.79,8.79 0 0 1 -1.1,1.18 l -9.47,9.47 c -1.7,1.67 -3.34,3.41 -5.09,5 q -7.63,-7.65 -15.3,-15.3 a 21.1,21.1 0 0 1 -1.89,-1.96 z"
     style="fill:#000000" />
  <path
     id="path28"
     class="cls-2"
     d="m 193.48,48.36 0.27,-0.29 c 2.73,2.76 5.52,5.46 8.26,8.21 4,4 8,8 12,12 -0.88,1.07 -2,1.94 -2.94,2.94 L 198.7,83.600004 c -1.72,1.68 -3.38,3.44 -5.13,5.08 Q 186,81.13 178.39,73.52 c -1.74,-1.72 -3.43,-3.49 -5.21,-5.17 0.92,-1.08 2,-2 3,-3 5.72,-5.7 11.41,-11.43 17.14,-17.12 z"
     style="fill:#000000" />
  <path
     id="path30"
     class="cls-2"
     d="m 125.39,68.52 q 10.19,-10.17 20.36,-20.36 c 1,0.82 1.83,1.8 2.76,2.68 L 166,68.31 q -10.19,10.21 -20.4,20.400004 c -1.86,-1.79 -3.65,-3.65 -5.48,-5.45 C 135.21,78.34 130.29,73.44 125.39,68.52 Z"
     style="fill:#000000" />
  <path
     id="path32"
     class="cls-2"
     d="m 77.42,68.52 20.15,-20.15 20.18,20.15 q -8.43,8.46 -16.89,16.900004 c -1.11,1.07 -2.15,2.22 -3.29,3.25 C 92.09,83.240004 86.66,77.76 81.2,72.32 80,71.06 78.63,69.84 77.42,68.52 Z"
     style="fill:#000000" />
  <path
     id="path35"
     class="cls-3"
     d="m 169.58,16.22 c 1.36,1.28 2.65,2.64 4,3.94 L 189,35.52 c 1.61,1.57 3.15,3.21 4.8,4.75 6.66,-6.72 13.37,-13.39 20.06,-20.08 1.26,-1.24 2.49,-2.51 3.76,-3.74 8.4,8.39 16.79,16.81 25.22,25.17 1.72,0 3.44,0 5.16,0 10.89,0 21.78,0 32.66,0 0,-0.59 0,-1.19 0,-1.78 0.38,0 0.77,0 1.16,0 2.86,0 5.72,0 8.59,0 v 9 c -3,0 -6,0 -9,0 h -0.73 V 47.3 h -32.17 c -2.72,0 -5.44,0 -8.16,0 -0.93,-0.93 -1.86,-1.87 -2.8,-2.8 L 219.16,26.12 c -0.58,-0.55 -1.1,-1.18 -1.72,-1.68 -2,1.95 -4,4 -6,5.93 -4.74,4.7 -9.44,9.43 -14.17,14.14 l -3.56,3.56 -0.27,0.29 -0.18,-0.16 -3.7,-3.68 -19.82,-19.88 c -0.1,-0.1 -0.27,-0.31 -0.39,-0.1 q -10,10 -20,20 -1.83,1.8 -3.63,3.63 -10.15,10.17 -20.33,20.35 c -1.29,1.27 -2.55,2.56 -3.84,3.82 L 117.75,68.52 97.57,48.37 77.42,68.52 C 76.17,69.74 74.96,71 73.7,72.21 Q 61.07,59.52 48.44,46.93 c -1.81,0 -3.62,0 -5.43,0 H 9.75 c 0,0.67 0,1.33 0,2 -3.25,0 -6.5,0 -9.75,0 v -9 h 8.34 a 5.76,5.76 0 0 0 1.1,0 h 0.29 c 0.05,0.52 0,1 0,1.55 h 41 c 0.82,0.83 1.65,1.64 2.47,2.47 Q 63.4,54.13 73.58,64.35 83.67,54.29 93.75,44.19 c 1.2,-1.21 2.42,-2.39 3.6,-3.62 a 0.57,0.57 0 0 1 0.34,0.18 c 1.16,1.19 2.34,2.35 3.51,3.52 3.15,3.19 6.37,6.3 9.53,9.49 3.57,3.56 7.12,7.14 10.7,10.69 Q 131.57,54.28 141.7,44.12 l 3.65,-3.6 20.37,-20.37 c 1.29,-1.29 2.6,-2.57 3.86,-3.89 m 0,1.31 c -1.76,1.84 -3.59,3.6 -5.38,5.42 q -21.4,21.32 -42.79,42.71 -12,-12 -24,-24 Q 85.52,53.64 73.6,65.59 C 71.13,63.18 68.72,60.71 66.27,58.28 L 53.48,45.52 c -1.08,-1.06 -2.11,-2.16 -3.22,-3.17 -13.49,0 -27,0 -40.49,0 0,1.23 0,2.46 0,3.69 12.77,0 25.54,0 38.31,0 0.27,0 0.61,-0.1 0.83,0.1 L 73.72,70.92 Q 85.58,59.02 97.48,47.16 h 0.15 l 14.07,14.03 c 3.26,3.28 6.57,6.52 9.79,9.83 a 4.33,4.33 0 0 0 0.75,-0.67 Q 145.87,46.73 169.5,23.1 c 8,8 16,16 24,24 2.17,-2.27 4.46,-4.43 6.67,-6.67 l 17.2,-17.2 c 0.33,-0.11 0.51,0.42 0.78,0.58 q 11.31,11.3 22.62,22.61 19.94,0 39.88,0 v -3.9 H 242.34 C 234.76,34.87 227.1,27.3 219.49,19.69 c -0.67,-0.63 -1.27,-1.35 -2,-1.93 a 9.69,9.69 0 0 1 -0.94,1 c -7.59,7.62 -15.22,15.2 -22.79,22.82 a 2,2 0 0 1 -0.61,-0.5 L 174.72,22.63 c -1.72,-1.69 -3.39,-3.44 -5.15,-5.11 z"
     style="fill:#000000" />
  <path
     id="path39"
     class="cls-3"
     d="m 8.51,125.08 h 12 q 0,17 0,34 h -12 q 0.02,-17.02 0,-34 z"
     style="fill:#000000" />
  <path
     id="path41"
     class="cls-3"
     d="m 82.39,125.07 h 25.48 c 0,2.41 0,4.82 0,7.22 -4.51,0 -9,0 -13.53,0 0,2 0,4 0,5.94 4.14,0 8.27,0 12.41,0 v 7.17 h -12.4 c 0,2.15 0,4.3 0,6.45 4.59,0 9.18,0 13.76,0 0,2.39 0,4.78 0,7.17 H 82.39 q -0.01,-16.96 0,-33.95 z"
     style="fill:#000000" />
  <path
     id="path43"
     class="cls-3"
     d="m 166.5,125.08 h 33.19 c 0,2.86 0,5.71 0,8.56 h -10.64 q 0,12.7 0,25.41 h -11.91 c 0,-8.47 0,-16.94 0,-25.41 h -10.63 c -0.01,-2.86 0,-5.71 -0.01,-8.56 z"
     style="fill:#000000" />
  <path
     id="path45"
     class="cls-3"
     d="m 259.25,125.07 h 24.85 c 0,2.4 0,4.81 0,7.22 q -6.45,0 -12.89,0 0,3 0,6.1 h 12.13 v 7.21 c -4.05,0 -8.09,0 -12.13,0 0,4.47 0,9 0,13.42 h -11.96 z"
     style="fill:#000000" />
  <path
     id="path50"
     class="cls-4"
     d="m 169.57,17.52 c 1.76,1.66 3.43,3.41 5.15,5.1 l 18.45,18.46 a 2,2 0 0 0 0.61,0.5 c 7.57,-7.62 15.2,-15.2 22.79,-22.82 a 9.69,9.69 0 0 0 0.94,-1 c 0.71,0.58 1.31,1.3 2,1.93 7.61,7.61 15.27,15.18 22.85,22.83 h 38.29 v 3.83 q -19.94,0 -39.88,0 -11.33,-11.3 -22.62,-22.61 c -0.27,-0.16 -0.45,-0.69 -0.78,-0.58 l -17.2,17.2 c -2.21,2.24 -4.5,4.4 -6.67,6.67 -8,-8 -16,-16 -24,-24 q -23.66,23.61 -47.26,47.25 a 4.33,4.33 0 0 1 -0.75,0.67 c -3.22,-3.31 -6.53,-6.55 -9.79,-9.83 l -14.07,-14 H 97.48 Q 85.6,59.03 73.72,70.92 L 48.89,46.1 C 48.67,45.9 48.33,46.04 48.06,46 35.29,46 22.52,46 9.75,46 c 0,-1.23 0,-2.46 0,-3.69 13.5,0 27,0 40.49,0 1.11,1 2.14,2.11 3.22,3.17 l 12.81,12.8 c 2.45,2.43 4.86,4.9 7.33,7.31 q 11.93,-11.94 23.86,-23.85 12,12 24,24 21.43,-21.34 42.78,-42.75 c 1.76,-1.86 3.57,-3.62 5.33,-5.47 z"
     style="fill:#ffffff" />
</svg>
