<?xml version="1.0" encoding="UTF-8" standalone="no"?>
<svg
   width="627.284"
   height="449.19662"
   style="display:inline"
   version="1.1"
   id="svg303"
   sodipodi:docname="irtf-logo.svg"
   inkscape:version="1.2.2 (b0a84865, 2022-12-01)"
   xmlns:inkscape="http://www.inkscape.org/namespaces/inkscape"
   xmlns:sodipodi="http://sodipodi.sourceforge.net/DTD/sodipodi-0.dtd"
   xmlns="http://www.w3.org/2000/svg"
   xmlns:svg="http://www.w3.org/2000/svg">
  <defs
     id="defs307" />
  <sodipodi:namedview
     id="namedview305"
     pagecolor="#ffffff"
     bordercolor="#666666"
     borderopacity="1.0"
     inkscape:showpageshadow="2"
     inkscape:pageopacity="0.0"
     inkscape:pagecheckerboard="0"
     inkscape:deskcolor="#d1d1d1"
     showgrid="false"
     inkscape:zoom="1.0373737"
     inkscape:cx="303.65142"
     inkscape:cy="447.76535"
     inkscape:window-width="1797"
     inkscape:window-height="1083"
     inkscape:window-x="951"
     inkscape:window-y="417"
     inkscape:window-maximized="0"
     inkscape:current-layer="svg303" />
  <g
     style="display:inline"
     id="g301"
     transform="translate(-79.997,-54.868397)">
    <text
       xml:space="preserve"
       style="font-style:normal;font-variant:normal;font-weight:400;font-stretch:normal;line-height:0%;font-family:'Arial Black';-inkscape-font-specification:'Arial Black,';text-align:start;letter-spacing:0;word-spacing:0;writing-mode:lr-tb;text-anchor:start;fill:#fccf34;fill-opacity:1;stroke:#000000;stroke-width:1.908;stroke-miterlimit:4;stroke-dasharray:none;stroke-opacity:1"
       x="250.217"
       y="565.47302"
       transform="translate(0,-62.362)"
       id="text289"><tspan
         x="250.217"
         y="565.47302"
         style="font-size:102.5px;line-height:1.25;fill:#fccf34;fill-opacity:1"
         id="tspan287">R</tspan></text>
    <path
       style="fill:#bdbcbc;fill-opacity:1;fill-rule:nonzero;stroke:none"
       d="m 134.869,273.355 -44.033,44.031 44.033,44.034 44.032,-44.034 -44.032,-44.03 m 519.185,-10e-4 -44.032,44.031 44.032,44.034 44.031,-44.034 -44.03,-44.03 m -311.778,-10e-4 -44.032,44.031 44.032,44.034 44.032,-44.034 -44.032,-44.03 m 103.693,-10e-4 -44.032,44.031 44.032,44.034 44.032,-44.034 -44.032,-44.03 m 103.693,-10e-4 -44.032,44.031 44.032,44.034 44.033,-44.034 -44.033,-44.03 M 290.8,325.407 246.768,369.439 290.8,413.471 334.832,369.439 290.8,325.407 m -52.217,-52.052 -44.033,44.031 44.033,44.034 44.033,-44.034 -44.033,-44.03 m 155.911,52.051 -44.032,44.032 44.032,44.032 44.032,-44.032 -44.032,-44.032 m 103.693,0 -44.032,44.032 44.032,44.032 44.032,-44.032 -44.032,-44.032 M 290.8,221.827 246.768,265.857 290.8,309.891 334.832,265.858 290.8,221.827 m 103.694,0 -44.032,44.03 44.032,44.034 44.032,-44.033 -44.032,-44.031 m 103.693,0 -44.032,44.03 44.032,44.034 44.032,-44.033 -44.032,-44.031"
       transform="translate(0,-62.362)"
       id="path291" />
    <path
       style="fill:#fccf34;fill-opacity:1;fill-rule:nonzero;stroke:none"
       d="m 98.431,312.254 h 90.633 l 49.886,49.886 51.52,-51.52 51.807,51.807 104.12,-104.12 52.06,52.059 51.52,-51.52 53.948,53.949 H 692.4 v 10.248 h -92.79 l -49.903,-49.901 -51.79,51.79 -51.79,-51.79 -103.58,103.581 -51.79,-51.792 -51.52,51.522 -54.22,-54.22 H 97.89 l 0.54,-9.98"
       transform="translate(0,-62.362)"
       id="path293" />
    <path
       style="fill:none;stroke:#0c0a08;stroke-width:1.908;stroke-linecap:butt;stroke-linejoin:miter;stroke-miterlimit:4;stroke-dasharray:none;stroke-opacity:1"
       d="m 98.431,312.254 h 90.633 l 49.886,49.886 51.52,-51.52 51.807,51.807 104.12,-104.12 52.06,52.059 51.52,-51.52 53.948,53.949 H 692.4 v 10.248 h -92.79 l -49.903,-49.901 -51.79,51.79 -51.79,-51.79 -103.58,103.581 -51.79,-51.792 -51.52,51.522 -54.22,-54.22 H 97.89 l 0.54,-9.98 z"
       transform="translate(0,-62.362)"
       id="path295" />
    <path
       style="fill:#231f20;fill-opacity:1;fill-rule:nonzero;stroke:none"
       d="m 79.997,327.492 h 21.04 v -19.421 h -21.04 z m 606.244,0 h 21.04 v -19.421 h -21.04 z M 98.468,565.473 h 25.715 V 492.095 H 98.468 Z m 341.277,-54.979 v -18.399 h 71.55 v 18.399 h -22.919 v 54.979 h -25.714 v -54.98 h -22.917 m 200.334,-18.398 h 53.58 v 15.494 h -27.867 v 13.34 h 26.145 v 15.495 h -26.145 v 29.049 H 640.08 v -73.378"
       transform="translate(0,-62.362)"
       id="path297" />
    <path
       style="display:inline;fill:#ffffff;fill-opacity:1;stroke:#000000;stroke-width:1.908;stroke-miterlimit:4;stroke-dasharray:none;stroke-opacity:1"
       d="m 446.283,169.434 -29.062,29.06 29.062,29.062 29.06,-29.062 -29.06,-29.06 m -111.179,7.485 -29.061,29.06 29.06,29.062 29.062,-29.062 -29.061,-29.06 m -148.231,44.032 -29.061,29.06 29.061,29.063 29.061,-29.062 -29.061,-29.06 m 37.408,171.686 -29.061,29.06 29.061,29.063 29.061,-29.062 -29.06,-29.06 m 222.358,-14.971 -29.061,29.06 29.06,29.062 29.062,-29.062 -29.061,-29.06 m 155.211,-22.201 -29.061,29.06 29.061,29.062 29.061,-29.062 -29.061,-29.06 m -377.706,-171.283 -14.531,14.53 14.53,14.531 14.531,-14.53 -14.53,-14.531 m 52.217,-22.027 -14.53,14.53 14.53,14.531 14.53,-14.531 -14.53,-14.53 m 14.751,-44.252 -14.531,14.53 14.53,14.531 14.531,-14.53 -14.53,-14.531 m 74.192,29.501 -14.531,14.53 14.531,14.53 14.53,-14.53 -14.53,-14.53 m 118.444,-14.751 -14.531,14.53 14.53,14.531 14.532,-14.53 -14.531,-14.53 m 29.501,29.501 -14.53,14.53 14.53,14.531 14.53,-14.531 -14.53,-14.53 m 51.477,22.027 -14.531,14.53 14.53,14.531 14.531,-14.53 -14.53,-14.531 m -362.872,185.713 -14.531,14.53 14.53,14.531 14.531,-14.53 -14.53,-14.531 m 89.615,59.823 -14.531,14.53 14.531,14.53 14.53,-14.53 -14.53,-14.53 m 103.693,0 -14.53,14.53 14.53,14.53 14.53,-14.53 -14.53,-14.53 m 140.42,-37.302 -14.531,14.53 14.53,14.531 14.531,-14.53 -14.53,-14.53 m -36.726,37.301 -14.531,14.53 14.53,14.53 14.531,-14.53 -14.53,-14.53 m -140.94,-37.082 -29.06,29.06 29.06,29.063 29.062,-29.062 -29.062,-29.06 m 243.488,-171.688 -14.531,14.53 14.53,14.532 14.531,-14.531 -14.53,-14.53 m -28.713,-73.546 -14.531,14.53 14.53,14.53 14.531,-14.53 -14.53,-14.53"
       transform="translate(0,-62.362)"
       id="path299" />
  </g>
</svg>
