<svg width="765" height="990" style="display:inline" xmlns="http://www.w3.org/2000/svg"><g style="display:inline"><text xml:space="preserve" style="font-style:normal;font-variant:normal;font-weight:400;font-stretch:normal;line-height:0%;font-family:'Arial Black';-inkscape-font-specification:'Arial Black,';text-align:start;letter-spacing:0;word-spacing:0;writing-mode:lr-tb;text-anchor:start;fill:#fff;fill-opacity:1;stroke:#000;stroke-width:1.908;stroke-miterlimit:4;stroke-dasharray:none;stroke-opacity:1" x="250.217" y="565.473" transform="translate(0 -62.362)"><tspan x="250.217" y="565.473" style="font-size:102.5px;line-height:1.25">R</tspan></text><path style="fill:#bdbcbc;fill-opacity:1;fill-rule:nonzero;stroke:none" d="m134.869 273.355-44.033 44.031 44.033 44.034 44.032-44.034-44.032-44.03m519.185-.001-44.032 44.031 44.032 44.034 44.031-44.034-44.03-44.03m-311.778-.001-44.032 44.031 44.032 44.034 44.032-44.034-44.032-44.03m103.693-.001-44.032 44.031 44.032 44.034 44.032-44.034-44.032-44.03m103.693-.001-44.032 44.031 44.032 44.034 44.033-44.034-44.033-44.03M290.8 325.407l-44.032 44.032 44.032 44.032 44.032-44.032-44.032-44.032m-52.217-52.052-44.033 44.031 44.033 44.034 44.033-44.034-44.033-44.03m155.911 52.051-44.032 44.032 44.032 44.032 44.032-44.032-44.032-44.032m103.693 0-44.032 44.032 44.032 44.032 44.032-44.032-44.032-44.032M290.8 221.827l-44.032 44.03 44.032 44.034 44.032-44.033-44.032-44.031m103.694 0-44.032 44.03 44.032 44.034 44.032-44.033-44.032-44.031m103.693 0-44.032 44.03 44.032 44.034 44.032-44.033-44.032-44.031" transform="translate(0 -62.362)"/><path style="fill:#fccf34;fill-opacity:1;fill-rule:nonzero;stroke:none" d="M98.431 312.254h90.633l49.886 49.886 51.52-51.52 51.807 51.807 104.12-104.12 52.06 52.059 51.52-51.52 53.948 53.949H692.4v10.248h-92.79l-49.903-49.901-51.79 51.79-51.79-51.79-103.58 103.581-51.79-51.792-51.52 51.522-54.22-54.22H97.89l.54-9.98" transform="translate(0 -62.362)"/><path style="fill:none;stroke:#0c0a08;stroke-width:1.90799999;stroke-linecap:butt;stroke-linejoin:miter;stroke-miterlimit:4;stroke-opacity:1;stroke-dasharray:none" d="M98.431 312.254h90.633l49.886 49.886 51.52-51.52 51.807 51.807 104.12-104.12 52.06 52.059 51.52-51.52 53.948 53.949H692.4v10.248h-92.79l-49.903-49.901-51.79 51.79-51.79-51.79-103.58 103.581-51.79-51.792-51.52 51.522-54.22-54.22H97.89l.54-9.98z" transform="translate(0 -62.362)"/><path style="fill:#231f20;fill-opacity:1;fill-rule:nonzero;stroke:none" d="M79.997 327.492h21.04v-19.421h-21.04v19.421zm606.244 0h21.04v-19.421h-21.04v19.421zM98.468 565.473h25.715v-73.378H98.468v73.378zm341.277-54.979v-18.399h71.55v18.399h-22.919v54.979h-25.714v-54.98h-22.917m200.334-18.398h53.58v15.494h-27.867v13.34h26.145v15.495h-26.145v29.049H640.08v-73.378" transform="translate(0 -62.362)"/><path style="fill:#fff;fill-opacity:1;stroke:#000;stroke-width:1.90800011;stroke-miterlimit:4;stroke-opacity:1;stroke-dasharray:none;display:inline" d="m446.283 169.434-29.062 29.06 29.062 29.062 29.06-29.062-29.06-29.06m-111.179 7.485-29.061 29.06 29.06 29.062 29.062-29.062-29.061-29.06m-148.231 44.032-29.061 29.06 29.061 29.063 29.061-29.062-29.061-29.06m37.408 171.686-29.061 29.06 29.061 29.063 29.061-29.062-29.06-29.06m222.358-14.971-29.061 29.06 29.06 29.062 29.062-29.062-29.061-29.06m155.211-22.201-29.061 29.06 29.061 29.062 29.061-29.062-29.061-29.06M224.145 184.184l-14.531 14.53 14.53 14.531 14.531-14.53-14.53-14.531m52.217-22.027-14.53 14.53 14.53 14.531 14.53-14.531-14.53-14.53m14.751-44.252-14.531 14.53 14.53 14.531 14.531-14.53-14.53-14.531m74.192 29.501-14.531 14.53 14.531 14.53 14.53-14.53-14.53-14.53m118.444-14.751-14.531 14.53 14.53 14.531 14.532-14.53-14.531-14.53m29.501 29.501-14.53 14.53 14.53 14.531 14.53-14.531-14.53-14.53m51.477 22.027-14.531 14.53 14.53 14.531 14.531-14.53-14.53-14.531M201.855 369.897l-14.531 14.53 14.53 14.531 14.531-14.53-14.53-14.531m89.615 59.823-14.531 14.53 14.531 14.53L306 444.25l-14.53-14.53m103.693 0-14.53 14.53 14.53 14.53 14.53-14.53-14.53-14.53m140.42-37.302-14.531 14.53 14.53 14.531 14.531-14.53-14.53-14.53m-36.726 37.301-14.531 14.53 14.53 14.53 14.531-14.53-14.53-14.53m-140.94-37.082-29.06 29.06 29.06 29.063 29.062-29.062-29.062-29.06m243.488-171.688-14.531 14.53 14.53 14.532 14.531-14.531-14.53-14.53m-28.713-73.546-14.531 14.53 14.53 14.53 14.531-14.53-14.53-14.53" transform="translate(0 -62.362)"/></g></svg>